%TF.GenerationSoftware,KiCad,Pcbnew,8.0.1*%
%TF.CreationDate,2024-04-25T23:54:08-05:00*%
%TF.ProjectId,Final Projeco,46696e61-6c20-4507-926f-6a65636f2e6b,rev?*%
%TF.SameCoordinates,Original*%
%TF.FileFunction,Copper,L1,Top*%
%TF.FilePolarity,Positive*%
%FSLAX46Y46*%
G04 Gerber Fmt 4.6, Leading zero omitted, Abs format (unit mm)*
G04 Created by KiCad (PCBNEW 8.0.1) date 2024-04-25 23:54:08*
%MOMM*%
%LPD*%
G01*
G04 APERTURE LIST*
G04 Aperture macros list*
%AMRoundRect*
0 Rectangle with rounded corners*
0 $1 Rounding radius*
0 $2 $3 $4 $5 $6 $7 $8 $9 X,Y pos of 4 corners*
0 Add a 4 corners polygon primitive as box body*
4,1,4,$2,$3,$4,$5,$6,$7,$8,$9,$2,$3,0*
0 Add four circle primitives for the rounded corners*
1,1,$1+$1,$2,$3*
1,1,$1+$1,$4,$5*
1,1,$1+$1,$6,$7*
1,1,$1+$1,$8,$9*
0 Add four rect primitives between the rounded corners*
20,1,$1+$1,$2,$3,$4,$5,0*
20,1,$1+$1,$4,$5,$6,$7,0*
20,1,$1+$1,$6,$7,$8,$9,0*
20,1,$1+$1,$8,$9,$2,$3,0*%
%AMRotRect*
0 Rectangle, with rotation*
0 The origin of the aperture is its center*
0 $1 length*
0 $2 width*
0 $3 Rotation angle, in degrees counterclockwise*
0 Add horizontal line*
21,1,$1,$2,0,0,$3*%
%AMFreePoly0*
4,1,5,0.099975,0.075057,0.099975,-0.174956,-0.100025,-0.174956,-0.100025,0.275057,0.099975,0.075057,0.099975,0.075057,$1*%
%AMFreePoly1*
4,1,6,0.100025,-0.174956,-0.099975,-0.174956,-0.099975,0.075057,0.050013,0.225044,0.100025,0.225044,0.100025,-0.174956,0.100025,-0.174956,$1*%
%AMFreePoly2*
4,1,6,0.100025,-0.224841,0.050013,-0.224816,-0.100000,-0.074829,-0.099975,0.175184,0.100025,0.175184,0.100025,-0.224841,0.100025,-0.224841,$1*%
%AMFreePoly3*
4,1,6,0.100000,-0.075057,-0.050013,-0.225044,-0.100025,-0.225044,-0.100025,0.174956,0.099975,0.174956,0.100000,-0.075057,0.100000,-0.075057,$1*%
G04 Aperture macros list end*
%TA.AperFunction,SMDPad,CuDef*%
%ADD10RoundRect,0.050000X0.387500X0.050000X-0.387500X0.050000X-0.387500X-0.050000X0.387500X-0.050000X0*%
%TD*%
%TA.AperFunction,SMDPad,CuDef*%
%ADD11RoundRect,0.050000X0.050000X0.387500X-0.050000X0.387500X-0.050000X-0.387500X0.050000X-0.387500X0*%
%TD*%
%TA.AperFunction,SMDPad,CuDef*%
%ADD12R,5.600000X5.600000*%
%TD*%
%TA.AperFunction,SMDPad,CuDef*%
%ADD13RoundRect,0.140000X-0.140000X-0.170000X0.140000X-0.170000X0.140000X0.170000X-0.140000X0.170000X0*%
%TD*%
%TA.AperFunction,SMDPad,CuDef*%
%ADD14R,0.800000X0.800000*%
%TD*%
%TA.AperFunction,SMDPad,CuDef*%
%ADD15R,2.200000X1.100000*%
%TD*%
%TA.AperFunction,SMDPad,CuDef*%
%ADD16R,1.500000X1.100000*%
%TD*%
%TA.AperFunction,SMDPad,CuDef*%
%ADD17RoundRect,0.140000X0.140000X0.170000X-0.140000X0.170000X-0.140000X-0.170000X0.140000X-0.170000X0*%
%TD*%
%TA.AperFunction,SMDPad,CuDef*%
%ADD18RoundRect,0.140000X-0.170000X0.140000X-0.170000X-0.140000X0.170000X-0.140000X0.170000X0.140000X0*%
%TD*%
%TA.AperFunction,SMDPad,CuDef*%
%ADD19RoundRect,0.135000X0.135000X0.185000X-0.135000X0.185000X-0.135000X-0.185000X0.135000X-0.185000X0*%
%TD*%
%TA.AperFunction,SMDPad,CuDef*%
%ADD20RoundRect,0.135000X-0.135000X-0.185000X0.135000X-0.185000X0.135000X0.185000X-0.135000X0.185000X0*%
%TD*%
%TA.AperFunction,SMDPad,CuDef*%
%ADD21O,0.629997X1.864999*%
%TD*%
%TA.AperFunction,SMDPad,CuDef*%
%ADD22RoundRect,0.135000X-0.185000X0.135000X-0.185000X-0.135000X0.185000X-0.135000X0.185000X0.135000X0*%
%TD*%
%TA.AperFunction,ComponentPad*%
%ADD23O,1.000000X1.900000*%
%TD*%
%TA.AperFunction,ComponentPad*%
%ADD24O,1.000000X1.600000*%
%TD*%
%TA.AperFunction,SMDPad,CuDef*%
%ADD25R,0.600000X1.140005*%
%TD*%
%TA.AperFunction,SMDPad,CuDef*%
%ADD26R,0.300000X1.140005*%
%TD*%
%TA.AperFunction,SMDPad,CuDef*%
%ADD27R,0.775006X0.875006*%
%TD*%
%TA.AperFunction,SMDPad,CuDef*%
%ADD28R,0.750013X0.700000*%
%TD*%
%TA.AperFunction,SMDPad,CuDef*%
%ADD29RoundRect,0.135000X0.185000X-0.135000X0.185000X0.135000X-0.185000X0.135000X-0.185000X-0.135000X0*%
%TD*%
%TA.AperFunction,SMDPad,CuDef*%
%ADD30FreePoly0,90.000000*%
%TD*%
%TA.AperFunction,SMDPad,CuDef*%
%ADD31FreePoly1,90.000000*%
%TD*%
%TA.AperFunction,SMDPad,CuDef*%
%ADD32FreePoly2,90.000000*%
%TD*%
%TA.AperFunction,SMDPad,CuDef*%
%ADD33FreePoly3,90.000000*%
%TD*%
%TA.AperFunction,SMDPad,CuDef*%
%ADD34RotRect,0.450013X0.450013X135.000000*%
%TD*%
%TA.AperFunction,SMDPad,CuDef*%
%ADD35RoundRect,0.140000X0.170000X-0.140000X0.170000X0.140000X-0.170000X0.140000X-0.170000X-0.140000X0*%
%TD*%
%TA.AperFunction,ComponentPad*%
%ADD36R,1.600000X1.600000*%
%TD*%
%TA.AperFunction,ComponentPad*%
%ADD37C,1.600000*%
%TD*%
%TA.AperFunction,ViaPad*%
%ADD38C,0.560000*%
%TD*%
%TA.AperFunction,Conductor*%
%ADD39C,0.450000*%
%TD*%
%TA.AperFunction,Conductor*%
%ADD40C,0.200000*%
%TD*%
%TA.AperFunction,Conductor*%
%ADD41C,0.119400*%
%TD*%
%TA.AperFunction,Conductor*%
%ADD42C,0.150000*%
%TD*%
%TA.AperFunction,Conductor*%
%ADD43C,0.090000*%
%TD*%
%TA.AperFunction,Conductor*%
%ADD44C,0.500000*%
%TD*%
%TA.AperFunction,Conductor*%
%ADD45C,0.250000*%
%TD*%
G04 APERTURE END LIST*
D10*
%TO.P,U1,1,LNA_IN/RF*%
%TO.N,Net-(JP1-SIN)*%
X45597500Y-33672500D03*
%TO.P,U1,2,VDD3P3*%
%TO.N,VDD3P3*%
X45597500Y-33272500D03*
%TO.P,U1,3,VDD3P3*%
X45597500Y-32872500D03*
%TO.P,U1,4,CHIP_PU/RESET*%
%TO.N,/RESET*%
X45597500Y-32472500D03*
%TO.P,U1,5,GPIO0/BOOT*%
%TO.N,/GPIO0{slash}BOOT*%
X45597500Y-32072500D03*
%TO.P,U1,6,GPIO1/ADC1_CH0*%
%TO.N,/GPIO1*%
X45597500Y-31672500D03*
%TO.P,U1,7,GPIO2/ADC1_CH1*%
%TO.N,/GPIO2*%
X45597500Y-31272500D03*
%TO.P,U1,8,GPIO3/ADC1_CH2*%
%TO.N,/GPIO3*%
X45597500Y-30872500D03*
%TO.P,U1,9,GPIO4/ADC1_CH3*%
%TO.N,/GPIO4*%
X45597500Y-30472500D03*
%TO.P,U1,10,GPIO5/ADC1_CH4*%
%TO.N,/GPIO5*%
X45597500Y-30072500D03*
%TO.P,U1,11,GPIO6/ADC1_CH5*%
%TO.N,/GPIO6*%
X45597500Y-29672500D03*
%TO.P,U1,12,GPIO7/ADC1_CH6*%
%TO.N,/GPIO7*%
X45597500Y-29272500D03*
%TO.P,U1,13,GPIO8/ADC1_CH7*%
%TO.N,/GPIO8*%
X45597500Y-28872500D03*
%TO.P,U1,14,GPIO9/ADC1_CH8*%
%TO.N,/GPIO9*%
X45597500Y-28472500D03*
D11*
%TO.P,U1,15,GPIO10/ADC1_CH9*%
%TO.N,/GPIO10*%
X44760000Y-27635000D03*
%TO.P,U1,16,GPIO11/ADC2_CH0*%
%TO.N,/GPIO11*%
X44360000Y-27635000D03*
%TO.P,U1,17,GPIO12/ADC2_CH1*%
%TO.N,/GPIO12*%
X43960000Y-27635000D03*
%TO.P,U1,18,GPIO13/ADC2_CH2*%
%TO.N,/GPIO13*%
X43560000Y-27635000D03*
%TO.P,U1,19,GPIO14/ADC2_CH3*%
%TO.N,/GPIO14*%
X43160000Y-27635000D03*
%TO.P,U1,20,VDD3P3_RTC*%
%TO.N,VDD3P3*%
X42760000Y-27635000D03*
%TO.P,U1,21,GPIO15/ADC2_CH4/XTAL_32K_P*%
%TO.N,/GPIO15*%
X42360000Y-27635000D03*
%TO.P,U1,22,GPIO16/ADC2_CH5/XTAL_32K_N*%
%TO.N,/GPIO16*%
X41960000Y-27635000D03*
%TO.P,U1,23,GPIO17/ADC2_CH6*%
%TO.N,/GPIO17*%
X41560000Y-27635000D03*
%TO.P,U1,24,GPIO18/ADC2_CH7*%
%TO.N,/GPIO18*%
X41160000Y-27635000D03*
%TO.P,U1,25,GPIO19/USB_D-/ADC2_CH8*%
%TO.N,/USB_D+*%
X40760000Y-27635000D03*
%TO.P,U1,26,GPIO20/USB_D+/ADC2_CH9*%
%TO.N,/USB_D-*%
X40360000Y-27635000D03*
%TO.P,U1,27,GPIO21*%
%TO.N,/GPIO21*%
X39960000Y-27635000D03*
%TO.P,U1,28,SPI_CS1/GPIO26*%
%TO.N,/SPICS1*%
X39560000Y-27635000D03*
D10*
%TO.P,U1,29,VDD_SPI*%
%TO.N,VDD3P3*%
X38722500Y-28472500D03*
%TO.P,U1,30,SPIHD/GPIO27*%
%TO.N,/SPIHD*%
X38722500Y-28872500D03*
%TO.P,U1,31,SPIWP/GPIO28*%
%TO.N,/SPIWP*%
X38722500Y-29272500D03*
%TO.P,U1,32,SPICS0/GPIO29*%
%TO.N,unconnected-(U1-SPICS0{slash}GPIO29-Pad32)*%
X38722500Y-29672500D03*
%TO.P,U1,33,SPICLK/GPIO30*%
%TO.N,/SPICLK*%
X38722500Y-30072500D03*
%TO.P,U1,34,SPIQ/GPIO31*%
%TO.N,/SPIQ*%
X38722500Y-30472500D03*
%TO.P,U1,35,SPID/GPIO32*%
%TO.N,/SPID*%
X38722500Y-30872500D03*
%TO.P,U1,36,SPICLK_N/GPIO48*%
%TO.N,unconnected-(U1-SPICLK_N{slash}GPIO48-Pad36)*%
X38722500Y-31272500D03*
%TO.P,U1,37,SPICLK_P/GPIO47*%
%TO.N,/SPICLK_GPIO47*%
X38722500Y-31672500D03*
%TO.P,U1,38,GPIO33*%
%TO.N,/GPIO33*%
X38722500Y-32072500D03*
%TO.P,U1,39,GPIO34*%
%TO.N,/GPIO34*%
X38722500Y-32472500D03*
%TO.P,U1,40,GPIO35*%
%TO.N,/GPIO35*%
X38722500Y-32872500D03*
%TO.P,U1,41,GPIO36*%
%TO.N,/GPIO36*%
X38722500Y-33272500D03*
%TO.P,U1,42,GPIO37*%
%TO.N,/GPIO37*%
X38722500Y-33672500D03*
D11*
%TO.P,U1,43,GPIO38*%
%TO.N,/GPIO38*%
X39560000Y-34510000D03*
%TO.P,U1,44,MTCK/JTAG/GPIO39*%
%TO.N,unconnected-(U1-MTCK{slash}JTAG{slash}GPIO39-Pad44)*%
X39960000Y-34510000D03*
%TO.P,U1,45,MTDO/JTAG/GPIO40*%
%TO.N,unconnected-(U1-MTDO{slash}JTAG{slash}GPIO40-Pad45)*%
X40360000Y-34510000D03*
%TO.P,U1,46,VDD3P3_CPU*%
%TO.N,VDD3P3*%
X40760000Y-34510000D03*
%TO.P,U1,47,MTDI/JTAG/GPIO41*%
%TO.N,unconnected-(U1-MTDI{slash}JTAG{slash}GPIO41-Pad47)*%
X41160000Y-34510000D03*
%TO.P,U1,48,MTMS/JTAG/GPIO42*%
%TO.N,unconnected-(U1-MTMS{slash}JTAG{slash}GPIO42-Pad48)*%
X41560000Y-34510000D03*
%TO.P,U1,49,U0TXD/PROG/GPIO43*%
%TO.N,unconnected-(U1-U0TXD{slash}PROG{slash}GPIO43-Pad49)*%
X41960000Y-34510000D03*
%TO.P,U1,50,U0RXD/PROG/GPIO44*%
%TO.N,unconnected-(U1-U0RXD{slash}PROG{slash}GPIO44-Pad50)*%
X42360000Y-34510000D03*
%TO.P,U1,51,GPIO45*%
%TO.N,/GPIO45*%
X42760000Y-34510000D03*
%TO.P,U1,52,GPIO46*%
%TO.N,/GPIO46*%
X43160000Y-34510000D03*
%TO.P,U1,53,XTAL_N*%
%TO.N,/XTAL_P*%
X43560000Y-34510000D03*
%TO.P,U1,54,XTAL_P*%
%TO.N,/XTAL_N*%
X43960000Y-34510000D03*
%TO.P,U1,55,VDDA*%
%TO.N,VDD3P3*%
X44360000Y-34510000D03*
%TO.P,U1,56,VDDA*%
X44760000Y-34510000D03*
D12*
%TO.P,U1,57,GND*%
%TO.N,/GND_PIN*%
X42160000Y-31072500D03*
%TD*%
D13*
%TO.P,C2,1*%
%TO.N,/XTAL_N*%
X46000000Y-39500000D03*
%TO.P,C2,2*%
%TO.N,GND*%
X46960000Y-39500000D03*
%TD*%
D14*
%TO.P,D3,1,K*%
%TO.N,/USB_D-*%
X39999898Y-25000000D03*
%TO.P,D3,2,A*%
%TO.N,GND*%
X37600102Y-25000000D03*
%TD*%
D15*
%TO.P,JP1,1,GND*%
%TO.N,GND*%
X48749968Y-32177600D03*
D16*
%TO.P,JP1,2,SIN*%
%TO.N,Net-(JP1-SIN)*%
X47500032Y-33676457D03*
D15*
%TO.P,JP1,3,GND*%
%TO.N,GND*%
X48749968Y-35177600D03*
%TD*%
D17*
%TO.P,C5,1*%
%TO.N,VDD3P3*%
X49100000Y-19700000D03*
%TO.P,C5,2*%
%TO.N,GND*%
X48140000Y-19700000D03*
%TD*%
D18*
%TO.P,C10,1*%
%TO.N,/SPICLK_GPIO47*%
X35450000Y-35840000D03*
%TO.P,C10,2*%
%TO.N,GND*%
X35450000Y-36800000D03*
%TD*%
D13*
%TO.P,C6,1*%
%TO.N,/VBUS*%
X43400000Y-19700000D03*
%TO.P,C6,2*%
%TO.N,GND*%
X44360000Y-19700000D03*
%TD*%
D19*
%TO.P,R1,1*%
%TO.N,VDD3P3*%
X38000000Y-42600000D03*
%TO.P,R1,2*%
%TO.N,/RESET*%
X36980000Y-42600000D03*
%TD*%
D20*
%TO.P,R4,1*%
%TO.N,VDD3P3*%
X39700000Y-42600000D03*
%TO.P,R4,2*%
%TO.N,Net-(C7-Pad1)*%
X40720000Y-42600000D03*
%TD*%
D21*
%TO.P,U4,1,CE#*%
%TO.N,/SPICS1*%
X32499996Y-33499999D03*
%TO.P,U4,2,SO/SIO[1]*%
%TO.N,/SPIQ*%
X33769999Y-33499999D03*
%TO.P,U4,3,SIO[2]*%
%TO.N,/SPIWP*%
X35040001Y-33499999D03*
%TO.P,U4,4,VSS*%
%TO.N,GND*%
X36310004Y-33499999D03*
%TO.P,U4,5,SI/SIO[0]*%
%TO.N,/SPID*%
X36310004Y-28135001D03*
%TO.P,U4,6,SCLK*%
%TO.N,/SPICLK*%
X35040001Y-28135001D03*
%TO.P,U4,7,SIO[3]*%
%TO.N,/SPIHD*%
X33769999Y-28135001D03*
%TO.P,U4,8,VCC*%
%TO.N,Net-(U4-VCC)*%
X32499996Y-28135001D03*
%TD*%
D22*
%TO.P,R6,1*%
%TO.N,/SPICLK_GPIO47*%
X37430000Y-35830000D03*
%TO.P,R6,2*%
%TO.N,GND*%
X37430000Y-36850000D03*
%TD*%
D23*
%TO.P,U2,1,SHELL*%
%TO.N,GND*%
X42419941Y-21805131D03*
%TO.P,U2,2,SHELL*%
X33779859Y-21805131D03*
D24*
%TO.P,U2,3,SHELL*%
X33779859Y-17625044D03*
%TO.P,U2,4,SHELL*%
X42419941Y-17625044D03*
D25*
%TO.P,U2,A1B12,GND*%
X41300052Y-22375108D03*
%TO.P,U2,A4B9,VBUS*%
%TO.N,/VBUS*%
X40499951Y-22375108D03*
D26*
%TO.P,U2,A5,CC1*%
X39350091Y-22375108D03*
%TO.P,U2,A6,DP1*%
%TO.N,/USB_D+*%
X38350091Y-22375108D03*
%TO.P,U2,A7,DN1*%
%TO.N,/USB_D-*%
X37849964Y-22375108D03*
%TO.P,U2,A8,SBU1*%
%TO.N,unconnected-(U2-SBU1-PadA8)*%
X36849964Y-22375108D03*
D25*
%TO.P,U2,B1A12,GND*%
%TO.N,GND*%
X34900002Y-22375108D03*
%TO.P,U2,B4A9,VBUS*%
%TO.N,/VBUS*%
X35700103Y-22375108D03*
D26*
%TO.P,U2,B5,CC2*%
X36350091Y-22375108D03*
%TO.P,U2,B6,DP2*%
%TO.N,/USB_D+*%
X37350091Y-22375108D03*
%TO.P,U2,B7,DN2*%
%TO.N,/USB_D-*%
X38849964Y-22375108D03*
%TO.P,U2,B8,SBU2*%
%TO.N,unconnected-(U2-SBU2-PadB8)*%
X39849964Y-22375108D03*
%TD*%
D27*
%TO.P,X1,1,1*%
%TO.N,/XTAL_P*%
X43524165Y-37999951D03*
%TO.P,X1,2,GND*%
%TO.N,GND*%
X43524165Y-39276049D03*
%TO.P,X1,3,3*%
%TO.N,/XTAL_N*%
X44500035Y-39276049D03*
%TO.P,X1,4,GND*%
%TO.N,GND*%
X44500035Y-37999951D03*
%TD*%
D28*
%TO.P,U6,1,1*%
%TO.N,unconnected-(U6-Pad1)*%
X38649943Y-48900000D03*
%TO.P,U6,2,2*%
%TO.N,Net-(C7-Pad1)*%
X38649943Y-52099898D03*
%TO.P,U6,3,3*%
%TO.N,/GPIO0{slash}BOOT*%
X36999956Y-48900000D03*
%TO.P,U6,4,4*%
%TO.N,unconnected-(U6-Pad4)*%
X36999956Y-52099898D03*
%TD*%
D13*
%TO.P,C3,1*%
%TO.N,/RESET*%
X37640000Y-38000000D03*
%TO.P,C3,2*%
%TO.N,GND*%
X38600000Y-38000000D03*
%TD*%
%TO.P,C4,1*%
%TO.N,/GND_PIN*%
X46770000Y-27810000D03*
%TO.P,C4,2*%
%TO.N,GND*%
X47730000Y-27810000D03*
%TD*%
%TO.P,C8,1*%
%TO.N,Net-(U4-VCC)*%
X32840000Y-41600000D03*
%TO.P,C8,2*%
%TO.N,GND*%
X33800000Y-41600000D03*
%TD*%
D29*
%TO.P,R5,1*%
%TO.N,Net-(U4-VCC)*%
X32600000Y-36720000D03*
%TO.P,R5,2*%
%TO.N,/SPICS1*%
X32600000Y-35700000D03*
%TD*%
D30*
%TO.P,U3,1,OUT*%
%TO.N,VDD3P3*%
X49175235Y-17825121D03*
D31*
%TO.P,U3,2,GND*%
%TO.N,GND*%
X49175235Y-17174879D03*
D32*
%TO.P,U3,3,EN*%
%TO.N,/VBUS*%
X48225019Y-17174879D03*
D33*
%TO.P,U3,4,IN*%
X48224765Y-17825121D03*
D34*
%TO.P,U3,5,EPAD*%
%TO.N,GND*%
X48700000Y-17500000D03*
%TD*%
D13*
%TO.P,C9,1*%
%TO.N,Net-(U4-VCC)*%
X32840000Y-40000000D03*
%TO.P,C9,2*%
%TO.N,GND*%
X33800000Y-40000000D03*
%TD*%
D14*
%TO.P,D1,1,K*%
%TO.N,/VBUS*%
X35999998Y-24500000D03*
%TO.P,D1,2,A*%
%TO.N,GND*%
X33600202Y-24500000D03*
%TD*%
%TO.P,D2,1,K*%
%TO.N,/USB_D+*%
X41100102Y-25000000D03*
%TO.P,D2,2,A*%
%TO.N,GND*%
X43499898Y-25000000D03*
%TD*%
D13*
%TO.P,C1,1*%
%TO.N,GND*%
X40000000Y-38000000D03*
%TO.P,C1,2*%
%TO.N,/XTAL_P*%
X40960000Y-38000000D03*
%TD*%
D22*
%TO.P,R2,1*%
%TO.N,/VBUS*%
X45200000Y-21000000D03*
%TO.P,R2,2*%
%TO.N,GND*%
X45200000Y-22020000D03*
%TD*%
D35*
%TO.P,C7,1*%
%TO.N,Net-(C7-Pad1)*%
X41600000Y-52060000D03*
%TO.P,C7,2*%
%TO.N,GND*%
X41600000Y-51100000D03*
%TD*%
D36*
%TO.P,U7,1,1*%
%TO.N,/GPIO12*%
X27209997Y-18049962D03*
D37*
%TO.P,U7,2,2*%
%TO.N,GND*%
X29750003Y-18049962D03*
%TO.P,U7,3,3*%
%TO.N,/GPIO13*%
X27209997Y-20589967D03*
%TO.P,U7,4,4*%
%TO.N,VDD3P3*%
X29750003Y-20589967D03*
%TO.P,U7,5,5*%
%TO.N,/GPIO14*%
X27209997Y-23129972D03*
%TO.P,U7,6,6*%
%TO.N,/GPIO0{slash}BOOT*%
X29750003Y-23129972D03*
%TO.P,U7,7,7*%
%TO.N,/GPIO15*%
X27209997Y-25669977D03*
%TO.P,U7,8,8*%
%TO.N,/GPIO1*%
X29750003Y-25669977D03*
%TO.P,U7,9,9*%
%TO.N,/GPIO16*%
X27209997Y-28209982D03*
%TO.P,U7,10,10*%
%TO.N,/GPIO2*%
X29750003Y-28209982D03*
%TO.P,U7,11,11*%
%TO.N,/GPIO17*%
X27209997Y-30749987D03*
%TO.P,U7,12,12*%
%TO.N,/GPIO3*%
X29750003Y-30749987D03*
%TO.P,U7,13,13*%
%TO.N,/GPIO18*%
X27209997Y-33289992D03*
%TO.P,U7,14,14*%
%TO.N,/GPIO4*%
X29750003Y-33289992D03*
%TO.P,U7,15,15*%
%TO.N,/GPIO21*%
X27209997Y-35829997D03*
%TO.P,U7,16,16*%
%TO.N,/GPIO5*%
X29750003Y-35829997D03*
%TO.P,U7,17,17*%
%TO.N,/GPIO38*%
X27209997Y-38370003D03*
%TO.P,U7,18,18*%
%TO.N,/GPIO6*%
X29750003Y-38370003D03*
%TO.P,U7,19,19*%
%TO.N,/GPIO45*%
X27209997Y-40910008D03*
%TO.P,U7,20,20*%
%TO.N,/GPIO7*%
X29750003Y-40910008D03*
%TO.P,U7,21,21*%
%TO.N,/GPIO46*%
X27209997Y-43450013D03*
%TO.P,U7,22,22*%
%TO.N,/GPIO8*%
X29750003Y-43450013D03*
%TO.P,U7,23,23*%
%TO.N,/GPIO33*%
X27209997Y-45990018D03*
%TO.P,U7,24,24*%
%TO.N,/GPIO9*%
X29750003Y-45990018D03*
%TO.P,U7,25,25*%
%TO.N,/GPIO34*%
X27209997Y-48530023D03*
%TO.P,U7,26,26*%
%TO.N,/GPIO10*%
X29750003Y-48530023D03*
%TO.P,U7,27,27*%
%TO.N,/GPIO35*%
X27209997Y-51070028D03*
%TO.P,U7,28,28*%
%TO.N,/GPIO11*%
X29750003Y-51070028D03*
%TO.P,U7,29,29*%
%TO.N,/GPIO36*%
X27209997Y-53610033D03*
%TO.P,U7,30,30*%
%TO.N,VDD3P3*%
X29750003Y-53610033D03*
%TO.P,U7,31,31*%
%TO.N,/GPIO37*%
X27209997Y-56150038D03*
%TO.P,U7,32,32*%
%TO.N,GND*%
X29750003Y-56150038D03*
%TD*%
D28*
%TO.P,U5,1,1*%
%TO.N,unconnected-(U5-Pad1)*%
X36999957Y-47099900D03*
%TO.P,U5,2,2*%
%TO.N,/RESET*%
X36999957Y-43900002D03*
%TO.P,U5,3,3*%
%TO.N,GND*%
X38649944Y-47099900D03*
%TO.P,U5,4,4*%
%TO.N,unconnected-(U5-Pad4)*%
X38649944Y-43900002D03*
%TD*%
D22*
%TO.P,R3,1*%
%TO.N,/VBUS*%
X47000000Y-21000000D03*
%TO.P,R3,2*%
%TO.N,GND*%
X47000000Y-22020000D03*
%TD*%
D38*
%TO.N,GND*%
X39300000Y-38800000D03*
X44400000Y-25000000D03*
X45200000Y-19700000D03*
X47100000Y-38600000D03*
X41900000Y-40000000D03*
X46200000Y-22020000D03*
X32870000Y-24500000D03*
X39500000Y-47400000D03*
X49900000Y-17200000D03*
X48630000Y-28010000D03*
X37050000Y-23870000D03*
X35730000Y-34820000D03*
X36570000Y-36850000D03*
X42000000Y-23300000D03*
X47840000Y-18790000D03*
X48700000Y-31100000D03*
X34000000Y-42500000D03*
X48700000Y-36300000D03*
X44063800Y-36500000D03*
X41800000Y-50200000D03*
%TO.N,VDD3P3*%
X38900000Y-42000000D03*
X50000000Y-19300000D03*
X46950000Y-36050000D03*
X43840000Y-26110000D03*
X46700000Y-32600000D03*
X49800000Y-18500000D03*
X37700000Y-27140000D03*
X40200000Y-36600000D03*
%TO.N,/GPIO4*%
X48430000Y-22910000D03*
%TO.N,/GPIO1*%
X50220000Y-26240000D03*
%TO.N,/GPIO3*%
X47970000Y-22200000D03*
%TO.N,/GPIO2*%
X49910000Y-25100000D03*
%TO.N,/RESET*%
X49670000Y-30980000D03*
X38330000Y-37120000D03*
%TO.N,/USB_D+*%
X38350100Y-23250100D03*
X39500100Y-23400000D03*
%TO.N,/SPICS1*%
X38881400Y-27642300D03*
X33621800Y-31918200D03*
%TO.N,/GPIO8*%
X34555000Y-45855000D03*
X46447700Y-28981100D03*
%TO.N,/GPIO13*%
X47730000Y-25000000D03*
%TO.N,/GPIO5*%
X48260000Y-24290000D03*
%TO.N,/SPID*%
X36320000Y-26530000D03*
X37750000Y-31117600D03*
%TO.N,Net-(U4-VCC)*%
X32320000Y-37620000D03*
X31620000Y-28440000D03*
X31433800Y-38481600D03*
%TO.N,/GPIO7*%
X49100600Y-28477100D03*
X32110000Y-42600000D03*
%TO.N,/GPIO6*%
X47396700Y-29303000D03*
%TO.N,/GPIO38*%
X41470000Y-35600000D03*
X31130900Y-37820600D03*
X39910000Y-35450000D03*
X36420000Y-40670000D03*
%TO.N,/GPIO11*%
X46190000Y-26350000D03*
%TO.N,/GPIO18*%
X31440000Y-34890000D03*
X41460000Y-26310000D03*
%TO.N,/GPIO14*%
X43760000Y-23290000D03*
%TO.N,/GPIO12*%
X47650000Y-25950000D03*
%TO.N,/GPIO10*%
X33250000Y-47000000D03*
X46910000Y-26810000D03*
%TO.N,/SPICLK_GPIO47*%
X38440000Y-36230000D03*
X37348800Y-31948800D03*
%TO.N,/GPIO0{slash}BOOT*%
X28440000Y-34870000D03*
X40070000Y-48560000D03*
X41420000Y-47930000D03*
%TO.N,/GPIO46*%
X42310000Y-37300000D03*
X34320000Y-46860000D03*
%TO.N,/SPIWP*%
X37580000Y-29370000D03*
X34530000Y-34980000D03*
%TO.N,/GPIO9*%
X48002700Y-26954100D03*
%TO.N,/GPIO17*%
X41291300Y-24081700D03*
X26510000Y-24430000D03*
%TO.N,/GPIO33*%
X37100000Y-32940000D03*
%TO.N,/GPIO16*%
X42089800Y-24511200D03*
X33680000Y-25740000D03*
%TO.N,/GPIO15*%
X42516500Y-26346100D03*
%TO.N,/GPIO35*%
X37810000Y-34920000D03*
%TO.N,/GPIO34*%
X36975000Y-34975000D03*
X32520000Y-47910000D03*
%TO.N,/GPIO37*%
X33820000Y-52560000D03*
X38994900Y-35560000D03*
%TO.N,/GPIO36*%
X33880000Y-54150000D03*
X37885000Y-34100000D03*
%TD*%
D39*
%TO.N,GND*%
X49175200Y-17174900D02*
X49025100Y-17174900D01*
X41850000Y-22375100D02*
X41850000Y-23150000D01*
X33800000Y-40000000D02*
X33800000Y-41600000D01*
X43499900Y-25000000D02*
X44400000Y-25000000D01*
X48430000Y-27810000D02*
X48630000Y-28010000D01*
X48750000Y-31743900D02*
X48750000Y-32177600D01*
X44360000Y-19700000D02*
X45200000Y-19700000D01*
X49874900Y-17174900D02*
X49900000Y-17200000D01*
X48749900Y-31743800D02*
X48749900Y-31149900D01*
X41300100Y-22375100D02*
X41300000Y-22375100D01*
X48749900Y-35713800D02*
X48749900Y-36250100D01*
X48749900Y-35177600D02*
X48749900Y-35713800D01*
X49025100Y-17174900D02*
X48700000Y-17500000D01*
X41850000Y-23150000D02*
X42000000Y-23300000D01*
X46200000Y-22020000D02*
X47000000Y-22020000D01*
X38650000Y-47099900D02*
X39199900Y-47099900D01*
X34900000Y-22375100D02*
X34349900Y-22375100D01*
X47730000Y-27810000D02*
X48430000Y-27810000D01*
X41300100Y-22375100D02*
X41850000Y-22375100D01*
X48749900Y-36250100D02*
X48700000Y-36300000D01*
X32870000Y-24500000D02*
X33600200Y-24500000D01*
X45200000Y-22020000D02*
X46200000Y-22020000D01*
X37430000Y-36850000D02*
X36570000Y-36850000D01*
X36570000Y-36850000D02*
X35500000Y-36850000D01*
X37600100Y-24420100D02*
X37600100Y-25000000D01*
X34349900Y-22375100D02*
X33779900Y-21805100D01*
X41850000Y-22375100D02*
X42420000Y-21805100D01*
X39300000Y-38000000D02*
X39300000Y-38800000D01*
X43524100Y-39276100D02*
X43524200Y-39276000D01*
X33800000Y-42300000D02*
X34000000Y-42500000D01*
X36310000Y-34240000D02*
X36310000Y-33500000D01*
X44500000Y-36936200D02*
X44063800Y-36500000D01*
X37050000Y-23870000D02*
X37600100Y-24420100D01*
X42623900Y-39276100D02*
X43524100Y-39276100D01*
X48749900Y-31149900D02*
X48700000Y-31100000D01*
X39199900Y-47099900D02*
X39500000Y-47400000D01*
X48749900Y-35713800D02*
X48750000Y-35713700D01*
X46960000Y-38740000D02*
X47100000Y-38600000D01*
X40000000Y-38000000D02*
X39300000Y-38000000D01*
X48749900Y-31743800D02*
X48750000Y-31743900D01*
X47840000Y-18790000D02*
X48140000Y-19090000D01*
X41600000Y-50400000D02*
X41800000Y-50200000D01*
X46960000Y-39500000D02*
X46960000Y-38740000D01*
X44500000Y-38000000D02*
X44500000Y-36936200D01*
X48140000Y-19090000D02*
X48140000Y-19700000D01*
X41900000Y-40000000D02*
X42623900Y-39276100D01*
X35730000Y-34820000D02*
X36310000Y-34240000D01*
X48750000Y-35713700D02*
X48750000Y-35177600D01*
X49175200Y-17174900D02*
X49874900Y-17174900D01*
X39300000Y-38000000D02*
X38600000Y-38000000D01*
X35500000Y-36850000D02*
X35450000Y-36800000D01*
X38650000Y-47099900D02*
X38649900Y-47099900D01*
X41600000Y-51100000D02*
X41600000Y-50400000D01*
X48749900Y-32177600D02*
X48749900Y-31743800D01*
X34900100Y-22375100D02*
X34900000Y-22375100D01*
X33800000Y-41600000D02*
X33800000Y-42300000D01*
D40*
%TO.N,VDD3P3*%
X37700000Y-27450000D02*
X38722500Y-28472500D01*
X42760000Y-27190000D02*
X42760000Y-27635000D01*
X39700000Y-42600000D02*
X38800000Y-42600000D01*
X44760000Y-34510000D02*
X44360000Y-34510000D01*
X49100000Y-19700000D02*
X49600000Y-19700000D01*
X49175200Y-17825100D02*
X49175200Y-17875200D01*
X45597500Y-32872500D02*
X46327500Y-32872500D01*
X40760000Y-36040000D02*
X40760000Y-34510000D01*
X37700000Y-27140000D02*
X37700000Y-27450000D01*
X46600000Y-32600000D02*
X46700000Y-32600000D01*
X40200000Y-36600000D02*
X40760000Y-36040000D01*
X38800000Y-42600000D02*
X38000000Y-42600000D01*
X43840000Y-26110000D02*
X42760000Y-27190000D01*
X46327500Y-32872500D02*
X46600000Y-32600000D01*
X46950000Y-36050000D02*
X46300000Y-36050000D01*
X49600000Y-19700000D02*
X50000000Y-19300000D01*
X38800000Y-42100000D02*
X38900000Y-42000000D01*
X49175200Y-17875200D02*
X49800000Y-18500000D01*
X46300000Y-36050000D02*
X44760000Y-34510000D01*
X45597500Y-32872500D02*
X45597500Y-33272500D01*
X38800000Y-42600000D02*
X38800000Y-42100000D01*
D41*
%TO.N,/XTAL_P*%
X43524100Y-38000000D02*
X43524200Y-37999900D01*
X43524100Y-34545900D02*
X43560000Y-34510000D01*
X43524200Y-37999900D02*
X43852800Y-37671300D01*
D42*
X43524200Y-37999900D02*
X43524200Y-38000000D01*
D41*
X43524100Y-38000000D02*
X43524100Y-34545900D01*
X43524100Y-38000000D02*
X40960000Y-38000000D01*
%TO.N,/XTAL_N*%
X44500000Y-39276100D02*
X44869300Y-38906800D01*
X44869300Y-38906800D02*
X45500000Y-38276100D01*
X43960000Y-34986900D02*
X43960000Y-34510000D01*
X45500000Y-38000000D02*
X45500000Y-36526900D01*
X45500000Y-38276100D02*
X45500000Y-38000000D01*
X45500000Y-38276100D02*
X45500000Y-38500000D01*
X45500000Y-36526900D02*
X43960000Y-34986900D01*
X45500000Y-38000000D02*
X45500000Y-38276100D01*
X45500000Y-38500000D02*
X46000000Y-39000000D01*
X46000000Y-39000000D02*
X46000000Y-39500000D01*
D42*
X44869300Y-38906800D02*
X44869200Y-38906800D01*
X44869200Y-38906800D02*
X44500000Y-39276000D01*
D43*
%TO.N,/GPIO4*%
X48710000Y-23190000D02*
X48710000Y-26217400D01*
X49860000Y-29383900D02*
X49553901Y-29690000D01*
X47946498Y-29690000D02*
X47163999Y-30472500D01*
X49860000Y-27367400D02*
X49860000Y-29383900D01*
X48710000Y-26217400D02*
X49860000Y-27367400D01*
X47163999Y-30472500D02*
X45597500Y-30472500D01*
X48430000Y-22910000D02*
X48710000Y-23190000D01*
X49553901Y-29690000D02*
X47946498Y-29690000D01*
%TO.N,/GPIO1*%
X46352599Y-31670000D02*
X46350099Y-31672500D01*
X48182599Y-30260000D02*
X46772600Y-31670000D01*
X50220000Y-26240000D02*
X50455000Y-26475000D01*
X46350099Y-31672500D02*
X45597500Y-31672500D01*
X50455000Y-26475000D02*
X50455000Y-29595000D01*
X46772600Y-31670000D02*
X46352599Y-31670000D01*
X50455000Y-29595000D02*
X49790000Y-30260000D01*
X49790000Y-30260000D02*
X48182599Y-30260000D01*
%TO.N,/GPIO3*%
X50075000Y-29437600D02*
X49632600Y-29880000D01*
X47970000Y-22200000D02*
X48720000Y-22200000D01*
X49632600Y-29880000D02*
X48025199Y-29880000D01*
X45912158Y-30872500D02*
X45597500Y-30872500D01*
X48025199Y-29880000D02*
X46822699Y-31082500D01*
X46122158Y-31082500D02*
X45912158Y-30872500D01*
X50075000Y-27313700D02*
X50075000Y-29437600D01*
X49290000Y-26528700D02*
X50075000Y-27313700D01*
X49290000Y-22770000D02*
X49290000Y-26528700D01*
X48720000Y-22200000D02*
X49290000Y-22770000D01*
X46822699Y-31082500D02*
X46122158Y-31082500D01*
%TO.N,/GPIO2*%
X50265000Y-27235000D02*
X50265000Y-29516300D01*
X46901400Y-31272500D02*
X45597500Y-31272500D01*
X49910000Y-25100000D02*
X49620000Y-25390000D01*
X49620000Y-25390000D02*
X49620000Y-26590000D01*
X50265000Y-29516300D02*
X49711300Y-30070000D01*
X49620000Y-26590000D02*
X50265000Y-27235000D01*
X48103899Y-30070000D02*
X46901400Y-31272500D01*
X49711300Y-30070000D02*
X48103899Y-30070000D01*
%TO.N,/RESET*%
X45597500Y-32472500D02*
X45620000Y-32450000D01*
X49345000Y-30655000D02*
X49670000Y-30980000D01*
X45620000Y-32450000D02*
X46110000Y-32450000D01*
X36980000Y-43880000D02*
X37000000Y-43900000D01*
X38330000Y-37310000D02*
X37640000Y-38000000D01*
X36980000Y-38660000D02*
X37640000Y-38000000D01*
X48325000Y-30655000D02*
X49345000Y-30655000D01*
X38330000Y-37120000D02*
X38330000Y-37310000D01*
X46510000Y-32050000D02*
X46930000Y-32050000D01*
X46930000Y-32050000D02*
X48325000Y-30655000D01*
X36980000Y-42600000D02*
X36980000Y-43880000D01*
X36980000Y-42600000D02*
X36980000Y-38660000D01*
X46110000Y-32450000D02*
X46510000Y-32050000D01*
%TO.N,/VBUS*%
X40500000Y-22252500D02*
X40500000Y-21715100D01*
D39*
X48225000Y-17174900D02*
X48225000Y-17174800D01*
D44*
X39350000Y-21510100D02*
X39350000Y-21660100D01*
X47000000Y-19700000D02*
X47000000Y-21000000D01*
X35700200Y-24200200D02*
X36000000Y-24500000D01*
X47986800Y-17600000D02*
X48134300Y-17747400D01*
X43400000Y-19700000D02*
X43400000Y-19390000D01*
D39*
X35700100Y-22887400D02*
X35700100Y-22375100D01*
X48225000Y-17174800D02*
X48218500Y-17168300D01*
X39350000Y-22062400D02*
X39350000Y-21660100D01*
D44*
X39739900Y-19700000D02*
X38639900Y-20800000D01*
X47986800Y-17400000D02*
X47986800Y-17600000D01*
D39*
X40500000Y-22252500D02*
X40499900Y-22252600D01*
D44*
X46400000Y-17400000D02*
X47000000Y-18000000D01*
D39*
X48224800Y-17825100D02*
X48212000Y-17825100D01*
D44*
X46400000Y-17400000D02*
X47986800Y-17400000D01*
D39*
X40499900Y-22252600D02*
X40499900Y-22375100D01*
D44*
X47000000Y-18000000D02*
X47000000Y-19700000D01*
X45700000Y-21000000D02*
X47000000Y-19700000D01*
D43*
X39350100Y-21749900D02*
X39350100Y-22062500D01*
D39*
X48212000Y-17825100D02*
X48134300Y-17747400D01*
D44*
X45200000Y-21000000D02*
X45700000Y-21000000D01*
X48134300Y-17747400D02*
X48218400Y-17831500D01*
X36800000Y-20800000D02*
X38639900Y-20800000D01*
X47986800Y-17400000D02*
X48218500Y-17168300D01*
X36350100Y-22375100D02*
X36350100Y-22750000D01*
X36350100Y-21249900D02*
X36800000Y-20800000D01*
X35700200Y-22375100D02*
X35700200Y-22887500D01*
D43*
X40500000Y-22600000D02*
X40500000Y-22252500D01*
D39*
X39350100Y-22062500D02*
X39350000Y-22062400D01*
D44*
X43400000Y-19700000D02*
X39739900Y-19700000D01*
X38639900Y-20800000D02*
X39350000Y-21510100D01*
D43*
X39439900Y-21660100D02*
X39350100Y-21749900D01*
D39*
X35700200Y-22887500D02*
X35700100Y-22887400D01*
D44*
X45390000Y-17400000D02*
X46400000Y-17400000D01*
D43*
X40500000Y-21715100D02*
X40445000Y-21660100D01*
X39350100Y-22062500D02*
X39350100Y-22375100D01*
D44*
X35700200Y-23400000D02*
X35700200Y-24200200D01*
D43*
X40445000Y-21660100D02*
X39439900Y-21660100D01*
D44*
X36350100Y-22750000D02*
X35700200Y-23400000D01*
X36350100Y-22375100D02*
X36350100Y-21249900D01*
X35700200Y-22887500D02*
X35700200Y-23400000D01*
X43400000Y-19390000D02*
X45390000Y-17400000D01*
D41*
%TO.N,/USB_D+*%
X41100100Y-25600000D02*
X40760000Y-25940100D01*
X39834100Y-23400000D02*
X39500100Y-23400000D01*
X41100100Y-25000000D02*
X40736700Y-24636600D01*
X38350100Y-23250100D02*
X38400000Y-23300000D01*
X38350100Y-22375100D02*
X38350100Y-23250100D01*
X41100100Y-25000000D02*
X41100100Y-25600000D01*
X37350100Y-21835600D02*
X37540300Y-21645400D01*
X40284200Y-23850100D02*
X39834100Y-23400000D01*
X40760000Y-25940100D02*
X40760000Y-27635000D01*
X38159700Y-21645400D02*
X38350100Y-21835800D01*
X37540300Y-21645400D02*
X38159700Y-21645400D01*
X38350100Y-21835800D02*
X38350100Y-22375100D01*
X40736700Y-24302600D02*
X40379000Y-23944800D01*
X40379000Y-23944800D02*
X40284200Y-23850100D01*
X37350100Y-22375100D02*
X37350100Y-21835600D01*
X40736700Y-24636600D02*
X40736700Y-24302600D01*
%TO.N,/USB_D-*%
X39896000Y-23990000D02*
X38439900Y-23990000D01*
X37850000Y-22375100D02*
X37786800Y-22438300D01*
X38850000Y-23400400D02*
X38850000Y-22375100D01*
X40363300Y-24457300D02*
X39896000Y-23990000D01*
X40360000Y-25930000D02*
X39999900Y-25569900D01*
X37850000Y-22750000D02*
X37850000Y-23400100D01*
X37850000Y-22375100D02*
X37850000Y-22750000D01*
X40360000Y-27635000D02*
X40360000Y-25930000D01*
X38159700Y-23709800D02*
X38540600Y-23709800D01*
X38850000Y-22375100D02*
X38786800Y-22438300D01*
X39999900Y-25569900D02*
X39999900Y-25000000D01*
X40363300Y-24636600D02*
X40363300Y-24457300D01*
X38540600Y-23709800D02*
X38850000Y-23400400D01*
X38439900Y-23990000D02*
X38159700Y-23709800D01*
X37850000Y-23400100D02*
X38159700Y-23709800D01*
X37850000Y-22750000D02*
X37800000Y-22800000D01*
X37850000Y-22375100D02*
X37850000Y-22750000D01*
X39999900Y-25000000D02*
X40363300Y-24636600D01*
D42*
%TO.N,/SPICS1*%
X39560000Y-27635000D02*
X38888700Y-27635000D01*
X32600000Y-35700000D02*
X32600000Y-34055000D01*
X32600000Y-33600000D02*
X32500000Y-33500000D01*
X32600000Y-34055000D02*
X32600000Y-32940000D01*
X32600000Y-32940000D02*
X33621800Y-31918200D01*
X32600000Y-34055000D02*
X32600000Y-33600000D01*
X38888700Y-27635000D02*
X38881400Y-27642300D01*
%TO.N,/SPICLK*%
X37809900Y-29975000D02*
X37907400Y-30072500D01*
X36262500Y-29975000D02*
X37809900Y-29975000D01*
X37907400Y-30072500D02*
X38722500Y-30072500D01*
X35040000Y-28135000D02*
X35040000Y-28752500D01*
X35040000Y-28752500D02*
X36262500Y-29975000D01*
D43*
%TO.N,/GPIO8*%
X29750003Y-43450013D02*
X32150013Y-43450013D01*
X45597500Y-28872500D02*
X46339100Y-28872500D01*
X34690000Y-45990000D02*
X34555000Y-45855000D01*
X32150013Y-43450013D02*
X34555000Y-45855000D01*
X46339100Y-28872500D02*
X46447700Y-28981100D01*
%TO.N,/GPIO13*%
X43560000Y-27320342D02*
X43560000Y-27635000D01*
X45880342Y-25000000D02*
X43560000Y-27320342D01*
X47730000Y-25000000D02*
X45880342Y-25000000D01*
%TO.N,/GPIO5*%
X49670000Y-29305200D02*
X49475200Y-29500000D01*
X48260000Y-26036100D02*
X49670000Y-27446100D01*
X47295299Y-30072500D02*
X45597500Y-30072500D01*
X49670000Y-27446100D02*
X49670000Y-29305200D01*
X47867798Y-29500000D02*
X47295299Y-30072500D01*
X48260000Y-24290000D02*
X48260000Y-26036100D01*
X49475200Y-29500000D02*
X47867798Y-29500000D01*
D42*
%TO.N,/SPID*%
X36320000Y-26820000D02*
X36310000Y-26830000D01*
X36310000Y-26830000D02*
X36310000Y-28135000D01*
X37750000Y-31117600D02*
X37995100Y-30872500D01*
X37995100Y-30872500D02*
X38722500Y-30872500D01*
X36320000Y-26530000D02*
X36320000Y-26820000D01*
D43*
%TO.N,Net-(U4-VCC)*%
X32600000Y-37340000D02*
X32600000Y-36720000D01*
X32500000Y-28135000D02*
X31925000Y-28135000D01*
X32500000Y-28170000D02*
X32480000Y-28190000D01*
X31433800Y-38593800D02*
X31433800Y-38481600D01*
X32840000Y-40000000D02*
X32840000Y-41600000D01*
X32840000Y-40000000D02*
X31433800Y-38593800D01*
X31925000Y-28135000D02*
X31620000Y-28440000D01*
X32500000Y-28135000D02*
X32500000Y-28170000D01*
X32320000Y-37620000D02*
X32600000Y-37340000D01*
%TO.N,/GPIO7*%
X32110000Y-42600000D02*
X31439995Y-42600000D01*
X31439995Y-42600000D02*
X29750003Y-40910008D01*
X45967900Y-29272500D02*
X45597500Y-29272500D01*
X46125200Y-29429800D02*
X45967900Y-29272500D01*
X46604200Y-29429800D02*
X46125200Y-29429800D01*
X49100600Y-28477100D02*
X47556900Y-28477100D01*
X47556900Y-28477100D02*
X46604200Y-29429800D01*
%TO.N,/GPIO21*%
X29836422Y-32000000D02*
X26840000Y-32000000D01*
X30695003Y-31141419D02*
X29836422Y-32000000D01*
X39960000Y-26720000D02*
X39725100Y-26485100D01*
X26840000Y-32000000D02*
X26045000Y-32795000D01*
X33080000Y-27270000D02*
X33080000Y-28823035D01*
X26045000Y-32795000D02*
X26045000Y-34665000D01*
X37697648Y-26485100D02*
X36742548Y-25530000D01*
X34820000Y-25530000D02*
X33080000Y-27270000D01*
X33080000Y-28823035D02*
X30761616Y-31141419D01*
X30761616Y-31141419D02*
X30695003Y-31141419D01*
X36742548Y-25530000D02*
X34820000Y-25530000D01*
X26045000Y-34665000D02*
X27209997Y-35829997D01*
X39960000Y-27635000D02*
X39960000Y-26720000D01*
X39725100Y-26485100D02*
X37697648Y-26485100D01*
%TO.N,/GPIO6*%
X47396700Y-29303000D02*
X47027200Y-29672500D01*
X47027200Y-29672500D02*
X45597500Y-29672500D01*
%TO.N,/GPIO38*%
X33615674Y-39545000D02*
X35295000Y-39545000D01*
X31130900Y-37820600D02*
X31891274Y-37820600D01*
X39910000Y-35450000D02*
X39560000Y-35100000D01*
X35295000Y-39545000D02*
X36420000Y-40670000D01*
X39560000Y-35100000D02*
X39560000Y-34510000D01*
X31891274Y-37820600D02*
X33615674Y-39545000D01*
%TO.N,/GPIO11*%
X46190000Y-26350000D02*
X45920000Y-26620000D01*
X44627842Y-27052500D02*
X44360000Y-27320342D01*
X45506299Y-26620000D02*
X45446299Y-26680000D01*
X45446299Y-26680000D02*
X45380000Y-26680000D01*
X45007500Y-27052500D02*
X44627842Y-27052500D01*
X45380000Y-26680000D02*
X45007500Y-27052500D01*
X44360000Y-27320342D02*
X44360000Y-27635000D01*
X45920000Y-26620000D02*
X45506299Y-26620000D01*
%TO.N,/GPIO45*%
X33695000Y-46870000D02*
X33695000Y-46815000D01*
X26100000Y-42020005D02*
X27209997Y-40910008D01*
X40656646Y-37445000D02*
X40425000Y-37676646D01*
X42492158Y-35092500D02*
X42492158Y-35341242D01*
X33435000Y-46555000D02*
X31035000Y-46555000D01*
X36975000Y-50150000D02*
X33695000Y-46870000D01*
X33695000Y-46815000D02*
X33435000Y-46555000D01*
X26100000Y-44035000D02*
X26100000Y-42020005D01*
X37519963Y-44491381D02*
X40515000Y-47486418D01*
X28420000Y-45410000D02*
X27800000Y-44790000D01*
X40425000Y-37676646D02*
X40425000Y-38304326D01*
X28420000Y-46830000D02*
X28420000Y-45410000D01*
X28930000Y-47340000D02*
X28420000Y-46830000D01*
X31035000Y-46555000D02*
X30250000Y-47340000D01*
X42070000Y-35763400D02*
X42070000Y-36290000D01*
X26855000Y-44790000D02*
X26100000Y-44035000D01*
X42760000Y-34824658D02*
X42492158Y-35092500D01*
X42070000Y-36290000D02*
X40915000Y-37445000D01*
X39788700Y-50150000D02*
X36975000Y-50150000D01*
X40425000Y-38304326D02*
X37519963Y-41209363D01*
X30250000Y-47340000D02*
X28930000Y-47340000D01*
X40515000Y-47486418D02*
X40515000Y-49423700D01*
X40915000Y-37445000D02*
X40656646Y-37445000D01*
X42492158Y-35341242D02*
X42070000Y-35763400D01*
X42760000Y-34510000D02*
X42760000Y-34824658D01*
X40515000Y-49423700D02*
X39788700Y-50150000D01*
X27800000Y-44790000D02*
X26855000Y-44790000D01*
X37519963Y-41209363D02*
X37519963Y-44491381D01*
%TO.N,/GPIO18*%
X31440000Y-34890000D02*
X30146400Y-34890000D01*
X29476400Y-34220000D02*
X28140000Y-34220000D01*
X30146400Y-34890000D02*
X29476400Y-34220000D01*
X28140000Y-34220000D02*
X27210000Y-33290000D01*
X41160000Y-26610000D02*
X41460000Y-26310000D01*
X41160000Y-27635000D02*
X41160000Y-26610000D01*
%TO.N,/GPIO14*%
X44845000Y-24375000D02*
X44845000Y-25734326D01*
X43160000Y-27278000D02*
X43160000Y-27635000D01*
X43713426Y-26865900D02*
X43572100Y-26865900D01*
X43760000Y-23290000D02*
X44845000Y-24375000D01*
X43572100Y-26865900D02*
X43160000Y-27278000D01*
X44845000Y-25734326D02*
X43713426Y-26865900D01*
%TO.N,/GPIO12*%
X47480000Y-25780000D02*
X45850000Y-25780000D01*
X45850000Y-25780000D02*
X44767500Y-26862500D01*
X44417842Y-26862500D02*
X43960000Y-27320342D01*
X47650000Y-25950000D02*
X47480000Y-25780000D01*
X43960000Y-27320342D02*
X43960000Y-27635000D01*
X44767500Y-26862500D02*
X44417842Y-26862500D01*
%TO.N,/GPIO10*%
X45585000Y-26810000D02*
X46910000Y-26810000D01*
X30515100Y-47765000D02*
X30515000Y-47765000D01*
X31280100Y-47000000D02*
X30515100Y-47765000D01*
X33250000Y-47000000D02*
X31280100Y-47000000D01*
X44760000Y-27635000D02*
X45585000Y-26810000D01*
X30515100Y-47765000D02*
X29750000Y-48530100D01*
X30515000Y-47765000D02*
X29750000Y-48530000D01*
D42*
%TO.N,/SPICLK_GPIO47*%
X37348800Y-31948800D02*
X37625000Y-31672500D01*
X37430000Y-35830000D02*
X38040000Y-35830000D01*
X37625000Y-31672500D02*
X38722500Y-31672500D01*
X38040000Y-35830000D02*
X38440000Y-36230000D01*
X35450000Y-35840000D02*
X37420000Y-35840000D01*
X37420000Y-35840000D02*
X37430000Y-35830000D01*
D43*
%TO.N,/GPIO0{slash}BOOT*%
X50290000Y-30970674D02*
X50290000Y-39060000D01*
X35000000Y-46900044D02*
X35000000Y-44730000D01*
X36999956Y-48900000D02*
X35000000Y-46900044D01*
X38059956Y-49960000D02*
X36999956Y-48900000D01*
X40070000Y-48560000D02*
X40070000Y-49600000D01*
X50290000Y-39060000D02*
X41420000Y-47930000D01*
X39710000Y-49960000D02*
X38059956Y-49960000D01*
X48246300Y-30465000D02*
X49784326Y-30465000D01*
X30141435Y-39871435D02*
X29871435Y-39871435D01*
X29871435Y-39871435D02*
X28440000Y-38440000D01*
X28440000Y-38440000D02*
X28440000Y-34870000D01*
X49784326Y-30465000D02*
X50290000Y-30970674D01*
X46851300Y-31860000D02*
X48246300Y-30465000D01*
X46431300Y-31860000D02*
X46851300Y-31860000D01*
X45597500Y-32072500D02*
X46218800Y-32072500D01*
X40070000Y-49600000D02*
X39710000Y-49960000D01*
X46218800Y-32072500D02*
X46431300Y-31860000D01*
X35000000Y-44730000D02*
X30141435Y-39871435D01*
%TO.N,/GPIO46*%
X32100000Y-44640000D02*
X28399984Y-44640000D01*
X43160000Y-34942100D02*
X42260000Y-35842100D01*
X43160000Y-34510000D02*
X43160000Y-34942100D01*
X34320000Y-46860000D02*
X32100000Y-44640000D01*
X42260000Y-37250000D02*
X42310000Y-37300000D01*
X28399984Y-44640000D02*
X27209997Y-43450013D01*
X42260000Y-35842100D02*
X42260000Y-37250000D01*
D42*
%TO.N,/SPIWP*%
X35040000Y-34470000D02*
X35040000Y-33500000D01*
X37677500Y-29272500D02*
X38722500Y-29272500D01*
X37580000Y-29370000D02*
X37677500Y-29272500D01*
X34530000Y-34980000D02*
X35040000Y-34470000D01*
%TO.N,/SPIHD*%
X37145100Y-27793500D02*
X37145100Y-26385000D01*
X36610000Y-25850000D02*
X35790000Y-25850000D01*
X35790000Y-25850000D02*
X33770000Y-27870000D01*
X38224100Y-28872500D02*
X37145100Y-27793500D01*
X38722500Y-28872500D02*
X38224100Y-28872500D01*
X37145100Y-26385000D02*
X36610000Y-25850000D01*
X33770000Y-27870000D02*
X33770000Y-28135000D01*
%TO.N,/SPIQ*%
X38722500Y-30472500D02*
X36180000Y-30472500D01*
X33770000Y-32882500D02*
X33770000Y-33500000D01*
X36180000Y-30472500D02*
X33770000Y-32882500D01*
D43*
%TO.N,/GPIO9*%
X47250000Y-27503400D02*
X47799300Y-26954100D01*
X46835500Y-28472500D02*
X47250000Y-28058000D01*
X47799300Y-26954100D02*
X48002700Y-26954100D01*
X47250000Y-28058000D02*
X47250000Y-27503400D01*
X45597500Y-28472500D02*
X46835500Y-28472500D01*
%TO.N,/GPIO17*%
X41652700Y-24443100D02*
X41291300Y-24081700D01*
X26150000Y-29689990D02*
X26150000Y-24560000D01*
X26380000Y-24560000D02*
X26510000Y-24430000D01*
X41652700Y-24677400D02*
X41652700Y-24443100D01*
X41896900Y-24921600D02*
X41652700Y-24677400D01*
X41560000Y-27635000D02*
X41560000Y-26915800D01*
X26150000Y-24560000D02*
X26380000Y-24560000D01*
X27209997Y-30749987D02*
X26150000Y-29689990D01*
X41560000Y-26915800D02*
X41896900Y-26578900D01*
X41896900Y-26578900D02*
X41896900Y-24921600D01*
D45*
%TO.N,/GND_PIN*%
X45422500Y-27810000D02*
X46770000Y-27810000D01*
X42160000Y-31072500D02*
X45422500Y-27810000D01*
D43*
%TO.N,Net-(C7-Pad1)*%
X38670000Y-52079900D02*
X38669900Y-52079900D01*
X41600000Y-52060000D02*
X39740000Y-52060000D01*
X38669900Y-52079900D02*
X38649900Y-52099900D01*
X40720000Y-51080000D02*
X40720000Y-42600000D01*
X38670000Y-52079900D02*
X38650000Y-52099900D01*
X39740000Y-52060000D02*
X38689900Y-52060000D01*
X38689900Y-52060000D02*
X38670000Y-52079900D01*
X39740000Y-52060000D02*
X40720000Y-51080000D01*
%TO.N,Net-(JP1-SIN)*%
X47499900Y-33676400D02*
X45601400Y-33676400D01*
X47499900Y-33676400D02*
X47500000Y-33676500D01*
X45601400Y-33676400D02*
X45597500Y-33672500D01*
X47500000Y-33676400D02*
X47499900Y-33676400D01*
%TO.N,/GPIO33*%
X37100000Y-32940000D02*
X37967500Y-32072500D01*
X37967500Y-32072500D02*
X38722500Y-32072500D01*
%TO.N,/GPIO16*%
X28489979Y-26930000D02*
X27209997Y-28209982D01*
X32436959Y-26930000D02*
X28489979Y-26930000D01*
X42089800Y-27505200D02*
X42089800Y-24511200D01*
X33496959Y-25870000D02*
X32436959Y-26930000D01*
X33550000Y-25870000D02*
X33496959Y-25870000D01*
X41960000Y-27635000D02*
X42089800Y-27505200D01*
X33680000Y-25740000D02*
X33550000Y-25870000D01*
%TO.N,/GPIO15*%
X42360000Y-26502600D02*
X42516500Y-26346100D01*
X42360000Y-27635000D02*
X42360000Y-26502600D01*
%TO.N,/GPIO35*%
X38722500Y-32872500D02*
X38285000Y-32872500D01*
X37440000Y-33717500D02*
X37440000Y-34550000D01*
X38285000Y-32872500D02*
X37440000Y-33717500D01*
X37440000Y-34550000D02*
X37810000Y-34920000D01*
%TO.N,/GPIO34*%
X28449900Y-49770000D02*
X27210000Y-48530100D01*
X27210000Y-48530100D02*
X27210000Y-48530000D01*
X32520000Y-47910000D02*
X30660000Y-49770000D01*
X36975000Y-34975000D02*
X36975000Y-33782500D01*
X38285000Y-32472500D02*
X38722500Y-32472500D01*
X36975000Y-33782500D02*
X38285000Y-32472500D01*
X30660000Y-49770000D02*
X28449900Y-49770000D01*
%TO.N,/GPIO37*%
X28805000Y-54555100D02*
X31864900Y-54555100D01*
X33840000Y-52580000D02*
X33820000Y-52560000D01*
X28007500Y-55352600D02*
X28007400Y-55352600D01*
X28007500Y-55352600D02*
X28805000Y-54555100D01*
X31864900Y-54555100D02*
X33840000Y-52580000D01*
X28007400Y-55352600D02*
X27210000Y-56150000D01*
X38722500Y-35287500D02*
X38722500Y-33672500D01*
X38994900Y-35560000D02*
X38722500Y-35287500D01*
X27210000Y-56150100D02*
X28007500Y-55352600D01*
%TO.N,/GPIO36*%
X27210000Y-53610100D02*
X27210000Y-53610000D01*
X37885000Y-33795342D02*
X38407842Y-33272500D01*
X33880000Y-54150000D02*
X29890000Y-58140000D01*
X26045000Y-54775100D02*
X27210000Y-53610100D01*
X38407842Y-33272500D02*
X38722500Y-33272500D01*
X26045000Y-56925000D02*
X26045000Y-54775100D01*
X29890000Y-58140000D02*
X27260000Y-58140000D01*
X37885000Y-34100000D02*
X37885000Y-33795342D01*
X27260000Y-58140000D02*
X26045000Y-56925000D01*
%TD*%
M02*
