%TF.GenerationSoftware,KiCad,Pcbnew,8.0.1*%
%TF.CreationDate,2024-04-25T23:54:08-05:00*%
%TF.ProjectId,Final Projeco,46696e61-6c20-4507-926f-6a65636f2e6b,rev?*%
%TF.SameCoordinates,Original*%
%TF.FileFunction,Copper,L6,Bot*%
%TF.FilePolarity,Positive*%
%FSLAX46Y46*%
G04 Gerber Fmt 4.6, Leading zero omitted, Abs format (unit mm)*
G04 Created by KiCad (PCBNEW 8.0.1) date 2024-04-25 23:54:08*
%MOMM*%
%LPD*%
G01*
G04 APERTURE LIST*
%TA.AperFunction,ComponentPad*%
%ADD10O,1.000000X1.900000*%
%TD*%
%TA.AperFunction,ComponentPad*%
%ADD11O,1.000000X1.600000*%
%TD*%
%TA.AperFunction,ComponentPad*%
%ADD12R,1.600000X1.600000*%
%TD*%
%TA.AperFunction,ComponentPad*%
%ADD13C,1.600000*%
%TD*%
%TA.AperFunction,ViaPad*%
%ADD14C,0.560000*%
%TD*%
%TA.AperFunction,Conductor*%
%ADD15C,0.119400*%
%TD*%
G04 APERTURE END LIST*
D10*
%TO.P,U2,1,SHELL*%
%TO.N,GND*%
X42419941Y-21805131D03*
%TO.P,U2,2,SHELL*%
X33779859Y-21805131D03*
D11*
%TO.P,U2,3,SHELL*%
X33779859Y-17625044D03*
%TO.P,U2,4,SHELL*%
X42419941Y-17625044D03*
%TD*%
D12*
%TO.P,U7,1,1*%
%TO.N,/GPIO12*%
X27209997Y-18049962D03*
D13*
%TO.P,U7,2,2*%
%TO.N,GND*%
X29750003Y-18049962D03*
%TO.P,U7,3,3*%
%TO.N,/GPIO13*%
X27209997Y-20589967D03*
%TO.P,U7,4,4*%
%TO.N,VDD3P3*%
X29750003Y-20589967D03*
%TO.P,U7,5,5*%
%TO.N,/GPIO14*%
X27209997Y-23129972D03*
%TO.P,U7,6,6*%
%TO.N,/GPIO0{slash}BOOT*%
X29750003Y-23129972D03*
%TO.P,U7,7,7*%
%TO.N,/GPIO15*%
X27209997Y-25669977D03*
%TO.P,U7,8,8*%
%TO.N,/GPIO1*%
X29750003Y-25669977D03*
%TO.P,U7,9,9*%
%TO.N,/GPIO16*%
X27209997Y-28209982D03*
%TO.P,U7,10,10*%
%TO.N,/GPIO2*%
X29750003Y-28209982D03*
%TO.P,U7,11,11*%
%TO.N,/GPIO17*%
X27209997Y-30749987D03*
%TO.P,U7,12,12*%
%TO.N,/GPIO3*%
X29750003Y-30749987D03*
%TO.P,U7,13,13*%
%TO.N,/GPIO18*%
X27209997Y-33289992D03*
%TO.P,U7,14,14*%
%TO.N,/GPIO4*%
X29750003Y-33289992D03*
%TO.P,U7,15,15*%
%TO.N,/GPIO21*%
X27209997Y-35829997D03*
%TO.P,U7,16,16*%
%TO.N,/GPIO5*%
X29750003Y-35829997D03*
%TO.P,U7,17,17*%
%TO.N,/GPIO38*%
X27209997Y-38370003D03*
%TO.P,U7,18,18*%
%TO.N,/GPIO6*%
X29750003Y-38370003D03*
%TO.P,U7,19,19*%
%TO.N,/GPIO45*%
X27209997Y-40910008D03*
%TO.P,U7,20,20*%
%TO.N,/GPIO7*%
X29750003Y-40910008D03*
%TO.P,U7,21,21*%
%TO.N,/GPIO46*%
X27209997Y-43450013D03*
%TO.P,U7,22,22*%
%TO.N,/GPIO8*%
X29750003Y-43450013D03*
%TO.P,U7,23,23*%
%TO.N,/GPIO33*%
X27209997Y-45990018D03*
%TO.P,U7,24,24*%
%TO.N,/GPIO9*%
X29750003Y-45990018D03*
%TO.P,U7,25,25*%
%TO.N,/GPIO34*%
X27209997Y-48530023D03*
%TO.P,U7,26,26*%
%TO.N,/GPIO10*%
X29750003Y-48530023D03*
%TO.P,U7,27,27*%
%TO.N,/GPIO35*%
X27209997Y-51070028D03*
%TO.P,U7,28,28*%
%TO.N,/GPIO11*%
X29750003Y-51070028D03*
%TO.P,U7,29,29*%
%TO.N,/GPIO36*%
X27209997Y-53610033D03*
%TO.P,U7,30,30*%
%TO.N,VDD3P3*%
X29750003Y-53610033D03*
%TO.P,U7,31,31*%
%TO.N,/GPIO37*%
X27209997Y-56150038D03*
%TO.P,U7,32,32*%
%TO.N,GND*%
X29750003Y-56150038D03*
%TD*%
D14*
%TO.N,GND*%
X39300000Y-38800000D03*
X44400000Y-25000000D03*
X45200000Y-19700000D03*
X47100000Y-38600000D03*
X41900000Y-40000000D03*
X46200000Y-22020000D03*
X32870000Y-24500000D03*
X39500000Y-47400000D03*
X49900000Y-17200000D03*
X48630000Y-28010000D03*
X37050000Y-23870000D03*
X35730000Y-34820000D03*
X36570000Y-36850000D03*
X42000000Y-23300000D03*
X47840000Y-18790000D03*
X48700000Y-31100000D03*
X34000000Y-42500000D03*
X48700000Y-36300000D03*
X44063800Y-36500000D03*
X41800000Y-50200000D03*
%TO.N,VDD3P3*%
X38900000Y-42000000D03*
X50000000Y-19300000D03*
X46950000Y-36050000D03*
X43840000Y-26110000D03*
X46700000Y-32600000D03*
X49800000Y-18500000D03*
X37700000Y-27140000D03*
X40200000Y-36600000D03*
%TO.N,/GPIO4*%
X48430000Y-22910000D03*
%TO.N,/GPIO1*%
X50220000Y-26240000D03*
%TO.N,/GPIO3*%
X47970000Y-22200000D03*
%TO.N,/GPIO2*%
X49910000Y-25100000D03*
%TO.N,/RESET*%
X49670000Y-30980000D03*
X38330000Y-37120000D03*
%TO.N,/USB_D+*%
X38350100Y-23250100D03*
X39500100Y-23400000D03*
%TO.N,/SPICS1*%
X38881400Y-27642300D03*
X33621800Y-31918200D03*
%TO.N,/GPIO8*%
X34555000Y-45855000D03*
X46447700Y-28981100D03*
%TO.N,/GPIO13*%
X47730000Y-25000000D03*
%TO.N,/GPIO5*%
X48260000Y-24290000D03*
%TO.N,/SPID*%
X36320000Y-26530000D03*
X37750000Y-31117600D03*
%TO.N,Net-(U4-VCC)*%
X32320000Y-37620000D03*
X31620000Y-28440000D03*
X31433800Y-38481600D03*
%TO.N,/GPIO7*%
X49100600Y-28477100D03*
X32110000Y-42600000D03*
%TO.N,/GPIO6*%
X47396700Y-29303000D03*
%TO.N,/GPIO38*%
X41470000Y-35600000D03*
X31130900Y-37820600D03*
X39910000Y-35450000D03*
X36420000Y-40670000D03*
%TO.N,/GPIO11*%
X46190000Y-26350000D03*
%TO.N,/GPIO18*%
X31440000Y-34890000D03*
X41460000Y-26310000D03*
%TO.N,/GPIO14*%
X43760000Y-23290000D03*
%TO.N,/GPIO12*%
X47650000Y-25950000D03*
%TO.N,/GPIO10*%
X33250000Y-47000000D03*
X46910000Y-26810000D03*
%TO.N,/SPICLK_GPIO47*%
X38440000Y-36230000D03*
X37348800Y-31948800D03*
%TO.N,/GPIO0{slash}BOOT*%
X28440000Y-34870000D03*
X40070000Y-48560000D03*
X41420000Y-47930000D03*
%TO.N,/GPIO46*%
X42310000Y-37300000D03*
X34320000Y-46860000D03*
%TO.N,/SPIWP*%
X37580000Y-29370000D03*
X34530000Y-34980000D03*
%TO.N,/GPIO9*%
X48002700Y-26954100D03*
%TO.N,/GPIO17*%
X41291300Y-24081700D03*
X26510000Y-24430000D03*
%TO.N,/GPIO33*%
X37100000Y-32940000D03*
%TO.N,/GPIO16*%
X42089800Y-24511200D03*
X33680000Y-25740000D03*
%TO.N,/GPIO15*%
X42516500Y-26346100D03*
%TO.N,/GPIO35*%
X37810000Y-34920000D03*
%TO.N,/GPIO34*%
X36975000Y-34975000D03*
X32520000Y-47910000D03*
%TO.N,/GPIO37*%
X33820000Y-52560000D03*
X38994900Y-35560000D03*
%TO.N,/GPIO36*%
X33880000Y-54150000D03*
X37885000Y-34100000D03*
%TD*%
D15*
%TO.N,/USB_D+*%
X39500100Y-23400000D02*
X39350200Y-23250100D01*
%TD*%
M02*
