%TF.GenerationSoftware,KiCad,Pcbnew,8.0.1*%
%TF.CreationDate,2024-04-26T00:20:17-05:00*%
%TF.ProjectId,Final Projeco,46696e61-6c20-4507-926f-6a65636f2e6b,rev?*%
%TF.SameCoordinates,Original*%
%TF.FileFunction,Drillmap*%
%TF.FilePolarity,Positive*%
%FSLAX45Y45*%
G04 Gerber Fmt 4.5, Leading zero omitted, Abs format (unit mm)*
G04 Created by KiCad (PCBNEW 8.0.1) date 2024-04-26 00:20:17*
%MOMM*%
%LPD*%
G01*
G04 APERTURE LIST*
%ADD10C,0.100000*%
%ADD11C,0.200000*%
G04 APERTURE END LIST*
D10*
X2500000Y-1550000D02*
X5150000Y-1550000D01*
X5150000Y-6050000D01*
X2500000Y-6050000D01*
X2500000Y-1550000D01*
D11*
D10*
X2636000Y-2428000D02*
X2666000Y-2458000D01*
X2666000Y-2428000D02*
X2636000Y-2458000D01*
X2829000Y-3472000D02*
X2859000Y-3502000D01*
X2859000Y-3472000D02*
X2829000Y-3502000D01*
X3098090Y-3767060D02*
X3128090Y-3797060D01*
X3128090Y-3767060D02*
X3098090Y-3797060D01*
X3128380Y-3833160D02*
X3158380Y-3863160D01*
X3158380Y-3833160D02*
X3128380Y-3863160D01*
X3129000Y-3474000D02*
X3159000Y-3504000D01*
X3159000Y-3474000D02*
X3129000Y-3504000D01*
X3147000Y-2829000D02*
X3177000Y-2859000D01*
X3177000Y-2829000D02*
X3147000Y-2859000D01*
X3196000Y-4245000D02*
X3226000Y-4275000D01*
X3226000Y-4245000D02*
X3196000Y-4275000D01*
X3217000Y-3747000D02*
X3247000Y-3777000D01*
X3247000Y-3747000D02*
X3217000Y-3777000D01*
X3237000Y-4776000D02*
X3267000Y-4806000D01*
X3267000Y-4776000D02*
X3237000Y-4806000D01*
X3272000Y-2435000D02*
X3302000Y-2465000D01*
X3302000Y-2435000D02*
X3272000Y-2465000D01*
X3310000Y-4685000D02*
X3340000Y-4715000D01*
X3340000Y-4685000D02*
X3310000Y-4715000D01*
X3347180Y-3176820D02*
X3377180Y-3206820D01*
X3377180Y-3176820D02*
X3347180Y-3206820D01*
X3353000Y-2559000D02*
X3383000Y-2589000D01*
X3383000Y-2559000D02*
X3353000Y-2589000D01*
X3367000Y-5241000D02*
X3397000Y-5271000D01*
X3397000Y-5241000D02*
X3367000Y-5271000D01*
X3373000Y-5400000D02*
X3403000Y-5430000D01*
X3403000Y-5400000D02*
X3373000Y-5430000D01*
X3385000Y-4235000D02*
X3415000Y-4265000D01*
X3415000Y-4235000D02*
X3385000Y-4265000D01*
X3417000Y-4671000D02*
X3447000Y-4701000D01*
X3447000Y-4671000D02*
X3417000Y-4701000D01*
X3438000Y-3483000D02*
X3468000Y-3513000D01*
X3468000Y-3483000D02*
X3438000Y-3513000D01*
X3440500Y-4570500D02*
X3470500Y-4600500D01*
X3470500Y-4570500D02*
X3440500Y-4600500D01*
X3558000Y-3467000D02*
X3588000Y-3497000D01*
X3588000Y-3467000D02*
X3558000Y-3497000D01*
X3617000Y-2638000D02*
X3647000Y-2668000D01*
X3647000Y-2638000D02*
X3617000Y-2668000D01*
X3627000Y-4052000D02*
X3657000Y-4082000D01*
X3657000Y-4052000D02*
X3627000Y-4082000D01*
X3642000Y-3670000D02*
X3672000Y-3700000D01*
X3672000Y-3670000D02*
X3642000Y-3700000D01*
X3682500Y-3482500D02*
X3712500Y-3512500D01*
X3712500Y-3482500D02*
X3682500Y-3512500D01*
X3690000Y-2372000D02*
X3720000Y-2402000D01*
X3720000Y-2372000D02*
X3690000Y-2402000D01*
X3695000Y-3279000D02*
X3725000Y-3309000D01*
X3725000Y-3279000D02*
X3695000Y-3309000D01*
X3719880Y-3179880D02*
X3749880Y-3209880D01*
X3749880Y-3179880D02*
X3719880Y-3209880D01*
X3743000Y-2922000D02*
X3773000Y-2952000D01*
X3773000Y-2922000D02*
X3743000Y-2952000D01*
X3755000Y-2699000D02*
X3785000Y-2729000D01*
X3785000Y-2699000D02*
X3755000Y-2729000D01*
X3760000Y-3096760D02*
X3790000Y-3126760D01*
X3790000Y-3096760D02*
X3760000Y-3126760D01*
X3766000Y-3477000D02*
X3796000Y-3507000D01*
X3796000Y-3477000D02*
X3766000Y-3507000D01*
X3773500Y-3395000D02*
X3803500Y-3425000D01*
X3803500Y-3395000D02*
X3773500Y-3425000D01*
X3818000Y-3697000D02*
X3848000Y-3727000D01*
X3848000Y-3697000D02*
X3818000Y-3727000D01*
X3820010Y-2310010D02*
X3850010Y-2340010D01*
X3850010Y-2310010D02*
X3820010Y-2340010D01*
X3829000Y-3608000D02*
X3859000Y-3638000D01*
X3859000Y-3608000D02*
X3829000Y-3638000D01*
X3873140Y-2749230D02*
X3903140Y-2779230D01*
X3903140Y-2749230D02*
X3873140Y-2779230D01*
X3875000Y-4185000D02*
X3905000Y-4215000D01*
X3905000Y-4185000D02*
X3875000Y-4215000D01*
X3884490Y-3541000D02*
X3914490Y-3571000D01*
X3914490Y-3541000D02*
X3884490Y-3571000D01*
X3915000Y-3865000D02*
X3945000Y-3895000D01*
X3945000Y-3865000D02*
X3915000Y-3895000D01*
X3935000Y-4725000D02*
X3965000Y-4755000D01*
X3965000Y-4725000D02*
X3935000Y-4755000D01*
X3935010Y-2325000D02*
X3965010Y-2355000D01*
X3965010Y-2325000D02*
X3935010Y-2355000D01*
X3976000Y-3530000D02*
X4006000Y-3560000D01*
X4006000Y-3530000D02*
X3976000Y-3560000D01*
X3992000Y-4841000D02*
X4022000Y-4871000D01*
X4022000Y-4841000D02*
X3992000Y-4871000D01*
X4005000Y-3645000D02*
X4035000Y-3675000D01*
X4035000Y-3645000D02*
X4005000Y-3675000D01*
X4114130Y-2393170D02*
X4144130Y-2423170D01*
X4144130Y-2393170D02*
X4114130Y-2423170D01*
X4127000Y-4778000D02*
X4157000Y-4808000D01*
X4157000Y-4778000D02*
X4127000Y-4808000D01*
X4131000Y-2616000D02*
X4161000Y-2646000D01*
X4161000Y-2616000D02*
X4131000Y-2646000D01*
X4132000Y-3545000D02*
X4162000Y-3575000D01*
X4162000Y-3545000D02*
X4132000Y-3575000D01*
X4165000Y-5005000D02*
X4195000Y-5035000D01*
X4195000Y-5005000D02*
X4165000Y-5035000D01*
X4175000Y-3985000D02*
X4205000Y-4015000D01*
X4205000Y-3985000D02*
X4175000Y-4015000D01*
X4185000Y-2315000D02*
X4215000Y-2345000D01*
X4215000Y-2315000D02*
X4185000Y-2345000D01*
X4193980Y-2436120D02*
X4223980Y-2466120D01*
X4223980Y-2436120D02*
X4193980Y-2466120D01*
X4216000Y-3715000D02*
X4246000Y-3745000D01*
X4246000Y-3715000D02*
X4216000Y-3745000D01*
X4236650Y-2619610D02*
X4266650Y-2649610D01*
X4266650Y-2619610D02*
X4236650Y-2649610D01*
X4361000Y-2314000D02*
X4391000Y-2344000D01*
X4391000Y-2314000D02*
X4361000Y-2344000D01*
X4369000Y-2596000D02*
X4399000Y-2626000D01*
X4399000Y-2596000D02*
X4369000Y-2626000D01*
X4391380Y-3635000D02*
X4421380Y-3665000D01*
X4421380Y-3635000D02*
X4391380Y-3665000D01*
X4425000Y-2485000D02*
X4455000Y-2515000D01*
X4455000Y-2485000D02*
X4425000Y-2515000D01*
X4505000Y-1955000D02*
X4535000Y-1985000D01*
X4535000Y-1955000D02*
X4505000Y-1985000D01*
X4604000Y-2620000D02*
X4634000Y-2650000D01*
X4634000Y-2620000D02*
X4604000Y-2650000D01*
X4605000Y-2187000D02*
X4635000Y-2217000D01*
X4635000Y-2187000D02*
X4605000Y-2217000D01*
X4629770Y-2883110D02*
X4659770Y-2913110D01*
X4659770Y-2883110D02*
X4629770Y-2913110D01*
X4655000Y-3245000D02*
X4685000Y-3275000D01*
X4685000Y-3245000D02*
X4655000Y-3275000D01*
X4676000Y-2666000D02*
X4706000Y-2696000D01*
X4706000Y-2666000D02*
X4676000Y-2696000D01*
X4680000Y-3590000D02*
X4710000Y-3620000D01*
X4710000Y-3590000D02*
X4680000Y-3620000D01*
X4695000Y-3845000D02*
X4725000Y-3875000D01*
X4725000Y-3845000D02*
X4695000Y-3875000D01*
X4724670Y-2915300D02*
X4754670Y-2945300D01*
X4754670Y-2915300D02*
X4724670Y-2945300D01*
X4750000Y-2580000D02*
X4780000Y-2610000D01*
X4780000Y-2580000D02*
X4750000Y-2610000D01*
X4758000Y-2485000D02*
X4788000Y-2515000D01*
X4788000Y-2485000D02*
X4758000Y-2515000D01*
X4769000Y-1864000D02*
X4799000Y-1894000D01*
X4799000Y-1864000D02*
X4769000Y-1894000D01*
X4782000Y-2205000D02*
X4812000Y-2235000D01*
X4812000Y-2205000D02*
X4782000Y-2235000D01*
X4785270Y-2680410D02*
X4815270Y-2710410D01*
X4815270Y-2680410D02*
X4785270Y-2710410D01*
X4811000Y-2414000D02*
X4841000Y-2444000D01*
X4841000Y-2414000D02*
X4811000Y-2444000D01*
X4828000Y-2276000D02*
X4858000Y-2306000D01*
X4858000Y-2276000D02*
X4828000Y-2306000D01*
X4848000Y-2786000D02*
X4878000Y-2816000D01*
X4878000Y-2786000D02*
X4848000Y-2816000D01*
X4855000Y-3095000D02*
X4885000Y-3125000D01*
X4885000Y-3095000D02*
X4855000Y-3125000D01*
X4855000Y-3615000D02*
X4885000Y-3645000D01*
X4885000Y-3615000D02*
X4855000Y-3645000D01*
X4895060Y-2832710D02*
X4925060Y-2862710D01*
X4925060Y-2832710D02*
X4895060Y-2862710D01*
X4952000Y-3083000D02*
X4982000Y-3113000D01*
X4982000Y-3083000D02*
X4952000Y-3113000D01*
X4965000Y-1835000D02*
X4995000Y-1865000D01*
X4995000Y-1835000D02*
X4965000Y-1865000D01*
X4975000Y-1705000D02*
X5005000Y-1735000D01*
X5005000Y-1705000D02*
X4975000Y-1735000D01*
X4976000Y-2495000D02*
X5006000Y-2525000D01*
X5006000Y-2495000D02*
X4976000Y-2525000D01*
X4985000Y-1915000D02*
X5015000Y-1945000D01*
X5015000Y-1915000D02*
X4985000Y-1945000D01*
X5007000Y-2609000D02*
X5037000Y-2639000D01*
X5037000Y-2609000D02*
X5007000Y-2639000D01*
X3407986Y-1762504D02*
G75*
G02*
X3347986Y-1762504I-30000J0D01*
G01*
X3347986Y-1762504D02*
G75*
G02*
X3407986Y-1762504I30000J0D01*
G01*
X3407986Y-1792504D02*
X3407986Y-1732504D01*
X3347986Y-1732504D02*
G75*
G02*
X3407986Y-1732504I30000J0D01*
G01*
X3347986Y-1732504D02*
X3347986Y-1792504D01*
X3347986Y-1792504D02*
G75*
G03*
X3407986Y-1792504I30000J0D01*
G01*
X3407986Y-2180513D02*
G75*
G02*
X3347986Y-2180513I-30000J0D01*
G01*
X3347986Y-2180513D02*
G75*
G02*
X3407986Y-2180513I30000J0D01*
G01*
X3407986Y-2225513D02*
X3407986Y-2135513D01*
X3347986Y-2135513D02*
G75*
G02*
X3407986Y-2135513I30000J0D01*
G01*
X3347986Y-2135513D02*
X3347986Y-2225513D01*
X3347986Y-2225513D02*
G75*
G03*
X3407986Y-2225513I30000J0D01*
G01*
X4271994Y-1762504D02*
G75*
G02*
X4211994Y-1762504I-30000J0D01*
G01*
X4211994Y-1762504D02*
G75*
G02*
X4271994Y-1762504I30000J0D01*
G01*
X4271994Y-1792504D02*
X4271994Y-1732504D01*
X4211994Y-1732504D02*
G75*
G02*
X4271994Y-1732504I30000J0D01*
G01*
X4211994Y-1732504D02*
X4211994Y-1792504D01*
X4211994Y-1792504D02*
G75*
G03*
X4271994Y-1792504I30000J0D01*
G01*
X4271994Y-2180513D02*
G75*
G02*
X4211994Y-2180513I-30000J0D01*
G01*
X4211994Y-2180513D02*
G75*
G02*
X4271994Y-2180513I30000J0D01*
G01*
X4271994Y-2225513D02*
X4271994Y-2135513D01*
X4211994Y-2135513D02*
G75*
G02*
X4271994Y-2135513I30000J0D01*
G01*
X4211994Y-2135513D02*
X4211994Y-2225513D01*
X4211994Y-2225513D02*
G75*
G03*
X4271994Y-2225513I30000J0D01*
G01*
X2721000Y-1754996D02*
X2721000Y-1854996D01*
X2671000Y-1804996D02*
X2771000Y-1804996D01*
X2721000Y-2008997D02*
X2721000Y-2108997D01*
X2671000Y-2058997D02*
X2771000Y-2058997D01*
X2721000Y-2262997D02*
X2721000Y-2362997D01*
X2671000Y-2312997D02*
X2771000Y-2312997D01*
X2721000Y-2516998D02*
X2721000Y-2616998D01*
X2671000Y-2566998D02*
X2771000Y-2566998D01*
X2721000Y-2770998D02*
X2721000Y-2870998D01*
X2671000Y-2820998D02*
X2771000Y-2820998D01*
X2721000Y-3024999D02*
X2721000Y-3124999D01*
X2671000Y-3074999D02*
X2771000Y-3074999D01*
X2721000Y-3278999D02*
X2721000Y-3378999D01*
X2671000Y-3328999D02*
X2771000Y-3328999D01*
X2721000Y-3533000D02*
X2721000Y-3633000D01*
X2671000Y-3583000D02*
X2771000Y-3583000D01*
X2721000Y-3787000D02*
X2721000Y-3887000D01*
X2671000Y-3837000D02*
X2771000Y-3837000D01*
X2721000Y-4041001D02*
X2721000Y-4141001D01*
X2671000Y-4091001D02*
X2771000Y-4091001D01*
X2721000Y-4295001D02*
X2721000Y-4395001D01*
X2671000Y-4345001D02*
X2771000Y-4345001D01*
X2721000Y-4549002D02*
X2721000Y-4649002D01*
X2671000Y-4599002D02*
X2771000Y-4599002D01*
X2721000Y-4803002D02*
X2721000Y-4903002D01*
X2671000Y-4853002D02*
X2771000Y-4853002D01*
X2721000Y-5057003D02*
X2721000Y-5157003D01*
X2671000Y-5107003D02*
X2771000Y-5107003D01*
X2721000Y-5311003D02*
X2721000Y-5411003D01*
X2671000Y-5361003D02*
X2771000Y-5361003D01*
X2721000Y-5565004D02*
X2721000Y-5665004D01*
X2671000Y-5615004D02*
X2771000Y-5615004D01*
X2975000Y-1754996D02*
X2975000Y-1854996D01*
X2925000Y-1804996D02*
X3025000Y-1804996D01*
X2975000Y-2008997D02*
X2975000Y-2108997D01*
X2925000Y-2058997D02*
X3025000Y-2058997D01*
X2975000Y-2262997D02*
X2975000Y-2362997D01*
X2925000Y-2312997D02*
X3025000Y-2312997D01*
X2975000Y-2516998D02*
X2975000Y-2616998D01*
X2925000Y-2566998D02*
X3025000Y-2566998D01*
X2975000Y-2770998D02*
X2975000Y-2870998D01*
X2925000Y-2820998D02*
X3025000Y-2820998D01*
X2975000Y-3024999D02*
X2975000Y-3124999D01*
X2925000Y-3074999D02*
X3025000Y-3074999D01*
X2975000Y-3278999D02*
X2975000Y-3378999D01*
X2925000Y-3328999D02*
X3025000Y-3328999D01*
X2975000Y-3533000D02*
X2975000Y-3633000D01*
X2925000Y-3583000D02*
X3025000Y-3583000D01*
X2975000Y-3787000D02*
X2975000Y-3887000D01*
X2925000Y-3837000D02*
X3025000Y-3837000D01*
X2975000Y-4041001D02*
X2975000Y-4141001D01*
X2925000Y-4091001D02*
X3025000Y-4091001D01*
X2975000Y-4295001D02*
X2975000Y-4395001D01*
X2925000Y-4345001D02*
X3025000Y-4345001D01*
X2975000Y-4549002D02*
X2975000Y-4649002D01*
X2925000Y-4599002D02*
X3025000Y-4599002D01*
X2975000Y-4803002D02*
X2975000Y-4903002D01*
X2925000Y-4853002D02*
X3025000Y-4853002D01*
X2975000Y-5057003D02*
X2975000Y-5157003D01*
X2925000Y-5107003D02*
X3025000Y-5107003D01*
X2975000Y-5311003D02*
X2975000Y-5411003D01*
X2925000Y-5361003D02*
X3025000Y-5361003D01*
X2975000Y-5565004D02*
X2975000Y-5665004D01*
X2925000Y-5615004D02*
X3025000Y-5615004D01*
D11*
X2755777Y-6366484D02*
X2755777Y-6166484D01*
X2755777Y-6166484D02*
X2803396Y-6166484D01*
X2803396Y-6166484D02*
X2831967Y-6176008D01*
X2831967Y-6176008D02*
X2851015Y-6195055D01*
X2851015Y-6195055D02*
X2860539Y-6214103D01*
X2860539Y-6214103D02*
X2870062Y-6252198D01*
X2870062Y-6252198D02*
X2870062Y-6280769D01*
X2870062Y-6280769D02*
X2860539Y-6318865D01*
X2860539Y-6318865D02*
X2851015Y-6337912D01*
X2851015Y-6337912D02*
X2831967Y-6356960D01*
X2831967Y-6356960D02*
X2803396Y-6366484D01*
X2803396Y-6366484D02*
X2755777Y-6366484D01*
X2955777Y-6366484D02*
X2955777Y-6233150D01*
X2955777Y-6271246D02*
X2965301Y-6252198D01*
X2965301Y-6252198D02*
X2974824Y-6242674D01*
X2974824Y-6242674D02*
X2993872Y-6233150D01*
X2993872Y-6233150D02*
X3012920Y-6233150D01*
X3079586Y-6366484D02*
X3079586Y-6233150D01*
X3079586Y-6166484D02*
X3070062Y-6176008D01*
X3070062Y-6176008D02*
X3079586Y-6185531D01*
X3079586Y-6185531D02*
X3089110Y-6176008D01*
X3089110Y-6176008D02*
X3079586Y-6166484D01*
X3079586Y-6166484D02*
X3079586Y-6185531D01*
X3203396Y-6366484D02*
X3184348Y-6356960D01*
X3184348Y-6356960D02*
X3174824Y-6337912D01*
X3174824Y-6337912D02*
X3174824Y-6166484D01*
X3308158Y-6366484D02*
X3289110Y-6356960D01*
X3289110Y-6356960D02*
X3279586Y-6337912D01*
X3279586Y-6337912D02*
X3279586Y-6166484D01*
X3536729Y-6366484D02*
X3536729Y-6166484D01*
X3536729Y-6166484D02*
X3603396Y-6309341D01*
X3603396Y-6309341D02*
X3670062Y-6166484D01*
X3670062Y-6166484D02*
X3670062Y-6366484D01*
X3851015Y-6366484D02*
X3851015Y-6261722D01*
X3851015Y-6261722D02*
X3841491Y-6242674D01*
X3841491Y-6242674D02*
X3822443Y-6233150D01*
X3822443Y-6233150D02*
X3784348Y-6233150D01*
X3784348Y-6233150D02*
X3765301Y-6242674D01*
X3851015Y-6356960D02*
X3831967Y-6366484D01*
X3831967Y-6366484D02*
X3784348Y-6366484D01*
X3784348Y-6366484D02*
X3765301Y-6356960D01*
X3765301Y-6356960D02*
X3755777Y-6337912D01*
X3755777Y-6337912D02*
X3755777Y-6318865D01*
X3755777Y-6318865D02*
X3765301Y-6299817D01*
X3765301Y-6299817D02*
X3784348Y-6290293D01*
X3784348Y-6290293D02*
X3831967Y-6290293D01*
X3831967Y-6290293D02*
X3851015Y-6280769D01*
X3946253Y-6233150D02*
X3946253Y-6433150D01*
X3946253Y-6242674D02*
X3965301Y-6233150D01*
X3965301Y-6233150D02*
X4003396Y-6233150D01*
X4003396Y-6233150D02*
X4022443Y-6242674D01*
X4022443Y-6242674D02*
X4031967Y-6252198D01*
X4031967Y-6252198D02*
X4041491Y-6271246D01*
X4041491Y-6271246D02*
X4041491Y-6328388D01*
X4041491Y-6328388D02*
X4031967Y-6347436D01*
X4031967Y-6347436D02*
X4022443Y-6356960D01*
X4022443Y-6356960D02*
X4003396Y-6366484D01*
X4003396Y-6366484D02*
X3965301Y-6366484D01*
X3965301Y-6366484D02*
X3946253Y-6356960D01*
X4127205Y-6347436D02*
X4136729Y-6356960D01*
X4136729Y-6356960D02*
X4127205Y-6366484D01*
X4127205Y-6366484D02*
X4117682Y-6356960D01*
X4117682Y-6356960D02*
X4127205Y-6347436D01*
X4127205Y-6347436D02*
X4127205Y-6366484D01*
X4127205Y-6242674D02*
X4136729Y-6252198D01*
X4136729Y-6252198D02*
X4127205Y-6261722D01*
X4127205Y-6261722D02*
X4117682Y-6252198D01*
X4117682Y-6252198D02*
X4127205Y-6242674D01*
X4127205Y-6242674D02*
X4127205Y-6261722D01*
D10*
X2465000Y-6680000D02*
X2495000Y-6710000D01*
X2495000Y-6680000D02*
X2465000Y-6710000D01*
D11*
X2793872Y-6586484D02*
X2812920Y-6586484D01*
X2812920Y-6586484D02*
X2831967Y-6596008D01*
X2831967Y-6596008D02*
X2841491Y-6605531D01*
X2841491Y-6605531D02*
X2851015Y-6624579D01*
X2851015Y-6624579D02*
X2860539Y-6662674D01*
X2860539Y-6662674D02*
X2860539Y-6710293D01*
X2860539Y-6710293D02*
X2851015Y-6748388D01*
X2851015Y-6748388D02*
X2841491Y-6767436D01*
X2841491Y-6767436D02*
X2831967Y-6776960D01*
X2831967Y-6776960D02*
X2812920Y-6786484D01*
X2812920Y-6786484D02*
X2793872Y-6786484D01*
X2793872Y-6786484D02*
X2774824Y-6776960D01*
X2774824Y-6776960D02*
X2765301Y-6767436D01*
X2765301Y-6767436D02*
X2755777Y-6748388D01*
X2755777Y-6748388D02*
X2746253Y-6710293D01*
X2746253Y-6710293D02*
X2746253Y-6662674D01*
X2746253Y-6662674D02*
X2755777Y-6624579D01*
X2755777Y-6624579D02*
X2765301Y-6605531D01*
X2765301Y-6605531D02*
X2774824Y-6596008D01*
X2774824Y-6596008D02*
X2793872Y-6586484D01*
X2946253Y-6767436D02*
X2955777Y-6776960D01*
X2955777Y-6776960D02*
X2946253Y-6786484D01*
X2946253Y-6786484D02*
X2936729Y-6776960D01*
X2936729Y-6776960D02*
X2946253Y-6767436D01*
X2946253Y-6767436D02*
X2946253Y-6786484D01*
X3022443Y-6586484D02*
X3146253Y-6586484D01*
X3146253Y-6586484D02*
X3079586Y-6662674D01*
X3079586Y-6662674D02*
X3108158Y-6662674D01*
X3108158Y-6662674D02*
X3127205Y-6672198D01*
X3127205Y-6672198D02*
X3136729Y-6681722D01*
X3136729Y-6681722D02*
X3146253Y-6700769D01*
X3146253Y-6700769D02*
X3146253Y-6748388D01*
X3146253Y-6748388D02*
X3136729Y-6767436D01*
X3136729Y-6767436D02*
X3127205Y-6776960D01*
X3127205Y-6776960D02*
X3108158Y-6786484D01*
X3108158Y-6786484D02*
X3051015Y-6786484D01*
X3051015Y-6786484D02*
X3031967Y-6776960D01*
X3031967Y-6776960D02*
X3022443Y-6767436D01*
X3270062Y-6586484D02*
X3289110Y-6586484D01*
X3289110Y-6586484D02*
X3308158Y-6596008D01*
X3308158Y-6596008D02*
X3317682Y-6605531D01*
X3317682Y-6605531D02*
X3327205Y-6624579D01*
X3327205Y-6624579D02*
X3336729Y-6662674D01*
X3336729Y-6662674D02*
X3336729Y-6710293D01*
X3336729Y-6710293D02*
X3327205Y-6748388D01*
X3327205Y-6748388D02*
X3317682Y-6767436D01*
X3317682Y-6767436D02*
X3308158Y-6776960D01*
X3308158Y-6776960D02*
X3289110Y-6786484D01*
X3289110Y-6786484D02*
X3270062Y-6786484D01*
X3270062Y-6786484D02*
X3251015Y-6776960D01*
X3251015Y-6776960D02*
X3241491Y-6767436D01*
X3241491Y-6767436D02*
X3231967Y-6748388D01*
X3231967Y-6748388D02*
X3222443Y-6710293D01*
X3222443Y-6710293D02*
X3222443Y-6662674D01*
X3222443Y-6662674D02*
X3231967Y-6624579D01*
X3231967Y-6624579D02*
X3241491Y-6605531D01*
X3241491Y-6605531D02*
X3251015Y-6596008D01*
X3251015Y-6596008D02*
X3270062Y-6586484D01*
X3460539Y-6586484D02*
X3479586Y-6586484D01*
X3479586Y-6586484D02*
X3498634Y-6596008D01*
X3498634Y-6596008D02*
X3508158Y-6605531D01*
X3508158Y-6605531D02*
X3517682Y-6624579D01*
X3517682Y-6624579D02*
X3527205Y-6662674D01*
X3527205Y-6662674D02*
X3527205Y-6710293D01*
X3527205Y-6710293D02*
X3517682Y-6748388D01*
X3517682Y-6748388D02*
X3508158Y-6767436D01*
X3508158Y-6767436D02*
X3498634Y-6776960D01*
X3498634Y-6776960D02*
X3479586Y-6786484D01*
X3479586Y-6786484D02*
X3460539Y-6786484D01*
X3460539Y-6786484D02*
X3441491Y-6776960D01*
X3441491Y-6776960D02*
X3431967Y-6767436D01*
X3431967Y-6767436D02*
X3422443Y-6748388D01*
X3422443Y-6748388D02*
X3412920Y-6710293D01*
X3412920Y-6710293D02*
X3412920Y-6662674D01*
X3412920Y-6662674D02*
X3422443Y-6624579D01*
X3422443Y-6624579D02*
X3431967Y-6605531D01*
X3431967Y-6605531D02*
X3441491Y-6596008D01*
X3441491Y-6596008D02*
X3460539Y-6586484D01*
X3612920Y-6786484D02*
X3612920Y-6653150D01*
X3612920Y-6672198D02*
X3622443Y-6662674D01*
X3622443Y-6662674D02*
X3641491Y-6653150D01*
X3641491Y-6653150D02*
X3670063Y-6653150D01*
X3670063Y-6653150D02*
X3689110Y-6662674D01*
X3689110Y-6662674D02*
X3698634Y-6681722D01*
X3698634Y-6681722D02*
X3698634Y-6786484D01*
X3698634Y-6681722D02*
X3708158Y-6662674D01*
X3708158Y-6662674D02*
X3727205Y-6653150D01*
X3727205Y-6653150D02*
X3755777Y-6653150D01*
X3755777Y-6653150D02*
X3774824Y-6662674D01*
X3774824Y-6662674D02*
X3784348Y-6681722D01*
X3784348Y-6681722D02*
X3784348Y-6786484D01*
X3879586Y-6786484D02*
X3879586Y-6653150D01*
X3879586Y-6672198D02*
X3889110Y-6662674D01*
X3889110Y-6662674D02*
X3908158Y-6653150D01*
X3908158Y-6653150D02*
X3936729Y-6653150D01*
X3936729Y-6653150D02*
X3955777Y-6662674D01*
X3955777Y-6662674D02*
X3965301Y-6681722D01*
X3965301Y-6681722D02*
X3965301Y-6786484D01*
X3965301Y-6681722D02*
X3974824Y-6662674D01*
X3974824Y-6662674D02*
X3993872Y-6653150D01*
X3993872Y-6653150D02*
X4022443Y-6653150D01*
X4022443Y-6653150D02*
X4041491Y-6662674D01*
X4041491Y-6662674D02*
X4051015Y-6681722D01*
X4051015Y-6681722D02*
X4051015Y-6786484D01*
X4441491Y-6576960D02*
X4270063Y-6834103D01*
X4698634Y-6586484D02*
X4717682Y-6586484D01*
X4717682Y-6586484D02*
X4736729Y-6596008D01*
X4736729Y-6596008D02*
X4746253Y-6605531D01*
X4746253Y-6605531D02*
X4755777Y-6624579D01*
X4755777Y-6624579D02*
X4765301Y-6662674D01*
X4765301Y-6662674D02*
X4765301Y-6710293D01*
X4765301Y-6710293D02*
X4755777Y-6748388D01*
X4755777Y-6748388D02*
X4746253Y-6767436D01*
X4746253Y-6767436D02*
X4736729Y-6776960D01*
X4736729Y-6776960D02*
X4717682Y-6786484D01*
X4717682Y-6786484D02*
X4698634Y-6786484D01*
X4698634Y-6786484D02*
X4679587Y-6776960D01*
X4679587Y-6776960D02*
X4670063Y-6767436D01*
X4670063Y-6767436D02*
X4660539Y-6748388D01*
X4660539Y-6748388D02*
X4651015Y-6710293D01*
X4651015Y-6710293D02*
X4651015Y-6662674D01*
X4651015Y-6662674D02*
X4660539Y-6624579D01*
X4660539Y-6624579D02*
X4670063Y-6605531D01*
X4670063Y-6605531D02*
X4679587Y-6596008D01*
X4679587Y-6596008D02*
X4698634Y-6586484D01*
X4851015Y-6767436D02*
X4860539Y-6776960D01*
X4860539Y-6776960D02*
X4851015Y-6786484D01*
X4851015Y-6786484D02*
X4841491Y-6776960D01*
X4841491Y-6776960D02*
X4851015Y-6767436D01*
X4851015Y-6767436D02*
X4851015Y-6786484D01*
X4984348Y-6586484D02*
X5003396Y-6586484D01*
X5003396Y-6586484D02*
X5022444Y-6596008D01*
X5022444Y-6596008D02*
X5031968Y-6605531D01*
X5031968Y-6605531D02*
X5041491Y-6624579D01*
X5041491Y-6624579D02*
X5051015Y-6662674D01*
X5051015Y-6662674D02*
X5051015Y-6710293D01*
X5051015Y-6710293D02*
X5041491Y-6748388D01*
X5041491Y-6748388D02*
X5031968Y-6767436D01*
X5031968Y-6767436D02*
X5022444Y-6776960D01*
X5022444Y-6776960D02*
X5003396Y-6786484D01*
X5003396Y-6786484D02*
X4984348Y-6786484D01*
X4984348Y-6786484D02*
X4965301Y-6776960D01*
X4965301Y-6776960D02*
X4955777Y-6767436D01*
X4955777Y-6767436D02*
X4946253Y-6748388D01*
X4946253Y-6748388D02*
X4936729Y-6710293D01*
X4936729Y-6710293D02*
X4936729Y-6662674D01*
X4936729Y-6662674D02*
X4946253Y-6624579D01*
X4946253Y-6624579D02*
X4955777Y-6605531D01*
X4955777Y-6605531D02*
X4965301Y-6596008D01*
X4965301Y-6596008D02*
X4984348Y-6586484D01*
X5241491Y-6786484D02*
X5127206Y-6786484D01*
X5184348Y-6786484D02*
X5184348Y-6586484D01*
X5184348Y-6586484D02*
X5165301Y-6615055D01*
X5165301Y-6615055D02*
X5146253Y-6634103D01*
X5146253Y-6634103D02*
X5127206Y-6643627D01*
X5431968Y-6786484D02*
X5317682Y-6786484D01*
X5374825Y-6786484D02*
X5374825Y-6586484D01*
X5374825Y-6586484D02*
X5355777Y-6615055D01*
X5355777Y-6615055D02*
X5336729Y-6634103D01*
X5336729Y-6634103D02*
X5317682Y-6643627D01*
X5546253Y-6672198D02*
X5527206Y-6662674D01*
X5527206Y-6662674D02*
X5517682Y-6653150D01*
X5517682Y-6653150D02*
X5508158Y-6634103D01*
X5508158Y-6634103D02*
X5508158Y-6624579D01*
X5508158Y-6624579D02*
X5517682Y-6605531D01*
X5517682Y-6605531D02*
X5527206Y-6596008D01*
X5527206Y-6596008D02*
X5546253Y-6586484D01*
X5546253Y-6586484D02*
X5584349Y-6586484D01*
X5584349Y-6586484D02*
X5603396Y-6596008D01*
X5603396Y-6596008D02*
X5612920Y-6605531D01*
X5612920Y-6605531D02*
X5622444Y-6624579D01*
X5622444Y-6624579D02*
X5622444Y-6634103D01*
X5622444Y-6634103D02*
X5612920Y-6653150D01*
X5612920Y-6653150D02*
X5603396Y-6662674D01*
X5603396Y-6662674D02*
X5584349Y-6672198D01*
X5584349Y-6672198D02*
X5546253Y-6672198D01*
X5546253Y-6672198D02*
X5527206Y-6681722D01*
X5527206Y-6681722D02*
X5517682Y-6691246D01*
X5517682Y-6691246D02*
X5508158Y-6710293D01*
X5508158Y-6710293D02*
X5508158Y-6748388D01*
X5508158Y-6748388D02*
X5517682Y-6767436D01*
X5517682Y-6767436D02*
X5527206Y-6776960D01*
X5527206Y-6776960D02*
X5546253Y-6786484D01*
X5546253Y-6786484D02*
X5584349Y-6786484D01*
X5584349Y-6786484D02*
X5603396Y-6776960D01*
X5603396Y-6776960D02*
X5612920Y-6767436D01*
X5612920Y-6767436D02*
X5622444Y-6748388D01*
X5622444Y-6748388D02*
X5622444Y-6710293D01*
X5622444Y-6710293D02*
X5612920Y-6691246D01*
X5612920Y-6691246D02*
X5603396Y-6681722D01*
X5603396Y-6681722D02*
X5584349Y-6672198D01*
X5698634Y-6586484D02*
X5698634Y-6624579D01*
X5774825Y-6586484D02*
X5774825Y-6624579D01*
X6070063Y-6862674D02*
X6060539Y-6853150D01*
X6060539Y-6853150D02*
X6041491Y-6824579D01*
X6041491Y-6824579D02*
X6031968Y-6805531D01*
X6031968Y-6805531D02*
X6022444Y-6776960D01*
X6022444Y-6776960D02*
X6012920Y-6729341D01*
X6012920Y-6729341D02*
X6012920Y-6691246D01*
X6012920Y-6691246D02*
X6022444Y-6643627D01*
X6022444Y-6643627D02*
X6031968Y-6615055D01*
X6031968Y-6615055D02*
X6041491Y-6596008D01*
X6041491Y-6596008D02*
X6060539Y-6567436D01*
X6060539Y-6567436D02*
X6070063Y-6557912D01*
X6174825Y-6672198D02*
X6155777Y-6662674D01*
X6155777Y-6662674D02*
X6146253Y-6653150D01*
X6146253Y-6653150D02*
X6136729Y-6634103D01*
X6136729Y-6634103D02*
X6136729Y-6624579D01*
X6136729Y-6624579D02*
X6146253Y-6605531D01*
X6146253Y-6605531D02*
X6155777Y-6596008D01*
X6155777Y-6596008D02*
X6174825Y-6586484D01*
X6174825Y-6586484D02*
X6212920Y-6586484D01*
X6212920Y-6586484D02*
X6231968Y-6596008D01*
X6231968Y-6596008D02*
X6241491Y-6605531D01*
X6241491Y-6605531D02*
X6251015Y-6624579D01*
X6251015Y-6624579D02*
X6251015Y-6634103D01*
X6251015Y-6634103D02*
X6241491Y-6653150D01*
X6241491Y-6653150D02*
X6231968Y-6662674D01*
X6231968Y-6662674D02*
X6212920Y-6672198D01*
X6212920Y-6672198D02*
X6174825Y-6672198D01*
X6174825Y-6672198D02*
X6155777Y-6681722D01*
X6155777Y-6681722D02*
X6146253Y-6691246D01*
X6146253Y-6691246D02*
X6136729Y-6710293D01*
X6136729Y-6710293D02*
X6136729Y-6748388D01*
X6136729Y-6748388D02*
X6146253Y-6767436D01*
X6146253Y-6767436D02*
X6155777Y-6776960D01*
X6155777Y-6776960D02*
X6174825Y-6786484D01*
X6174825Y-6786484D02*
X6212920Y-6786484D01*
X6212920Y-6786484D02*
X6231968Y-6776960D01*
X6231968Y-6776960D02*
X6241491Y-6767436D01*
X6241491Y-6767436D02*
X6251015Y-6748388D01*
X6251015Y-6748388D02*
X6251015Y-6710293D01*
X6251015Y-6710293D02*
X6241491Y-6691246D01*
X6241491Y-6691246D02*
X6231968Y-6681722D01*
X6231968Y-6681722D02*
X6212920Y-6672198D01*
X6422444Y-6653150D02*
X6422444Y-6786484D01*
X6374825Y-6576960D02*
X6327206Y-6719817D01*
X6327206Y-6719817D02*
X6451015Y-6719817D01*
X6679587Y-6786484D02*
X6679587Y-6586484D01*
X6765301Y-6786484D02*
X6765301Y-6681722D01*
X6765301Y-6681722D02*
X6755777Y-6662674D01*
X6755777Y-6662674D02*
X6736730Y-6653150D01*
X6736730Y-6653150D02*
X6708158Y-6653150D01*
X6708158Y-6653150D02*
X6689110Y-6662674D01*
X6689110Y-6662674D02*
X6679587Y-6672198D01*
X6889110Y-6786484D02*
X6870063Y-6776960D01*
X6870063Y-6776960D02*
X6860539Y-6767436D01*
X6860539Y-6767436D02*
X6851015Y-6748388D01*
X6851015Y-6748388D02*
X6851015Y-6691246D01*
X6851015Y-6691246D02*
X6860539Y-6672198D01*
X6860539Y-6672198D02*
X6870063Y-6662674D01*
X6870063Y-6662674D02*
X6889110Y-6653150D01*
X6889110Y-6653150D02*
X6917682Y-6653150D01*
X6917682Y-6653150D02*
X6936730Y-6662674D01*
X6936730Y-6662674D02*
X6946253Y-6672198D01*
X6946253Y-6672198D02*
X6955777Y-6691246D01*
X6955777Y-6691246D02*
X6955777Y-6748388D01*
X6955777Y-6748388D02*
X6946253Y-6767436D01*
X6946253Y-6767436D02*
X6936730Y-6776960D01*
X6936730Y-6776960D02*
X6917682Y-6786484D01*
X6917682Y-6786484D02*
X6889110Y-6786484D01*
X7070063Y-6786484D02*
X7051015Y-6776960D01*
X7051015Y-6776960D02*
X7041491Y-6757912D01*
X7041491Y-6757912D02*
X7041491Y-6586484D01*
X7222444Y-6776960D02*
X7203396Y-6786484D01*
X7203396Y-6786484D02*
X7165301Y-6786484D01*
X7165301Y-6786484D02*
X7146253Y-6776960D01*
X7146253Y-6776960D02*
X7136730Y-6757912D01*
X7136730Y-6757912D02*
X7136730Y-6681722D01*
X7136730Y-6681722D02*
X7146253Y-6662674D01*
X7146253Y-6662674D02*
X7165301Y-6653150D01*
X7165301Y-6653150D02*
X7203396Y-6653150D01*
X7203396Y-6653150D02*
X7222444Y-6662674D01*
X7222444Y-6662674D02*
X7231968Y-6681722D01*
X7231968Y-6681722D02*
X7231968Y-6700769D01*
X7231968Y-6700769D02*
X7136730Y-6719817D01*
X7308158Y-6776960D02*
X7327206Y-6786484D01*
X7327206Y-6786484D02*
X7365301Y-6786484D01*
X7365301Y-6786484D02*
X7384349Y-6776960D01*
X7384349Y-6776960D02*
X7393872Y-6757912D01*
X7393872Y-6757912D02*
X7393872Y-6748388D01*
X7393872Y-6748388D02*
X7384349Y-6729341D01*
X7384349Y-6729341D02*
X7365301Y-6719817D01*
X7365301Y-6719817D02*
X7336730Y-6719817D01*
X7336730Y-6719817D02*
X7317682Y-6710293D01*
X7317682Y-6710293D02*
X7308158Y-6691246D01*
X7308158Y-6691246D02*
X7308158Y-6681722D01*
X7308158Y-6681722D02*
X7317682Y-6662674D01*
X7317682Y-6662674D02*
X7336730Y-6653150D01*
X7336730Y-6653150D02*
X7365301Y-6653150D01*
X7365301Y-6653150D02*
X7384349Y-6662674D01*
X7460539Y-6862674D02*
X7470063Y-6853150D01*
X7470063Y-6853150D02*
X7489111Y-6824579D01*
X7489111Y-6824579D02*
X7498634Y-6805531D01*
X7498634Y-6805531D02*
X7508158Y-6776960D01*
X7508158Y-6776960D02*
X7517682Y-6729341D01*
X7517682Y-6729341D02*
X7517682Y-6691246D01*
X7517682Y-6691246D02*
X7508158Y-6643627D01*
X7508158Y-6643627D02*
X7498634Y-6615055D01*
X7498634Y-6615055D02*
X7489111Y-6596008D01*
X7489111Y-6596008D02*
X7470063Y-6567436D01*
X7470063Y-6567436D02*
X7460539Y-6557912D01*
D10*
X2495000Y-6959000D02*
G75*
G02*
X2435000Y-6959000I-30000J0D01*
G01*
X2435000Y-6959000D02*
G75*
G02*
X2495000Y-6959000I30000J0D01*
G01*
D11*
X2793872Y-6850484D02*
X2812920Y-6850484D01*
X2812920Y-6850484D02*
X2831967Y-6860008D01*
X2831967Y-6860008D02*
X2841491Y-6869531D01*
X2841491Y-6869531D02*
X2851015Y-6888579D01*
X2851015Y-6888579D02*
X2860539Y-6926674D01*
X2860539Y-6926674D02*
X2860539Y-6974293D01*
X2860539Y-6974293D02*
X2851015Y-7012388D01*
X2851015Y-7012388D02*
X2841491Y-7031436D01*
X2841491Y-7031436D02*
X2831967Y-7040960D01*
X2831967Y-7040960D02*
X2812920Y-7050484D01*
X2812920Y-7050484D02*
X2793872Y-7050484D01*
X2793872Y-7050484D02*
X2774824Y-7040960D01*
X2774824Y-7040960D02*
X2765301Y-7031436D01*
X2765301Y-7031436D02*
X2755777Y-7012388D01*
X2755777Y-7012388D02*
X2746253Y-6974293D01*
X2746253Y-6974293D02*
X2746253Y-6926674D01*
X2746253Y-6926674D02*
X2755777Y-6888579D01*
X2755777Y-6888579D02*
X2765301Y-6869531D01*
X2765301Y-6869531D02*
X2774824Y-6860008D01*
X2774824Y-6860008D02*
X2793872Y-6850484D01*
X2946253Y-7031436D02*
X2955777Y-7040960D01*
X2955777Y-7040960D02*
X2946253Y-7050484D01*
X2946253Y-7050484D02*
X2936729Y-7040960D01*
X2936729Y-7040960D02*
X2946253Y-7031436D01*
X2946253Y-7031436D02*
X2946253Y-7050484D01*
X3127205Y-6850484D02*
X3089110Y-6850484D01*
X3089110Y-6850484D02*
X3070062Y-6860008D01*
X3070062Y-6860008D02*
X3060539Y-6869531D01*
X3060539Y-6869531D02*
X3041491Y-6898103D01*
X3041491Y-6898103D02*
X3031967Y-6936198D01*
X3031967Y-6936198D02*
X3031967Y-7012388D01*
X3031967Y-7012388D02*
X3041491Y-7031436D01*
X3041491Y-7031436D02*
X3051015Y-7040960D01*
X3051015Y-7040960D02*
X3070062Y-7050484D01*
X3070062Y-7050484D02*
X3108158Y-7050484D01*
X3108158Y-7050484D02*
X3127205Y-7040960D01*
X3127205Y-7040960D02*
X3136729Y-7031436D01*
X3136729Y-7031436D02*
X3146253Y-7012388D01*
X3146253Y-7012388D02*
X3146253Y-6964769D01*
X3146253Y-6964769D02*
X3136729Y-6945722D01*
X3136729Y-6945722D02*
X3127205Y-6936198D01*
X3127205Y-6936198D02*
X3108158Y-6926674D01*
X3108158Y-6926674D02*
X3070062Y-6926674D01*
X3070062Y-6926674D02*
X3051015Y-6936198D01*
X3051015Y-6936198D02*
X3041491Y-6945722D01*
X3041491Y-6945722D02*
X3031967Y-6964769D01*
X3270062Y-6850484D02*
X3289110Y-6850484D01*
X3289110Y-6850484D02*
X3308158Y-6860008D01*
X3308158Y-6860008D02*
X3317682Y-6869531D01*
X3317682Y-6869531D02*
X3327205Y-6888579D01*
X3327205Y-6888579D02*
X3336729Y-6926674D01*
X3336729Y-6926674D02*
X3336729Y-6974293D01*
X3336729Y-6974293D02*
X3327205Y-7012388D01*
X3327205Y-7012388D02*
X3317682Y-7031436D01*
X3317682Y-7031436D02*
X3308158Y-7040960D01*
X3308158Y-7040960D02*
X3289110Y-7050484D01*
X3289110Y-7050484D02*
X3270062Y-7050484D01*
X3270062Y-7050484D02*
X3251015Y-7040960D01*
X3251015Y-7040960D02*
X3241491Y-7031436D01*
X3241491Y-7031436D02*
X3231967Y-7012388D01*
X3231967Y-7012388D02*
X3222443Y-6974293D01*
X3222443Y-6974293D02*
X3222443Y-6926674D01*
X3222443Y-6926674D02*
X3231967Y-6888579D01*
X3231967Y-6888579D02*
X3241491Y-6869531D01*
X3241491Y-6869531D02*
X3251015Y-6860008D01*
X3251015Y-6860008D02*
X3270062Y-6850484D01*
X3460539Y-6850484D02*
X3479586Y-6850484D01*
X3479586Y-6850484D02*
X3498634Y-6860008D01*
X3498634Y-6860008D02*
X3508158Y-6869531D01*
X3508158Y-6869531D02*
X3517682Y-6888579D01*
X3517682Y-6888579D02*
X3527205Y-6926674D01*
X3527205Y-6926674D02*
X3527205Y-6974293D01*
X3527205Y-6974293D02*
X3517682Y-7012388D01*
X3517682Y-7012388D02*
X3508158Y-7031436D01*
X3508158Y-7031436D02*
X3498634Y-7040960D01*
X3498634Y-7040960D02*
X3479586Y-7050484D01*
X3479586Y-7050484D02*
X3460539Y-7050484D01*
X3460539Y-7050484D02*
X3441491Y-7040960D01*
X3441491Y-7040960D02*
X3431967Y-7031436D01*
X3431967Y-7031436D02*
X3422443Y-7012388D01*
X3422443Y-7012388D02*
X3412920Y-6974293D01*
X3412920Y-6974293D02*
X3412920Y-6926674D01*
X3412920Y-6926674D02*
X3422443Y-6888579D01*
X3422443Y-6888579D02*
X3431967Y-6869531D01*
X3431967Y-6869531D02*
X3441491Y-6860008D01*
X3441491Y-6860008D02*
X3460539Y-6850484D01*
X3612920Y-7050484D02*
X3612920Y-6917150D01*
X3612920Y-6936198D02*
X3622443Y-6926674D01*
X3622443Y-6926674D02*
X3641491Y-6917150D01*
X3641491Y-6917150D02*
X3670063Y-6917150D01*
X3670063Y-6917150D02*
X3689110Y-6926674D01*
X3689110Y-6926674D02*
X3698634Y-6945722D01*
X3698634Y-6945722D02*
X3698634Y-7050484D01*
X3698634Y-6945722D02*
X3708158Y-6926674D01*
X3708158Y-6926674D02*
X3727205Y-6917150D01*
X3727205Y-6917150D02*
X3755777Y-6917150D01*
X3755777Y-6917150D02*
X3774824Y-6926674D01*
X3774824Y-6926674D02*
X3784348Y-6945722D01*
X3784348Y-6945722D02*
X3784348Y-7050484D01*
X3879586Y-7050484D02*
X3879586Y-6917150D01*
X3879586Y-6936198D02*
X3889110Y-6926674D01*
X3889110Y-6926674D02*
X3908158Y-6917150D01*
X3908158Y-6917150D02*
X3936729Y-6917150D01*
X3936729Y-6917150D02*
X3955777Y-6926674D01*
X3955777Y-6926674D02*
X3965301Y-6945722D01*
X3965301Y-6945722D02*
X3965301Y-7050484D01*
X3965301Y-6945722D02*
X3974824Y-6926674D01*
X3974824Y-6926674D02*
X3993872Y-6917150D01*
X3993872Y-6917150D02*
X4022443Y-6917150D01*
X4022443Y-6917150D02*
X4041491Y-6926674D01*
X4041491Y-6926674D02*
X4051015Y-6945722D01*
X4051015Y-6945722D02*
X4051015Y-7050484D01*
X4441491Y-6840960D02*
X4270063Y-7098103D01*
X4698634Y-6850484D02*
X4717682Y-6850484D01*
X4717682Y-6850484D02*
X4736729Y-6860008D01*
X4736729Y-6860008D02*
X4746253Y-6869531D01*
X4746253Y-6869531D02*
X4755777Y-6888579D01*
X4755777Y-6888579D02*
X4765301Y-6926674D01*
X4765301Y-6926674D02*
X4765301Y-6974293D01*
X4765301Y-6974293D02*
X4755777Y-7012388D01*
X4755777Y-7012388D02*
X4746253Y-7031436D01*
X4746253Y-7031436D02*
X4736729Y-7040960D01*
X4736729Y-7040960D02*
X4717682Y-7050484D01*
X4717682Y-7050484D02*
X4698634Y-7050484D01*
X4698634Y-7050484D02*
X4679587Y-7040960D01*
X4679587Y-7040960D02*
X4670063Y-7031436D01*
X4670063Y-7031436D02*
X4660539Y-7012388D01*
X4660539Y-7012388D02*
X4651015Y-6974293D01*
X4651015Y-6974293D02*
X4651015Y-6926674D01*
X4651015Y-6926674D02*
X4660539Y-6888579D01*
X4660539Y-6888579D02*
X4670063Y-6869531D01*
X4670063Y-6869531D02*
X4679587Y-6860008D01*
X4679587Y-6860008D02*
X4698634Y-6850484D01*
X4851015Y-7031436D02*
X4860539Y-7040960D01*
X4860539Y-7040960D02*
X4851015Y-7050484D01*
X4851015Y-7050484D02*
X4841491Y-7040960D01*
X4841491Y-7040960D02*
X4851015Y-7031436D01*
X4851015Y-7031436D02*
X4851015Y-7050484D01*
X4984348Y-6850484D02*
X5003396Y-6850484D01*
X5003396Y-6850484D02*
X5022444Y-6860008D01*
X5022444Y-6860008D02*
X5031968Y-6869531D01*
X5031968Y-6869531D02*
X5041491Y-6888579D01*
X5041491Y-6888579D02*
X5051015Y-6926674D01*
X5051015Y-6926674D02*
X5051015Y-6974293D01*
X5051015Y-6974293D02*
X5041491Y-7012388D01*
X5041491Y-7012388D02*
X5031968Y-7031436D01*
X5031968Y-7031436D02*
X5022444Y-7040960D01*
X5022444Y-7040960D02*
X5003396Y-7050484D01*
X5003396Y-7050484D02*
X4984348Y-7050484D01*
X4984348Y-7050484D02*
X4965301Y-7040960D01*
X4965301Y-7040960D02*
X4955777Y-7031436D01*
X4955777Y-7031436D02*
X4946253Y-7012388D01*
X4946253Y-7012388D02*
X4936729Y-6974293D01*
X4936729Y-6974293D02*
X4936729Y-6926674D01*
X4936729Y-6926674D02*
X4946253Y-6888579D01*
X4946253Y-6888579D02*
X4955777Y-6869531D01*
X4955777Y-6869531D02*
X4965301Y-6860008D01*
X4965301Y-6860008D02*
X4984348Y-6850484D01*
X5127206Y-6869531D02*
X5136729Y-6860008D01*
X5136729Y-6860008D02*
X5155777Y-6850484D01*
X5155777Y-6850484D02*
X5203396Y-6850484D01*
X5203396Y-6850484D02*
X5222444Y-6860008D01*
X5222444Y-6860008D02*
X5231968Y-6869531D01*
X5231968Y-6869531D02*
X5241491Y-6888579D01*
X5241491Y-6888579D02*
X5241491Y-6907627D01*
X5241491Y-6907627D02*
X5231968Y-6936198D01*
X5231968Y-6936198D02*
X5117682Y-7050484D01*
X5117682Y-7050484D02*
X5241491Y-7050484D01*
X5308158Y-6850484D02*
X5431968Y-6850484D01*
X5431968Y-6850484D02*
X5365301Y-6926674D01*
X5365301Y-6926674D02*
X5393872Y-6926674D01*
X5393872Y-6926674D02*
X5412920Y-6936198D01*
X5412920Y-6936198D02*
X5422444Y-6945722D01*
X5422444Y-6945722D02*
X5431968Y-6964769D01*
X5431968Y-6964769D02*
X5431968Y-7012388D01*
X5431968Y-7012388D02*
X5422444Y-7031436D01*
X5422444Y-7031436D02*
X5412920Y-7040960D01*
X5412920Y-7040960D02*
X5393872Y-7050484D01*
X5393872Y-7050484D02*
X5336729Y-7050484D01*
X5336729Y-7050484D02*
X5317682Y-7040960D01*
X5317682Y-7040960D02*
X5308158Y-7031436D01*
X5603396Y-6850484D02*
X5565301Y-6850484D01*
X5565301Y-6850484D02*
X5546253Y-6860008D01*
X5546253Y-6860008D02*
X5536729Y-6869531D01*
X5536729Y-6869531D02*
X5517682Y-6898103D01*
X5517682Y-6898103D02*
X5508158Y-6936198D01*
X5508158Y-6936198D02*
X5508158Y-7012388D01*
X5508158Y-7012388D02*
X5517682Y-7031436D01*
X5517682Y-7031436D02*
X5527206Y-7040960D01*
X5527206Y-7040960D02*
X5546253Y-7050484D01*
X5546253Y-7050484D02*
X5584349Y-7050484D01*
X5584349Y-7050484D02*
X5603396Y-7040960D01*
X5603396Y-7040960D02*
X5612920Y-7031436D01*
X5612920Y-7031436D02*
X5622444Y-7012388D01*
X5622444Y-7012388D02*
X5622444Y-6964769D01*
X5622444Y-6964769D02*
X5612920Y-6945722D01*
X5612920Y-6945722D02*
X5603396Y-6936198D01*
X5603396Y-6936198D02*
X5584349Y-6926674D01*
X5584349Y-6926674D02*
X5546253Y-6926674D01*
X5546253Y-6926674D02*
X5527206Y-6936198D01*
X5527206Y-6936198D02*
X5517682Y-6945722D01*
X5517682Y-6945722D02*
X5508158Y-6964769D01*
X5698634Y-6850484D02*
X5698634Y-6888579D01*
X5774825Y-6850484D02*
X5774825Y-6888579D01*
X6070063Y-7126674D02*
X6060539Y-7117150D01*
X6060539Y-7117150D02*
X6041491Y-7088579D01*
X6041491Y-7088579D02*
X6031968Y-7069531D01*
X6031968Y-7069531D02*
X6022444Y-7040960D01*
X6022444Y-7040960D02*
X6012920Y-6993341D01*
X6012920Y-6993341D02*
X6012920Y-6955246D01*
X6012920Y-6955246D02*
X6022444Y-6907627D01*
X6022444Y-6907627D02*
X6031968Y-6879055D01*
X6031968Y-6879055D02*
X6041491Y-6860008D01*
X6041491Y-6860008D02*
X6060539Y-6831436D01*
X6060539Y-6831436D02*
X6070063Y-6821912D01*
X6184348Y-6850484D02*
X6203396Y-6850484D01*
X6203396Y-6850484D02*
X6222444Y-6860008D01*
X6222444Y-6860008D02*
X6231968Y-6869531D01*
X6231968Y-6869531D02*
X6241491Y-6888579D01*
X6241491Y-6888579D02*
X6251015Y-6926674D01*
X6251015Y-6926674D02*
X6251015Y-6974293D01*
X6251015Y-6974293D02*
X6241491Y-7012388D01*
X6241491Y-7012388D02*
X6231968Y-7031436D01*
X6231968Y-7031436D02*
X6222444Y-7040960D01*
X6222444Y-7040960D02*
X6203396Y-7050484D01*
X6203396Y-7050484D02*
X6184348Y-7050484D01*
X6184348Y-7050484D02*
X6165301Y-7040960D01*
X6165301Y-7040960D02*
X6155777Y-7031436D01*
X6155777Y-7031436D02*
X6146253Y-7012388D01*
X6146253Y-7012388D02*
X6136729Y-6974293D01*
X6136729Y-6974293D02*
X6136729Y-6926674D01*
X6136729Y-6926674D02*
X6146253Y-6888579D01*
X6146253Y-6888579D02*
X6155777Y-6869531D01*
X6155777Y-6869531D02*
X6165301Y-6860008D01*
X6165301Y-6860008D02*
X6184348Y-6850484D01*
X6489110Y-7050484D02*
X6489110Y-6850484D01*
X6574825Y-7050484D02*
X6574825Y-6945722D01*
X6574825Y-6945722D02*
X6565301Y-6926674D01*
X6565301Y-6926674D02*
X6546253Y-6917150D01*
X6546253Y-6917150D02*
X6517682Y-6917150D01*
X6517682Y-6917150D02*
X6498634Y-6926674D01*
X6498634Y-6926674D02*
X6489110Y-6936198D01*
X6698634Y-7050484D02*
X6679587Y-7040960D01*
X6679587Y-7040960D02*
X6670063Y-7031436D01*
X6670063Y-7031436D02*
X6660539Y-7012388D01*
X6660539Y-7012388D02*
X6660539Y-6955246D01*
X6660539Y-6955246D02*
X6670063Y-6936198D01*
X6670063Y-6936198D02*
X6679587Y-6926674D01*
X6679587Y-6926674D02*
X6698634Y-6917150D01*
X6698634Y-6917150D02*
X6727206Y-6917150D01*
X6727206Y-6917150D02*
X6746253Y-6926674D01*
X6746253Y-6926674D02*
X6755777Y-6936198D01*
X6755777Y-6936198D02*
X6765301Y-6955246D01*
X6765301Y-6955246D02*
X6765301Y-7012388D01*
X6765301Y-7012388D02*
X6755777Y-7031436D01*
X6755777Y-7031436D02*
X6746253Y-7040960D01*
X6746253Y-7040960D02*
X6727206Y-7050484D01*
X6727206Y-7050484D02*
X6698634Y-7050484D01*
X6879587Y-7050484D02*
X6860539Y-7040960D01*
X6860539Y-7040960D02*
X6851015Y-7021912D01*
X6851015Y-7021912D02*
X6851015Y-6850484D01*
X7031968Y-7040960D02*
X7012920Y-7050484D01*
X7012920Y-7050484D02*
X6974825Y-7050484D01*
X6974825Y-7050484D02*
X6955777Y-7040960D01*
X6955777Y-7040960D02*
X6946253Y-7021912D01*
X6946253Y-7021912D02*
X6946253Y-6945722D01*
X6946253Y-6945722D02*
X6955777Y-6926674D01*
X6955777Y-6926674D02*
X6974825Y-6917150D01*
X6974825Y-6917150D02*
X7012920Y-6917150D01*
X7012920Y-6917150D02*
X7031968Y-6926674D01*
X7031968Y-6926674D02*
X7041491Y-6945722D01*
X7041491Y-6945722D02*
X7041491Y-6964769D01*
X7041491Y-6964769D02*
X6946253Y-6983817D01*
X7117682Y-7040960D02*
X7136730Y-7050484D01*
X7136730Y-7050484D02*
X7174825Y-7050484D01*
X7174825Y-7050484D02*
X7193872Y-7040960D01*
X7193872Y-7040960D02*
X7203396Y-7021912D01*
X7203396Y-7021912D02*
X7203396Y-7012388D01*
X7203396Y-7012388D02*
X7193872Y-6993341D01*
X7193872Y-6993341D02*
X7174825Y-6983817D01*
X7174825Y-6983817D02*
X7146253Y-6983817D01*
X7146253Y-6983817D02*
X7127206Y-6974293D01*
X7127206Y-6974293D02*
X7117682Y-6955246D01*
X7117682Y-6955246D02*
X7117682Y-6945722D01*
X7117682Y-6945722D02*
X7127206Y-6926674D01*
X7127206Y-6926674D02*
X7146253Y-6917150D01*
X7146253Y-6917150D02*
X7174825Y-6917150D01*
X7174825Y-6917150D02*
X7193872Y-6926674D01*
X7441492Y-6974293D02*
X7593873Y-6974293D01*
X7517682Y-7050484D02*
X7517682Y-6898103D01*
X7927206Y-6917150D02*
X7927206Y-7050484D01*
X7879587Y-6840960D02*
X7831968Y-6983817D01*
X7831968Y-6983817D02*
X7955777Y-6983817D01*
X8174825Y-7040960D02*
X8193873Y-7050484D01*
X8193873Y-7050484D02*
X8231968Y-7050484D01*
X8231968Y-7050484D02*
X8251015Y-7040960D01*
X8251015Y-7040960D02*
X8260539Y-7021912D01*
X8260539Y-7021912D02*
X8260539Y-7012388D01*
X8260539Y-7012388D02*
X8251015Y-6993341D01*
X8251015Y-6993341D02*
X8231968Y-6983817D01*
X8231968Y-6983817D02*
X8203396Y-6983817D01*
X8203396Y-6983817D02*
X8184349Y-6974293D01*
X8184349Y-6974293D02*
X8174825Y-6955246D01*
X8174825Y-6955246D02*
X8174825Y-6945722D01*
X8174825Y-6945722D02*
X8184349Y-6926674D01*
X8184349Y-6926674D02*
X8203396Y-6917150D01*
X8203396Y-6917150D02*
X8231968Y-6917150D01*
X8231968Y-6917150D02*
X8251015Y-6926674D01*
X8374825Y-7050484D02*
X8355777Y-7040960D01*
X8355777Y-7040960D02*
X8346254Y-7021912D01*
X8346254Y-7021912D02*
X8346254Y-6850484D01*
X8479587Y-7050484D02*
X8460539Y-7040960D01*
X8460539Y-7040960D02*
X8451016Y-7031436D01*
X8451016Y-7031436D02*
X8441492Y-7012388D01*
X8441492Y-7012388D02*
X8441492Y-6955246D01*
X8441492Y-6955246D02*
X8451016Y-6936198D01*
X8451016Y-6936198D02*
X8460539Y-6926674D01*
X8460539Y-6926674D02*
X8479587Y-6917150D01*
X8479587Y-6917150D02*
X8508158Y-6917150D01*
X8508158Y-6917150D02*
X8527206Y-6926674D01*
X8527206Y-6926674D02*
X8536730Y-6936198D01*
X8536730Y-6936198D02*
X8546254Y-6955246D01*
X8546254Y-6955246D02*
X8546254Y-7012388D01*
X8546254Y-7012388D02*
X8536730Y-7031436D01*
X8536730Y-7031436D02*
X8527206Y-7040960D01*
X8527206Y-7040960D02*
X8508158Y-7050484D01*
X8508158Y-7050484D02*
X8479587Y-7050484D01*
X8603397Y-6917150D02*
X8679587Y-6917150D01*
X8631968Y-6850484D02*
X8631968Y-7021912D01*
X8631968Y-7021912D02*
X8641492Y-7040960D01*
X8641492Y-7040960D02*
X8660539Y-7050484D01*
X8660539Y-7050484D02*
X8679587Y-7050484D01*
X8736730Y-7040960D02*
X8755777Y-7050484D01*
X8755777Y-7050484D02*
X8793873Y-7050484D01*
X8793873Y-7050484D02*
X8812920Y-7040960D01*
X8812920Y-7040960D02*
X8822444Y-7021912D01*
X8822444Y-7021912D02*
X8822444Y-7012388D01*
X8822444Y-7012388D02*
X8812920Y-6993341D01*
X8812920Y-6993341D02*
X8793873Y-6983817D01*
X8793873Y-6983817D02*
X8765301Y-6983817D01*
X8765301Y-6983817D02*
X8746254Y-6974293D01*
X8746254Y-6974293D02*
X8736730Y-6955246D01*
X8736730Y-6955246D02*
X8736730Y-6945722D01*
X8736730Y-6945722D02*
X8746254Y-6926674D01*
X8746254Y-6926674D02*
X8765301Y-6917150D01*
X8765301Y-6917150D02*
X8793873Y-6917150D01*
X8793873Y-6917150D02*
X8812920Y-6926674D01*
X8889111Y-7126674D02*
X8898635Y-7117150D01*
X8898635Y-7117150D02*
X8917682Y-7088579D01*
X8917682Y-7088579D02*
X8927206Y-7069531D01*
X8927206Y-7069531D02*
X8936730Y-7040960D01*
X8936730Y-7040960D02*
X8946254Y-6993341D01*
X8946254Y-6993341D02*
X8946254Y-6955246D01*
X8946254Y-6955246D02*
X8936730Y-6907627D01*
X8936730Y-6907627D02*
X8927206Y-6879055D01*
X8927206Y-6879055D02*
X8917682Y-6860008D01*
X8917682Y-6860008D02*
X8898635Y-6831436D01*
X8898635Y-6831436D02*
X8889111Y-6821912D01*
D10*
X2445000Y-7173000D02*
X2445000Y-7273000D01*
X2395000Y-7223000D02*
X2495000Y-7223000D01*
D11*
X2860539Y-7314484D02*
X2746253Y-7314484D01*
X2803396Y-7314484D02*
X2803396Y-7114484D01*
X2803396Y-7114484D02*
X2784348Y-7143055D01*
X2784348Y-7143055D02*
X2765301Y-7162103D01*
X2765301Y-7162103D02*
X2746253Y-7171627D01*
X2946253Y-7295436D02*
X2955777Y-7304960D01*
X2955777Y-7304960D02*
X2946253Y-7314484D01*
X2946253Y-7314484D02*
X2936729Y-7304960D01*
X2936729Y-7304960D02*
X2946253Y-7295436D01*
X2946253Y-7295436D02*
X2946253Y-7314484D01*
X3079586Y-7114484D02*
X3098634Y-7114484D01*
X3098634Y-7114484D02*
X3117682Y-7124008D01*
X3117682Y-7124008D02*
X3127205Y-7133531D01*
X3127205Y-7133531D02*
X3136729Y-7152579D01*
X3136729Y-7152579D02*
X3146253Y-7190674D01*
X3146253Y-7190674D02*
X3146253Y-7238293D01*
X3146253Y-7238293D02*
X3136729Y-7276388D01*
X3136729Y-7276388D02*
X3127205Y-7295436D01*
X3127205Y-7295436D02*
X3117682Y-7304960D01*
X3117682Y-7304960D02*
X3098634Y-7314484D01*
X3098634Y-7314484D02*
X3079586Y-7314484D01*
X3079586Y-7314484D02*
X3060539Y-7304960D01*
X3060539Y-7304960D02*
X3051015Y-7295436D01*
X3051015Y-7295436D02*
X3041491Y-7276388D01*
X3041491Y-7276388D02*
X3031967Y-7238293D01*
X3031967Y-7238293D02*
X3031967Y-7190674D01*
X3031967Y-7190674D02*
X3041491Y-7152579D01*
X3041491Y-7152579D02*
X3051015Y-7133531D01*
X3051015Y-7133531D02*
X3060539Y-7124008D01*
X3060539Y-7124008D02*
X3079586Y-7114484D01*
X3270062Y-7114484D02*
X3289110Y-7114484D01*
X3289110Y-7114484D02*
X3308158Y-7124008D01*
X3308158Y-7124008D02*
X3317682Y-7133531D01*
X3317682Y-7133531D02*
X3327205Y-7152579D01*
X3327205Y-7152579D02*
X3336729Y-7190674D01*
X3336729Y-7190674D02*
X3336729Y-7238293D01*
X3336729Y-7238293D02*
X3327205Y-7276388D01*
X3327205Y-7276388D02*
X3317682Y-7295436D01*
X3317682Y-7295436D02*
X3308158Y-7304960D01*
X3308158Y-7304960D02*
X3289110Y-7314484D01*
X3289110Y-7314484D02*
X3270062Y-7314484D01*
X3270062Y-7314484D02*
X3251015Y-7304960D01*
X3251015Y-7304960D02*
X3241491Y-7295436D01*
X3241491Y-7295436D02*
X3231967Y-7276388D01*
X3231967Y-7276388D02*
X3222443Y-7238293D01*
X3222443Y-7238293D02*
X3222443Y-7190674D01*
X3222443Y-7190674D02*
X3231967Y-7152579D01*
X3231967Y-7152579D02*
X3241491Y-7133531D01*
X3241491Y-7133531D02*
X3251015Y-7124008D01*
X3251015Y-7124008D02*
X3270062Y-7114484D01*
X3460539Y-7114484D02*
X3479586Y-7114484D01*
X3479586Y-7114484D02*
X3498634Y-7124008D01*
X3498634Y-7124008D02*
X3508158Y-7133531D01*
X3508158Y-7133531D02*
X3517682Y-7152579D01*
X3517682Y-7152579D02*
X3527205Y-7190674D01*
X3527205Y-7190674D02*
X3527205Y-7238293D01*
X3527205Y-7238293D02*
X3517682Y-7276388D01*
X3517682Y-7276388D02*
X3508158Y-7295436D01*
X3508158Y-7295436D02*
X3498634Y-7304960D01*
X3498634Y-7304960D02*
X3479586Y-7314484D01*
X3479586Y-7314484D02*
X3460539Y-7314484D01*
X3460539Y-7314484D02*
X3441491Y-7304960D01*
X3441491Y-7304960D02*
X3431967Y-7295436D01*
X3431967Y-7295436D02*
X3422443Y-7276388D01*
X3422443Y-7276388D02*
X3412920Y-7238293D01*
X3412920Y-7238293D02*
X3412920Y-7190674D01*
X3412920Y-7190674D02*
X3422443Y-7152579D01*
X3422443Y-7152579D02*
X3431967Y-7133531D01*
X3431967Y-7133531D02*
X3441491Y-7124008D01*
X3441491Y-7124008D02*
X3460539Y-7114484D01*
X3612920Y-7314484D02*
X3612920Y-7181150D01*
X3612920Y-7200198D02*
X3622443Y-7190674D01*
X3622443Y-7190674D02*
X3641491Y-7181150D01*
X3641491Y-7181150D02*
X3670063Y-7181150D01*
X3670063Y-7181150D02*
X3689110Y-7190674D01*
X3689110Y-7190674D02*
X3698634Y-7209722D01*
X3698634Y-7209722D02*
X3698634Y-7314484D01*
X3698634Y-7209722D02*
X3708158Y-7190674D01*
X3708158Y-7190674D02*
X3727205Y-7181150D01*
X3727205Y-7181150D02*
X3755777Y-7181150D01*
X3755777Y-7181150D02*
X3774824Y-7190674D01*
X3774824Y-7190674D02*
X3784348Y-7209722D01*
X3784348Y-7209722D02*
X3784348Y-7314484D01*
X3879586Y-7314484D02*
X3879586Y-7181150D01*
X3879586Y-7200198D02*
X3889110Y-7190674D01*
X3889110Y-7190674D02*
X3908158Y-7181150D01*
X3908158Y-7181150D02*
X3936729Y-7181150D01*
X3936729Y-7181150D02*
X3955777Y-7190674D01*
X3955777Y-7190674D02*
X3965301Y-7209722D01*
X3965301Y-7209722D02*
X3965301Y-7314484D01*
X3965301Y-7209722D02*
X3974824Y-7190674D01*
X3974824Y-7190674D02*
X3993872Y-7181150D01*
X3993872Y-7181150D02*
X4022443Y-7181150D01*
X4022443Y-7181150D02*
X4041491Y-7190674D01*
X4041491Y-7190674D02*
X4051015Y-7209722D01*
X4051015Y-7209722D02*
X4051015Y-7314484D01*
X4441491Y-7104960D02*
X4270063Y-7362103D01*
X4698634Y-7114484D02*
X4717682Y-7114484D01*
X4717682Y-7114484D02*
X4736729Y-7124008D01*
X4736729Y-7124008D02*
X4746253Y-7133531D01*
X4746253Y-7133531D02*
X4755777Y-7152579D01*
X4755777Y-7152579D02*
X4765301Y-7190674D01*
X4765301Y-7190674D02*
X4765301Y-7238293D01*
X4765301Y-7238293D02*
X4755777Y-7276388D01*
X4755777Y-7276388D02*
X4746253Y-7295436D01*
X4746253Y-7295436D02*
X4736729Y-7304960D01*
X4736729Y-7304960D02*
X4717682Y-7314484D01*
X4717682Y-7314484D02*
X4698634Y-7314484D01*
X4698634Y-7314484D02*
X4679587Y-7304960D01*
X4679587Y-7304960D02*
X4670063Y-7295436D01*
X4670063Y-7295436D02*
X4660539Y-7276388D01*
X4660539Y-7276388D02*
X4651015Y-7238293D01*
X4651015Y-7238293D02*
X4651015Y-7190674D01*
X4651015Y-7190674D02*
X4660539Y-7152579D01*
X4660539Y-7152579D02*
X4670063Y-7133531D01*
X4670063Y-7133531D02*
X4679587Y-7124008D01*
X4679587Y-7124008D02*
X4698634Y-7114484D01*
X4851015Y-7295436D02*
X4860539Y-7304960D01*
X4860539Y-7304960D02*
X4851015Y-7314484D01*
X4851015Y-7314484D02*
X4841491Y-7304960D01*
X4841491Y-7304960D02*
X4851015Y-7295436D01*
X4851015Y-7295436D02*
X4851015Y-7314484D01*
X4984348Y-7114484D02*
X5003396Y-7114484D01*
X5003396Y-7114484D02*
X5022444Y-7124008D01*
X5022444Y-7124008D02*
X5031968Y-7133531D01*
X5031968Y-7133531D02*
X5041491Y-7152579D01*
X5041491Y-7152579D02*
X5051015Y-7190674D01*
X5051015Y-7190674D02*
X5051015Y-7238293D01*
X5051015Y-7238293D02*
X5041491Y-7276388D01*
X5041491Y-7276388D02*
X5031968Y-7295436D01*
X5031968Y-7295436D02*
X5022444Y-7304960D01*
X5022444Y-7304960D02*
X5003396Y-7314484D01*
X5003396Y-7314484D02*
X4984348Y-7314484D01*
X4984348Y-7314484D02*
X4965301Y-7304960D01*
X4965301Y-7304960D02*
X4955777Y-7295436D01*
X4955777Y-7295436D02*
X4946253Y-7276388D01*
X4946253Y-7276388D02*
X4936729Y-7238293D01*
X4936729Y-7238293D02*
X4936729Y-7190674D01*
X4936729Y-7190674D02*
X4946253Y-7152579D01*
X4946253Y-7152579D02*
X4955777Y-7133531D01*
X4955777Y-7133531D02*
X4965301Y-7124008D01*
X4965301Y-7124008D02*
X4984348Y-7114484D01*
X5117682Y-7114484D02*
X5241491Y-7114484D01*
X5241491Y-7114484D02*
X5174825Y-7190674D01*
X5174825Y-7190674D02*
X5203396Y-7190674D01*
X5203396Y-7190674D02*
X5222444Y-7200198D01*
X5222444Y-7200198D02*
X5231968Y-7209722D01*
X5231968Y-7209722D02*
X5241491Y-7228769D01*
X5241491Y-7228769D02*
X5241491Y-7276388D01*
X5241491Y-7276388D02*
X5231968Y-7295436D01*
X5231968Y-7295436D02*
X5222444Y-7304960D01*
X5222444Y-7304960D02*
X5203396Y-7314484D01*
X5203396Y-7314484D02*
X5146253Y-7314484D01*
X5146253Y-7314484D02*
X5127206Y-7304960D01*
X5127206Y-7304960D02*
X5117682Y-7295436D01*
X5336729Y-7314484D02*
X5374825Y-7314484D01*
X5374825Y-7314484D02*
X5393872Y-7304960D01*
X5393872Y-7304960D02*
X5403396Y-7295436D01*
X5403396Y-7295436D02*
X5422444Y-7266865D01*
X5422444Y-7266865D02*
X5431968Y-7228769D01*
X5431968Y-7228769D02*
X5431968Y-7152579D01*
X5431968Y-7152579D02*
X5422444Y-7133531D01*
X5422444Y-7133531D02*
X5412920Y-7124008D01*
X5412920Y-7124008D02*
X5393872Y-7114484D01*
X5393872Y-7114484D02*
X5355777Y-7114484D01*
X5355777Y-7114484D02*
X5336729Y-7124008D01*
X5336729Y-7124008D02*
X5327206Y-7133531D01*
X5327206Y-7133531D02*
X5317682Y-7152579D01*
X5317682Y-7152579D02*
X5317682Y-7200198D01*
X5317682Y-7200198D02*
X5327206Y-7219246D01*
X5327206Y-7219246D02*
X5336729Y-7228769D01*
X5336729Y-7228769D02*
X5355777Y-7238293D01*
X5355777Y-7238293D02*
X5393872Y-7238293D01*
X5393872Y-7238293D02*
X5412920Y-7228769D01*
X5412920Y-7228769D02*
X5422444Y-7219246D01*
X5422444Y-7219246D02*
X5431968Y-7200198D01*
X5603396Y-7181150D02*
X5603396Y-7314484D01*
X5555777Y-7104960D02*
X5508158Y-7247817D01*
X5508158Y-7247817D02*
X5631967Y-7247817D01*
X5698634Y-7114484D02*
X5698634Y-7152579D01*
X5774825Y-7114484D02*
X5774825Y-7152579D01*
X6070063Y-7390674D02*
X6060539Y-7381150D01*
X6060539Y-7381150D02*
X6041491Y-7352579D01*
X6041491Y-7352579D02*
X6031968Y-7333531D01*
X6031968Y-7333531D02*
X6022444Y-7304960D01*
X6022444Y-7304960D02*
X6012920Y-7257341D01*
X6012920Y-7257341D02*
X6012920Y-7219246D01*
X6012920Y-7219246D02*
X6022444Y-7171627D01*
X6022444Y-7171627D02*
X6031968Y-7143055D01*
X6031968Y-7143055D02*
X6041491Y-7124008D01*
X6041491Y-7124008D02*
X6060539Y-7095436D01*
X6060539Y-7095436D02*
X6070063Y-7085912D01*
X6127206Y-7114484D02*
X6251015Y-7114484D01*
X6251015Y-7114484D02*
X6184348Y-7190674D01*
X6184348Y-7190674D02*
X6212920Y-7190674D01*
X6212920Y-7190674D02*
X6231968Y-7200198D01*
X6231968Y-7200198D02*
X6241491Y-7209722D01*
X6241491Y-7209722D02*
X6251015Y-7228769D01*
X6251015Y-7228769D02*
X6251015Y-7276388D01*
X6251015Y-7276388D02*
X6241491Y-7295436D01*
X6241491Y-7295436D02*
X6231968Y-7304960D01*
X6231968Y-7304960D02*
X6212920Y-7314484D01*
X6212920Y-7314484D02*
X6155777Y-7314484D01*
X6155777Y-7314484D02*
X6136729Y-7304960D01*
X6136729Y-7304960D02*
X6127206Y-7295436D01*
X6327206Y-7133531D02*
X6336729Y-7124008D01*
X6336729Y-7124008D02*
X6355777Y-7114484D01*
X6355777Y-7114484D02*
X6403396Y-7114484D01*
X6403396Y-7114484D02*
X6422444Y-7124008D01*
X6422444Y-7124008D02*
X6431968Y-7133531D01*
X6431968Y-7133531D02*
X6441491Y-7152579D01*
X6441491Y-7152579D02*
X6441491Y-7171627D01*
X6441491Y-7171627D02*
X6431968Y-7200198D01*
X6431968Y-7200198D02*
X6317682Y-7314484D01*
X6317682Y-7314484D02*
X6441491Y-7314484D01*
X6679587Y-7314484D02*
X6679587Y-7114484D01*
X6765301Y-7314484D02*
X6765301Y-7209722D01*
X6765301Y-7209722D02*
X6755777Y-7190674D01*
X6755777Y-7190674D02*
X6736730Y-7181150D01*
X6736730Y-7181150D02*
X6708158Y-7181150D01*
X6708158Y-7181150D02*
X6689110Y-7190674D01*
X6689110Y-7190674D02*
X6679587Y-7200198D01*
X6889110Y-7314484D02*
X6870063Y-7304960D01*
X6870063Y-7304960D02*
X6860539Y-7295436D01*
X6860539Y-7295436D02*
X6851015Y-7276388D01*
X6851015Y-7276388D02*
X6851015Y-7219246D01*
X6851015Y-7219246D02*
X6860539Y-7200198D01*
X6860539Y-7200198D02*
X6870063Y-7190674D01*
X6870063Y-7190674D02*
X6889110Y-7181150D01*
X6889110Y-7181150D02*
X6917682Y-7181150D01*
X6917682Y-7181150D02*
X6936730Y-7190674D01*
X6936730Y-7190674D02*
X6946253Y-7200198D01*
X6946253Y-7200198D02*
X6955777Y-7219246D01*
X6955777Y-7219246D02*
X6955777Y-7276388D01*
X6955777Y-7276388D02*
X6946253Y-7295436D01*
X6946253Y-7295436D02*
X6936730Y-7304960D01*
X6936730Y-7304960D02*
X6917682Y-7314484D01*
X6917682Y-7314484D02*
X6889110Y-7314484D01*
X7070063Y-7314484D02*
X7051015Y-7304960D01*
X7051015Y-7304960D02*
X7041491Y-7285912D01*
X7041491Y-7285912D02*
X7041491Y-7114484D01*
X7222444Y-7304960D02*
X7203396Y-7314484D01*
X7203396Y-7314484D02*
X7165301Y-7314484D01*
X7165301Y-7314484D02*
X7146253Y-7304960D01*
X7146253Y-7304960D02*
X7136730Y-7285912D01*
X7136730Y-7285912D02*
X7136730Y-7209722D01*
X7136730Y-7209722D02*
X7146253Y-7190674D01*
X7146253Y-7190674D02*
X7165301Y-7181150D01*
X7165301Y-7181150D02*
X7203396Y-7181150D01*
X7203396Y-7181150D02*
X7222444Y-7190674D01*
X7222444Y-7190674D02*
X7231968Y-7209722D01*
X7231968Y-7209722D02*
X7231968Y-7228769D01*
X7231968Y-7228769D02*
X7136730Y-7247817D01*
X7308158Y-7304960D02*
X7327206Y-7314484D01*
X7327206Y-7314484D02*
X7365301Y-7314484D01*
X7365301Y-7314484D02*
X7384349Y-7304960D01*
X7384349Y-7304960D02*
X7393872Y-7285912D01*
X7393872Y-7285912D02*
X7393872Y-7276388D01*
X7393872Y-7276388D02*
X7384349Y-7257341D01*
X7384349Y-7257341D02*
X7365301Y-7247817D01*
X7365301Y-7247817D02*
X7336730Y-7247817D01*
X7336730Y-7247817D02*
X7317682Y-7238293D01*
X7317682Y-7238293D02*
X7308158Y-7219246D01*
X7308158Y-7219246D02*
X7308158Y-7209722D01*
X7308158Y-7209722D02*
X7317682Y-7190674D01*
X7317682Y-7190674D02*
X7336730Y-7181150D01*
X7336730Y-7181150D02*
X7365301Y-7181150D01*
X7365301Y-7181150D02*
X7384349Y-7190674D01*
X7460539Y-7390674D02*
X7470063Y-7381150D01*
X7470063Y-7381150D02*
X7489111Y-7352579D01*
X7489111Y-7352579D02*
X7498634Y-7333531D01*
X7498634Y-7333531D02*
X7508158Y-7304960D01*
X7508158Y-7304960D02*
X7517682Y-7257341D01*
X7517682Y-7257341D02*
X7517682Y-7219246D01*
X7517682Y-7219246D02*
X7508158Y-7171627D01*
X7508158Y-7171627D02*
X7498634Y-7143055D01*
X7498634Y-7143055D02*
X7489111Y-7124008D01*
X7489111Y-7124008D02*
X7470063Y-7095436D01*
X7470063Y-7095436D02*
X7460539Y-7085912D01*
M02*
