G04 #@! TF.GenerationSoftware,KiCad,Pcbnew,8.0.1*
G04 #@! TF.CreationDate,2024-04-26T14:46:18-05:00*
G04 #@! TF.ProjectId,Final Projeco,46696e61-6c20-4507-926f-6a65636f2e6b,rev?*
G04 #@! TF.SameCoordinates,Original*
G04 #@! TF.FileFunction,Copper,L6,Bot*
G04 #@! TF.FilePolarity,Positive*
%FSLAX46Y46*%
G04 Gerber Fmt 4.6, Leading zero omitted, Abs format (unit mm)*
G04 Created by KiCad (PCBNEW 8.0.1) date 2024-04-26 14:46:18*
%MOMM*%
%LPD*%
G01*
G04 APERTURE LIST*
G04 #@! TA.AperFunction,ComponentPad*
%ADD10O,1.000000X1.900000*%
G04 #@! TD*
G04 #@! TA.AperFunction,ComponentPad*
%ADD11O,1.000000X1.600000*%
G04 #@! TD*
G04 #@! TA.AperFunction,ComponentPad*
%ADD12R,1.600000X1.600000*%
G04 #@! TD*
G04 #@! TA.AperFunction,ComponentPad*
%ADD13C,1.600000*%
G04 #@! TD*
G04 #@! TA.AperFunction,ViaPad*
%ADD14C,0.560000*%
G04 #@! TD*
G04 #@! TA.AperFunction,Conductor*
%ADD15C,0.119400*%
G04 #@! TD*
G04 APERTURE END LIST*
D10*
X42419941Y-21805131D03*
X33779859Y-21805131D03*
D11*
X33779859Y-17625044D03*
X42419941Y-17625044D03*
D12*
X27209997Y-18049962D03*
D13*
X29750003Y-18049962D03*
X27209997Y-20589967D03*
X29750003Y-20589967D03*
X27209997Y-23129972D03*
X29750003Y-23129972D03*
X27209997Y-25669977D03*
X29750003Y-25669977D03*
X27209997Y-28209982D03*
X29750003Y-28209982D03*
X27209997Y-30749987D03*
X29750003Y-30749987D03*
X27209997Y-33289992D03*
X29750003Y-33289992D03*
X27209997Y-35829997D03*
X29750003Y-35829997D03*
X27209997Y-38370003D03*
X29750003Y-38370003D03*
X27209997Y-40910008D03*
X29750003Y-40910008D03*
X27209997Y-43450013D03*
X29750003Y-43450013D03*
X27209997Y-45990018D03*
X29750003Y-45990018D03*
X27209997Y-48530023D03*
X29750003Y-48530023D03*
X27209997Y-51070028D03*
X29750003Y-51070028D03*
X27209997Y-53610033D03*
X29750003Y-53610033D03*
X27209997Y-56150038D03*
X29750003Y-56150038D03*
D14*
X49500000Y-47000000D03*
X49500000Y-45000000D03*
X46500000Y-47000000D03*
X46500000Y-45000000D03*
X40000000Y-57000000D03*
X42000000Y-57000000D03*
X42000000Y-54500000D03*
X40000000Y-54500000D03*
X38060000Y-56940000D03*
X36020000Y-56940000D03*
X36100000Y-54610000D03*
X38140000Y-54540000D03*
X39300000Y-38800000D03*
X44400000Y-25000000D03*
X45200000Y-19700000D03*
X47100000Y-38600000D03*
X41900000Y-40000000D03*
X46200000Y-22020000D03*
X32870000Y-24500000D03*
X39500000Y-47400000D03*
X49900000Y-17200000D03*
X48630000Y-28010000D03*
X37050000Y-23870000D03*
X35730000Y-34820000D03*
X36570000Y-36850000D03*
X42000000Y-23300000D03*
X47840000Y-18790000D03*
X48700000Y-31100000D03*
X34000000Y-42500000D03*
X48700000Y-36300000D03*
X44063800Y-36500000D03*
X41800000Y-50200000D03*
X38900000Y-42000000D03*
X50000000Y-19300000D03*
X46950000Y-36050000D03*
X43840000Y-26110000D03*
X46700000Y-32600000D03*
X49800000Y-18500000D03*
X37700000Y-27140000D03*
X40200000Y-36600000D03*
X48430000Y-22910000D03*
X50220000Y-26240000D03*
X47970000Y-22200000D03*
X49910000Y-25100000D03*
X49670000Y-30980000D03*
X38330000Y-37120000D03*
X38350100Y-23250100D03*
X39500100Y-23400000D03*
X38881400Y-27642300D03*
X33621800Y-31918200D03*
X34555000Y-45855000D03*
X46447700Y-28981100D03*
X47730000Y-25000000D03*
X48260000Y-24290000D03*
X36320000Y-26530000D03*
X37750000Y-31117600D03*
X32320000Y-37620000D03*
X31620000Y-28440000D03*
X31433800Y-38481600D03*
X49020000Y-28650000D03*
X32110000Y-42600000D03*
X47396700Y-29303000D03*
X41470000Y-35600000D03*
X31130900Y-37820600D03*
X39910000Y-35450000D03*
X36420000Y-40670000D03*
X46190000Y-26350000D03*
X31440000Y-34890000D03*
X41460000Y-26310000D03*
X43760000Y-23290000D03*
X47650000Y-25950000D03*
X33250000Y-47000000D03*
X46910000Y-26810000D03*
X38440000Y-36230000D03*
X37348800Y-31948800D03*
X28440000Y-34870000D03*
X40070000Y-48560000D03*
X41420000Y-47930000D03*
X42310000Y-37300000D03*
X34320000Y-46860000D03*
X37580000Y-29370000D03*
X34530000Y-34980000D03*
X48002700Y-26954100D03*
X41291300Y-24081700D03*
X26510000Y-24430000D03*
X37100000Y-32940000D03*
X42540000Y-24740000D03*
X33680000Y-25740000D03*
X42730000Y-26330000D03*
X37810000Y-34920000D03*
X36975000Y-34975000D03*
X32520000Y-47910000D03*
X33820000Y-52560000D03*
X38994900Y-35560000D03*
X33880000Y-54150000D03*
X37885000Y-34100000D03*
D15*
X39500100Y-23400000D02*
X39350200Y-23250100D01*
M02*
