%TF.GenerationSoftware,KiCad,Pcbnew,8.0.1*%
%TF.CreationDate,2024-04-26T00:20:17-05:00*%
%TF.ProjectId,Final Projeco,46696e61-6c20-4507-926f-6a65636f2e6b,rev?*%
%TF.SameCoordinates,Original*%
%TF.FileFunction,Drillmap*%
%TF.FilePolarity,Positive*%
%FSLAX45Y45*%
G04 Gerber Fmt 4.5, Leading zero omitted, Abs format (unit mm)*
G04 Created by KiCad (PCBNEW 8.0.1) date 2024-04-26 00:20:17*
%MOMM*%
%LPD*%
G01*
G04 APERTURE LIST*
%ADD10C,0.100000*%
%ADD11C,0.200000*%
G04 APERTURE END LIST*
D10*
X2500000Y-1550000D02*
X5150000Y-1550000D01*
X5150000Y-6050000D01*
X2500000Y-6050000D01*
X2500000Y-1550000D01*
D11*
D10*
X3490988Y-2100526D02*
X3550988Y-2160526D01*
X3550988Y-2100526D02*
X3490988Y-2160526D01*
X4068992Y-2100500D02*
X4128992Y-2160500D01*
X4128992Y-2100500D02*
X4068992Y-2160500D01*
D11*
X2755777Y-6366484D02*
X2755777Y-6166484D01*
X2755777Y-6166484D02*
X2803396Y-6166484D01*
X2803396Y-6166484D02*
X2831967Y-6176008D01*
X2831967Y-6176008D02*
X2851015Y-6195055D01*
X2851015Y-6195055D02*
X2860539Y-6214103D01*
X2860539Y-6214103D02*
X2870062Y-6252198D01*
X2870062Y-6252198D02*
X2870062Y-6280769D01*
X2870062Y-6280769D02*
X2860539Y-6318865D01*
X2860539Y-6318865D02*
X2851015Y-6337912D01*
X2851015Y-6337912D02*
X2831967Y-6356960D01*
X2831967Y-6356960D02*
X2803396Y-6366484D01*
X2803396Y-6366484D02*
X2755777Y-6366484D01*
X2955777Y-6366484D02*
X2955777Y-6233150D01*
X2955777Y-6271246D02*
X2965301Y-6252198D01*
X2965301Y-6252198D02*
X2974824Y-6242674D01*
X2974824Y-6242674D02*
X2993872Y-6233150D01*
X2993872Y-6233150D02*
X3012920Y-6233150D01*
X3079586Y-6366484D02*
X3079586Y-6233150D01*
X3079586Y-6166484D02*
X3070062Y-6176008D01*
X3070062Y-6176008D02*
X3079586Y-6185531D01*
X3079586Y-6185531D02*
X3089110Y-6176008D01*
X3089110Y-6176008D02*
X3079586Y-6166484D01*
X3079586Y-6166484D02*
X3079586Y-6185531D01*
X3203396Y-6366484D02*
X3184348Y-6356960D01*
X3184348Y-6356960D02*
X3174824Y-6337912D01*
X3174824Y-6337912D02*
X3174824Y-6166484D01*
X3308158Y-6366484D02*
X3289110Y-6356960D01*
X3289110Y-6356960D02*
X3279586Y-6337912D01*
X3279586Y-6337912D02*
X3279586Y-6166484D01*
X3536729Y-6366484D02*
X3536729Y-6166484D01*
X3536729Y-6166484D02*
X3603396Y-6309341D01*
X3603396Y-6309341D02*
X3670062Y-6166484D01*
X3670062Y-6166484D02*
X3670062Y-6366484D01*
X3851015Y-6366484D02*
X3851015Y-6261722D01*
X3851015Y-6261722D02*
X3841491Y-6242674D01*
X3841491Y-6242674D02*
X3822443Y-6233150D01*
X3822443Y-6233150D02*
X3784348Y-6233150D01*
X3784348Y-6233150D02*
X3765301Y-6242674D01*
X3851015Y-6356960D02*
X3831967Y-6366484D01*
X3831967Y-6366484D02*
X3784348Y-6366484D01*
X3784348Y-6366484D02*
X3765301Y-6356960D01*
X3765301Y-6356960D02*
X3755777Y-6337912D01*
X3755777Y-6337912D02*
X3755777Y-6318865D01*
X3755777Y-6318865D02*
X3765301Y-6299817D01*
X3765301Y-6299817D02*
X3784348Y-6290293D01*
X3784348Y-6290293D02*
X3831967Y-6290293D01*
X3831967Y-6290293D02*
X3851015Y-6280769D01*
X3946253Y-6233150D02*
X3946253Y-6433150D01*
X3946253Y-6242674D02*
X3965301Y-6233150D01*
X3965301Y-6233150D02*
X4003396Y-6233150D01*
X4003396Y-6233150D02*
X4022443Y-6242674D01*
X4022443Y-6242674D02*
X4031967Y-6252198D01*
X4031967Y-6252198D02*
X4041491Y-6271246D01*
X4041491Y-6271246D02*
X4041491Y-6328388D01*
X4041491Y-6328388D02*
X4031967Y-6347436D01*
X4031967Y-6347436D02*
X4022443Y-6356960D01*
X4022443Y-6356960D02*
X4003396Y-6366484D01*
X4003396Y-6366484D02*
X3965301Y-6366484D01*
X3965301Y-6366484D02*
X3946253Y-6356960D01*
X4127205Y-6347436D02*
X4136729Y-6356960D01*
X4136729Y-6356960D02*
X4127205Y-6366484D01*
X4127205Y-6366484D02*
X4117682Y-6356960D01*
X4117682Y-6356960D02*
X4127205Y-6347436D01*
X4127205Y-6347436D02*
X4127205Y-6366484D01*
X4127205Y-6242674D02*
X4136729Y-6252198D01*
X4136729Y-6252198D02*
X4127205Y-6261722D01*
X4127205Y-6261722D02*
X4117682Y-6252198D01*
X4117682Y-6252198D02*
X4127205Y-6242674D01*
X4127205Y-6242674D02*
X4127205Y-6261722D01*
D10*
X2435000Y-6665000D02*
X2495000Y-6725000D01*
X2495000Y-6665000D02*
X2435000Y-6725000D01*
D11*
X2793872Y-6586484D02*
X2812920Y-6586484D01*
X2812920Y-6586484D02*
X2831967Y-6596008D01*
X2831967Y-6596008D02*
X2841491Y-6605531D01*
X2841491Y-6605531D02*
X2851015Y-6624579D01*
X2851015Y-6624579D02*
X2860539Y-6662674D01*
X2860539Y-6662674D02*
X2860539Y-6710293D01*
X2860539Y-6710293D02*
X2851015Y-6748388D01*
X2851015Y-6748388D02*
X2841491Y-6767436D01*
X2841491Y-6767436D02*
X2831967Y-6776960D01*
X2831967Y-6776960D02*
X2812920Y-6786484D01*
X2812920Y-6786484D02*
X2793872Y-6786484D01*
X2793872Y-6786484D02*
X2774824Y-6776960D01*
X2774824Y-6776960D02*
X2765301Y-6767436D01*
X2765301Y-6767436D02*
X2755777Y-6748388D01*
X2755777Y-6748388D02*
X2746253Y-6710293D01*
X2746253Y-6710293D02*
X2746253Y-6662674D01*
X2746253Y-6662674D02*
X2755777Y-6624579D01*
X2755777Y-6624579D02*
X2765301Y-6605531D01*
X2765301Y-6605531D02*
X2774824Y-6596008D01*
X2774824Y-6596008D02*
X2793872Y-6586484D01*
X2946253Y-6767436D02*
X2955777Y-6776960D01*
X2955777Y-6776960D02*
X2946253Y-6786484D01*
X2946253Y-6786484D02*
X2936729Y-6776960D01*
X2936729Y-6776960D02*
X2946253Y-6767436D01*
X2946253Y-6767436D02*
X2946253Y-6786484D01*
X3127205Y-6586484D02*
X3089110Y-6586484D01*
X3089110Y-6586484D02*
X3070062Y-6596008D01*
X3070062Y-6596008D02*
X3060539Y-6605531D01*
X3060539Y-6605531D02*
X3041491Y-6634103D01*
X3041491Y-6634103D02*
X3031967Y-6672198D01*
X3031967Y-6672198D02*
X3031967Y-6748388D01*
X3031967Y-6748388D02*
X3041491Y-6767436D01*
X3041491Y-6767436D02*
X3051015Y-6776960D01*
X3051015Y-6776960D02*
X3070062Y-6786484D01*
X3070062Y-6786484D02*
X3108158Y-6786484D01*
X3108158Y-6786484D02*
X3127205Y-6776960D01*
X3127205Y-6776960D02*
X3136729Y-6767436D01*
X3136729Y-6767436D02*
X3146253Y-6748388D01*
X3146253Y-6748388D02*
X3146253Y-6700769D01*
X3146253Y-6700769D02*
X3136729Y-6681722D01*
X3136729Y-6681722D02*
X3127205Y-6672198D01*
X3127205Y-6672198D02*
X3108158Y-6662674D01*
X3108158Y-6662674D02*
X3070062Y-6662674D01*
X3070062Y-6662674D02*
X3051015Y-6672198D01*
X3051015Y-6672198D02*
X3041491Y-6681722D01*
X3041491Y-6681722D02*
X3031967Y-6700769D01*
X3270062Y-6586484D02*
X3289110Y-6586484D01*
X3289110Y-6586484D02*
X3308158Y-6596008D01*
X3308158Y-6596008D02*
X3317682Y-6605531D01*
X3317682Y-6605531D02*
X3327205Y-6624579D01*
X3327205Y-6624579D02*
X3336729Y-6662674D01*
X3336729Y-6662674D02*
X3336729Y-6710293D01*
X3336729Y-6710293D02*
X3327205Y-6748388D01*
X3327205Y-6748388D02*
X3317682Y-6767436D01*
X3317682Y-6767436D02*
X3308158Y-6776960D01*
X3308158Y-6776960D02*
X3289110Y-6786484D01*
X3289110Y-6786484D02*
X3270062Y-6786484D01*
X3270062Y-6786484D02*
X3251015Y-6776960D01*
X3251015Y-6776960D02*
X3241491Y-6767436D01*
X3241491Y-6767436D02*
X3231967Y-6748388D01*
X3231967Y-6748388D02*
X3222443Y-6710293D01*
X3222443Y-6710293D02*
X3222443Y-6662674D01*
X3222443Y-6662674D02*
X3231967Y-6624579D01*
X3231967Y-6624579D02*
X3241491Y-6605531D01*
X3241491Y-6605531D02*
X3251015Y-6596008D01*
X3251015Y-6596008D02*
X3270062Y-6586484D01*
X3460539Y-6586484D02*
X3479586Y-6586484D01*
X3479586Y-6586484D02*
X3498634Y-6596008D01*
X3498634Y-6596008D02*
X3508158Y-6605531D01*
X3508158Y-6605531D02*
X3517682Y-6624579D01*
X3517682Y-6624579D02*
X3527205Y-6662674D01*
X3527205Y-6662674D02*
X3527205Y-6710293D01*
X3527205Y-6710293D02*
X3517682Y-6748388D01*
X3517682Y-6748388D02*
X3508158Y-6767436D01*
X3508158Y-6767436D02*
X3498634Y-6776960D01*
X3498634Y-6776960D02*
X3479586Y-6786484D01*
X3479586Y-6786484D02*
X3460539Y-6786484D01*
X3460539Y-6786484D02*
X3441491Y-6776960D01*
X3441491Y-6776960D02*
X3431967Y-6767436D01*
X3431967Y-6767436D02*
X3422443Y-6748388D01*
X3422443Y-6748388D02*
X3412920Y-6710293D01*
X3412920Y-6710293D02*
X3412920Y-6662674D01*
X3412920Y-6662674D02*
X3422443Y-6624579D01*
X3422443Y-6624579D02*
X3431967Y-6605531D01*
X3431967Y-6605531D02*
X3441491Y-6596008D01*
X3441491Y-6596008D02*
X3460539Y-6586484D01*
X3612920Y-6786484D02*
X3612920Y-6653150D01*
X3612920Y-6672198D02*
X3622443Y-6662674D01*
X3622443Y-6662674D02*
X3641491Y-6653150D01*
X3641491Y-6653150D02*
X3670063Y-6653150D01*
X3670063Y-6653150D02*
X3689110Y-6662674D01*
X3689110Y-6662674D02*
X3698634Y-6681722D01*
X3698634Y-6681722D02*
X3698634Y-6786484D01*
X3698634Y-6681722D02*
X3708158Y-6662674D01*
X3708158Y-6662674D02*
X3727205Y-6653150D01*
X3727205Y-6653150D02*
X3755777Y-6653150D01*
X3755777Y-6653150D02*
X3774824Y-6662674D01*
X3774824Y-6662674D02*
X3784348Y-6681722D01*
X3784348Y-6681722D02*
X3784348Y-6786484D01*
X3879586Y-6786484D02*
X3879586Y-6653150D01*
X3879586Y-6672198D02*
X3889110Y-6662674D01*
X3889110Y-6662674D02*
X3908158Y-6653150D01*
X3908158Y-6653150D02*
X3936729Y-6653150D01*
X3936729Y-6653150D02*
X3955777Y-6662674D01*
X3955777Y-6662674D02*
X3965301Y-6681722D01*
X3965301Y-6681722D02*
X3965301Y-6786484D01*
X3965301Y-6681722D02*
X3974824Y-6662674D01*
X3974824Y-6662674D02*
X3993872Y-6653150D01*
X3993872Y-6653150D02*
X4022443Y-6653150D01*
X4022443Y-6653150D02*
X4041491Y-6662674D01*
X4041491Y-6662674D02*
X4051015Y-6681722D01*
X4051015Y-6681722D02*
X4051015Y-6786484D01*
X4441491Y-6576960D02*
X4270063Y-6834103D01*
X4698634Y-6586484D02*
X4717682Y-6586484D01*
X4717682Y-6586484D02*
X4736729Y-6596008D01*
X4736729Y-6596008D02*
X4746253Y-6605531D01*
X4746253Y-6605531D02*
X4755777Y-6624579D01*
X4755777Y-6624579D02*
X4765301Y-6662674D01*
X4765301Y-6662674D02*
X4765301Y-6710293D01*
X4765301Y-6710293D02*
X4755777Y-6748388D01*
X4755777Y-6748388D02*
X4746253Y-6767436D01*
X4746253Y-6767436D02*
X4736729Y-6776960D01*
X4736729Y-6776960D02*
X4717682Y-6786484D01*
X4717682Y-6786484D02*
X4698634Y-6786484D01*
X4698634Y-6786484D02*
X4679587Y-6776960D01*
X4679587Y-6776960D02*
X4670063Y-6767436D01*
X4670063Y-6767436D02*
X4660539Y-6748388D01*
X4660539Y-6748388D02*
X4651015Y-6710293D01*
X4651015Y-6710293D02*
X4651015Y-6662674D01*
X4651015Y-6662674D02*
X4660539Y-6624579D01*
X4660539Y-6624579D02*
X4670063Y-6605531D01*
X4670063Y-6605531D02*
X4679587Y-6596008D01*
X4679587Y-6596008D02*
X4698634Y-6586484D01*
X4851015Y-6767436D02*
X4860539Y-6776960D01*
X4860539Y-6776960D02*
X4851015Y-6786484D01*
X4851015Y-6786484D02*
X4841491Y-6776960D01*
X4841491Y-6776960D02*
X4851015Y-6767436D01*
X4851015Y-6767436D02*
X4851015Y-6786484D01*
X4984348Y-6586484D02*
X5003396Y-6586484D01*
X5003396Y-6586484D02*
X5022444Y-6596008D01*
X5022444Y-6596008D02*
X5031968Y-6605531D01*
X5031968Y-6605531D02*
X5041491Y-6624579D01*
X5041491Y-6624579D02*
X5051015Y-6662674D01*
X5051015Y-6662674D02*
X5051015Y-6710293D01*
X5051015Y-6710293D02*
X5041491Y-6748388D01*
X5041491Y-6748388D02*
X5031968Y-6767436D01*
X5031968Y-6767436D02*
X5022444Y-6776960D01*
X5022444Y-6776960D02*
X5003396Y-6786484D01*
X5003396Y-6786484D02*
X4984348Y-6786484D01*
X4984348Y-6786484D02*
X4965301Y-6776960D01*
X4965301Y-6776960D02*
X4955777Y-6767436D01*
X4955777Y-6767436D02*
X4946253Y-6748388D01*
X4946253Y-6748388D02*
X4936729Y-6710293D01*
X4936729Y-6710293D02*
X4936729Y-6662674D01*
X4936729Y-6662674D02*
X4946253Y-6624579D01*
X4946253Y-6624579D02*
X4955777Y-6605531D01*
X4955777Y-6605531D02*
X4965301Y-6596008D01*
X4965301Y-6596008D02*
X4984348Y-6586484D01*
X5127206Y-6605531D02*
X5136729Y-6596008D01*
X5136729Y-6596008D02*
X5155777Y-6586484D01*
X5155777Y-6586484D02*
X5203396Y-6586484D01*
X5203396Y-6586484D02*
X5222444Y-6596008D01*
X5222444Y-6596008D02*
X5231968Y-6605531D01*
X5231968Y-6605531D02*
X5241491Y-6624579D01*
X5241491Y-6624579D02*
X5241491Y-6643627D01*
X5241491Y-6643627D02*
X5231968Y-6672198D01*
X5231968Y-6672198D02*
X5117682Y-6786484D01*
X5117682Y-6786484D02*
X5241491Y-6786484D01*
X5308158Y-6586484D02*
X5431968Y-6586484D01*
X5431968Y-6586484D02*
X5365301Y-6662674D01*
X5365301Y-6662674D02*
X5393872Y-6662674D01*
X5393872Y-6662674D02*
X5412920Y-6672198D01*
X5412920Y-6672198D02*
X5422444Y-6681722D01*
X5422444Y-6681722D02*
X5431968Y-6700769D01*
X5431968Y-6700769D02*
X5431968Y-6748388D01*
X5431968Y-6748388D02*
X5422444Y-6767436D01*
X5422444Y-6767436D02*
X5412920Y-6776960D01*
X5412920Y-6776960D02*
X5393872Y-6786484D01*
X5393872Y-6786484D02*
X5336729Y-6786484D01*
X5336729Y-6786484D02*
X5317682Y-6776960D01*
X5317682Y-6776960D02*
X5308158Y-6767436D01*
X5603396Y-6586484D02*
X5565301Y-6586484D01*
X5565301Y-6586484D02*
X5546253Y-6596008D01*
X5546253Y-6596008D02*
X5536729Y-6605531D01*
X5536729Y-6605531D02*
X5517682Y-6634103D01*
X5517682Y-6634103D02*
X5508158Y-6672198D01*
X5508158Y-6672198D02*
X5508158Y-6748388D01*
X5508158Y-6748388D02*
X5517682Y-6767436D01*
X5517682Y-6767436D02*
X5527206Y-6776960D01*
X5527206Y-6776960D02*
X5546253Y-6786484D01*
X5546253Y-6786484D02*
X5584349Y-6786484D01*
X5584349Y-6786484D02*
X5603396Y-6776960D01*
X5603396Y-6776960D02*
X5612920Y-6767436D01*
X5612920Y-6767436D02*
X5622444Y-6748388D01*
X5622444Y-6748388D02*
X5622444Y-6700769D01*
X5622444Y-6700769D02*
X5612920Y-6681722D01*
X5612920Y-6681722D02*
X5603396Y-6672198D01*
X5603396Y-6672198D02*
X5584349Y-6662674D01*
X5584349Y-6662674D02*
X5546253Y-6662674D01*
X5546253Y-6662674D02*
X5527206Y-6672198D01*
X5527206Y-6672198D02*
X5517682Y-6681722D01*
X5517682Y-6681722D02*
X5508158Y-6700769D01*
X5698634Y-6586484D02*
X5698634Y-6624579D01*
X5774825Y-6586484D02*
X5774825Y-6624579D01*
X6070063Y-6862674D02*
X6060539Y-6853150D01*
X6060539Y-6853150D02*
X6041491Y-6824579D01*
X6041491Y-6824579D02*
X6031968Y-6805531D01*
X6031968Y-6805531D02*
X6022444Y-6776960D01*
X6022444Y-6776960D02*
X6012920Y-6729341D01*
X6012920Y-6729341D02*
X6012920Y-6691246D01*
X6012920Y-6691246D02*
X6022444Y-6643627D01*
X6022444Y-6643627D02*
X6031968Y-6615055D01*
X6031968Y-6615055D02*
X6041491Y-6596008D01*
X6041491Y-6596008D02*
X6060539Y-6567436D01*
X6060539Y-6567436D02*
X6070063Y-6557912D01*
X6136729Y-6605531D02*
X6146253Y-6596008D01*
X6146253Y-6596008D02*
X6165301Y-6586484D01*
X6165301Y-6586484D02*
X6212920Y-6586484D01*
X6212920Y-6586484D02*
X6231968Y-6596008D01*
X6231968Y-6596008D02*
X6241491Y-6605531D01*
X6241491Y-6605531D02*
X6251015Y-6624579D01*
X6251015Y-6624579D02*
X6251015Y-6643627D01*
X6251015Y-6643627D02*
X6241491Y-6672198D01*
X6241491Y-6672198D02*
X6127206Y-6786484D01*
X6127206Y-6786484D02*
X6251015Y-6786484D01*
X6489110Y-6786484D02*
X6489110Y-6586484D01*
X6574825Y-6786484D02*
X6574825Y-6681722D01*
X6574825Y-6681722D02*
X6565301Y-6662674D01*
X6565301Y-6662674D02*
X6546253Y-6653150D01*
X6546253Y-6653150D02*
X6517682Y-6653150D01*
X6517682Y-6653150D02*
X6498634Y-6662674D01*
X6498634Y-6662674D02*
X6489110Y-6672198D01*
X6698634Y-6786484D02*
X6679587Y-6776960D01*
X6679587Y-6776960D02*
X6670063Y-6767436D01*
X6670063Y-6767436D02*
X6660539Y-6748388D01*
X6660539Y-6748388D02*
X6660539Y-6691246D01*
X6660539Y-6691246D02*
X6670063Y-6672198D01*
X6670063Y-6672198D02*
X6679587Y-6662674D01*
X6679587Y-6662674D02*
X6698634Y-6653150D01*
X6698634Y-6653150D02*
X6727206Y-6653150D01*
X6727206Y-6653150D02*
X6746253Y-6662674D01*
X6746253Y-6662674D02*
X6755777Y-6672198D01*
X6755777Y-6672198D02*
X6765301Y-6691246D01*
X6765301Y-6691246D02*
X6765301Y-6748388D01*
X6765301Y-6748388D02*
X6755777Y-6767436D01*
X6755777Y-6767436D02*
X6746253Y-6776960D01*
X6746253Y-6776960D02*
X6727206Y-6786484D01*
X6727206Y-6786484D02*
X6698634Y-6786484D01*
X6879587Y-6786484D02*
X6860539Y-6776960D01*
X6860539Y-6776960D02*
X6851015Y-6757912D01*
X6851015Y-6757912D02*
X6851015Y-6586484D01*
X7031968Y-6776960D02*
X7012920Y-6786484D01*
X7012920Y-6786484D02*
X6974825Y-6786484D01*
X6974825Y-6786484D02*
X6955777Y-6776960D01*
X6955777Y-6776960D02*
X6946253Y-6757912D01*
X6946253Y-6757912D02*
X6946253Y-6681722D01*
X6946253Y-6681722D02*
X6955777Y-6662674D01*
X6955777Y-6662674D02*
X6974825Y-6653150D01*
X6974825Y-6653150D02*
X7012920Y-6653150D01*
X7012920Y-6653150D02*
X7031968Y-6662674D01*
X7031968Y-6662674D02*
X7041491Y-6681722D01*
X7041491Y-6681722D02*
X7041491Y-6700769D01*
X7041491Y-6700769D02*
X6946253Y-6719817D01*
X7117682Y-6776960D02*
X7136730Y-6786484D01*
X7136730Y-6786484D02*
X7174825Y-6786484D01*
X7174825Y-6786484D02*
X7193872Y-6776960D01*
X7193872Y-6776960D02*
X7203396Y-6757912D01*
X7203396Y-6757912D02*
X7203396Y-6748388D01*
X7203396Y-6748388D02*
X7193872Y-6729341D01*
X7193872Y-6729341D02*
X7174825Y-6719817D01*
X7174825Y-6719817D02*
X7146253Y-6719817D01*
X7146253Y-6719817D02*
X7127206Y-6710293D01*
X7127206Y-6710293D02*
X7117682Y-6691246D01*
X7117682Y-6691246D02*
X7117682Y-6681722D01*
X7117682Y-6681722D02*
X7127206Y-6662674D01*
X7127206Y-6662674D02*
X7146253Y-6653150D01*
X7146253Y-6653150D02*
X7174825Y-6653150D01*
X7174825Y-6653150D02*
X7193872Y-6662674D01*
X7270063Y-6862674D02*
X7279587Y-6853150D01*
X7279587Y-6853150D02*
X7298634Y-6824579D01*
X7298634Y-6824579D02*
X7308158Y-6805531D01*
X7308158Y-6805531D02*
X7317682Y-6776960D01*
X7317682Y-6776960D02*
X7327206Y-6729341D01*
X7327206Y-6729341D02*
X7327206Y-6691246D01*
X7327206Y-6691246D02*
X7317682Y-6643627D01*
X7317682Y-6643627D02*
X7308158Y-6615055D01*
X7308158Y-6615055D02*
X7298634Y-6596008D01*
X7298634Y-6596008D02*
X7279587Y-6567436D01*
X7279587Y-6567436D02*
X7270063Y-6557912D01*
X7631968Y-6862674D02*
X7622444Y-6853150D01*
X7622444Y-6853150D02*
X7603396Y-6824579D01*
X7603396Y-6824579D02*
X7593872Y-6805531D01*
X7593872Y-6805531D02*
X7584349Y-6776960D01*
X7584349Y-6776960D02*
X7574825Y-6729341D01*
X7574825Y-6729341D02*
X7574825Y-6691246D01*
X7574825Y-6691246D02*
X7584349Y-6643627D01*
X7584349Y-6643627D02*
X7593872Y-6615055D01*
X7593872Y-6615055D02*
X7603396Y-6596008D01*
X7603396Y-6596008D02*
X7622444Y-6567436D01*
X7622444Y-6567436D02*
X7631968Y-6557912D01*
X7708158Y-6653150D02*
X7708158Y-6786484D01*
X7708158Y-6672198D02*
X7717682Y-6662674D01*
X7717682Y-6662674D02*
X7736730Y-6653150D01*
X7736730Y-6653150D02*
X7765301Y-6653150D01*
X7765301Y-6653150D02*
X7784349Y-6662674D01*
X7784349Y-6662674D02*
X7793872Y-6681722D01*
X7793872Y-6681722D02*
X7793872Y-6786484D01*
X7917682Y-6786484D02*
X7898634Y-6776960D01*
X7898634Y-6776960D02*
X7889111Y-6767436D01*
X7889111Y-6767436D02*
X7879587Y-6748388D01*
X7879587Y-6748388D02*
X7879587Y-6691246D01*
X7879587Y-6691246D02*
X7889111Y-6672198D01*
X7889111Y-6672198D02*
X7898634Y-6662674D01*
X7898634Y-6662674D02*
X7917682Y-6653150D01*
X7917682Y-6653150D02*
X7946253Y-6653150D01*
X7946253Y-6653150D02*
X7965301Y-6662674D01*
X7965301Y-6662674D02*
X7974825Y-6672198D01*
X7974825Y-6672198D02*
X7984349Y-6691246D01*
X7984349Y-6691246D02*
X7984349Y-6748388D01*
X7984349Y-6748388D02*
X7974825Y-6767436D01*
X7974825Y-6767436D02*
X7965301Y-6776960D01*
X7965301Y-6776960D02*
X7946253Y-6786484D01*
X7946253Y-6786484D02*
X7917682Y-6786484D01*
X8041492Y-6653150D02*
X8117682Y-6653150D01*
X8070063Y-6586484D02*
X8070063Y-6757912D01*
X8070063Y-6757912D02*
X8079587Y-6776960D01*
X8079587Y-6776960D02*
X8098634Y-6786484D01*
X8098634Y-6786484D02*
X8117682Y-6786484D01*
X8336730Y-6653150D02*
X8336730Y-6853150D01*
X8336730Y-6662674D02*
X8355777Y-6653150D01*
X8355777Y-6653150D02*
X8393873Y-6653150D01*
X8393873Y-6653150D02*
X8412920Y-6662674D01*
X8412920Y-6662674D02*
X8422444Y-6672198D01*
X8422444Y-6672198D02*
X8431968Y-6691246D01*
X8431968Y-6691246D02*
X8431968Y-6748388D01*
X8431968Y-6748388D02*
X8422444Y-6767436D01*
X8422444Y-6767436D02*
X8412920Y-6776960D01*
X8412920Y-6776960D02*
X8393873Y-6786484D01*
X8393873Y-6786484D02*
X8355777Y-6786484D01*
X8355777Y-6786484D02*
X8336730Y-6776960D01*
X8546254Y-6786484D02*
X8527206Y-6776960D01*
X8527206Y-6776960D02*
X8517682Y-6757912D01*
X8517682Y-6757912D02*
X8517682Y-6586484D01*
X8708158Y-6786484D02*
X8708158Y-6681722D01*
X8708158Y-6681722D02*
X8698635Y-6662674D01*
X8698635Y-6662674D02*
X8679587Y-6653150D01*
X8679587Y-6653150D02*
X8641492Y-6653150D01*
X8641492Y-6653150D02*
X8622444Y-6662674D01*
X8708158Y-6776960D02*
X8689111Y-6786484D01*
X8689111Y-6786484D02*
X8641492Y-6786484D01*
X8641492Y-6786484D02*
X8622444Y-6776960D01*
X8622444Y-6776960D02*
X8612920Y-6757912D01*
X8612920Y-6757912D02*
X8612920Y-6738865D01*
X8612920Y-6738865D02*
X8622444Y-6719817D01*
X8622444Y-6719817D02*
X8641492Y-6710293D01*
X8641492Y-6710293D02*
X8689111Y-6710293D01*
X8689111Y-6710293D02*
X8708158Y-6700769D01*
X8774825Y-6653150D02*
X8851015Y-6653150D01*
X8803396Y-6586484D02*
X8803396Y-6757912D01*
X8803396Y-6757912D02*
X8812920Y-6776960D01*
X8812920Y-6776960D02*
X8831968Y-6786484D01*
X8831968Y-6786484D02*
X8851015Y-6786484D01*
X8993873Y-6776960D02*
X8974825Y-6786484D01*
X8974825Y-6786484D02*
X8936730Y-6786484D01*
X8936730Y-6786484D02*
X8917682Y-6776960D01*
X8917682Y-6776960D02*
X8908158Y-6757912D01*
X8908158Y-6757912D02*
X8908158Y-6681722D01*
X8908158Y-6681722D02*
X8917682Y-6662674D01*
X8917682Y-6662674D02*
X8936730Y-6653150D01*
X8936730Y-6653150D02*
X8974825Y-6653150D01*
X8974825Y-6653150D02*
X8993873Y-6662674D01*
X8993873Y-6662674D02*
X9003396Y-6681722D01*
X9003396Y-6681722D02*
X9003396Y-6700769D01*
X9003396Y-6700769D02*
X8908158Y-6719817D01*
X9174825Y-6786484D02*
X9174825Y-6586484D01*
X9174825Y-6776960D02*
X9155777Y-6786484D01*
X9155777Y-6786484D02*
X9117682Y-6786484D01*
X9117682Y-6786484D02*
X9098635Y-6776960D01*
X9098635Y-6776960D02*
X9089111Y-6767436D01*
X9089111Y-6767436D02*
X9079587Y-6748388D01*
X9079587Y-6748388D02*
X9079587Y-6691246D01*
X9079587Y-6691246D02*
X9089111Y-6672198D01*
X9089111Y-6672198D02*
X9098635Y-6662674D01*
X9098635Y-6662674D02*
X9117682Y-6653150D01*
X9117682Y-6653150D02*
X9155777Y-6653150D01*
X9155777Y-6653150D02*
X9174825Y-6662674D01*
X9251016Y-6862674D02*
X9260539Y-6853150D01*
X9260539Y-6853150D02*
X9279587Y-6824579D01*
X9279587Y-6824579D02*
X9289111Y-6805531D01*
X9289111Y-6805531D02*
X9298635Y-6776960D01*
X9298635Y-6776960D02*
X9308158Y-6729341D01*
X9308158Y-6729341D02*
X9308158Y-6691246D01*
X9308158Y-6691246D02*
X9298635Y-6643627D01*
X9298635Y-6643627D02*
X9289111Y-6615055D01*
X9289111Y-6615055D02*
X9279587Y-6596008D01*
X9279587Y-6596008D02*
X9260539Y-6567436D01*
X9260539Y-6567436D02*
X9251016Y-6557912D01*
M02*
