G04 #@! TF.GenerationSoftware,KiCad,Pcbnew,8.0.1*
G04 #@! TF.CreationDate,2024-04-26T14:46:18-05:00*
G04 #@! TF.ProjectId,Final Projeco,46696e61-6c20-4507-926f-6a65636f2e6b,rev?*
G04 #@! TF.SameCoordinates,Original*
G04 #@! TF.FileFunction,Legend,Top*
G04 #@! TF.FilePolarity,Positive*
%FSLAX46Y46*%
G04 Gerber Fmt 4.6, Leading zero omitted, Abs format (unit mm)*
G04 Created by KiCad (PCBNEW 8.0.1) date 2024-04-26 14:46:18*
%MOMM*%
%LPD*%
G01*
G04 APERTURE LIST*
G04 Aperture macros list*
%AMRoundRect*
0 Rectangle with rounded corners*
0 $1 Rounding radius*
0 $2 $3 $4 $5 $6 $7 $8 $9 X,Y pos of 4 corners*
0 Add a 4 corners polygon primitive as box body*
4,1,4,$2,$3,$4,$5,$6,$7,$8,$9,$2,$3,0*
0 Add four circle primitives for the rounded corners*
1,1,$1+$1,$2,$3*
1,1,$1+$1,$4,$5*
1,1,$1+$1,$6,$7*
1,1,$1+$1,$8,$9*
0 Add four rect primitives between the rounded corners*
20,1,$1+$1,$2,$3,$4,$5,0*
20,1,$1+$1,$4,$5,$6,$7,0*
20,1,$1+$1,$6,$7,$8,$9,0*
20,1,$1+$1,$8,$9,$2,$3,0*%
%AMRotRect*
0 Rectangle, with rotation*
0 The origin of the aperture is its center*
0 $1 length*
0 $2 width*
0 $3 Rotation angle, in degrees counterclockwise*
0 Add horizontal line*
21,1,$1,$2,0,0,$3*%
%AMFreePoly0*
4,1,5,0.099975,0.075057,0.099975,-0.174956,-0.100025,-0.174956,-0.100025,0.275057,0.099975,0.075057,0.099975,0.075057,$1*%
%AMFreePoly1*
4,1,6,0.100025,-0.174956,-0.099975,-0.174956,-0.099975,0.075057,0.050013,0.225044,0.100025,0.225044,0.100025,-0.174956,0.100025,-0.174956,$1*%
%AMFreePoly2*
4,1,6,0.100025,-0.224841,0.050013,-0.224816,-0.100000,-0.074829,-0.099975,0.175184,0.100025,0.175184,0.100025,-0.224841,0.100025,-0.224841,$1*%
%AMFreePoly3*
4,1,6,0.100000,-0.075057,-0.050013,-0.225044,-0.100025,-0.225044,-0.100025,0.174956,0.099975,0.174956,0.100000,-0.075057,0.100000,-0.075057,$1*%
G04 Aperture macros list end*
%ADD10C,0.150000*%
%ADD11C,0.125000*%
%ADD12C,0.250000*%
%ADD13C,0.120000*%
%ADD14C,0.151994*%
%ADD15C,0.059995*%
%ADD16C,0.200000*%
%ADD17C,0.152400*%
%ADD18C,0.300000*%
%ADD19C,0.254000*%
%ADD20C,0.000000*%
%ADD21C,0.150013*%
%ADD22RoundRect,0.140000X-0.140000X-0.170000X0.140000X-0.170000X0.140000X0.170000X-0.140000X0.170000X0*%
%ADD23RoundRect,0.140000X0.170000X-0.140000X0.170000X0.140000X-0.170000X0.140000X-0.170000X-0.140000X0*%
%ADD24RoundRect,0.050000X0.387500X0.050000X-0.387500X0.050000X-0.387500X-0.050000X0.387500X-0.050000X0*%
%ADD25RoundRect,0.050000X0.050000X0.387500X-0.050000X0.387500X-0.050000X-0.387500X0.050000X-0.387500X0*%
%ADD26R,5.600000X5.600000*%
%ADD27R,0.800000X0.800000*%
%ADD28R,2.200000X1.100000*%
%ADD29R,1.500000X1.100000*%
%ADD30RoundRect,0.140000X0.140000X0.170000X-0.140000X0.170000X-0.140000X-0.170000X0.140000X-0.170000X0*%
%ADD31RoundRect,0.140000X-0.170000X0.140000X-0.170000X-0.140000X0.170000X-0.140000X0.170000X0.140000X0*%
%ADD32RoundRect,0.135000X0.135000X0.185000X-0.135000X0.185000X-0.135000X-0.185000X0.135000X-0.185000X0*%
%ADD33RoundRect,0.135000X-0.135000X-0.185000X0.135000X-0.185000X0.135000X0.185000X-0.135000X0.185000X0*%
%ADD34O,0.629997X1.864999*%
%ADD35RoundRect,0.135000X-0.185000X0.135000X-0.185000X-0.135000X0.185000X-0.135000X0.185000X0.135000X0*%
%ADD36C,0.600000*%
%ADD37O,1.000000X1.900000*%
%ADD38O,1.000000X1.600000*%
%ADD39R,0.600000X1.140005*%
%ADD40R,0.300000X1.140005*%
%ADD41R,0.775006X0.875006*%
%ADD42R,0.750013X0.700000*%
%ADD43RoundRect,0.135000X0.185000X-0.135000X0.185000X0.135000X-0.185000X0.135000X-0.185000X-0.135000X0*%
%ADD44FreePoly0,90.000000*%
%ADD45FreePoly1,90.000000*%
%ADD46FreePoly2,90.000000*%
%ADD47FreePoly3,90.000000*%
%ADD48RotRect,0.450013X0.450013X135.000000*%
%ADD49R,1.600000X1.600000*%
%ADD50C,1.600000*%
G04 APERTURE END LIST*
D10*
X50749002Y-52565615D02*
G75*
G02*
X43070998Y-52565615I-3839002J0D01*
G01*
X43070998Y-52565615D02*
G75*
G02*
X50749002Y-52565615I3839002J0D01*
G01*
D11*
G36*
X49634497Y-58225000D02*
G01*
X49634497Y-57802948D01*
X49485143Y-57802948D01*
X49485143Y-57716974D01*
X49885212Y-57716974D01*
X49885212Y-57802948D01*
X49736224Y-57802948D01*
X49736224Y-58225000D01*
X49634497Y-58225000D01*
G37*
G36*
X49947250Y-58225000D02*
G01*
X49947250Y-57716974D01*
X50099413Y-57716974D01*
X50190760Y-58063555D01*
X50281130Y-57716974D01*
X50433538Y-57716974D01*
X50433538Y-58225000D01*
X50339138Y-58225000D01*
X50339138Y-57825052D01*
X50239120Y-58225000D01*
X50141301Y-58225000D01*
X50041650Y-57825052D01*
X50041650Y-58225000D01*
X49947250Y-58225000D01*
G37*
D12*
G36*
X33148719Y-58892170D02*
G01*
X33148719Y-58722421D01*
X33203281Y-58740434D01*
X33256480Y-58755394D01*
X33318517Y-58769316D01*
X33378589Y-58778841D01*
X33436697Y-58783970D01*
X33474344Y-58784947D01*
X33529877Y-58781779D01*
X33584303Y-58770826D01*
X33635323Y-58749742D01*
X33643604Y-58744891D01*
X33685700Y-58709162D01*
X33707034Y-58663561D01*
X33708621Y-58645484D01*
X33695667Y-58596332D01*
X33687397Y-58583691D01*
X33645260Y-58550300D01*
X33598035Y-58524359D01*
X33576974Y-58514082D01*
X33368489Y-58416629D01*
X33321623Y-58392495D01*
X33273667Y-58364516D01*
X33228975Y-58331782D01*
X33226364Y-58329434D01*
X33190430Y-58289989D01*
X33164302Y-58246880D01*
X33147950Y-58197407D01*
X33143346Y-58150893D01*
X33149508Y-58096442D01*
X33167996Y-58046174D01*
X33198809Y-58000088D01*
X33235880Y-57963194D01*
X33241946Y-57958185D01*
X33290780Y-57927065D01*
X33341703Y-57906474D01*
X33400994Y-57891499D01*
X33456796Y-57883309D01*
X33518410Y-57879020D01*
X33558168Y-57878318D01*
X33619068Y-57879520D01*
X33678854Y-57883126D01*
X33737525Y-57889137D01*
X33795082Y-57897552D01*
X33851524Y-57908371D01*
X33870090Y-57912512D01*
X33870090Y-58076154D01*
X33810515Y-58056731D01*
X33751885Y-58041327D01*
X33694199Y-58029941D01*
X33637458Y-58022574D01*
X33581661Y-58019225D01*
X33563272Y-58019002D01*
X33504648Y-58021888D01*
X33450586Y-58031729D01*
X33407445Y-58048555D01*
X33366339Y-58082138D01*
X33352637Y-58123782D01*
X33366001Y-58171348D01*
X33366877Y-58172875D01*
X33408205Y-58207527D01*
X33455268Y-58231981D01*
X33686591Y-58340669D01*
X33738571Y-58366718D01*
X33791050Y-58396740D01*
X33834735Y-58426364D01*
X33877981Y-58463869D01*
X33889166Y-58476224D01*
X33917785Y-58519530D01*
X33935805Y-58567319D01*
X33943224Y-58619593D01*
X33943436Y-58630586D01*
X33938635Y-58680073D01*
X33924231Y-58727176D01*
X33900224Y-58771894D01*
X33894270Y-58780551D01*
X33858793Y-58820488D01*
X33813817Y-58854511D01*
X33765218Y-58880073D01*
X33747309Y-58887529D01*
X33694046Y-58904199D01*
X33640278Y-58914878D01*
X33579825Y-58921910D01*
X33522687Y-58925036D01*
X33481866Y-58925631D01*
X33424149Y-58924455D01*
X33364240Y-58920926D01*
X33302140Y-58915044D01*
X33248717Y-58908345D01*
X33193771Y-58900012D01*
X33148719Y-58892170D01*
G37*
G36*
X34837023Y-58890704D02*
G01*
X34784708Y-58902423D01*
X34738422Y-58910244D01*
X34682978Y-58917405D01*
X34640090Y-58921479D01*
X34585090Y-58924946D01*
X34550624Y-58925631D01*
X34496849Y-58924017D01*
X34433667Y-58917459D01*
X34374972Y-58905856D01*
X34320764Y-58889209D01*
X34271042Y-58867517D01*
X34225807Y-58840780D01*
X34200819Y-58822316D01*
X34157084Y-58780791D01*
X34122398Y-58733702D01*
X34096760Y-58681049D01*
X34082308Y-58632920D01*
X34074139Y-58580928D01*
X34072128Y-58536552D01*
X34074988Y-58484058D01*
X34083567Y-58434652D01*
X34101413Y-58379443D01*
X34127494Y-58328681D01*
X34161812Y-58282368D01*
X34189267Y-58253963D01*
X34237340Y-58216611D01*
X34283737Y-58191388D01*
X34335892Y-58171531D01*
X34393806Y-58157041D01*
X34457479Y-58147918D01*
X34512565Y-58144483D01*
X34541489Y-58144054D01*
X34600504Y-58145239D01*
X34657856Y-58148794D01*
X34713545Y-58154719D01*
X34767573Y-58163013D01*
X34828504Y-58175686D01*
X34837023Y-58177759D01*
X34837023Y-58331388D01*
X34783991Y-58315534D01*
X34723552Y-58301184D01*
X34664656Y-58291298D01*
X34607303Y-58285877D01*
X34567281Y-58284738D01*
X34511221Y-58289143D01*
X34454266Y-58304370D01*
X34402925Y-58330473D01*
X34388618Y-58340425D01*
X34349231Y-58380778D01*
X34326255Y-58426843D01*
X34315752Y-58475543D01*
X34313928Y-58509685D01*
X34318087Y-58559255D01*
X34332110Y-58609579D01*
X34349124Y-58644752D01*
X34381074Y-58686162D01*
X34424132Y-58719536D01*
X34459009Y-58737320D01*
X34512130Y-58755536D01*
X34568425Y-58766191D01*
X34622358Y-58769316D01*
X34679963Y-58766476D01*
X34739735Y-58757955D01*
X34794686Y-58745614D01*
X34837023Y-58733412D01*
X34837023Y-58890704D01*
G37*
G36*
X35032076Y-58910000D02*
G01*
X35032076Y-57831423D01*
X35255875Y-57831423D01*
X35255875Y-58160174D01*
X35246741Y-58300369D01*
X35255875Y-58300369D01*
X35280594Y-58255989D01*
X35316758Y-58214356D01*
X35350177Y-58187773D01*
X35398704Y-58162882D01*
X35450422Y-58149220D01*
X35509382Y-58144097D01*
X35515676Y-58144054D01*
X35573956Y-58148981D01*
X35625478Y-58163760D01*
X35674799Y-58191739D01*
X35692191Y-58206336D01*
X35724529Y-58246584D01*
X35746284Y-58297535D01*
X35756737Y-58351810D01*
X35759089Y-58398066D01*
X35759089Y-58910000D01*
X35535558Y-58910000D01*
X35535558Y-58444717D01*
X35530827Y-58395436D01*
X35510840Y-58355568D01*
X35462833Y-58333128D01*
X35441793Y-58331632D01*
X35386392Y-58341076D01*
X35338893Y-58365094D01*
X35295898Y-58399254D01*
X35260104Y-58438996D01*
X35255875Y-58444717D01*
X35255875Y-58910000D01*
X35032076Y-58910000D01*
G37*
G36*
X36371921Y-58146493D02*
G01*
X36433455Y-58155858D01*
X36491417Y-58172247D01*
X36545810Y-58195660D01*
X36596632Y-58226097D01*
X36620704Y-58243949D01*
X36663618Y-58284604D01*
X36697652Y-58331648D01*
X36722808Y-58385080D01*
X36736989Y-58434486D01*
X36745005Y-58488329D01*
X36746978Y-58534598D01*
X36743888Y-58592336D01*
X36734620Y-58645567D01*
X36719173Y-58694289D01*
X36692481Y-58746805D01*
X36656891Y-58792829D01*
X36620436Y-58826224D01*
X36571244Y-58860007D01*
X36518577Y-58886800D01*
X36462434Y-58906604D01*
X36402815Y-58919418D01*
X36339720Y-58925243D01*
X36317916Y-58925631D01*
X36253846Y-58922136D01*
X36193213Y-58911652D01*
X36136018Y-58894178D01*
X36082262Y-58869715D01*
X36031943Y-58838262D01*
X36015935Y-58826224D01*
X35972930Y-58785609D01*
X35938823Y-58738503D01*
X35913613Y-58684905D01*
X35899402Y-58635281D01*
X35891370Y-58581149D01*
X35889402Y-58534842D01*
X36131999Y-58534842D01*
X36134416Y-58589241D01*
X36143097Y-58642795D01*
X36160410Y-58692059D01*
X36182508Y-58726085D01*
X36225352Y-58761954D01*
X36277717Y-58781268D01*
X36317916Y-58784947D01*
X36372374Y-58777992D01*
X36422440Y-58754539D01*
X36453593Y-58726085D01*
X36480371Y-58682116D01*
X36495991Y-58630268D01*
X36503132Y-58574416D01*
X36504371Y-58534842D01*
X36501929Y-58480444D01*
X36493155Y-58426890D01*
X36475658Y-58377626D01*
X36453325Y-58343600D01*
X36410355Y-58307731D01*
X36358015Y-58288417D01*
X36317916Y-58284738D01*
X36263733Y-58291693D01*
X36213749Y-58315146D01*
X36182508Y-58343600D01*
X36155872Y-58387569D01*
X36140335Y-58439417D01*
X36133232Y-58495269D01*
X36131999Y-58534842D01*
X35889402Y-58534842D01*
X35889392Y-58534598D01*
X35892469Y-58477206D01*
X35901698Y-58424250D01*
X35917079Y-58375731D01*
X35943658Y-58323363D01*
X35979097Y-58277385D01*
X36015397Y-58243949D01*
X36064507Y-58210000D01*
X36117130Y-58183076D01*
X36173266Y-58163175D01*
X36232917Y-58150297D01*
X36296081Y-58144444D01*
X36317916Y-58144054D01*
X36371921Y-58146493D01*
G37*
G36*
X37299360Y-58146493D02*
G01*
X37360894Y-58155858D01*
X37418856Y-58172247D01*
X37473249Y-58195660D01*
X37524071Y-58226097D01*
X37548143Y-58243949D01*
X37591057Y-58284604D01*
X37625091Y-58331648D01*
X37650247Y-58385080D01*
X37664428Y-58434486D01*
X37672444Y-58488329D01*
X37674417Y-58534598D01*
X37671327Y-58592336D01*
X37662059Y-58645567D01*
X37646612Y-58694289D01*
X37619920Y-58746805D01*
X37584330Y-58792829D01*
X37547875Y-58826224D01*
X37498683Y-58860007D01*
X37446016Y-58886800D01*
X37389873Y-58906604D01*
X37330254Y-58919418D01*
X37267159Y-58925243D01*
X37245355Y-58925631D01*
X37181285Y-58922136D01*
X37120652Y-58911652D01*
X37063457Y-58894178D01*
X37009701Y-58869715D01*
X36959382Y-58838262D01*
X36943374Y-58826224D01*
X36900369Y-58785609D01*
X36866262Y-58738503D01*
X36841052Y-58684905D01*
X36826841Y-58635281D01*
X36818809Y-58581149D01*
X36816841Y-58534842D01*
X37059438Y-58534842D01*
X37061855Y-58589241D01*
X37070536Y-58642795D01*
X37087849Y-58692059D01*
X37109947Y-58726085D01*
X37152791Y-58761954D01*
X37205156Y-58781268D01*
X37245355Y-58784947D01*
X37299813Y-58777992D01*
X37349879Y-58754539D01*
X37381032Y-58726085D01*
X37407810Y-58682116D01*
X37423430Y-58630268D01*
X37430571Y-58574416D01*
X37431810Y-58534842D01*
X37429368Y-58480444D01*
X37420594Y-58426890D01*
X37403097Y-58377626D01*
X37380764Y-58343600D01*
X37337794Y-58307731D01*
X37285454Y-58288417D01*
X37245355Y-58284738D01*
X37191172Y-58291693D01*
X37141188Y-58315146D01*
X37109947Y-58343600D01*
X37083311Y-58387569D01*
X37067774Y-58439417D01*
X37060671Y-58495269D01*
X37059438Y-58534842D01*
X36816841Y-58534842D01*
X36816831Y-58534598D01*
X36819908Y-58477206D01*
X36829136Y-58424250D01*
X36844518Y-58375731D01*
X36871097Y-58323363D01*
X36906536Y-58277385D01*
X36942836Y-58243949D01*
X36991946Y-58210000D01*
X37044569Y-58183076D01*
X37100705Y-58163175D01*
X37160356Y-58150297D01*
X37223520Y-58144444D01*
X37245355Y-58144054D01*
X37299360Y-58146493D01*
G37*
G36*
X37814392Y-58910000D02*
G01*
X37814392Y-58159685D01*
X38038192Y-58159685D01*
X38029057Y-58300369D01*
X38038192Y-58300369D01*
X38062911Y-58255989D01*
X38099074Y-58214356D01*
X38132494Y-58187773D01*
X38181021Y-58162882D01*
X38232739Y-58149220D01*
X38291699Y-58144097D01*
X38297993Y-58144054D01*
X38356620Y-58149000D01*
X38408277Y-58163838D01*
X38457498Y-58191926D01*
X38474776Y-58206580D01*
X38506985Y-58246907D01*
X38528652Y-58297822D01*
X38539063Y-58351968D01*
X38541406Y-58398066D01*
X38541406Y-58910000D01*
X38317875Y-58910000D01*
X38317875Y-58444717D01*
X38313144Y-58395436D01*
X38293157Y-58355568D01*
X38245150Y-58333128D01*
X38224110Y-58331632D01*
X38168708Y-58341076D01*
X38121210Y-58365094D01*
X38078214Y-58399254D01*
X38042420Y-58438996D01*
X38038192Y-58444717D01*
X38038192Y-58910000D01*
X37814392Y-58910000D01*
G37*
G36*
X39689152Y-58910000D02*
G01*
X39689152Y-57893949D01*
X40387955Y-57893949D01*
X40387955Y-58034633D01*
X39912683Y-58034633D01*
X39912683Y-58300369D01*
X40313803Y-58300369D01*
X40313803Y-58441053D01*
X39912683Y-58441053D01*
X39912683Y-58769316D01*
X40427986Y-58769316D01*
X40427986Y-58910000D01*
X39689152Y-58910000D01*
G37*
G36*
X40596709Y-58910000D02*
G01*
X40596709Y-58159685D01*
X40820509Y-58159685D01*
X40811374Y-58300369D01*
X40820509Y-58300369D01*
X40845228Y-58255989D01*
X40881391Y-58214356D01*
X40914811Y-58187773D01*
X40963338Y-58162882D01*
X41015056Y-58149220D01*
X41074016Y-58144097D01*
X41080310Y-58144054D01*
X41138937Y-58149000D01*
X41190594Y-58163838D01*
X41239814Y-58191926D01*
X41257093Y-58206580D01*
X41289302Y-58246907D01*
X41310969Y-58297822D01*
X41321380Y-58351968D01*
X41323722Y-58398066D01*
X41323722Y-58910000D01*
X41100191Y-58910000D01*
X41100191Y-58444717D01*
X41095460Y-58395436D01*
X41075474Y-58355568D01*
X41027467Y-58333128D01*
X41006427Y-58331632D01*
X40951025Y-58341076D01*
X40903527Y-58365094D01*
X40860531Y-58399254D01*
X40824737Y-58438996D01*
X40820509Y-58444717D01*
X40820509Y-58910000D01*
X40596709Y-58910000D01*
G37*
G36*
X42249012Y-58889483D02*
G01*
X42191993Y-58903568D01*
X42138008Y-58914194D01*
X42080027Y-58922101D01*
X42026008Y-58925490D01*
X42013122Y-58925631D01*
X41954858Y-58922283D01*
X41899388Y-58912240D01*
X41851385Y-58897299D01*
X41800770Y-58872981D01*
X41758132Y-58840126D01*
X41740425Y-58819630D01*
X41716942Y-58771199D01*
X41707024Y-58722589D01*
X41704155Y-58670397D01*
X41704155Y-58300369D01*
X41527372Y-58300369D01*
X41527372Y-58159685D01*
X41704155Y-58159685D01*
X41704155Y-57972107D01*
X41927686Y-57972107D01*
X41927686Y-58159685D01*
X42230743Y-58159685D01*
X42230743Y-58300369D01*
X41927686Y-58300369D01*
X41927686Y-58623258D01*
X41930923Y-58675128D01*
X41947299Y-58721933D01*
X41990341Y-58754236D01*
X42000495Y-58758080D01*
X42053087Y-58768613D01*
X42071423Y-58769316D01*
X42127093Y-58766024D01*
X42182605Y-58756149D01*
X42237960Y-58739692D01*
X42249012Y-58735610D01*
X42249012Y-58889483D01*
G37*
G36*
X42903879Y-58147566D02*
G01*
X42959868Y-58158102D01*
X43011001Y-58175661D01*
X43064521Y-58205025D01*
X43105136Y-58237803D01*
X43111434Y-58243949D01*
X43145308Y-58284040D01*
X43172173Y-58329575D01*
X43192031Y-58380554D01*
X43204879Y-58436977D01*
X43210233Y-58488155D01*
X43211109Y-58520676D01*
X43211109Y-58597369D01*
X42656580Y-58597369D01*
X42669195Y-58646799D01*
X42697859Y-58691586D01*
X42742016Y-58726329D01*
X42792454Y-58748998D01*
X42849399Y-58763271D01*
X42906213Y-58768938D01*
X42926322Y-58769316D01*
X42983017Y-58766908D01*
X43042850Y-58759685D01*
X43096632Y-58749662D01*
X43152718Y-58736101D01*
X43211109Y-58719002D01*
X43211109Y-58877271D01*
X43152284Y-58891203D01*
X43095703Y-58902773D01*
X43041365Y-58911983D01*
X42979120Y-58919917D01*
X42920106Y-58924450D01*
X42873394Y-58925631D01*
X42814781Y-58923410D01*
X42759305Y-58916749D01*
X42706966Y-58905646D01*
X42650991Y-58887518D01*
X42631057Y-58879225D01*
X42581790Y-58853121D01*
X42538501Y-58821461D01*
X42501190Y-58784245D01*
X42469856Y-58741472D01*
X42445055Y-58694409D01*
X42427340Y-58644569D01*
X42416711Y-58591950D01*
X42413168Y-58536552D01*
X42416476Y-58482834D01*
X42421492Y-58456685D01*
X42649595Y-58456685D01*
X42994295Y-58456685D01*
X42990326Y-58407149D01*
X42975088Y-58358789D01*
X42942865Y-58317650D01*
X42895086Y-58292966D01*
X42841751Y-58284906D01*
X42831751Y-58284738D01*
X42777585Y-58291161D01*
X42728541Y-58312615D01*
X42706284Y-58330411D01*
X42673987Y-58373167D01*
X42655430Y-58423010D01*
X42649595Y-58456685D01*
X42421492Y-58456685D01*
X42426400Y-58431100D01*
X42442939Y-58381351D01*
X42466095Y-58333586D01*
X42495581Y-58289562D01*
X42531113Y-58251277D01*
X42572689Y-58218731D01*
X42620310Y-58191926D01*
X42672213Y-58170982D01*
X42726635Y-58156022D01*
X42783576Y-58147046D01*
X42843035Y-58144054D01*
X42903879Y-58147566D01*
G37*
G36*
X43439476Y-58910000D02*
G01*
X43439476Y-58159685D01*
X43663276Y-58159685D01*
X43654141Y-58300369D01*
X43663276Y-58300369D01*
X43696045Y-58257413D01*
X43734084Y-58219105D01*
X43750324Y-58206580D01*
X43795796Y-58179713D01*
X43845163Y-58160174D01*
X43900845Y-58148084D01*
X43956288Y-58144117D01*
X43964720Y-58144054D01*
X44021759Y-58146835D01*
X44076603Y-58153534D01*
X44120279Y-58160907D01*
X44120279Y-58472316D01*
X43970900Y-58472316D01*
X43970900Y-58333098D01*
X43930868Y-58331632D01*
X43874669Y-58336578D01*
X43833073Y-58347264D01*
X43782399Y-58369332D01*
X43745219Y-58392693D01*
X43704180Y-58429330D01*
X43670935Y-58469528D01*
X43663276Y-58480132D01*
X43663276Y-58910000D01*
X43439476Y-58910000D01*
G37*
G36*
X44826625Y-58148951D02*
G01*
X44880353Y-58163642D01*
X44928681Y-58188127D01*
X44971609Y-58222406D01*
X44993715Y-58246392D01*
X45026901Y-58294283D01*
X45048858Y-58340468D01*
X45064827Y-58391393D01*
X45074808Y-58447057D01*
X45078550Y-58497065D01*
X45078883Y-58517990D01*
X45076587Y-58573704D01*
X45069700Y-58625900D01*
X45058221Y-58674578D01*
X45038386Y-58728348D01*
X45011939Y-58777051D01*
X44984849Y-58813768D01*
X44947282Y-58851784D01*
X44897628Y-58886195D01*
X44841700Y-58909900D01*
X44788769Y-58921698D01*
X44731228Y-58925631D01*
X44675821Y-58921143D01*
X44620794Y-58906374D01*
X44610327Y-58902184D01*
X44561172Y-58874928D01*
X44519768Y-58840387D01*
X44511458Y-58831842D01*
X44502323Y-58831842D01*
X44511458Y-58903405D01*
X44511458Y-59175736D01*
X44287658Y-59175736D01*
X44287658Y-58698485D01*
X44511458Y-58698485D01*
X44554172Y-58731668D01*
X44585341Y-58748555D01*
X44637545Y-58765889D01*
X44672390Y-58769316D01*
X44726891Y-58760275D01*
X44759706Y-58743670D01*
X44796590Y-58704154D01*
X44816933Y-58658674D01*
X44829457Y-58607350D01*
X44835351Y-58554823D01*
X44836277Y-58521898D01*
X44833195Y-58470034D01*
X44821059Y-58418400D01*
X44797320Y-58376817D01*
X44755131Y-58344385D01*
X44701607Y-58331809D01*
X44693614Y-58331632D01*
X44638340Y-58341190D01*
X44602267Y-58358743D01*
X44560771Y-58393015D01*
X44526214Y-58433183D01*
X44511458Y-58453265D01*
X44511458Y-58698485D01*
X44287658Y-58698485D01*
X44287658Y-58159685D01*
X44511458Y-58159685D01*
X44502323Y-58300369D01*
X44511458Y-58300369D01*
X44541975Y-58258109D01*
X44576240Y-58219998D01*
X44596357Y-58202916D01*
X44641260Y-58174383D01*
X44676420Y-58158709D01*
X44731014Y-58146115D01*
X44767498Y-58144054D01*
X44826625Y-58148951D01*
G37*
G36*
X45294354Y-58910000D02*
G01*
X45294354Y-58159685D01*
X45518154Y-58159685D01*
X45509019Y-58300369D01*
X45518154Y-58300369D01*
X45550923Y-58257413D01*
X45588962Y-58219105D01*
X45605202Y-58206580D01*
X45650674Y-58179713D01*
X45700041Y-58160174D01*
X45755723Y-58148084D01*
X45811166Y-58144117D01*
X45819598Y-58144054D01*
X45876637Y-58146835D01*
X45931481Y-58153534D01*
X45975157Y-58160907D01*
X45975157Y-58472316D01*
X45825778Y-58472316D01*
X45825778Y-58333098D01*
X45785746Y-58331632D01*
X45729546Y-58336578D01*
X45687951Y-58347264D01*
X45637277Y-58369332D01*
X45600097Y-58392693D01*
X45559058Y-58429330D01*
X45525813Y-58469528D01*
X45518154Y-58480132D01*
X45518154Y-58910000D01*
X45294354Y-58910000D01*
G37*
G36*
X46501475Y-58910000D02*
G01*
X46501475Y-58300369D01*
X46202986Y-58300369D01*
X46202986Y-58159685D01*
X46725275Y-58159685D01*
X46725275Y-58910000D01*
X46501475Y-58910000D01*
G37*
G36*
X46501475Y-58019002D02*
G01*
X46501475Y-57815792D01*
X46725275Y-57815792D01*
X46725275Y-58019002D01*
X46501475Y-58019002D01*
G37*
G36*
X47100334Y-58881667D02*
G01*
X47100334Y-58725840D01*
X47157455Y-58742868D01*
X47210771Y-58757010D01*
X47269729Y-58770170D01*
X47323209Y-58779175D01*
X47378677Y-58784428D01*
X47400167Y-58784947D01*
X47455715Y-58781682D01*
X47508129Y-58769800D01*
X47519993Y-58765163D01*
X47560269Y-58729836D01*
X47565666Y-58703859D01*
X47545247Y-58662337D01*
X47497763Y-58637047D01*
X47486409Y-58632784D01*
X47310969Y-58568548D01*
X47251759Y-58544229D01*
X47202584Y-58517524D01*
X47156822Y-58482330D01*
X47121697Y-58436930D01*
X47106242Y-58386854D01*
X47105439Y-58371688D01*
X47113021Y-58322061D01*
X47135768Y-58275578D01*
X47151381Y-58255184D01*
X47190573Y-58218537D01*
X47238832Y-58188827D01*
X47276043Y-58172875D01*
X47332038Y-58157676D01*
X47386619Y-58149570D01*
X47441513Y-58145433D01*
X47503066Y-58144054D01*
X47559688Y-58145840D01*
X47620743Y-58151198D01*
X47677802Y-58158817D01*
X47738255Y-58169170D01*
X47756151Y-58172630D01*
X47756151Y-58331388D01*
X47700512Y-58315534D01*
X47648046Y-58302961D01*
X47590847Y-58292437D01*
X47530766Y-58285877D01*
X47496081Y-58284738D01*
X47440682Y-58287777D01*
X47386271Y-58299637D01*
X47383510Y-58300614D01*
X47342454Y-58332304D01*
X47339717Y-58346531D01*
X47355031Y-58378039D01*
X47403021Y-58401655D01*
X47450139Y-58419316D01*
X47644385Y-58491123D01*
X47696370Y-58513425D01*
X47741718Y-58540244D01*
X47781137Y-58578318D01*
X47804278Y-58623364D01*
X47814692Y-58674845D01*
X47814989Y-58685540D01*
X47807850Y-58737189D01*
X47786434Y-58785372D01*
X47771734Y-58806441D01*
X47733335Y-58844462D01*
X47687317Y-58873703D01*
X47641967Y-58893635D01*
X47585500Y-58910508D01*
X47530866Y-58920350D01*
X47472619Y-58925131D01*
X47445572Y-58925631D01*
X47389229Y-58924321D01*
X47332809Y-58921276D01*
X47328433Y-58920990D01*
X47269843Y-58914250D01*
X47214191Y-58904889D01*
X47156487Y-58893617D01*
X47100334Y-58881667D01*
G37*
G36*
X48468512Y-58147566D02*
G01*
X48524501Y-58158102D01*
X48575635Y-58175661D01*
X48629155Y-58205025D01*
X48669770Y-58237803D01*
X48676067Y-58243949D01*
X48709941Y-58284040D01*
X48736807Y-58329575D01*
X48756664Y-58380554D01*
X48769513Y-58436977D01*
X48774867Y-58488155D01*
X48775743Y-58520676D01*
X48775743Y-58597369D01*
X48221214Y-58597369D01*
X48233828Y-58646799D01*
X48262493Y-58691586D01*
X48306650Y-58726329D01*
X48357088Y-58748998D01*
X48414033Y-58763271D01*
X48470846Y-58768938D01*
X48490956Y-58769316D01*
X48547651Y-58766908D01*
X48607484Y-58759685D01*
X48661265Y-58749662D01*
X48717352Y-58736101D01*
X48775743Y-58719002D01*
X48775743Y-58877271D01*
X48716918Y-58891203D01*
X48660337Y-58902773D01*
X48605998Y-58911983D01*
X48543754Y-58919917D01*
X48484739Y-58924450D01*
X48438028Y-58925631D01*
X48379415Y-58923410D01*
X48323939Y-58916749D01*
X48271600Y-58905646D01*
X48215625Y-58887518D01*
X48195690Y-58879225D01*
X48146424Y-58853121D01*
X48103135Y-58821461D01*
X48065823Y-58784245D01*
X48034490Y-58741472D01*
X48009689Y-58694409D01*
X47991974Y-58644569D01*
X47981344Y-58591950D01*
X47977801Y-58536552D01*
X47981109Y-58482834D01*
X47986125Y-58456685D01*
X48214228Y-58456685D01*
X48558928Y-58456685D01*
X48554960Y-58407149D01*
X48539722Y-58358789D01*
X48507499Y-58317650D01*
X48459720Y-58292966D01*
X48406385Y-58284906D01*
X48396385Y-58284738D01*
X48342219Y-58291161D01*
X48293175Y-58312615D01*
X48270917Y-58330411D01*
X48238620Y-58373167D01*
X48220063Y-58423010D01*
X48214228Y-58456685D01*
X47986125Y-58456685D01*
X47991033Y-58431100D01*
X48007573Y-58381351D01*
X48030729Y-58333586D01*
X48060215Y-58289562D01*
X48095746Y-58251277D01*
X48137322Y-58218731D01*
X48184944Y-58191926D01*
X48236847Y-58170982D01*
X48291269Y-58156022D01*
X48348209Y-58147046D01*
X48407669Y-58144054D01*
X48468512Y-58147566D01*
G37*
G36*
X48955212Y-58881667D02*
G01*
X48955212Y-58725840D01*
X49012333Y-58742868D01*
X49065649Y-58757010D01*
X49124607Y-58770170D01*
X49178086Y-58779175D01*
X49233555Y-58784428D01*
X49255045Y-58784947D01*
X49310593Y-58781682D01*
X49363007Y-58769800D01*
X49374870Y-58765163D01*
X49415147Y-58729836D01*
X49420544Y-58703859D01*
X49400125Y-58662337D01*
X49352641Y-58637047D01*
X49341287Y-58632784D01*
X49165847Y-58568548D01*
X49106637Y-58544229D01*
X49057462Y-58517524D01*
X49011700Y-58482330D01*
X48976575Y-58436930D01*
X48961120Y-58386854D01*
X48960317Y-58371688D01*
X48967899Y-58322061D01*
X48990646Y-58275578D01*
X49006259Y-58255184D01*
X49045451Y-58218537D01*
X49093710Y-58188827D01*
X49130921Y-58172875D01*
X49186916Y-58157676D01*
X49241497Y-58149570D01*
X49296391Y-58145433D01*
X49357944Y-58144054D01*
X49414566Y-58145840D01*
X49475621Y-58151198D01*
X49532680Y-58158817D01*
X49593133Y-58169170D01*
X49611029Y-58172630D01*
X49611029Y-58331388D01*
X49555390Y-58315534D01*
X49502924Y-58302961D01*
X49445725Y-58292437D01*
X49385644Y-58285877D01*
X49350959Y-58284738D01*
X49295560Y-58287777D01*
X49241149Y-58299637D01*
X49238387Y-58300614D01*
X49197332Y-58332304D01*
X49194595Y-58346531D01*
X49209909Y-58378039D01*
X49257899Y-58401655D01*
X49305017Y-58419316D01*
X49499263Y-58491123D01*
X49551248Y-58513425D01*
X49596596Y-58540244D01*
X49636015Y-58578318D01*
X49659156Y-58623364D01*
X49669569Y-58674845D01*
X49669867Y-58685540D01*
X49662728Y-58737189D01*
X49641312Y-58785372D01*
X49626612Y-58806441D01*
X49588213Y-58844462D01*
X49542195Y-58873703D01*
X49496845Y-58893635D01*
X49440378Y-58910508D01*
X49385744Y-58920350D01*
X49327497Y-58925131D01*
X49300450Y-58925631D01*
X49244107Y-58924321D01*
X49187687Y-58921276D01*
X49183311Y-58920990D01*
X49124721Y-58914250D01*
X49069069Y-58904889D01*
X49011365Y-58893617D01*
X48955212Y-58881667D01*
G37*
D10*
X47377142Y-46369580D02*
X47329523Y-46417200D01*
X47329523Y-46417200D02*
X47186666Y-46464819D01*
X47186666Y-46464819D02*
X47091428Y-46464819D01*
X47091428Y-46464819D02*
X46948571Y-46417200D01*
X46948571Y-46417200D02*
X46853333Y-46321961D01*
X46853333Y-46321961D02*
X46805714Y-46226723D01*
X46805714Y-46226723D02*
X46758095Y-46036247D01*
X46758095Y-46036247D02*
X46758095Y-45893390D01*
X46758095Y-45893390D02*
X46805714Y-45702914D01*
X46805714Y-45702914D02*
X46853333Y-45607676D01*
X46853333Y-45607676D02*
X46948571Y-45512438D01*
X46948571Y-45512438D02*
X47091428Y-45464819D01*
X47091428Y-45464819D02*
X47186666Y-45464819D01*
X47186666Y-45464819D02*
X47329523Y-45512438D01*
X47329523Y-45512438D02*
X47377142Y-45560057D01*
X48329523Y-46464819D02*
X47758095Y-46464819D01*
X48043809Y-46464819D02*
X48043809Y-45464819D01*
X48043809Y-45464819D02*
X47948571Y-45607676D01*
X47948571Y-45607676D02*
X47853333Y-45702914D01*
X47853333Y-45702914D02*
X47758095Y-45750533D01*
X49186666Y-45464819D02*
X48996190Y-45464819D01*
X48996190Y-45464819D02*
X48900952Y-45512438D01*
X48900952Y-45512438D02*
X48853333Y-45560057D01*
X48853333Y-45560057D02*
X48758095Y-45702914D01*
X48758095Y-45702914D02*
X48710476Y-45893390D01*
X48710476Y-45893390D02*
X48710476Y-46274342D01*
X48710476Y-46274342D02*
X48758095Y-46369580D01*
X48758095Y-46369580D02*
X48805714Y-46417200D01*
X48805714Y-46417200D02*
X48900952Y-46464819D01*
X48900952Y-46464819D02*
X49091428Y-46464819D01*
X49091428Y-46464819D02*
X49186666Y-46417200D01*
X49186666Y-46417200D02*
X49234285Y-46369580D01*
X49234285Y-46369580D02*
X49281904Y-46274342D01*
X49281904Y-46274342D02*
X49281904Y-46036247D01*
X49281904Y-46036247D02*
X49234285Y-45941009D01*
X49234285Y-45941009D02*
X49186666Y-45893390D01*
X49186666Y-45893390D02*
X49091428Y-45845771D01*
X49091428Y-45845771D02*
X48900952Y-45845771D01*
X48900952Y-45845771D02*
X48805714Y-45893390D01*
X48805714Y-45893390D02*
X48758095Y-45941009D01*
X48758095Y-45941009D02*
X48710476Y-46036247D01*
X47377142Y-44399580D02*
X47329523Y-44447200D01*
X47329523Y-44447200D02*
X47186666Y-44494819D01*
X47186666Y-44494819D02*
X47091428Y-44494819D01*
X47091428Y-44494819D02*
X46948571Y-44447200D01*
X46948571Y-44447200D02*
X46853333Y-44351961D01*
X46853333Y-44351961D02*
X46805714Y-44256723D01*
X46805714Y-44256723D02*
X46758095Y-44066247D01*
X46758095Y-44066247D02*
X46758095Y-43923390D01*
X46758095Y-43923390D02*
X46805714Y-43732914D01*
X46805714Y-43732914D02*
X46853333Y-43637676D01*
X46853333Y-43637676D02*
X46948571Y-43542438D01*
X46948571Y-43542438D02*
X47091428Y-43494819D01*
X47091428Y-43494819D02*
X47186666Y-43494819D01*
X47186666Y-43494819D02*
X47329523Y-43542438D01*
X47329523Y-43542438D02*
X47377142Y-43590057D01*
X48329523Y-44494819D02*
X47758095Y-44494819D01*
X48043809Y-44494819D02*
X48043809Y-43494819D01*
X48043809Y-43494819D02*
X47948571Y-43637676D01*
X47948571Y-43637676D02*
X47853333Y-43732914D01*
X47853333Y-43732914D02*
X47758095Y-43780533D01*
X49234285Y-43494819D02*
X48758095Y-43494819D01*
X48758095Y-43494819D02*
X48710476Y-43971009D01*
X48710476Y-43971009D02*
X48758095Y-43923390D01*
X48758095Y-43923390D02*
X48853333Y-43875771D01*
X48853333Y-43875771D02*
X49091428Y-43875771D01*
X49091428Y-43875771D02*
X49186666Y-43923390D01*
X49186666Y-43923390D02*
X49234285Y-43971009D01*
X49234285Y-43971009D02*
X49281904Y-44066247D01*
X49281904Y-44066247D02*
X49281904Y-44304342D01*
X49281904Y-44304342D02*
X49234285Y-44399580D01*
X49234285Y-44399580D02*
X49186666Y-44447200D01*
X49186666Y-44447200D02*
X49091428Y-44494819D01*
X49091428Y-44494819D02*
X48853333Y-44494819D01*
X48853333Y-44494819D02*
X48758095Y-44447200D01*
X48758095Y-44447200D02*
X48710476Y-44399580D01*
X41369580Y-56342857D02*
X41417200Y-56390476D01*
X41417200Y-56390476D02*
X41464819Y-56533333D01*
X41464819Y-56533333D02*
X41464819Y-56628571D01*
X41464819Y-56628571D02*
X41417200Y-56771428D01*
X41417200Y-56771428D02*
X41321961Y-56866666D01*
X41321961Y-56866666D02*
X41226723Y-56914285D01*
X41226723Y-56914285D02*
X41036247Y-56961904D01*
X41036247Y-56961904D02*
X40893390Y-56961904D01*
X40893390Y-56961904D02*
X40702914Y-56914285D01*
X40702914Y-56914285D02*
X40607676Y-56866666D01*
X40607676Y-56866666D02*
X40512438Y-56771428D01*
X40512438Y-56771428D02*
X40464819Y-56628571D01*
X40464819Y-56628571D02*
X40464819Y-56533333D01*
X40464819Y-56533333D02*
X40512438Y-56390476D01*
X40512438Y-56390476D02*
X40560057Y-56342857D01*
X41464819Y-55390476D02*
X41464819Y-55961904D01*
X41464819Y-55676190D02*
X40464819Y-55676190D01*
X40464819Y-55676190D02*
X40607676Y-55771428D01*
X40607676Y-55771428D02*
X40702914Y-55866666D01*
X40702914Y-55866666D02*
X40750533Y-55961904D01*
X40798152Y-54533333D02*
X41464819Y-54533333D01*
X40417200Y-54771428D02*
X41131485Y-55009523D01*
X41131485Y-55009523D02*
X41131485Y-54390476D01*
X39399580Y-56342857D02*
X39447200Y-56390476D01*
X39447200Y-56390476D02*
X39494819Y-56533333D01*
X39494819Y-56533333D02*
X39494819Y-56628571D01*
X39494819Y-56628571D02*
X39447200Y-56771428D01*
X39447200Y-56771428D02*
X39351961Y-56866666D01*
X39351961Y-56866666D02*
X39256723Y-56914285D01*
X39256723Y-56914285D02*
X39066247Y-56961904D01*
X39066247Y-56961904D02*
X38923390Y-56961904D01*
X38923390Y-56961904D02*
X38732914Y-56914285D01*
X38732914Y-56914285D02*
X38637676Y-56866666D01*
X38637676Y-56866666D02*
X38542438Y-56771428D01*
X38542438Y-56771428D02*
X38494819Y-56628571D01*
X38494819Y-56628571D02*
X38494819Y-56533333D01*
X38494819Y-56533333D02*
X38542438Y-56390476D01*
X38542438Y-56390476D02*
X38590057Y-56342857D01*
X39494819Y-55390476D02*
X39494819Y-55961904D01*
X39494819Y-55676190D02*
X38494819Y-55676190D01*
X38494819Y-55676190D02*
X38637676Y-55771428D01*
X38637676Y-55771428D02*
X38732914Y-55866666D01*
X38732914Y-55866666D02*
X38780533Y-55961904D01*
X38494819Y-55057142D02*
X38494819Y-54438095D01*
X38494819Y-54438095D02*
X38875771Y-54771428D01*
X38875771Y-54771428D02*
X38875771Y-54628571D01*
X38875771Y-54628571D02*
X38923390Y-54533333D01*
X38923390Y-54533333D02*
X38971009Y-54485714D01*
X38971009Y-54485714D02*
X39066247Y-54438095D01*
X39066247Y-54438095D02*
X39304342Y-54438095D01*
X39304342Y-54438095D02*
X39399580Y-54485714D01*
X39399580Y-54485714D02*
X39447200Y-54533333D01*
X39447200Y-54533333D02*
X39494819Y-54628571D01*
X39494819Y-54628571D02*
X39494819Y-54914285D01*
X39494819Y-54914285D02*
X39447200Y-55009523D01*
X39447200Y-55009523D02*
X39399580Y-55057142D01*
X37429580Y-56342857D02*
X37477200Y-56390476D01*
X37477200Y-56390476D02*
X37524819Y-56533333D01*
X37524819Y-56533333D02*
X37524819Y-56628571D01*
X37524819Y-56628571D02*
X37477200Y-56771428D01*
X37477200Y-56771428D02*
X37381961Y-56866666D01*
X37381961Y-56866666D02*
X37286723Y-56914285D01*
X37286723Y-56914285D02*
X37096247Y-56961904D01*
X37096247Y-56961904D02*
X36953390Y-56961904D01*
X36953390Y-56961904D02*
X36762914Y-56914285D01*
X36762914Y-56914285D02*
X36667676Y-56866666D01*
X36667676Y-56866666D02*
X36572438Y-56771428D01*
X36572438Y-56771428D02*
X36524819Y-56628571D01*
X36524819Y-56628571D02*
X36524819Y-56533333D01*
X36524819Y-56533333D02*
X36572438Y-56390476D01*
X36572438Y-56390476D02*
X36620057Y-56342857D01*
X37524819Y-55390476D02*
X37524819Y-55961904D01*
X37524819Y-55676190D02*
X36524819Y-55676190D01*
X36524819Y-55676190D02*
X36667676Y-55771428D01*
X36667676Y-55771428D02*
X36762914Y-55866666D01*
X36762914Y-55866666D02*
X36810533Y-55961904D01*
X36620057Y-55009523D02*
X36572438Y-54961904D01*
X36572438Y-54961904D02*
X36524819Y-54866666D01*
X36524819Y-54866666D02*
X36524819Y-54628571D01*
X36524819Y-54628571D02*
X36572438Y-54533333D01*
X36572438Y-54533333D02*
X36620057Y-54485714D01*
X36620057Y-54485714D02*
X36715295Y-54438095D01*
X36715295Y-54438095D02*
X36810533Y-54438095D01*
X36810533Y-54438095D02*
X36953390Y-54485714D01*
X36953390Y-54485714D02*
X37524819Y-55057142D01*
X37524819Y-55057142D02*
X37524819Y-54438095D01*
X35459580Y-56342857D02*
X35507200Y-56390476D01*
X35507200Y-56390476D02*
X35554819Y-56533333D01*
X35554819Y-56533333D02*
X35554819Y-56628571D01*
X35554819Y-56628571D02*
X35507200Y-56771428D01*
X35507200Y-56771428D02*
X35411961Y-56866666D01*
X35411961Y-56866666D02*
X35316723Y-56914285D01*
X35316723Y-56914285D02*
X35126247Y-56961904D01*
X35126247Y-56961904D02*
X34983390Y-56961904D01*
X34983390Y-56961904D02*
X34792914Y-56914285D01*
X34792914Y-56914285D02*
X34697676Y-56866666D01*
X34697676Y-56866666D02*
X34602438Y-56771428D01*
X34602438Y-56771428D02*
X34554819Y-56628571D01*
X34554819Y-56628571D02*
X34554819Y-56533333D01*
X34554819Y-56533333D02*
X34602438Y-56390476D01*
X34602438Y-56390476D02*
X34650057Y-56342857D01*
X35554819Y-55390476D02*
X35554819Y-55961904D01*
X35554819Y-55676190D02*
X34554819Y-55676190D01*
X34554819Y-55676190D02*
X34697676Y-55771428D01*
X34697676Y-55771428D02*
X34792914Y-55866666D01*
X34792914Y-55866666D02*
X34840533Y-55961904D01*
X35554819Y-54438095D02*
X35554819Y-55009523D01*
X35554819Y-54723809D02*
X34554819Y-54723809D01*
X34554819Y-54723809D02*
X34697676Y-54819047D01*
X34697676Y-54819047D02*
X34792914Y-54914285D01*
X34792914Y-54914285D02*
X34840533Y-55009523D01*
X41398095Y-35347319D02*
X41398095Y-36156842D01*
X41398095Y-36156842D02*
X41445714Y-36252080D01*
X41445714Y-36252080D02*
X41493333Y-36299700D01*
X41493333Y-36299700D02*
X41588571Y-36347319D01*
X41588571Y-36347319D02*
X41779047Y-36347319D01*
X41779047Y-36347319D02*
X41874285Y-36299700D01*
X41874285Y-36299700D02*
X41921904Y-36252080D01*
X41921904Y-36252080D02*
X41969523Y-36156842D01*
X41969523Y-36156842D02*
X41969523Y-35347319D01*
X42969523Y-36347319D02*
X42398095Y-36347319D01*
X42683809Y-36347319D02*
X42683809Y-35347319D01*
X42683809Y-35347319D02*
X42588571Y-35490176D01*
X42588571Y-35490176D02*
X42493333Y-35585414D01*
X42493333Y-35585414D02*
X42398095Y-35633033D01*
X46333333Y-41159580D02*
X46285714Y-41207200D01*
X46285714Y-41207200D02*
X46142857Y-41254819D01*
X46142857Y-41254819D02*
X46047619Y-41254819D01*
X46047619Y-41254819D02*
X45904762Y-41207200D01*
X45904762Y-41207200D02*
X45809524Y-41111961D01*
X45809524Y-41111961D02*
X45761905Y-41016723D01*
X45761905Y-41016723D02*
X45714286Y-40826247D01*
X45714286Y-40826247D02*
X45714286Y-40683390D01*
X45714286Y-40683390D02*
X45761905Y-40492914D01*
X45761905Y-40492914D02*
X45809524Y-40397676D01*
X45809524Y-40397676D02*
X45904762Y-40302438D01*
X45904762Y-40302438D02*
X46047619Y-40254819D01*
X46047619Y-40254819D02*
X46142857Y-40254819D01*
X46142857Y-40254819D02*
X46285714Y-40302438D01*
X46285714Y-40302438D02*
X46333333Y-40350057D01*
X46714286Y-40350057D02*
X46761905Y-40302438D01*
X46761905Y-40302438D02*
X46857143Y-40254819D01*
X46857143Y-40254819D02*
X47095238Y-40254819D01*
X47095238Y-40254819D02*
X47190476Y-40302438D01*
X47190476Y-40302438D02*
X47238095Y-40350057D01*
X47238095Y-40350057D02*
X47285714Y-40445295D01*
X47285714Y-40445295D02*
X47285714Y-40540533D01*
X47285714Y-40540533D02*
X47238095Y-40683390D01*
X47238095Y-40683390D02*
X46666667Y-41254819D01*
X46666667Y-41254819D02*
X47285714Y-41254819D01*
X38362007Y-26954819D02*
X38362007Y-25954819D01*
X38362007Y-25954819D02*
X38600102Y-25954819D01*
X38600102Y-25954819D02*
X38742959Y-26002438D01*
X38742959Y-26002438D02*
X38838197Y-26097676D01*
X38838197Y-26097676D02*
X38885816Y-26192914D01*
X38885816Y-26192914D02*
X38933435Y-26383390D01*
X38933435Y-26383390D02*
X38933435Y-26526247D01*
X38933435Y-26526247D02*
X38885816Y-26716723D01*
X38885816Y-26716723D02*
X38838197Y-26811961D01*
X38838197Y-26811961D02*
X38742959Y-26907200D01*
X38742959Y-26907200D02*
X38600102Y-26954819D01*
X38600102Y-26954819D02*
X38362007Y-26954819D01*
X39266769Y-25954819D02*
X39885816Y-25954819D01*
X39885816Y-25954819D02*
X39552483Y-26335771D01*
X39552483Y-26335771D02*
X39695340Y-26335771D01*
X39695340Y-26335771D02*
X39790578Y-26383390D01*
X39790578Y-26383390D02*
X39838197Y-26431009D01*
X39838197Y-26431009D02*
X39885816Y-26526247D01*
X39885816Y-26526247D02*
X39885816Y-26764342D01*
X39885816Y-26764342D02*
X39838197Y-26859580D01*
X39838197Y-26859580D02*
X39790578Y-26907200D01*
X39790578Y-26907200D02*
X39695340Y-26954819D01*
X39695340Y-26954819D02*
X39409626Y-26954819D01*
X39409626Y-26954819D02*
X39314388Y-26907200D01*
X39314388Y-26907200D02*
X39266769Y-26859580D01*
X47841666Y-29632419D02*
X47841666Y-30346704D01*
X47841666Y-30346704D02*
X47794047Y-30489561D01*
X47794047Y-30489561D02*
X47698809Y-30584800D01*
X47698809Y-30584800D02*
X47555952Y-30632419D01*
X47555952Y-30632419D02*
X47460714Y-30632419D01*
X48317857Y-30632419D02*
X48317857Y-29632419D01*
X48317857Y-29632419D02*
X48698809Y-29632419D01*
X48698809Y-29632419D02*
X48794047Y-29680038D01*
X48794047Y-29680038D02*
X48841666Y-29727657D01*
X48841666Y-29727657D02*
X48889285Y-29822895D01*
X48889285Y-29822895D02*
X48889285Y-29965752D01*
X48889285Y-29965752D02*
X48841666Y-30060990D01*
X48841666Y-30060990D02*
X48794047Y-30108609D01*
X48794047Y-30108609D02*
X48698809Y-30156228D01*
X48698809Y-30156228D02*
X48317857Y-30156228D01*
X49841666Y-30632419D02*
X49270238Y-30632419D01*
X49555952Y-30632419D02*
X49555952Y-29632419D01*
X49555952Y-29632419D02*
X49460714Y-29775276D01*
X49460714Y-29775276D02*
X49365476Y-29870514D01*
X49365476Y-29870514D02*
X49270238Y-29918133D01*
X48433333Y-21459580D02*
X48385714Y-21507200D01*
X48385714Y-21507200D02*
X48242857Y-21554819D01*
X48242857Y-21554819D02*
X48147619Y-21554819D01*
X48147619Y-21554819D02*
X48004762Y-21507200D01*
X48004762Y-21507200D02*
X47909524Y-21411961D01*
X47909524Y-21411961D02*
X47861905Y-21316723D01*
X47861905Y-21316723D02*
X47814286Y-21126247D01*
X47814286Y-21126247D02*
X47814286Y-20983390D01*
X47814286Y-20983390D02*
X47861905Y-20792914D01*
X47861905Y-20792914D02*
X47909524Y-20697676D01*
X47909524Y-20697676D02*
X48004762Y-20602438D01*
X48004762Y-20602438D02*
X48147619Y-20554819D01*
X48147619Y-20554819D02*
X48242857Y-20554819D01*
X48242857Y-20554819D02*
X48385714Y-20602438D01*
X48385714Y-20602438D02*
X48433333Y-20650057D01*
X49338095Y-20554819D02*
X48861905Y-20554819D01*
X48861905Y-20554819D02*
X48814286Y-21031009D01*
X48814286Y-21031009D02*
X48861905Y-20983390D01*
X48861905Y-20983390D02*
X48957143Y-20935771D01*
X48957143Y-20935771D02*
X49195238Y-20935771D01*
X49195238Y-20935771D02*
X49290476Y-20983390D01*
X49290476Y-20983390D02*
X49338095Y-21031009D01*
X49338095Y-21031009D02*
X49385714Y-21126247D01*
X49385714Y-21126247D02*
X49385714Y-21364342D01*
X49385714Y-21364342D02*
X49338095Y-21459580D01*
X49338095Y-21459580D02*
X49290476Y-21507200D01*
X49290476Y-21507200D02*
X49195238Y-21554819D01*
X49195238Y-21554819D02*
X48957143Y-21554819D01*
X48957143Y-21554819D02*
X48861905Y-21507200D01*
X48861905Y-21507200D02*
X48814286Y-21459580D01*
X34787142Y-38349580D02*
X34739523Y-38397200D01*
X34739523Y-38397200D02*
X34596666Y-38444819D01*
X34596666Y-38444819D02*
X34501428Y-38444819D01*
X34501428Y-38444819D02*
X34358571Y-38397200D01*
X34358571Y-38397200D02*
X34263333Y-38301961D01*
X34263333Y-38301961D02*
X34215714Y-38206723D01*
X34215714Y-38206723D02*
X34168095Y-38016247D01*
X34168095Y-38016247D02*
X34168095Y-37873390D01*
X34168095Y-37873390D02*
X34215714Y-37682914D01*
X34215714Y-37682914D02*
X34263333Y-37587676D01*
X34263333Y-37587676D02*
X34358571Y-37492438D01*
X34358571Y-37492438D02*
X34501428Y-37444819D01*
X34501428Y-37444819D02*
X34596666Y-37444819D01*
X34596666Y-37444819D02*
X34739523Y-37492438D01*
X34739523Y-37492438D02*
X34787142Y-37540057D01*
X35739523Y-38444819D02*
X35168095Y-38444819D01*
X35453809Y-38444819D02*
X35453809Y-37444819D01*
X35453809Y-37444819D02*
X35358571Y-37587676D01*
X35358571Y-37587676D02*
X35263333Y-37682914D01*
X35263333Y-37682914D02*
X35168095Y-37730533D01*
X36358571Y-37444819D02*
X36453809Y-37444819D01*
X36453809Y-37444819D02*
X36549047Y-37492438D01*
X36549047Y-37492438D02*
X36596666Y-37540057D01*
X36596666Y-37540057D02*
X36644285Y-37635295D01*
X36644285Y-37635295D02*
X36691904Y-37825771D01*
X36691904Y-37825771D02*
X36691904Y-38063866D01*
X36691904Y-38063866D02*
X36644285Y-38254342D01*
X36644285Y-38254342D02*
X36596666Y-38349580D01*
X36596666Y-38349580D02*
X36549047Y-38397200D01*
X36549047Y-38397200D02*
X36453809Y-38444819D01*
X36453809Y-38444819D02*
X36358571Y-38444819D01*
X36358571Y-38444819D02*
X36263333Y-38397200D01*
X36263333Y-38397200D02*
X36215714Y-38349580D01*
X36215714Y-38349580D02*
X36168095Y-38254342D01*
X36168095Y-38254342D02*
X36120476Y-38063866D01*
X36120476Y-38063866D02*
X36120476Y-37825771D01*
X36120476Y-37825771D02*
X36168095Y-37635295D01*
X36168095Y-37635295D02*
X36215714Y-37540057D01*
X36215714Y-37540057D02*
X36263333Y-37492438D01*
X36263333Y-37492438D02*
X36358571Y-37444819D01*
X43733333Y-18959580D02*
X43685714Y-19007200D01*
X43685714Y-19007200D02*
X43542857Y-19054819D01*
X43542857Y-19054819D02*
X43447619Y-19054819D01*
X43447619Y-19054819D02*
X43304762Y-19007200D01*
X43304762Y-19007200D02*
X43209524Y-18911961D01*
X43209524Y-18911961D02*
X43161905Y-18816723D01*
X43161905Y-18816723D02*
X43114286Y-18626247D01*
X43114286Y-18626247D02*
X43114286Y-18483390D01*
X43114286Y-18483390D02*
X43161905Y-18292914D01*
X43161905Y-18292914D02*
X43209524Y-18197676D01*
X43209524Y-18197676D02*
X43304762Y-18102438D01*
X43304762Y-18102438D02*
X43447619Y-18054819D01*
X43447619Y-18054819D02*
X43542857Y-18054819D01*
X43542857Y-18054819D02*
X43685714Y-18102438D01*
X43685714Y-18102438D02*
X43733333Y-18150057D01*
X44590476Y-18054819D02*
X44400000Y-18054819D01*
X44400000Y-18054819D02*
X44304762Y-18102438D01*
X44304762Y-18102438D02*
X44257143Y-18150057D01*
X44257143Y-18150057D02*
X44161905Y-18292914D01*
X44161905Y-18292914D02*
X44114286Y-18483390D01*
X44114286Y-18483390D02*
X44114286Y-18864342D01*
X44114286Y-18864342D02*
X44161905Y-18959580D01*
X44161905Y-18959580D02*
X44209524Y-19007200D01*
X44209524Y-19007200D02*
X44304762Y-19054819D01*
X44304762Y-19054819D02*
X44495238Y-19054819D01*
X44495238Y-19054819D02*
X44590476Y-19007200D01*
X44590476Y-19007200D02*
X44638095Y-18959580D01*
X44638095Y-18959580D02*
X44685714Y-18864342D01*
X44685714Y-18864342D02*
X44685714Y-18626247D01*
X44685714Y-18626247D02*
X44638095Y-18531009D01*
X44638095Y-18531009D02*
X44590476Y-18483390D01*
X44590476Y-18483390D02*
X44495238Y-18435771D01*
X44495238Y-18435771D02*
X44304762Y-18435771D01*
X44304762Y-18435771D02*
X44209524Y-18483390D01*
X44209524Y-18483390D02*
X44161905Y-18531009D01*
X44161905Y-18531009D02*
X44114286Y-18626247D01*
X37333333Y-41954819D02*
X37000000Y-41478628D01*
X36761905Y-41954819D02*
X36761905Y-40954819D01*
X36761905Y-40954819D02*
X37142857Y-40954819D01*
X37142857Y-40954819D02*
X37238095Y-41002438D01*
X37238095Y-41002438D02*
X37285714Y-41050057D01*
X37285714Y-41050057D02*
X37333333Y-41145295D01*
X37333333Y-41145295D02*
X37333333Y-41288152D01*
X37333333Y-41288152D02*
X37285714Y-41383390D01*
X37285714Y-41383390D02*
X37238095Y-41431009D01*
X37238095Y-41431009D02*
X37142857Y-41478628D01*
X37142857Y-41478628D02*
X36761905Y-41478628D01*
X38285714Y-41954819D02*
X37714286Y-41954819D01*
X38000000Y-41954819D02*
X38000000Y-40954819D01*
X38000000Y-40954819D02*
X37904762Y-41097676D01*
X37904762Y-41097676D02*
X37809524Y-41192914D01*
X37809524Y-41192914D02*
X37714286Y-41240533D01*
X39933333Y-41954819D02*
X39600000Y-41478628D01*
X39361905Y-41954819D02*
X39361905Y-40954819D01*
X39361905Y-40954819D02*
X39742857Y-40954819D01*
X39742857Y-40954819D02*
X39838095Y-41002438D01*
X39838095Y-41002438D02*
X39885714Y-41050057D01*
X39885714Y-41050057D02*
X39933333Y-41145295D01*
X39933333Y-41145295D02*
X39933333Y-41288152D01*
X39933333Y-41288152D02*
X39885714Y-41383390D01*
X39885714Y-41383390D02*
X39838095Y-41431009D01*
X39838095Y-41431009D02*
X39742857Y-41478628D01*
X39742857Y-41478628D02*
X39361905Y-41478628D01*
X40790476Y-41288152D02*
X40790476Y-41954819D01*
X40552381Y-40907200D02*
X40314286Y-41621485D01*
X40314286Y-41621485D02*
X40933333Y-41621485D01*
X33643095Y-25589820D02*
X33643095Y-26399343D01*
X33643095Y-26399343D02*
X33690714Y-26494581D01*
X33690714Y-26494581D02*
X33738333Y-26542201D01*
X33738333Y-26542201D02*
X33833571Y-26589820D01*
X33833571Y-26589820D02*
X34024047Y-26589820D01*
X34024047Y-26589820D02*
X34119285Y-26542201D01*
X34119285Y-26542201D02*
X34166904Y-26494581D01*
X34166904Y-26494581D02*
X34214523Y-26399343D01*
X34214523Y-26399343D02*
X34214523Y-25589820D01*
X35119285Y-25923153D02*
X35119285Y-26589820D01*
X34881190Y-25542201D02*
X34643095Y-26256486D01*
X34643095Y-26256486D02*
X35262142Y-26256486D01*
X39054819Y-36506666D02*
X38578628Y-36839999D01*
X39054819Y-37078094D02*
X38054819Y-37078094D01*
X38054819Y-37078094D02*
X38054819Y-36697142D01*
X38054819Y-36697142D02*
X38102438Y-36601904D01*
X38102438Y-36601904D02*
X38150057Y-36554285D01*
X38150057Y-36554285D02*
X38245295Y-36506666D01*
X38245295Y-36506666D02*
X38388152Y-36506666D01*
X38388152Y-36506666D02*
X38483390Y-36554285D01*
X38483390Y-36554285D02*
X38531009Y-36601904D01*
X38531009Y-36601904D02*
X38578628Y-36697142D01*
X38578628Y-36697142D02*
X38578628Y-37078094D01*
X38054819Y-35649523D02*
X38054819Y-35839999D01*
X38054819Y-35839999D02*
X38102438Y-35935237D01*
X38102438Y-35935237D02*
X38150057Y-35982856D01*
X38150057Y-35982856D02*
X38292914Y-36078094D01*
X38292914Y-36078094D02*
X38483390Y-36125713D01*
X38483390Y-36125713D02*
X38864342Y-36125713D01*
X38864342Y-36125713D02*
X38959580Y-36078094D01*
X38959580Y-36078094D02*
X39007200Y-36030475D01*
X39007200Y-36030475D02*
X39054819Y-35935237D01*
X39054819Y-35935237D02*
X39054819Y-35744761D01*
X39054819Y-35744761D02*
X39007200Y-35649523D01*
X39007200Y-35649523D02*
X38959580Y-35601904D01*
X38959580Y-35601904D02*
X38864342Y-35554285D01*
X38864342Y-35554285D02*
X38626247Y-35554285D01*
X38626247Y-35554285D02*
X38531009Y-35601904D01*
X38531009Y-35601904D02*
X38483390Y-35649523D01*
X38483390Y-35649523D02*
X38435771Y-35744761D01*
X38435771Y-35744761D02*
X38435771Y-35935237D01*
X38435771Y-35935237D02*
X38483390Y-36030475D01*
X38483390Y-36030475D02*
X38531009Y-36078094D01*
X38531009Y-36078094D02*
X38626247Y-36125713D01*
X42964819Y-22531904D02*
X43774342Y-22531904D01*
X43774342Y-22531904D02*
X43869580Y-22484285D01*
X43869580Y-22484285D02*
X43917200Y-22436666D01*
X43917200Y-22436666D02*
X43964819Y-22341428D01*
X43964819Y-22341428D02*
X43964819Y-22150952D01*
X43964819Y-22150952D02*
X43917200Y-22055714D01*
X43917200Y-22055714D02*
X43869580Y-22008095D01*
X43869580Y-22008095D02*
X43774342Y-21960476D01*
X43774342Y-21960476D02*
X42964819Y-21960476D01*
X43060057Y-21531904D02*
X43012438Y-21484285D01*
X43012438Y-21484285D02*
X42964819Y-21389047D01*
X42964819Y-21389047D02*
X42964819Y-21150952D01*
X42964819Y-21150952D02*
X43012438Y-21055714D01*
X43012438Y-21055714D02*
X43060057Y-21008095D01*
X43060057Y-21008095D02*
X43155295Y-20960476D01*
X43155295Y-20960476D02*
X43250533Y-20960476D01*
X43250533Y-20960476D02*
X43393390Y-21008095D01*
X43393390Y-21008095D02*
X43964819Y-21579523D01*
X43964819Y-21579523D02*
X43964819Y-20960476D01*
X43290511Y-40354770D02*
X43957177Y-41354770D01*
X43957177Y-40354770D02*
X43290511Y-41354770D01*
X44861939Y-41354770D02*
X44290511Y-41354770D01*
X44576225Y-41354770D02*
X44576225Y-40354770D01*
X44576225Y-40354770D02*
X44480987Y-40497627D01*
X44480987Y-40497627D02*
X44385749Y-40592865D01*
X44385749Y-40592865D02*
X44290511Y-40640484D01*
X39654775Y-51261904D02*
X40464298Y-51261904D01*
X40464298Y-51261904D02*
X40559536Y-51214285D01*
X40559536Y-51214285D02*
X40607156Y-51166666D01*
X40607156Y-51166666D02*
X40654775Y-51071428D01*
X40654775Y-51071428D02*
X40654775Y-50880952D01*
X40654775Y-50880952D02*
X40607156Y-50785714D01*
X40607156Y-50785714D02*
X40559536Y-50738095D01*
X40559536Y-50738095D02*
X40464298Y-50690476D01*
X40464298Y-50690476D02*
X39654775Y-50690476D01*
X39654775Y-49785714D02*
X39654775Y-49976190D01*
X39654775Y-49976190D02*
X39702394Y-50071428D01*
X39702394Y-50071428D02*
X39750013Y-50119047D01*
X39750013Y-50119047D02*
X39892870Y-50214285D01*
X39892870Y-50214285D02*
X40083346Y-50261904D01*
X40083346Y-50261904D02*
X40464298Y-50261904D01*
X40464298Y-50261904D02*
X40559536Y-50214285D01*
X40559536Y-50214285D02*
X40607156Y-50166666D01*
X40607156Y-50166666D02*
X40654775Y-50071428D01*
X40654775Y-50071428D02*
X40654775Y-49880952D01*
X40654775Y-49880952D02*
X40607156Y-49785714D01*
X40607156Y-49785714D02*
X40559536Y-49738095D01*
X40559536Y-49738095D02*
X40464298Y-49690476D01*
X40464298Y-49690476D02*
X40226203Y-49690476D01*
X40226203Y-49690476D02*
X40130965Y-49738095D01*
X40130965Y-49738095D02*
X40083346Y-49785714D01*
X40083346Y-49785714D02*
X40035727Y-49880952D01*
X40035727Y-49880952D02*
X40035727Y-50071428D01*
X40035727Y-50071428D02*
X40083346Y-50166666D01*
X40083346Y-50166666D02*
X40130965Y-50214285D01*
X40130965Y-50214285D02*
X40226203Y-50261904D01*
X37933333Y-39659580D02*
X37885714Y-39707200D01*
X37885714Y-39707200D02*
X37742857Y-39754819D01*
X37742857Y-39754819D02*
X37647619Y-39754819D01*
X37647619Y-39754819D02*
X37504762Y-39707200D01*
X37504762Y-39707200D02*
X37409524Y-39611961D01*
X37409524Y-39611961D02*
X37361905Y-39516723D01*
X37361905Y-39516723D02*
X37314286Y-39326247D01*
X37314286Y-39326247D02*
X37314286Y-39183390D01*
X37314286Y-39183390D02*
X37361905Y-38992914D01*
X37361905Y-38992914D02*
X37409524Y-38897676D01*
X37409524Y-38897676D02*
X37504762Y-38802438D01*
X37504762Y-38802438D02*
X37647619Y-38754819D01*
X37647619Y-38754819D02*
X37742857Y-38754819D01*
X37742857Y-38754819D02*
X37885714Y-38802438D01*
X37885714Y-38802438D02*
X37933333Y-38850057D01*
X38266667Y-38754819D02*
X38885714Y-38754819D01*
X38885714Y-38754819D02*
X38552381Y-39135771D01*
X38552381Y-39135771D02*
X38695238Y-39135771D01*
X38695238Y-39135771D02*
X38790476Y-39183390D01*
X38790476Y-39183390D02*
X38838095Y-39231009D01*
X38838095Y-39231009D02*
X38885714Y-39326247D01*
X38885714Y-39326247D02*
X38885714Y-39564342D01*
X38885714Y-39564342D02*
X38838095Y-39659580D01*
X38838095Y-39659580D02*
X38790476Y-39707200D01*
X38790476Y-39707200D02*
X38695238Y-39754819D01*
X38695238Y-39754819D02*
X38409524Y-39754819D01*
X38409524Y-39754819D02*
X38314286Y-39707200D01*
X38314286Y-39707200D02*
X38266667Y-39659580D01*
X49673333Y-28039580D02*
X49625714Y-28087200D01*
X49625714Y-28087200D02*
X49482857Y-28134819D01*
X49482857Y-28134819D02*
X49387619Y-28134819D01*
X49387619Y-28134819D02*
X49244762Y-28087200D01*
X49244762Y-28087200D02*
X49149524Y-27991961D01*
X49149524Y-27991961D02*
X49101905Y-27896723D01*
X49101905Y-27896723D02*
X49054286Y-27706247D01*
X49054286Y-27706247D02*
X49054286Y-27563390D01*
X49054286Y-27563390D02*
X49101905Y-27372914D01*
X49101905Y-27372914D02*
X49149524Y-27277676D01*
X49149524Y-27277676D02*
X49244762Y-27182438D01*
X49244762Y-27182438D02*
X49387619Y-27134819D01*
X49387619Y-27134819D02*
X49482857Y-27134819D01*
X49482857Y-27134819D02*
X49625714Y-27182438D01*
X49625714Y-27182438D02*
X49673333Y-27230057D01*
X50530476Y-27468152D02*
X50530476Y-28134819D01*
X50292381Y-27087200D02*
X50054286Y-27801485D01*
X50054286Y-27801485D02*
X50673333Y-27801485D01*
X35133333Y-41959580D02*
X35085714Y-42007200D01*
X35085714Y-42007200D02*
X34942857Y-42054819D01*
X34942857Y-42054819D02*
X34847619Y-42054819D01*
X34847619Y-42054819D02*
X34704762Y-42007200D01*
X34704762Y-42007200D02*
X34609524Y-41911961D01*
X34609524Y-41911961D02*
X34561905Y-41816723D01*
X34561905Y-41816723D02*
X34514286Y-41626247D01*
X34514286Y-41626247D02*
X34514286Y-41483390D01*
X34514286Y-41483390D02*
X34561905Y-41292914D01*
X34561905Y-41292914D02*
X34609524Y-41197676D01*
X34609524Y-41197676D02*
X34704762Y-41102438D01*
X34704762Y-41102438D02*
X34847619Y-41054819D01*
X34847619Y-41054819D02*
X34942857Y-41054819D01*
X34942857Y-41054819D02*
X35085714Y-41102438D01*
X35085714Y-41102438D02*
X35133333Y-41150057D01*
X35704762Y-41483390D02*
X35609524Y-41435771D01*
X35609524Y-41435771D02*
X35561905Y-41388152D01*
X35561905Y-41388152D02*
X35514286Y-41292914D01*
X35514286Y-41292914D02*
X35514286Y-41245295D01*
X35514286Y-41245295D02*
X35561905Y-41150057D01*
X35561905Y-41150057D02*
X35609524Y-41102438D01*
X35609524Y-41102438D02*
X35704762Y-41054819D01*
X35704762Y-41054819D02*
X35895238Y-41054819D01*
X35895238Y-41054819D02*
X35990476Y-41102438D01*
X35990476Y-41102438D02*
X36038095Y-41150057D01*
X36038095Y-41150057D02*
X36085714Y-41245295D01*
X36085714Y-41245295D02*
X36085714Y-41292914D01*
X36085714Y-41292914D02*
X36038095Y-41388152D01*
X36038095Y-41388152D02*
X35990476Y-41435771D01*
X35990476Y-41435771D02*
X35895238Y-41483390D01*
X35895238Y-41483390D02*
X35704762Y-41483390D01*
X35704762Y-41483390D02*
X35609524Y-41531009D01*
X35609524Y-41531009D02*
X35561905Y-41578628D01*
X35561905Y-41578628D02*
X35514286Y-41673866D01*
X35514286Y-41673866D02*
X35514286Y-41864342D01*
X35514286Y-41864342D02*
X35561905Y-41959580D01*
X35561905Y-41959580D02*
X35609524Y-42007200D01*
X35609524Y-42007200D02*
X35704762Y-42054819D01*
X35704762Y-42054819D02*
X35895238Y-42054819D01*
X35895238Y-42054819D02*
X35990476Y-42007200D01*
X35990476Y-42007200D02*
X36038095Y-41959580D01*
X36038095Y-41959580D02*
X36085714Y-41864342D01*
X36085714Y-41864342D02*
X36085714Y-41673866D01*
X36085714Y-41673866D02*
X36038095Y-41578628D01*
X36038095Y-41578628D02*
X35990476Y-41531009D01*
X35990476Y-41531009D02*
X35895238Y-41483390D01*
X34354819Y-36366666D02*
X33878628Y-36699999D01*
X34354819Y-36938094D02*
X33354819Y-36938094D01*
X33354819Y-36938094D02*
X33354819Y-36557142D01*
X33354819Y-36557142D02*
X33402438Y-36461904D01*
X33402438Y-36461904D02*
X33450057Y-36414285D01*
X33450057Y-36414285D02*
X33545295Y-36366666D01*
X33545295Y-36366666D02*
X33688152Y-36366666D01*
X33688152Y-36366666D02*
X33783390Y-36414285D01*
X33783390Y-36414285D02*
X33831009Y-36461904D01*
X33831009Y-36461904D02*
X33878628Y-36557142D01*
X33878628Y-36557142D02*
X33878628Y-36938094D01*
X33354819Y-35461904D02*
X33354819Y-35938094D01*
X33354819Y-35938094D02*
X33831009Y-35985713D01*
X33831009Y-35985713D02*
X33783390Y-35938094D01*
X33783390Y-35938094D02*
X33735771Y-35842856D01*
X33735771Y-35842856D02*
X33735771Y-35604761D01*
X33735771Y-35604761D02*
X33783390Y-35509523D01*
X33783390Y-35509523D02*
X33831009Y-35461904D01*
X33831009Y-35461904D02*
X33926247Y-35414285D01*
X33926247Y-35414285D02*
X34164342Y-35414285D01*
X34164342Y-35414285D02*
X34259580Y-35461904D01*
X34259580Y-35461904D02*
X34307200Y-35509523D01*
X34307200Y-35509523D02*
X34354819Y-35604761D01*
X34354819Y-35604761D02*
X34354819Y-35842856D01*
X34354819Y-35842856D02*
X34307200Y-35938094D01*
X34307200Y-35938094D02*
X34259580Y-35985713D01*
X35173333Y-40359580D02*
X35125714Y-40407200D01*
X35125714Y-40407200D02*
X34982857Y-40454819D01*
X34982857Y-40454819D02*
X34887619Y-40454819D01*
X34887619Y-40454819D02*
X34744762Y-40407200D01*
X34744762Y-40407200D02*
X34649524Y-40311961D01*
X34649524Y-40311961D02*
X34601905Y-40216723D01*
X34601905Y-40216723D02*
X34554286Y-40026247D01*
X34554286Y-40026247D02*
X34554286Y-39883390D01*
X34554286Y-39883390D02*
X34601905Y-39692914D01*
X34601905Y-39692914D02*
X34649524Y-39597676D01*
X34649524Y-39597676D02*
X34744762Y-39502438D01*
X34744762Y-39502438D02*
X34887619Y-39454819D01*
X34887619Y-39454819D02*
X34982857Y-39454819D01*
X34982857Y-39454819D02*
X35125714Y-39502438D01*
X35125714Y-39502438D02*
X35173333Y-39550057D01*
X35649524Y-40454819D02*
X35840000Y-40454819D01*
X35840000Y-40454819D02*
X35935238Y-40407200D01*
X35935238Y-40407200D02*
X35982857Y-40359580D01*
X35982857Y-40359580D02*
X36078095Y-40216723D01*
X36078095Y-40216723D02*
X36125714Y-40026247D01*
X36125714Y-40026247D02*
X36125714Y-39645295D01*
X36125714Y-39645295D02*
X36078095Y-39550057D01*
X36078095Y-39550057D02*
X36030476Y-39502438D01*
X36030476Y-39502438D02*
X35935238Y-39454819D01*
X35935238Y-39454819D02*
X35744762Y-39454819D01*
X35744762Y-39454819D02*
X35649524Y-39502438D01*
X35649524Y-39502438D02*
X35601905Y-39550057D01*
X35601905Y-39550057D02*
X35554286Y-39645295D01*
X35554286Y-39645295D02*
X35554286Y-39883390D01*
X35554286Y-39883390D02*
X35601905Y-39978628D01*
X35601905Y-39978628D02*
X35649524Y-40026247D01*
X35649524Y-40026247D02*
X35744762Y-40073866D01*
X35744762Y-40073866D02*
X35935238Y-40073866D01*
X35935238Y-40073866D02*
X36030476Y-40026247D01*
X36030476Y-40026247D02*
X36078095Y-39978628D01*
X36078095Y-39978628D02*
X36125714Y-39883390D01*
X34062005Y-50134844D02*
X34062005Y-49134844D01*
X34062005Y-49134844D02*
X34300100Y-49134844D01*
X34300100Y-49134844D02*
X34442957Y-49182463D01*
X34442957Y-49182463D02*
X34538195Y-49277701D01*
X34538195Y-49277701D02*
X34585814Y-49372939D01*
X34585814Y-49372939D02*
X34633433Y-49563415D01*
X34633433Y-49563415D02*
X34633433Y-49706272D01*
X34633433Y-49706272D02*
X34585814Y-49896748D01*
X34585814Y-49896748D02*
X34538195Y-49991986D01*
X34538195Y-49991986D02*
X34442957Y-50087225D01*
X34442957Y-50087225D02*
X34300100Y-50134844D01*
X34300100Y-50134844D02*
X34062005Y-50134844D01*
X35585814Y-50134844D02*
X35014386Y-50134844D01*
X35300100Y-50134844D02*
X35300100Y-49134844D01*
X35300100Y-49134844D02*
X35204862Y-49277701D01*
X35204862Y-49277701D02*
X35109624Y-49372939D01*
X35109624Y-49372939D02*
X35014386Y-49420558D01*
X44301905Y-26384819D02*
X44301905Y-25384819D01*
X44301905Y-25384819D02*
X44540000Y-25384819D01*
X44540000Y-25384819D02*
X44682857Y-25432438D01*
X44682857Y-25432438D02*
X44778095Y-25527676D01*
X44778095Y-25527676D02*
X44825714Y-25622914D01*
X44825714Y-25622914D02*
X44873333Y-25813390D01*
X44873333Y-25813390D02*
X44873333Y-25956247D01*
X44873333Y-25956247D02*
X44825714Y-26146723D01*
X44825714Y-26146723D02*
X44778095Y-26241961D01*
X44778095Y-26241961D02*
X44682857Y-26337200D01*
X44682857Y-26337200D02*
X44540000Y-26384819D01*
X44540000Y-26384819D02*
X44301905Y-26384819D01*
X45254286Y-25480057D02*
X45301905Y-25432438D01*
X45301905Y-25432438D02*
X45397143Y-25384819D01*
X45397143Y-25384819D02*
X45635238Y-25384819D01*
X45635238Y-25384819D02*
X45730476Y-25432438D01*
X45730476Y-25432438D02*
X45778095Y-25480057D01*
X45778095Y-25480057D02*
X45825714Y-25575295D01*
X45825714Y-25575295D02*
X45825714Y-25670533D01*
X45825714Y-25670533D02*
X45778095Y-25813390D01*
X45778095Y-25813390D02*
X45206667Y-26384819D01*
X45206667Y-26384819D02*
X45825714Y-26384819D01*
X40313333Y-39659580D02*
X40265714Y-39707200D01*
X40265714Y-39707200D02*
X40122857Y-39754819D01*
X40122857Y-39754819D02*
X40027619Y-39754819D01*
X40027619Y-39754819D02*
X39884762Y-39707200D01*
X39884762Y-39707200D02*
X39789524Y-39611961D01*
X39789524Y-39611961D02*
X39741905Y-39516723D01*
X39741905Y-39516723D02*
X39694286Y-39326247D01*
X39694286Y-39326247D02*
X39694286Y-39183390D01*
X39694286Y-39183390D02*
X39741905Y-38992914D01*
X39741905Y-38992914D02*
X39789524Y-38897676D01*
X39789524Y-38897676D02*
X39884762Y-38802438D01*
X39884762Y-38802438D02*
X40027619Y-38754819D01*
X40027619Y-38754819D02*
X40122857Y-38754819D01*
X40122857Y-38754819D02*
X40265714Y-38802438D01*
X40265714Y-38802438D02*
X40313333Y-38850057D01*
X41265714Y-39754819D02*
X40694286Y-39754819D01*
X40980000Y-39754819D02*
X40980000Y-38754819D01*
X40980000Y-38754819D02*
X40884762Y-38897676D01*
X40884762Y-38897676D02*
X40789524Y-38992914D01*
X40789524Y-38992914D02*
X40694286Y-39040533D01*
X45654819Y-23666666D02*
X45178628Y-23999999D01*
X45654819Y-24238094D02*
X44654819Y-24238094D01*
X44654819Y-24238094D02*
X44654819Y-23857142D01*
X44654819Y-23857142D02*
X44702438Y-23761904D01*
X44702438Y-23761904D02*
X44750057Y-23714285D01*
X44750057Y-23714285D02*
X44845295Y-23666666D01*
X44845295Y-23666666D02*
X44988152Y-23666666D01*
X44988152Y-23666666D02*
X45083390Y-23714285D01*
X45083390Y-23714285D02*
X45131009Y-23761904D01*
X45131009Y-23761904D02*
X45178628Y-23857142D01*
X45178628Y-23857142D02*
X45178628Y-24238094D01*
X44750057Y-23285713D02*
X44702438Y-23238094D01*
X44702438Y-23238094D02*
X44654819Y-23142856D01*
X44654819Y-23142856D02*
X44654819Y-22904761D01*
X44654819Y-22904761D02*
X44702438Y-22809523D01*
X44702438Y-22809523D02*
X44750057Y-22761904D01*
X44750057Y-22761904D02*
X44845295Y-22714285D01*
X44845295Y-22714285D02*
X44940533Y-22714285D01*
X44940533Y-22714285D02*
X45083390Y-22761904D01*
X45083390Y-22761904D02*
X45654819Y-23333332D01*
X45654819Y-23333332D02*
X45654819Y-22714285D01*
X41463333Y-53669580D02*
X41415714Y-53717200D01*
X41415714Y-53717200D02*
X41272857Y-53764819D01*
X41272857Y-53764819D02*
X41177619Y-53764819D01*
X41177619Y-53764819D02*
X41034762Y-53717200D01*
X41034762Y-53717200D02*
X40939524Y-53621961D01*
X40939524Y-53621961D02*
X40891905Y-53526723D01*
X40891905Y-53526723D02*
X40844286Y-53336247D01*
X40844286Y-53336247D02*
X40844286Y-53193390D01*
X40844286Y-53193390D02*
X40891905Y-53002914D01*
X40891905Y-53002914D02*
X40939524Y-52907676D01*
X40939524Y-52907676D02*
X41034762Y-52812438D01*
X41034762Y-52812438D02*
X41177619Y-52764819D01*
X41177619Y-52764819D02*
X41272857Y-52764819D01*
X41272857Y-52764819D02*
X41415714Y-52812438D01*
X41415714Y-52812438D02*
X41463333Y-52860057D01*
X41796667Y-52764819D02*
X42463333Y-52764819D01*
X42463333Y-52764819D02*
X42034762Y-53764819D01*
X27848092Y-58204781D02*
X27848092Y-59014304D01*
X27848092Y-59014304D02*
X27895711Y-59109542D01*
X27895711Y-59109542D02*
X27943330Y-59157162D01*
X27943330Y-59157162D02*
X28038568Y-59204781D01*
X28038568Y-59204781D02*
X28229044Y-59204781D01*
X28229044Y-59204781D02*
X28324282Y-59157162D01*
X28324282Y-59157162D02*
X28371901Y-59109542D01*
X28371901Y-59109542D02*
X28419520Y-59014304D01*
X28419520Y-59014304D02*
X28419520Y-58204781D01*
X28800473Y-58204781D02*
X29467139Y-58204781D01*
X29467139Y-58204781D02*
X29038568Y-59204781D01*
X39654776Y-46261906D02*
X40464299Y-46261906D01*
X40464299Y-46261906D02*
X40559537Y-46214287D01*
X40559537Y-46214287D02*
X40607157Y-46166668D01*
X40607157Y-46166668D02*
X40654776Y-46071430D01*
X40654776Y-46071430D02*
X40654776Y-45880954D01*
X40654776Y-45880954D02*
X40607157Y-45785716D01*
X40607157Y-45785716D02*
X40559537Y-45738097D01*
X40559537Y-45738097D02*
X40464299Y-45690478D01*
X40464299Y-45690478D02*
X39654776Y-45690478D01*
X39654776Y-44738097D02*
X39654776Y-45214287D01*
X39654776Y-45214287D02*
X40130966Y-45261906D01*
X40130966Y-45261906D02*
X40083347Y-45214287D01*
X40083347Y-45214287D02*
X40035728Y-45119049D01*
X40035728Y-45119049D02*
X40035728Y-44880954D01*
X40035728Y-44880954D02*
X40083347Y-44785716D01*
X40083347Y-44785716D02*
X40130966Y-44738097D01*
X40130966Y-44738097D02*
X40226204Y-44690478D01*
X40226204Y-44690478D02*
X40464299Y-44690478D01*
X40464299Y-44690478D02*
X40559537Y-44738097D01*
X40559537Y-44738097D02*
X40607157Y-44785716D01*
X40607157Y-44785716D02*
X40654776Y-44880954D01*
X40654776Y-44880954D02*
X40654776Y-45119049D01*
X40654776Y-45119049D02*
X40607157Y-45214287D01*
X40607157Y-45214287D02*
X40559537Y-45261906D01*
X47454819Y-23666666D02*
X46978628Y-23999999D01*
X47454819Y-24238094D02*
X46454819Y-24238094D01*
X46454819Y-24238094D02*
X46454819Y-23857142D01*
X46454819Y-23857142D02*
X46502438Y-23761904D01*
X46502438Y-23761904D02*
X46550057Y-23714285D01*
X46550057Y-23714285D02*
X46645295Y-23666666D01*
X46645295Y-23666666D02*
X46788152Y-23666666D01*
X46788152Y-23666666D02*
X46883390Y-23714285D01*
X46883390Y-23714285D02*
X46931009Y-23761904D01*
X46931009Y-23761904D02*
X46978628Y-23857142D01*
X46978628Y-23857142D02*
X46978628Y-24238094D01*
X46454819Y-23333332D02*
X46454819Y-22714285D01*
X46454819Y-22714285D02*
X46835771Y-23047618D01*
X46835771Y-23047618D02*
X46835771Y-22904761D01*
X46835771Y-22904761D02*
X46883390Y-22809523D01*
X46883390Y-22809523D02*
X46931009Y-22761904D01*
X46931009Y-22761904D02*
X47026247Y-22714285D01*
X47026247Y-22714285D02*
X47264342Y-22714285D01*
X47264342Y-22714285D02*
X47359580Y-22761904D01*
X47359580Y-22761904D02*
X47407200Y-22809523D01*
X47407200Y-22809523D02*
X47454819Y-22904761D01*
X47454819Y-22904761D02*
X47454819Y-23190475D01*
X47454819Y-23190475D02*
X47407200Y-23285713D01*
X47407200Y-23285713D02*
X47359580Y-23333332D01*
D13*
X47912164Y-47530000D02*
X48127836Y-47530000D01*
X47912164Y-46810000D02*
X48127836Y-46810000D01*
X47912164Y-44840000D02*
X48127836Y-44840000D01*
X47912164Y-45560000D02*
X48127836Y-45560000D01*
X41810000Y-55807836D02*
X41810000Y-55592164D01*
X42530000Y-55807836D02*
X42530000Y-55592164D01*
X39840000Y-55807836D02*
X39840000Y-55592164D01*
X40560000Y-55807836D02*
X40560000Y-55592164D01*
X37870000Y-55807836D02*
X37870000Y-55592164D01*
X38590000Y-55807836D02*
X38590000Y-55592164D01*
X35900000Y-55807836D02*
X35900000Y-55592164D01*
X36620000Y-55807836D02*
X36620000Y-55592164D01*
X38550000Y-27462500D02*
X38550000Y-28112500D01*
X38550000Y-34682500D02*
X38550000Y-34032500D01*
X39200000Y-27462500D02*
X38550000Y-27462500D01*
X39200000Y-34682500D02*
X38550000Y-34682500D01*
X45120000Y-27462500D02*
X45770000Y-27462500D01*
X45120000Y-34682500D02*
X45770000Y-34682500D01*
X45770000Y-27462500D02*
X45770000Y-28112500D01*
X46372164Y-39140000D02*
X46587836Y-39140000D01*
X46372164Y-39860000D02*
X46587836Y-39860000D01*
D14*
X37800025Y-24300000D02*
X37800025Y-24419863D01*
X37800025Y-25580137D02*
X37800025Y-25700000D01*
X37800025Y-25700000D02*
X37900076Y-25700000D01*
X37900076Y-24299975D02*
X37800025Y-24300000D01*
X37900076Y-25700025D02*
X39900076Y-25700025D01*
X39727127Y-24419863D02*
X39727127Y-24299975D01*
X39727127Y-25580137D02*
X39900076Y-25580137D01*
X39727127Y-25700025D02*
X39727127Y-25580137D01*
X39813538Y-24299975D02*
X39813538Y-24419863D01*
X39813538Y-25580137D02*
X39813538Y-25700025D01*
X39900076Y-24299975D02*
X37900076Y-24299975D01*
X39900076Y-24419863D02*
X39727127Y-24419863D01*
X39900076Y-24419863D02*
X39900076Y-24299975D01*
X39900076Y-25700025D02*
X39900076Y-25580137D01*
D15*
X40079908Y-24374905D02*
G75*
G02*
X40019964Y-24374905I-29972J0D01*
G01*
X40019964Y-24374905D02*
G75*
G02*
X40079908Y-24374905I29972J0D01*
G01*
D16*
X47274987Y-34977702D02*
X47274987Y-34377498D01*
X47275013Y-32377600D02*
X47475013Y-32377600D01*
X47275013Y-32977600D02*
X47275013Y-32377600D01*
X47475140Y-34977702D02*
X47274987Y-34977702D01*
X50075013Y-32377600D02*
X50075013Y-34977600D01*
D15*
X50198533Y-32177600D02*
G75*
G02*
X50138589Y-32177600I-29972J0D01*
G01*
X50138589Y-32177600D02*
G75*
G02*
X50198533Y-32177600I29972J0D01*
G01*
D13*
X48727836Y-19340000D02*
X48512164Y-19340000D01*
X48727836Y-20060000D02*
X48512164Y-20060000D01*
X35090000Y-36212164D02*
X35090000Y-36427836D01*
X35810000Y-36212164D02*
X35810000Y-36427836D01*
X43772164Y-19340000D02*
X43987836Y-19340000D01*
X43772164Y-20060000D02*
X43987836Y-20060000D01*
X37643641Y-42220000D02*
X37336359Y-42220000D01*
X37643641Y-42980000D02*
X37336359Y-42980000D01*
X40056359Y-42220000D02*
X40363641Y-42220000D01*
X40056359Y-42980000D02*
X40363641Y-42980000D01*
D17*
X31828800Y-29296088D02*
X36981200Y-29296088D01*
X31828800Y-32338912D02*
X31828800Y-29296088D01*
X36981200Y-29296088D02*
X36981200Y-32338912D01*
X36981200Y-32338912D02*
X31828800Y-32338912D01*
D18*
X31882775Y-33499999D02*
G75*
G02*
X31582547Y-33499999I-150114J0D01*
G01*
X31582547Y-33499999D02*
G75*
G02*
X31882775Y-33499999I150114J0D01*
G01*
D15*
X31984883Y-33817500D02*
G75*
G02*
X31924939Y-33817500I-29972J0D01*
G01*
X31924939Y-33817500D02*
G75*
G02*
X31984883Y-33817500I29972J0D01*
G01*
D18*
X32650110Y-31586614D02*
G75*
G02*
X32349882Y-31586614I-150114J0D01*
G01*
X32349882Y-31586614D02*
G75*
G02*
X32650110Y-31586614I150114J0D01*
G01*
D13*
X37050000Y-36186359D02*
X37050000Y-36493641D01*
X37810000Y-36186359D02*
X37810000Y-36493641D01*
D19*
X33600002Y-13925095D02*
X33600002Y-16516535D01*
X33600002Y-13925095D02*
X42600002Y-13925095D01*
X33600002Y-18651257D02*
X33600002Y-20546533D01*
X34272773Y-22694107D02*
X34368861Y-22694107D01*
X41831142Y-22694107D02*
X41927230Y-22694107D01*
X42573281Y-18700737D02*
X42573281Y-20606680D01*
X42600002Y-13925095D02*
X42600002Y-16516535D01*
D15*
X42579911Y-22699543D02*
G75*
G02*
X42519915Y-22699543I-29998J0D01*
G01*
X42519915Y-22699543D02*
G75*
G02*
X42579911Y-22699543I29998J0D01*
G01*
D17*
X42808138Y-37149557D02*
X42808138Y-38406860D01*
X42996098Y-37367997D02*
X42996098Y-37367997D01*
X42996098Y-37367997D02*
X42996098Y-37367997D01*
X42996098Y-37367997D02*
X45028102Y-37367997D01*
X42996098Y-39908003D02*
X42996098Y-37367997D01*
X44266101Y-37149557D02*
X42808138Y-37149557D01*
X45028102Y-37367997D02*
X45028102Y-39908003D01*
X45028102Y-39908003D02*
X42996098Y-39908003D01*
D15*
X43241970Y-37638000D02*
G75*
G02*
X43182026Y-37638000I-29972J0D01*
G01*
X43182026Y-37638000D02*
G75*
G02*
X43241970Y-37638000I29972J0D01*
G01*
D20*
G36*
X47731480Y-54076044D02*
G01*
X47725455Y-54082068D01*
X47719431Y-54076044D01*
X47725455Y-54070019D01*
X47731480Y-54076044D01*
G37*
G36*
X48105009Y-53762761D02*
G01*
X48098985Y-53768785D01*
X48092960Y-53762761D01*
X48098985Y-53756736D01*
X48105009Y-53762761D01*
G37*
G36*
X48635180Y-50545588D02*
G01*
X48629155Y-50551613D01*
X48623131Y-50545588D01*
X48629155Y-50539563D01*
X48635180Y-50545588D01*
G37*
G36*
X48233536Y-50411037D02*
G01*
X48231882Y-50418201D01*
X48225503Y-50419070D01*
X48215585Y-50414661D01*
X48217470Y-50411037D01*
X48231770Y-50409595D01*
X48233536Y-50411037D01*
G37*
G36*
X48571670Y-50520234D02*
G01*
X48568077Y-50525711D01*
X48555855Y-50526563D01*
X48542998Y-50523620D01*
X48548576Y-50519283D01*
X48567407Y-50517847D01*
X48571670Y-50520234D01*
G37*
G36*
X47786386Y-50499416D02*
G01*
X47784275Y-50508814D01*
X47774552Y-50525775D01*
X47768264Y-50522933D01*
X47767628Y-50516176D01*
X47776379Y-50499837D01*
X47779539Y-50497476D01*
X47786386Y-50499416D01*
G37*
G36*
X48854737Y-50200086D02*
G01*
X48876167Y-50210051D01*
X48896164Y-50221349D01*
X48895529Y-50225470D01*
X48879890Y-50226103D01*
X48855353Y-50220978D01*
X48845548Y-50213430D01*
X48841058Y-50199231D01*
X48854737Y-50200086D01*
G37*
G36*
X48358045Y-53827016D02*
G01*
X48357993Y-53913747D01*
X48357338Y-53979333D01*
X48355335Y-54026726D01*
X48351237Y-54058878D01*
X48344299Y-54078742D01*
X48333774Y-54089271D01*
X48318916Y-54093416D01*
X48298979Y-54094131D01*
X48290549Y-54094118D01*
X48261171Y-54094118D01*
X48264423Y-53838069D01*
X48267675Y-53582021D01*
X48312860Y-53578281D01*
X48358045Y-53574541D01*
X48358045Y-53827016D01*
G37*
G36*
X48701617Y-50154477D02*
G01*
X48720194Y-50171900D01*
X48741126Y-50196043D01*
X48758781Y-50220324D01*
X48767527Y-50238161D01*
X48767723Y-50239987D01*
X48778562Y-50245916D01*
X48806276Y-50249679D01*
X48827970Y-50250379D01*
X48862345Y-50251757D01*
X48884158Y-50255280D01*
X48888216Y-50258035D01*
X48880224Y-50270516D01*
X48860590Y-50291232D01*
X48856607Y-50294985D01*
X48824997Y-50324279D01*
X48856607Y-50357272D01*
X48877122Y-50380933D01*
X48887789Y-50397624D01*
X48888216Y-50399600D01*
X48878167Y-50403954D01*
X48852472Y-50400744D01*
X48817816Y-50391476D01*
X48780878Y-50377658D01*
X48771047Y-50373183D01*
X48743358Y-50361832D01*
X48726056Y-50362502D01*
X48710752Y-50373338D01*
X48684103Y-50392468D01*
X48650220Y-50411679D01*
X48618408Y-50426145D01*
X48599321Y-50431119D01*
X48594697Y-50422045D01*
X48603917Y-50397193D01*
X48604747Y-50395570D01*
X48620358Y-50357189D01*
X48621157Y-50332745D01*
X48607235Y-50324585D01*
X48602044Y-50325241D01*
X48585721Y-50337498D01*
X48584041Y-50348229D01*
X48579454Y-50358796D01*
X48560145Y-50369995D01*
X48523093Y-50383143D01*
X48467996Y-50398829D01*
X48415523Y-50413135D01*
X48370189Y-50425924D01*
X48338118Y-50435447D01*
X48327382Y-50439019D01*
X48312729Y-50441769D01*
X48315770Y-50431286D01*
X48317685Y-50421396D01*
X48302789Y-50420225D01*
X48284611Y-50423197D01*
X48261005Y-50426128D01*
X48257193Y-50422586D01*
X48259668Y-50420718D01*
X48272826Y-50405843D01*
X48273723Y-50399750D01*
X48282878Y-50388514D01*
X48310559Y-50375517D01*
X48351422Y-50362313D01*
X48400122Y-50350451D01*
X48451315Y-50341482D01*
X48487855Y-50337606D01*
X48531407Y-50333347D01*
X48564711Y-50327780D01*
X48581214Y-50322033D01*
X48581723Y-50321438D01*
X48575796Y-50311017D01*
X48553483Y-50296912D01*
X48542284Y-50291683D01*
X48514884Y-50278804D01*
X48507388Y-50270662D01*
X48517119Y-50263579D01*
X48520711Y-50262042D01*
X48548179Y-50255410D01*
X48585897Y-50251527D01*
X48595034Y-50251226D01*
X48641225Y-50248273D01*
X48668205Y-50239421D01*
X48680675Y-50221777D01*
X48683378Y-50196876D01*
X48685539Y-50167697D01*
X48690767Y-50150634D01*
X48691025Y-50150354D01*
X48701617Y-50154477D01*
G37*
G36*
X48029688Y-53758094D02*
G01*
X48064413Y-53761819D01*
X48080355Y-53767389D01*
X48080911Y-53768785D01*
X48091222Y-53777843D01*
X48111034Y-53780835D01*
X48135262Y-53787120D01*
X48141157Y-53798909D01*
X48150802Y-53814883D01*
X48159231Y-53816983D01*
X48173657Y-53827185D01*
X48176459Y-53844094D01*
X48175085Y-53862755D01*
X48170717Y-53858268D01*
X48166192Y-53847106D01*
X48158690Y-53831447D01*
X48152874Y-53836554D01*
X48147375Y-53852569D01*
X48126078Y-53892813D01*
X48095088Y-53911907D01*
X48081771Y-53913378D01*
X48061729Y-53918267D01*
X48056812Y-53925427D01*
X48046220Y-53933391D01*
X48020174Y-53937372D01*
X48014639Y-53937476D01*
X47986764Y-53940503D01*
X47972831Y-53947944D01*
X47972467Y-53949526D01*
X47962155Y-53958583D01*
X47942343Y-53961575D01*
X47919699Y-53965699D01*
X47912220Y-53973624D01*
X47902461Y-53984314D01*
X47894146Y-53985674D01*
X47878111Y-53992180D01*
X47876072Y-53997723D01*
X47886384Y-54006781D01*
X47906195Y-54009772D01*
X47928840Y-54013897D01*
X47936319Y-54021822D01*
X47946911Y-54029786D01*
X47972957Y-54033767D01*
X47978491Y-54033871D01*
X48006366Y-54030844D01*
X48020300Y-54023403D01*
X48020664Y-54021822D01*
X48031354Y-54014276D01*
X48058057Y-54010079D01*
X48068861Y-54009772D01*
X48099043Y-54007100D01*
X48115830Y-54000424D01*
X48117059Y-53997723D01*
X48127654Y-53989773D01*
X48153723Y-53985783D01*
X48159423Y-53985674D01*
X48187626Y-53987460D01*
X48198593Y-53996968D01*
X48199138Y-54020414D01*
X48199032Y-54021822D01*
X48192129Y-54049235D01*
X48175219Y-54057946D01*
X48173882Y-54057970D01*
X48147025Y-54066127D01*
X48133411Y-54076044D01*
X48117453Y-54085107D01*
X48088725Y-54090767D01*
X48043111Y-54093567D01*
X47996565Y-54094118D01*
X47935957Y-54093068D01*
X47895254Y-54089558D01*
X47870338Y-54083043D01*
X47859719Y-54076044D01*
X47841832Y-54061384D01*
X47833899Y-54057970D01*
X47819994Y-54050455D01*
X47808940Y-54040756D01*
X47800314Y-54021806D01*
X47794473Y-53989735D01*
X47791647Y-53951892D01*
X47792069Y-53915628D01*
X47794971Y-53895304D01*
X47876072Y-53895304D01*
X47885717Y-53911278D01*
X47894146Y-53913378D01*
X47910191Y-53907598D01*
X47912220Y-53902696D01*
X47922945Y-53894730D01*
X47950093Y-53886835D01*
X47966442Y-53883884D01*
X48000190Y-53877121D01*
X48016151Y-53867353D01*
X48020601Y-53850239D01*
X48020664Y-53846368D01*
X48017378Y-53826469D01*
X48002824Y-53818328D01*
X47978491Y-53816983D01*
X47950620Y-53820224D01*
X47936684Y-53828196D01*
X47936319Y-53829893D01*
X47928577Y-53848400D01*
X47919105Y-53860016D01*
X47898945Y-53874370D01*
X47888982Y-53877230D01*
X47877534Y-53886975D01*
X47876072Y-53895304D01*
X47794971Y-53895304D01*
X47795972Y-53888292D01*
X47803586Y-53877234D01*
X47803776Y-53877230D01*
X47812270Y-53866768D01*
X47815825Y-53841598D01*
X47815825Y-53841460D01*
X47819661Y-53815826D01*
X47831638Y-53811758D01*
X47847977Y-53806811D01*
X47863797Y-53787281D01*
X47873344Y-53772291D01*
X47886013Y-53763223D01*
X47907462Y-53758597D01*
X47943348Y-53756932D01*
X47980527Y-53756736D01*
X48029688Y-53758094D01*
G37*
G36*
X47598477Y-53758145D02*
G01*
X47632023Y-53761993D01*
X47646813Y-53767708D01*
X47647135Y-53768785D01*
X47657227Y-53778575D01*
X47671233Y-53780835D01*
X47691260Y-53789237D01*
X47695332Y-53805645D01*
X47699240Y-53822839D01*
X47705373Y-53824249D01*
X47714246Y-53827839D01*
X47715414Y-53835057D01*
X47710059Y-53846782D01*
X47705373Y-53845865D01*
X47696844Y-53849904D01*
X47695332Y-53859305D01*
X47684746Y-53887951D01*
X47658838Y-53908321D01*
X47635946Y-53913378D01*
X47615904Y-53918267D01*
X47610987Y-53925427D01*
X47600394Y-53933391D01*
X47574349Y-53937372D01*
X47568814Y-53937476D01*
X47540939Y-53940503D01*
X47527006Y-53947944D01*
X47526641Y-53949526D01*
X47516370Y-53958727D01*
X47497807Y-53961575D01*
X47472659Y-53968684D01*
X47461659Y-53980634D01*
X47455463Y-54001471D01*
X47463432Y-54008865D01*
X47484469Y-54009772D01*
X47507113Y-54013897D01*
X47514592Y-54021822D01*
X47525062Y-54030282D01*
X47550290Y-54033870D01*
X47550740Y-54033871D01*
X47576121Y-54030381D01*
X47586885Y-54021971D01*
X47586888Y-54021822D01*
X47597480Y-54013857D01*
X47623526Y-54009876D01*
X47629061Y-54009772D01*
X47656935Y-54006746D01*
X47670869Y-53999304D01*
X47671233Y-53997723D01*
X47681840Y-53989818D01*
X47707981Y-53985801D01*
X47714206Y-53985674D01*
X47742619Y-53987404D01*
X47753527Y-53996275D01*
X47753470Y-54017800D01*
X47753367Y-54018706D01*
X47742082Y-54047338D01*
X47726307Y-54056154D01*
X47697592Y-54068499D01*
X47686286Y-54077343D01*
X47669399Y-54085915D01*
X47637352Y-54090943D01*
X47586628Y-54092830D01*
X47552892Y-54092720D01*
X47500160Y-54091563D01*
X47454980Y-54089614D01*
X47423862Y-54087198D01*
X47415185Y-54085812D01*
X47397316Y-54075886D01*
X47394099Y-54069135D01*
X47384057Y-54059896D01*
X47371289Y-54057970D01*
X47351497Y-54051880D01*
X47339725Y-54031203D01*
X47334546Y-53992331D01*
X47333985Y-53963602D01*
X47336418Y-53907353D01*
X47406148Y-53907353D01*
X47412173Y-53913378D01*
X47418197Y-53907353D01*
X47430247Y-53907353D01*
X47436271Y-53913378D01*
X47442296Y-53907353D01*
X47440269Y-53905326D01*
X47454530Y-53905326D01*
X47457506Y-53913021D01*
X47463567Y-53905522D01*
X47479922Y-53895656D01*
X47511318Y-53886446D01*
X47529654Y-53883067D01*
X47564586Y-53876281D01*
X47581576Y-53867030D01*
X47586732Y-53851330D01*
X47586888Y-53845738D01*
X47582702Y-53825116D01*
X47565383Y-53817602D01*
X47550740Y-53816983D01*
X47522042Y-53822371D01*
X47514592Y-53835057D01*
X47504635Y-53849967D01*
X47491782Y-53853131D01*
X47468298Y-53863715D01*
X47455594Y-53891281D01*
X47454530Y-53905326D01*
X47440269Y-53905326D01*
X47436271Y-53901328D01*
X47430247Y-53907353D01*
X47418197Y-53907353D01*
X47412173Y-53901328D01*
X47406148Y-53907353D01*
X47336418Y-53907353D01*
X47337013Y-53893589D01*
X47345637Y-53845849D01*
X47359737Y-53820861D01*
X47370287Y-53816983D01*
X47392046Y-53808019D01*
X47398456Y-53798909D01*
X47414801Y-53784025D01*
X47429868Y-53780835D01*
X47449653Y-53775859D01*
X47454345Y-53768785D01*
X47465619Y-53762818D01*
X47496397Y-53758625D01*
X47542117Y-53756776D01*
X47550740Y-53756736D01*
X47598477Y-53758145D01*
G37*
G36*
X49283009Y-50128069D02*
G01*
X49311787Y-50141049D01*
X49336136Y-50171839D01*
X49353976Y-50214264D01*
X49363224Y-50262149D01*
X49361800Y-50309320D01*
X49353701Y-50337771D01*
X49338041Y-50368257D01*
X49316613Y-50402688D01*
X49293400Y-50435595D01*
X49272387Y-50461506D01*
X49257557Y-50474950D01*
X49253624Y-50475212D01*
X49256802Y-50463100D01*
X49271908Y-50439148D01*
X49284824Y-50422143D01*
X49326555Y-50352627D01*
X49345097Y-50277112D01*
X49346091Y-50254182D01*
X49342674Y-50226737D01*
X49334926Y-50209859D01*
X49326601Y-50207401D01*
X49321454Y-50223216D01*
X49321145Y-50228582D01*
X49319722Y-50247666D01*
X49315077Y-50243777D01*
X49309943Y-50232305D01*
X49303461Y-50222285D01*
X49299999Y-50232223D01*
X49298741Y-50259896D01*
X49286097Y-50328953D01*
X49252441Y-50392996D01*
X49200707Y-50449729D01*
X49133826Y-50496857D01*
X49054733Y-50532084D01*
X48966359Y-50553114D01*
X48918340Y-50557648D01*
X48869738Y-50558846D01*
X48825740Y-50558135D01*
X48797846Y-50555897D01*
X48768329Y-50550327D01*
X48723427Y-50540804D01*
X48670585Y-50529026D01*
X48617250Y-50516691D01*
X48570865Y-50505498D01*
X48538878Y-50497144D01*
X48534264Y-50495780D01*
X48518791Y-50493991D01*
X48521749Y-50505137D01*
X48521741Y-50511984D01*
X48504181Y-50503348D01*
X48499587Y-50500405D01*
X48464996Y-50483982D01*
X48424586Y-50472611D01*
X48421732Y-50472132D01*
X48386885Y-50464409D01*
X48360641Y-50454796D01*
X48358045Y-50453295D01*
X48350815Y-50446184D01*
X48364829Y-50446979D01*
X48372359Y-50448475D01*
X48401851Y-50449227D01*
X48443465Y-50443931D01*
X48473882Y-50437294D01*
X48517538Y-50427280D01*
X48542938Y-50425857D01*
X48554532Y-50433545D01*
X48556859Y-50447020D01*
X48565941Y-50462077D01*
X48591965Y-50462332D01*
X48633104Y-50448096D01*
X48674766Y-50426989D01*
X48719868Y-50403798D01*
X48749898Y-50393757D01*
X48769036Y-50395520D01*
X48770326Y-50396189D01*
X48802338Y-50408496D01*
X48843071Y-50417169D01*
X48882962Y-50420902D01*
X48912445Y-50418389D01*
X48917698Y-50416297D01*
X48930962Y-50404255D01*
X48924209Y-50388005D01*
X48922020Y-50385170D01*
X48914480Y-50373823D01*
X48921895Y-50375750D01*
X48940687Y-50387247D01*
X48984995Y-50402311D01*
X49033784Y-50397920D01*
X49075900Y-50376674D01*
X49090088Y-50364821D01*
X49085554Y-50363878D01*
X49065968Y-50370495D01*
X49021793Y-50376253D01*
X48970941Y-50370565D01*
X48934580Y-50363832D01*
X48908789Y-50359358D01*
X48901633Y-50358341D01*
X48905813Y-50353207D01*
X48925657Y-50341205D01*
X48930389Y-50338652D01*
X48956064Y-50323741D01*
X48995363Y-50299450D01*
X49041868Y-50269787D01*
X49068956Y-50252132D01*
X49142575Y-50209031D01*
X49203313Y-50184836D01*
X49250657Y-50179688D01*
X49282507Y-50192363D01*
X49293549Y-50198680D01*
X49290856Y-50185812D01*
X49289976Y-50169045D01*
X49302776Y-50168248D01*
X49321057Y-50181096D01*
X49331035Y-50188796D01*
X49327978Y-50178818D01*
X49323832Y-50170521D01*
X49298773Y-50146337D01*
X49258143Y-50138269D01*
X49203903Y-50145896D01*
X49138012Y-50168798D01*
X49062429Y-50206552D01*
X49010724Y-50237770D01*
X48967911Y-50264213D01*
X48932930Y-50283906D01*
X48910426Y-50294337D01*
X48904742Y-50295020D01*
X48908653Y-50285279D01*
X48923332Y-50275030D01*
X48944380Y-50258258D01*
X48945876Y-50244051D01*
X48927377Y-50237379D01*
X48915708Y-50234404D01*
X48921757Y-50230215D01*
X48943624Y-50231543D01*
X48952656Y-50236810D01*
X48969496Y-50241021D01*
X48995875Y-50229993D01*
X49013545Y-50218729D01*
X49106997Y-50165331D01*
X49196069Y-50134989D01*
X49280183Y-50127895D01*
X49283009Y-50128069D01*
G37*
G36*
X48651534Y-49990690D02*
G01*
X48684387Y-49994001D01*
X48707953Y-49997807D01*
X48726219Y-50005393D01*
X48743171Y-50020040D01*
X48762797Y-50045033D01*
X48789083Y-50083655D01*
X48818869Y-50128494D01*
X48833571Y-50154276D01*
X48839423Y-50172046D01*
X48839423Y-50172059D01*
X48834345Y-50170372D01*
X48822138Y-50151853D01*
X48816205Y-50141076D01*
X48797650Y-50110838D01*
X48778567Y-50086917D01*
X48763208Y-50073759D01*
X48755829Y-50075811D01*
X48755674Y-50077803D01*
X48763276Y-50095366D01*
X48769314Y-50102559D01*
X48779467Y-50123063D01*
X48786395Y-50155342D01*
X48786897Y-50160137D01*
X48790839Y-50204076D01*
X48742407Y-50154170D01*
X48707574Y-50122238D01*
X48684323Y-50110972D01*
X48671607Y-50120507D01*
X48668385Y-50150982D01*
X48669082Y-50163821D01*
X48670441Y-50189028D01*
X48666968Y-50205413D01*
X48654321Y-50215734D01*
X48628155Y-50222748D01*
X48584129Y-50229214D01*
X48561499Y-50232142D01*
X48522693Y-50239985D01*
X48491237Y-50251165D01*
X48483633Y-50255595D01*
X48468733Y-50270906D01*
X48473812Y-50286638D01*
X48477457Y-50291248D01*
X48488471Y-50306664D01*
X48489051Y-50310643D01*
X48472424Y-50312814D01*
X48438993Y-50318436D01*
X48395587Y-50326237D01*
X48349035Y-50334942D01*
X48306165Y-50343281D01*
X48273803Y-50349979D01*
X48259893Y-50353357D01*
X48248811Y-50354888D01*
X48242146Y-50347854D01*
X48238792Y-50327820D01*
X48237644Y-50290348D01*
X48237552Y-50263665D01*
X48238359Y-50213911D01*
X48240167Y-50196157D01*
X48647230Y-50196157D01*
X48653254Y-50202182D01*
X48659279Y-50196157D01*
X48653254Y-50190133D01*
X48647230Y-50196157D01*
X48240167Y-50196157D01*
X48241524Y-50182840D01*
X48248159Y-50165067D01*
X48253915Y-50160009D01*
X48321897Y-50160009D01*
X48327922Y-50166034D01*
X48333947Y-50160009D01*
X48327922Y-50153985D01*
X48321897Y-50160009D01*
X48253915Y-50160009D01*
X48259379Y-50155207D01*
X48260066Y-50154833D01*
X48281289Y-50148242D01*
X48290190Y-50150392D01*
X48297355Y-50149153D01*
X48297799Y-50145349D01*
X48307814Y-50133272D01*
X48330501Y-50121915D01*
X48354820Y-50116306D01*
X48361058Y-50116534D01*
X48369989Y-50109006D01*
X48370095Y-50107437D01*
X48381098Y-50097166D01*
X48410357Y-50085193D01*
X48452247Y-50073048D01*
X48501144Y-50062264D01*
X48551423Y-50054371D01*
X48573104Y-50052162D01*
X48615100Y-50049520D01*
X48639043Y-50051025D01*
X48650805Y-50057931D01*
X48655842Y-50069848D01*
X48663321Y-50089493D01*
X48673791Y-50089875D01*
X48692173Y-50070640D01*
X48695127Y-50067018D01*
X48701145Y-50061044D01*
X48709418Y-50061044D01*
X48712350Y-50067778D01*
X48724483Y-50080713D01*
X48731458Y-50078060D01*
X48731575Y-50076375D01*
X48723016Y-50066184D01*
X48717664Y-50062464D01*
X48709418Y-50061044D01*
X48701145Y-50061044D01*
X48712889Y-50049385D01*
X48727534Y-50050158D01*
X48736218Y-50056444D01*
X48752288Y-50065955D01*
X48754074Y-50056635D01*
X48744056Y-50034299D01*
X48723617Y-50018831D01*
X48684806Y-50008115D01*
X48632957Y-50002567D01*
X48573405Y-50002603D01*
X48511483Y-50008637D01*
X48481994Y-50013888D01*
X48404204Y-50036208D01*
X48321765Y-50069980D01*
X48245512Y-50110364D01*
X48204416Y-50137852D01*
X48165256Y-50167260D01*
X48165256Y-50280112D01*
X48166575Y-50340733D01*
X48170692Y-50379308D01*
X48177849Y-50397754D01*
X48180318Y-50399526D01*
X48176741Y-50401547D01*
X48155800Y-50401543D01*
X48124105Y-50399964D01*
X48088261Y-50397259D01*
X48054879Y-50393876D01*
X48030565Y-50390267D01*
X48025232Y-50388977D01*
X48007039Y-50388287D01*
X47972590Y-50390477D01*
X47931308Y-50394846D01*
X47880667Y-50403429D01*
X47846391Y-50415850D01*
X47820765Y-50434954D01*
X47819665Y-50436043D01*
X47796553Y-50456617D01*
X47779951Y-50466974D01*
X47778264Y-50467267D01*
X47765728Y-50477447D01*
X47760612Y-50502563D01*
X47763368Y-50534483D01*
X47772982Y-50562364D01*
X47791445Y-50591124D01*
X47804677Y-50597939D01*
X47811037Y-50582721D01*
X47811034Y-50581736D01*
X47815825Y-50581736D01*
X47821850Y-50587761D01*
X47827875Y-50581736D01*
X47821850Y-50575711D01*
X47815825Y-50581736D01*
X47811034Y-50581736D01*
X47810975Y-50564418D01*
X47812238Y-50541636D01*
X47818670Y-50535314D01*
X47819005Y-50535504D01*
X47827096Y-50532471D01*
X47827253Y-50525711D01*
X47827162Y-50489086D01*
X47842213Y-50464368D01*
X47876019Y-50444535D01*
X47903858Y-50430510D01*
X47918308Y-50420099D01*
X47918822Y-50417639D01*
X47926708Y-50416052D01*
X47953435Y-50417345D01*
X47993986Y-50420982D01*
X48043346Y-50426427D01*
X48096500Y-50433143D01*
X48148431Y-50440595D01*
X48177305Y-50445263D01*
X48231853Y-50456549D01*
X48293897Y-50472277D01*
X48339971Y-50485907D01*
X48577410Y-50550807D01*
X48784898Y-50588060D01*
X48895624Y-50593699D01*
X49004343Y-50581586D01*
X49105296Y-50552850D01*
X49192728Y-50508620D01*
X49193844Y-50507886D01*
X49219028Y-50492792D01*
X49231787Y-50488274D01*
X49231690Y-50491257D01*
X49216098Y-50506643D01*
X49189346Y-50525817D01*
X49185123Y-50528446D01*
X49164918Y-50543010D01*
X49160941Y-50551030D01*
X49163529Y-50551568D01*
X49181498Y-50559805D01*
X49206197Y-50580258D01*
X49213414Y-50587617D01*
X49229559Y-50606103D01*
X49239083Y-50623300D01*
X49243226Y-50645625D01*
X49243227Y-50679496D01*
X49240536Y-50727996D01*
X49236880Y-50778922D01*
X49232000Y-50812718D01*
X49223462Y-50836324D01*
X49208831Y-50856679D01*
X49187638Y-50878756D01*
X49158715Y-50904732D01*
X49134316Y-50921565D01*
X49124182Y-50925142D01*
X49106184Y-50931439D01*
X49103096Y-50935709D01*
X49090973Y-50945779D01*
X49061194Y-50964178D01*
X49017763Y-50988668D01*
X48964682Y-51017011D01*
X48905953Y-51046970D01*
X48889559Y-51055090D01*
X48844769Y-51077569D01*
X48816676Y-51093328D01*
X48800123Y-51105803D01*
X48789951Y-51118431D01*
X48786987Y-51123447D01*
X48769108Y-51150596D01*
X48758686Y-51163468D01*
X48749767Y-51184685D01*
X48744365Y-51219694D01*
X48743624Y-51238665D01*
X48752996Y-51295434D01*
X48780101Y-51337635D01*
X48823427Y-51363087D01*
X48831592Y-51365417D01*
X48855232Y-51374126D01*
X48864118Y-51382395D01*
X48874426Y-51391229D01*
X48900290Y-51402868D01*
X48912315Y-51407116D01*
X48942011Y-51418694D01*
X48958979Y-51428754D01*
X48960512Y-51431339D01*
X48971658Y-51435758D01*
X49001554Y-51440706D01*
X49044887Y-51445407D01*
X49071092Y-51447504D01*
X49128256Y-51452667D01*
X49166376Y-51459238D01*
X49190505Y-51468398D01*
X49203147Y-51478405D01*
X49228346Y-51518297D01*
X49231921Y-51558154D01*
X49217544Y-51588715D01*
X49132671Y-51684150D01*
X49031531Y-51778252D01*
X48910718Y-51874160D01*
X48894241Y-51886301D01*
X48860162Y-51912982D01*
X48814790Y-51950882D01*
X48764321Y-51994642D01*
X48714952Y-52038901D01*
X48677983Y-52073387D01*
X48583296Y-52147614D01*
X48503648Y-52191930D01*
X48448659Y-52218351D01*
X48392484Y-52245350D01*
X48345179Y-52268094D01*
X48334957Y-52273011D01*
X48287626Y-52294108D01*
X48238945Y-52313238D01*
X48213453Y-52321883D01*
X48144837Y-52342994D01*
X48094418Y-52359094D01*
X48057231Y-52371822D01*
X48028310Y-52382814D01*
X48026689Y-52383471D01*
X47992916Y-52397017D01*
X47966442Y-52407382D01*
X47922851Y-52420241D01*
X47866612Y-52431872D01*
X47809163Y-52440251D01*
X47763043Y-52443359D01*
X47706699Y-52453154D01*
X47658531Y-52477183D01*
X47608696Y-52505636D01*
X47556399Y-52528555D01*
X47497401Y-52547022D01*
X47427467Y-52562119D01*
X47342358Y-52574926D01*
X47237838Y-52586525D01*
X47225408Y-52587732D01*
X47111586Y-52599620D01*
X47008710Y-52612261D01*
X46921570Y-52625029D01*
X46869952Y-52634207D01*
X46829332Y-52641432D01*
X46774874Y-52650066D01*
X46716652Y-52658531D01*
X46701262Y-52660627D01*
X46643309Y-52669503D01*
X46577866Y-52681321D01*
X46510109Y-52694940D01*
X46445213Y-52709218D01*
X46388351Y-52723016D01*
X46344699Y-52735193D01*
X46319432Y-52744608D01*
X46318859Y-52744921D01*
X46290325Y-52754189D01*
X46267169Y-52756641D01*
X46230590Y-52764001D01*
X46186276Y-52782741D01*
X46144162Y-52807855D01*
X46115033Y-52833306D01*
X46097172Y-52859398D01*
X46075653Y-52897460D01*
X46053881Y-52940519D01*
X46035260Y-52981599D01*
X46023195Y-53013726D01*
X46020474Y-53026992D01*
X46014197Y-53043508D01*
X46008425Y-53045825D01*
X46002697Y-53057222D01*
X45998597Y-53088863D01*
X45996538Y-53136925D01*
X45996376Y-53157306D01*
X45993867Y-53216441D01*
X45987056Y-53287702D01*
X45977009Y-53363909D01*
X45964798Y-53437880D01*
X45951490Y-53502434D01*
X45938156Y-53550389D01*
X45937624Y-53551897D01*
X45927734Y-53582468D01*
X45915950Y-53622637D01*
X45912193Y-53636243D01*
X45898645Y-53678625D01*
X45882889Y-53717744D01*
X45878547Y-53726613D01*
X45855555Y-53770153D01*
X45841007Y-53796803D01*
X45832343Y-53811114D01*
X45827685Y-53816983D01*
X45817692Y-53833144D01*
X45802586Y-53863869D01*
X45785948Y-53901247D01*
X45771361Y-53937365D01*
X45764951Y-53955550D01*
X45726690Y-54087368D01*
X45700769Y-54206627D01*
X45685681Y-54320494D01*
X45683988Y-54341129D01*
X45678149Y-54399742D01*
X45670040Y-54455797D01*
X45661012Y-54500645D01*
X45656684Y-54515844D01*
X45629450Y-54604957D01*
X45605853Y-54702081D01*
X45599383Y-54732732D01*
X45578677Y-54822778D01*
X45557644Y-54891481D01*
X45535294Y-54941585D01*
X45512765Y-54973570D01*
X45491409Y-54998938D01*
X45479292Y-55017183D01*
X45478254Y-55020557D01*
X45470321Y-55032524D01*
X45448941Y-55057403D01*
X45417741Y-55091098D01*
X45393503Y-55116208D01*
X45308751Y-55202656D01*
X45245898Y-55200428D01*
X45193212Y-55198086D01*
X45136812Y-55194901D01*
X45119786Y-55193773D01*
X45084440Y-55189597D01*
X45061480Y-55183615D01*
X45056527Y-55179434D01*
X45046061Y-55170681D01*
X45020543Y-55162593D01*
X45017367Y-55161946D01*
X44970660Y-55148244D01*
X44916186Y-55125399D01*
X44875787Y-55104255D01*
X44852655Y-55092101D01*
X44820939Y-55076835D01*
X44818553Y-55075734D01*
X44792616Y-55060752D01*
X44779712Y-55047290D01*
X44779393Y-55045595D01*
X44769625Y-55032211D01*
X44749269Y-55019724D01*
X44727142Y-55006187D01*
X44719146Y-54995308D01*
X44711059Y-54980841D01*
X44691099Y-54958774D01*
X44686010Y-54953936D01*
X44671054Y-54938689D01*
X44661209Y-54922544D01*
X44655172Y-54900044D01*
X44651641Y-54865731D01*
X44649313Y-54814148D01*
X44648766Y-54797870D01*
X44646092Y-54746185D01*
X44642090Y-54704856D01*
X44637360Y-54678882D01*
X44633704Y-54672486D01*
X44628126Y-54661496D01*
X44624182Y-54632742D01*
X44622751Y-54594165D01*
X44624259Y-54554280D01*
X44628202Y-54526071D01*
X44633493Y-54515844D01*
X44641087Y-54504995D01*
X44650599Y-54476577D01*
X44659802Y-54437524D01*
X44668802Y-54397897D01*
X44677343Y-54369729D01*
X44683487Y-54359203D01*
X44688155Y-54347930D01*
X44693589Y-54317151D01*
X44699284Y-54271424D01*
X44704738Y-54215307D01*
X44709448Y-54153361D01*
X44712737Y-54094118D01*
X44718586Y-54050195D01*
X44731418Y-53992862D01*
X44748734Y-53930867D01*
X44768039Y-53872957D01*
X44786837Y-53827878D01*
X44790997Y-53819936D01*
X44805045Y-53788355D01*
X44821542Y-53742021D01*
X44837653Y-53689695D01*
X44850545Y-53640139D01*
X44853344Y-53627206D01*
X44862778Y-53581760D01*
X44873472Y-53531650D01*
X44876278Y-53518762D01*
X44891497Y-53444482D01*
X44905345Y-53365797D01*
X44918542Y-53277880D01*
X44931810Y-53175904D01*
X44945869Y-53055043D01*
X44946893Y-53045825D01*
X44959004Y-52970898D01*
X44979439Y-52902596D01*
X45011349Y-52831952D01*
X45040796Y-52778712D01*
X45061167Y-52742687D01*
X45075527Y-52715208D01*
X45080626Y-52702698D01*
X45087376Y-52689361D01*
X45104472Y-52664426D01*
X45114923Y-52650503D01*
X45136012Y-52622711D01*
X45166929Y-52581414D01*
X45203255Y-52532536D01*
X45235074Y-52489466D01*
X45269473Y-52443475D01*
X45299434Y-52404727D01*
X45321713Y-52377335D01*
X45332997Y-52365449D01*
X45345803Y-52350339D01*
X45361675Y-52322834D01*
X45364320Y-52317415D01*
X45381961Y-52290672D01*
X45412300Y-52254545D01*
X45449819Y-52215431D01*
X45464050Y-52201824D01*
X45507364Y-52161324D01*
X45550707Y-52120592D01*
X45586263Y-52086980D01*
X45593341Y-52080243D01*
X45622691Y-52054551D01*
X45646637Y-52037641D01*
X45656600Y-52033681D01*
X45670166Y-52027165D01*
X45671044Y-52023772D01*
X45681580Y-52007915D01*
X45709367Y-51987816D01*
X45748674Y-51966480D01*
X45793767Y-51946912D01*
X45838915Y-51932118D01*
X45851784Y-51929023D01*
X45889971Y-51923263D01*
X45949143Y-51917618D01*
X46026187Y-51912294D01*
X46117988Y-51907497D01*
X46221434Y-51903433D01*
X46255436Y-51902352D01*
X46422142Y-51895988D01*
X46567643Y-51887276D01*
X46694761Y-51875717D01*
X46806318Y-51860812D01*
X46905137Y-51842062D01*
X46994040Y-51818967D01*
X47075849Y-51791028D01*
X47153386Y-51757745D01*
X47197844Y-51735624D01*
X47266021Y-51698923D01*
X47316522Y-51668084D01*
X47353717Y-51639240D01*
X47381977Y-51608524D01*
X47405675Y-51572069D01*
X47425028Y-51534643D01*
X47444669Y-51492334D01*
X47459260Y-51457430D01*
X47466167Y-51436322D01*
X47466395Y-51434269D01*
X47472293Y-51420221D01*
X47475704Y-51419165D01*
X47483278Y-51408473D01*
X47493075Y-51380879D01*
X47500200Y-51353844D01*
X47514068Y-51308566D01*
X47535296Y-51254773D01*
X47557162Y-51208377D01*
X47577365Y-51168131D01*
X47592196Y-51135754D01*
X47598825Y-51117479D01*
X47598937Y-51116395D01*
X47603910Y-51096148D01*
X47616213Y-51066309D01*
X47631925Y-51034707D01*
X47647122Y-51009174D01*
X47657884Y-50997537D01*
X47658528Y-50997438D01*
X47668497Y-50987086D01*
X47676880Y-50963013D01*
X47689725Y-50932915D01*
X47712989Y-50898286D01*
X47723086Y-50886396D01*
X47750425Y-50853856D01*
X47772701Y-50822784D01*
X47777855Y-50814079D01*
X47793957Y-50787997D01*
X47799188Y-50780409D01*
X48826172Y-50780409D01*
X48827746Y-50792600D01*
X48838959Y-50814354D01*
X48859175Y-50820154D01*
X48881570Y-50812218D01*
X48899321Y-50792767D01*
X48905686Y-50767253D01*
X48901273Y-50746430D01*
X48883302Y-50736936D01*
X48866860Y-50734602D01*
X48839292Y-50735870D01*
X48826732Y-50749652D01*
X48826172Y-50780409D01*
X47799188Y-50780409D01*
X47818714Y-50752083D01*
X47839008Y-50724458D01*
X47864447Y-50688534D01*
X47873123Y-50664726D01*
X47863724Y-50646657D01*
X47834941Y-50627948D01*
X47817252Y-50618622D01*
X47801579Y-50606333D01*
X47826901Y-50606333D01*
X47839556Y-50613952D01*
X47845949Y-50617159D01*
X47883214Y-50627925D01*
X47935657Y-50633812D01*
X47994828Y-50634691D01*
X48052276Y-50630429D01*
X48098985Y-50621073D01*
X48119518Y-50614400D01*
X48127355Y-50609819D01*
X48119906Y-50606597D01*
X48094581Y-50604002D01*
X48048791Y-50601301D01*
X48024674Y-50600053D01*
X47965283Y-50596204D01*
X47924103Y-50591036D01*
X47895247Y-50583305D01*
X47892198Y-50581736D01*
X48177305Y-50581736D01*
X48183330Y-50587761D01*
X48189355Y-50581736D01*
X48183330Y-50575711D01*
X48177305Y-50581736D01*
X47892198Y-50581736D01*
X47872825Y-50571768D01*
X47865021Y-50566314D01*
X47838793Y-50549697D01*
X47829030Y-50550128D01*
X47836440Y-50567094D01*
X47845755Y-50580238D01*
X47871180Y-50597749D01*
X47911575Y-50608290D01*
X47914656Y-50608663D01*
X47947726Y-50613566D01*
X47969204Y-50618954D01*
X47972467Y-50620746D01*
X47965875Y-50623266D01*
X47942667Y-50622751D01*
X47910035Y-50619910D01*
X47875169Y-50615450D01*
X47845260Y-50610079D01*
X47833899Y-50607112D01*
X47826901Y-50606333D01*
X47801579Y-50606333D01*
X47785308Y-50593575D01*
X47760329Y-50559982D01*
X47759329Y-50557957D01*
X47747900Y-50514705D01*
X47758011Y-50475360D01*
X47790602Y-50437851D01*
X47825118Y-50412945D01*
X47851115Y-50397248D01*
X47873765Y-50386982D01*
X47899089Y-50381057D01*
X47933108Y-50378386D01*
X47981843Y-50377879D01*
X48017652Y-50378134D01*
X48153207Y-50379370D01*
X48153207Y-50266412D01*
X48153207Y-50153454D01*
X48210441Y-50117085D01*
X48328093Y-50052793D01*
X48443916Y-50010201D01*
X48556195Y-49989803D01*
X48651534Y-49990690D01*
G37*
D19*
X36525000Y-51600406D02*
X36525000Y-49399619D01*
X37968866Y-48970003D02*
X37681160Y-48970003D01*
X37968866Y-52019990D02*
X37681160Y-52019990D01*
X39125000Y-49399644D02*
X39125000Y-51600356D01*
X38675089Y-50499949D02*
G75*
G02*
X36974809Y-50499949I-850140J0D01*
G01*
X36974809Y-50499949D02*
G75*
G02*
X38675089Y-50499949I850140J0D01*
G01*
X38791929Y-48210135D02*
G75*
G02*
X38537929Y-48210135I-127000J0D01*
G01*
X38537929Y-48210135D02*
G75*
G02*
X38791929Y-48210135I127000J0D01*
G01*
D15*
X39154896Y-48749886D02*
G75*
G02*
X39094952Y-48749886I-29972J0D01*
G01*
X39094952Y-48749886D02*
G75*
G02*
X39154896Y-48749886I29972J0D01*
G01*
D13*
X38012164Y-37640000D02*
X38227836Y-37640000D01*
X38012164Y-38360000D02*
X38227836Y-38360000D01*
X47142164Y-27450000D02*
X47357836Y-27450000D01*
X47142164Y-28170000D02*
X47357836Y-28170000D01*
X33212164Y-41240000D02*
X33427836Y-41240000D01*
X33212164Y-41960000D02*
X33427836Y-41960000D01*
X32220000Y-36363641D02*
X32220000Y-36056359D01*
X32980000Y-36363641D02*
X32980000Y-36056359D01*
D21*
X48000127Y-16839878D02*
X49400102Y-16839878D01*
D14*
X48000127Y-16901803D02*
X48000127Y-16839878D01*
X48000127Y-17552096D02*
X48000127Y-17447904D01*
X48000127Y-18159868D02*
X48000127Y-18098197D01*
D21*
X48000127Y-18159868D02*
X49400127Y-18159868D01*
D14*
X49400127Y-16901880D02*
X49400127Y-16839878D01*
X49400127Y-17552172D02*
X49400127Y-17447828D01*
X49400127Y-18159868D02*
X49400127Y-18098120D01*
D15*
X49230353Y-17999873D02*
G75*
G02*
X49170409Y-17999873I-29972J0D01*
G01*
X49170409Y-17999873D02*
G75*
G02*
X49230353Y-17999873I29972J0D01*
G01*
D14*
X49325857Y-18399924D02*
G75*
G02*
X49173965Y-18399924I-75946J0D01*
G01*
X49173965Y-18399924D02*
G75*
G02*
X49325857Y-18399924I75946J0D01*
G01*
D13*
X33212164Y-39640000D02*
X33427836Y-39640000D01*
X33212164Y-40360000D02*
X33427836Y-40360000D01*
D14*
X33800125Y-23800000D02*
X33800125Y-23919863D01*
X33800125Y-25080137D02*
X33800125Y-25200000D01*
X33800125Y-25200000D02*
X33900176Y-25200000D01*
X33900176Y-23799975D02*
X33800125Y-23800000D01*
X33900176Y-25200025D02*
X35900176Y-25200025D01*
X35727227Y-23919863D02*
X35727227Y-23799975D01*
X35727227Y-25080137D02*
X35900176Y-25080137D01*
X35727227Y-25200025D02*
X35727227Y-25080137D01*
X35813638Y-23799975D02*
X35813638Y-23919863D01*
X35813638Y-25080137D02*
X35813638Y-25200025D01*
X35900176Y-23799975D02*
X33900176Y-23799975D01*
X35900176Y-23919863D02*
X35727227Y-23919863D01*
X35900176Y-23919863D02*
X35900176Y-23799975D01*
X35900176Y-25200025D02*
X35900176Y-25080137D01*
D15*
X36080008Y-23874905D02*
G75*
G02*
X36020064Y-23874905I-29972J0D01*
G01*
X36020064Y-23874905D02*
G75*
G02*
X36080008Y-23874905I29972J0D01*
G01*
D14*
X41199924Y-24299975D02*
X41199924Y-24419863D01*
X41199924Y-25580137D02*
X41199924Y-25700025D01*
X41199924Y-25580137D02*
X41372873Y-25580137D01*
X41199924Y-25700025D02*
X43199924Y-25700025D01*
X41286462Y-24419863D02*
X41286462Y-24299975D01*
X41286462Y-25700025D02*
X41286462Y-25580137D01*
X41372873Y-24299975D02*
X41372873Y-24419863D01*
X41372873Y-24419863D02*
X41199924Y-24419863D01*
X41372873Y-25580137D02*
X41372873Y-25700025D01*
X43199924Y-24299975D02*
X41199924Y-24299975D01*
X43199924Y-25700025D02*
X43299975Y-25700000D01*
X43299975Y-24300000D02*
X43199924Y-24300000D01*
X43299975Y-24419863D02*
X43299975Y-24300000D01*
X43299975Y-25700000D02*
X43299975Y-25580137D01*
D15*
X41080036Y-25625095D02*
G75*
G02*
X41020092Y-25625095I-29972J0D01*
G01*
X41020092Y-25625095D02*
G75*
G02*
X41080036Y-25625095I29972J0D01*
G01*
D13*
X40372164Y-37640000D02*
X40587836Y-37640000D01*
X40372164Y-38360000D02*
X40587836Y-38360000D01*
X44820000Y-21356359D02*
X44820000Y-21663641D01*
X45580000Y-21356359D02*
X45580000Y-21663641D01*
X41240000Y-51687836D02*
X41240000Y-51472164D01*
X41960000Y-51687836D02*
X41960000Y-51472164D01*
D19*
X25939995Y-16525959D02*
X25939995Y-19319964D01*
X25939995Y-16525959D02*
X25939995Y-57674041D01*
X25939995Y-19319964D02*
X28480000Y-19319964D01*
X25939995Y-57674041D02*
X31020005Y-57674041D01*
X28480000Y-16525959D02*
X25939995Y-16525959D01*
X28480000Y-19319964D02*
X28480000Y-16525959D01*
X31020005Y-16525959D02*
X25939995Y-16525959D01*
X31020005Y-57674041D02*
X31020005Y-16525959D01*
D15*
X26009845Y-16580061D02*
G75*
G02*
X25949901Y-16580061I-29972J0D01*
G01*
X25949901Y-16580061D02*
G75*
G02*
X26009845Y-16580061I29972J0D01*
G01*
D19*
X36524900Y-46600256D02*
X36524900Y-44399544D01*
X37681034Y-43979910D02*
X37968740Y-43979910D01*
X37681034Y-47029897D02*
X37968740Y-47029897D01*
X39124900Y-44399494D02*
X39124900Y-46600281D01*
D15*
X36554948Y-47250014D02*
G75*
G02*
X36495004Y-47250014I-29972J0D01*
G01*
X36495004Y-47250014D02*
G75*
G02*
X36554948Y-47250014I29972J0D01*
G01*
D19*
X37111971Y-47789765D02*
G75*
G02*
X36857971Y-47789765I-127000J0D01*
G01*
X36857971Y-47789765D02*
G75*
G02*
X37111971Y-47789765I127000J0D01*
G01*
X38675091Y-45499951D02*
G75*
G02*
X36974811Y-45499951I-850140J0D01*
G01*
X36974811Y-45499951D02*
G75*
G02*
X38675091Y-45499951I850140J0D01*
G01*
D13*
X46620000Y-21356359D02*
X46620000Y-21663641D01*
X47380000Y-21356359D02*
X47380000Y-21663641D01*
%LPC*%
D22*
X48500000Y-47170000D03*
X47540000Y-47170000D03*
X47540000Y-45200000D03*
X48500000Y-45200000D03*
D23*
X42170000Y-56180000D03*
X42170000Y-55220000D03*
X40200000Y-56180000D03*
X40200000Y-55220000D03*
X38230000Y-56180000D03*
X38230000Y-55220000D03*
X36260000Y-56180000D03*
X36260000Y-55220000D03*
D24*
X45597500Y-33672500D03*
X45597500Y-33272500D03*
X45597500Y-32872500D03*
X45597500Y-32472500D03*
X45597500Y-32072500D03*
X45597500Y-31672500D03*
X45597500Y-31272500D03*
X45597500Y-30872500D03*
X45597500Y-30472500D03*
X45597500Y-30072500D03*
X45597500Y-29672500D03*
X45597500Y-29272500D03*
X45597500Y-28872500D03*
X45597500Y-28472500D03*
D25*
X44760000Y-27635000D03*
X44360000Y-27635000D03*
X43960000Y-27635000D03*
X43560000Y-27635000D03*
X43160000Y-27635000D03*
X42760000Y-27635000D03*
X42360000Y-27635000D03*
X41960000Y-27635000D03*
X41560000Y-27635000D03*
X41160000Y-27635000D03*
X40760000Y-27635000D03*
X40360000Y-27635000D03*
X39960000Y-27635000D03*
X39560000Y-27635000D03*
D24*
X38722500Y-28472500D03*
X38722500Y-28872500D03*
X38722500Y-29272500D03*
X38722500Y-29672500D03*
X38722500Y-30072500D03*
X38722500Y-30472500D03*
X38722500Y-30872500D03*
X38722500Y-31272500D03*
X38722500Y-31672500D03*
X38722500Y-32072500D03*
X38722500Y-32472500D03*
X38722500Y-32872500D03*
X38722500Y-33272500D03*
X38722500Y-33672500D03*
D25*
X39560000Y-34510000D03*
X39960000Y-34510000D03*
X40360000Y-34510000D03*
X40760000Y-34510000D03*
X41160000Y-34510000D03*
X41560000Y-34510000D03*
X41960000Y-34510000D03*
X42360000Y-34510000D03*
X42760000Y-34510000D03*
X43160000Y-34510000D03*
X43560000Y-34510000D03*
X43960000Y-34510000D03*
X44360000Y-34510000D03*
X44760000Y-34510000D03*
D26*
X42160000Y-31072500D03*
D22*
X46000000Y-39500000D03*
X46960000Y-39500000D03*
D27*
X39999898Y-25000000D03*
X37600102Y-25000000D03*
D28*
X48749968Y-32177600D03*
D29*
X47500032Y-33676457D03*
D28*
X48749968Y-35177600D03*
D30*
X49100000Y-19700000D03*
X48140000Y-19700000D03*
D31*
X35450000Y-35840000D03*
X35450000Y-36800000D03*
D22*
X43400000Y-19700000D03*
X44360000Y-19700000D03*
D32*
X38000000Y-42600000D03*
X36980000Y-42600000D03*
D33*
X39700000Y-42600000D03*
X40720000Y-42600000D03*
D34*
X32499996Y-33499999D03*
X33769999Y-33499999D03*
X35040001Y-33499999D03*
X36310004Y-33499999D03*
X36310004Y-28135001D03*
X35040001Y-28135001D03*
X33769999Y-28135001D03*
X32499996Y-28135001D03*
D35*
X37430000Y-35830000D03*
X37430000Y-36850000D03*
D36*
X40989918Y-21305004D03*
X35209882Y-21305258D03*
D37*
X42419941Y-21805131D03*
X33779859Y-21805131D03*
D38*
X33779859Y-17625044D03*
X42419941Y-17625044D03*
D39*
X41300052Y-22375108D03*
X40499951Y-22375108D03*
D40*
X39350091Y-22375108D03*
X38350091Y-22375108D03*
X37849964Y-22375108D03*
X36849964Y-22375108D03*
D39*
X34900002Y-22375108D03*
X35700103Y-22375108D03*
D40*
X36350091Y-22375108D03*
X37350091Y-22375108D03*
X38849964Y-22375108D03*
X39849964Y-22375108D03*
D41*
X43524165Y-37999951D03*
X43524165Y-39276049D03*
X44500035Y-39276049D03*
X44500035Y-37999951D03*
D42*
X38649943Y-48900000D03*
X38649943Y-52099898D03*
X36999956Y-48900000D03*
X36999956Y-52099898D03*
D22*
X37640000Y-38000000D03*
X38600000Y-38000000D03*
X46770000Y-27810000D03*
X47730000Y-27810000D03*
X32840000Y-41600000D03*
X33800000Y-41600000D03*
D43*
X32600000Y-36720000D03*
X32600000Y-35700000D03*
D44*
X49175235Y-17825121D03*
D45*
X49175235Y-17174879D03*
D46*
X48225019Y-17174879D03*
D47*
X48224765Y-17825121D03*
D48*
X48700000Y-17500000D03*
D22*
X32840000Y-40000000D03*
X33800000Y-40000000D03*
D27*
X35999998Y-24500000D03*
X33600202Y-24500000D03*
X41100102Y-25000000D03*
X43499898Y-25000000D03*
D22*
X40000000Y-38000000D03*
X40960000Y-38000000D03*
D35*
X45200000Y-21000000D03*
X45200000Y-22020000D03*
D23*
X41600000Y-52060000D03*
X41600000Y-51100000D03*
D49*
X27209997Y-18049962D03*
D50*
X29750003Y-18049962D03*
X27209997Y-20589967D03*
X29750003Y-20589967D03*
X27209997Y-23129972D03*
X29750003Y-23129972D03*
X27209997Y-25669977D03*
X29750003Y-25669977D03*
X27209997Y-28209982D03*
X29750003Y-28209982D03*
X27209997Y-30749987D03*
X29750003Y-30749987D03*
X27209997Y-33289992D03*
X29750003Y-33289992D03*
X27209997Y-35829997D03*
X29750003Y-35829997D03*
X27209997Y-38370003D03*
X29750003Y-38370003D03*
X27209997Y-40910008D03*
X29750003Y-40910008D03*
X27209997Y-43450013D03*
X29750003Y-43450013D03*
X27209997Y-45990018D03*
X29750003Y-45990018D03*
X27209997Y-48530023D03*
X29750003Y-48530023D03*
X27209997Y-51070028D03*
X29750003Y-51070028D03*
X27209997Y-53610033D03*
X29750003Y-53610033D03*
X27209997Y-56150038D03*
X29750003Y-56150038D03*
D42*
X36999957Y-47099900D03*
X36999957Y-43900002D03*
X38649944Y-47099900D03*
X38649944Y-43900002D03*
D35*
X47000000Y-21000000D03*
X47000000Y-22020000D03*
%LPD*%
M02*
