G04 #@! TF.GenerationSoftware,KiCad,Pcbnew,8.0.1*
G04 #@! TF.CreationDate,2024-04-26T14:46:18-05:00*
G04 #@! TF.ProjectId,Final Projeco,46696e61-6c20-4507-926f-6a65636f2e6b,rev?*
G04 #@! TF.SameCoordinates,Original*
G04 #@! TF.FileFunction,Copper,L4,Inr*
G04 #@! TF.FilePolarity,Positive*
%FSLAX46Y46*%
G04 Gerber Fmt 4.6, Leading zero omitted, Abs format (unit mm)*
G04 Created by KiCad (PCBNEW 8.0.1) date 2024-04-26 14:46:18*
%MOMM*%
%LPD*%
G01*
G04 APERTURE LIST*
G04 #@! TA.AperFunction,ComponentPad*
%ADD10O,1.000000X1.900000*%
G04 #@! TD*
G04 #@! TA.AperFunction,ComponentPad*
%ADD11O,1.000000X1.600000*%
G04 #@! TD*
G04 #@! TA.AperFunction,ComponentPad*
%ADD12R,1.600000X1.600000*%
G04 #@! TD*
G04 #@! TA.AperFunction,ComponentPad*
%ADD13C,1.600000*%
G04 #@! TD*
G04 #@! TA.AperFunction,ViaPad*
%ADD14C,0.560000*%
G04 #@! TD*
G04 #@! TA.AperFunction,Conductor*
%ADD15C,0.090000*%
G04 #@! TD*
G04 #@! TA.AperFunction,Conductor*
%ADD16C,0.119400*%
G04 #@! TD*
G04 #@! TA.AperFunction,Conductor*
%ADD17C,0.150000*%
G04 #@! TD*
G04 APERTURE END LIST*
D10*
X42419941Y-21805131D03*
X33779859Y-21805131D03*
D11*
X33779859Y-17625044D03*
X42419941Y-17625044D03*
D12*
X27209997Y-18049962D03*
D13*
X29750003Y-18049962D03*
X27209997Y-20589967D03*
X29750003Y-20589967D03*
X27209997Y-23129972D03*
X29750003Y-23129972D03*
X27209997Y-25669977D03*
X29750003Y-25669977D03*
X27209997Y-28209982D03*
X29750003Y-28209982D03*
X27209997Y-30749987D03*
X29750003Y-30749987D03*
X27209997Y-33289992D03*
X29750003Y-33289992D03*
X27209997Y-35829997D03*
X29750003Y-35829997D03*
X27209997Y-38370003D03*
X29750003Y-38370003D03*
X27209997Y-40910008D03*
X29750003Y-40910008D03*
X27209997Y-43450013D03*
X29750003Y-43450013D03*
X27209997Y-45990018D03*
X29750003Y-45990018D03*
X27209997Y-48530023D03*
X29750003Y-48530023D03*
X27209997Y-51070028D03*
X29750003Y-51070028D03*
X27209997Y-53610033D03*
X29750003Y-53610033D03*
X27209997Y-56150038D03*
X29750003Y-56150038D03*
D14*
X49500000Y-47000000D03*
X49500000Y-45000000D03*
X46500000Y-47000000D03*
X46500000Y-45000000D03*
X40000000Y-57000000D03*
X42000000Y-57000000D03*
X42000000Y-54500000D03*
X40000000Y-54500000D03*
X38060000Y-56940000D03*
X36020000Y-56940000D03*
X36100000Y-54610000D03*
X38140000Y-54540000D03*
X39300000Y-38800000D03*
X44400000Y-25000000D03*
X45200000Y-19700000D03*
X47100000Y-38600000D03*
X41900000Y-40000000D03*
X46200000Y-22020000D03*
X32870000Y-24500000D03*
X39500000Y-47400000D03*
X49900000Y-17200000D03*
X48630000Y-28010000D03*
X37050000Y-23870000D03*
X35730000Y-34820000D03*
X36570000Y-36850000D03*
X42000000Y-23300000D03*
X47840000Y-18790000D03*
X48700000Y-31100000D03*
X34000000Y-42500000D03*
X48700000Y-36300000D03*
X44063800Y-36500000D03*
X41800000Y-50200000D03*
X38900000Y-42000000D03*
X50000000Y-19300000D03*
X46950000Y-36050000D03*
X43840000Y-26110000D03*
X46700000Y-32600000D03*
X49800000Y-18500000D03*
X37700000Y-27140000D03*
X40200000Y-36600000D03*
X48430000Y-22910000D03*
X50220000Y-26240000D03*
X47970000Y-22200000D03*
X49910000Y-25100000D03*
X49670000Y-30980000D03*
X38330000Y-37120000D03*
X38350100Y-23250100D03*
X39500100Y-23400000D03*
X38881400Y-27642300D03*
X33621800Y-31918200D03*
X34555000Y-45855000D03*
X46447700Y-28981100D03*
X47730000Y-25000000D03*
X48260000Y-24290000D03*
X36320000Y-26530000D03*
X37750000Y-31117600D03*
X32320000Y-37620000D03*
X31620000Y-28440000D03*
X31433800Y-38481600D03*
X49020000Y-28650000D03*
X32110000Y-42600000D03*
X47396700Y-29303000D03*
X41470000Y-35600000D03*
X31130900Y-37820600D03*
X39910000Y-35450000D03*
X36420000Y-40670000D03*
X46190000Y-26350000D03*
X31440000Y-34890000D03*
X41460000Y-26310000D03*
X43760000Y-23290000D03*
X47650000Y-25950000D03*
X33250000Y-47000000D03*
X46910000Y-26810000D03*
X38440000Y-36230000D03*
X37348800Y-31948800D03*
X28440000Y-34870000D03*
X40070000Y-48560000D03*
X41420000Y-47930000D03*
X42310000Y-37300000D03*
X34320000Y-46860000D03*
X37580000Y-29370000D03*
X34530000Y-34980000D03*
X48002700Y-26954100D03*
X41291300Y-24081700D03*
X26510000Y-24430000D03*
X37100000Y-32940000D03*
X42540000Y-24740000D03*
X33680000Y-25740000D03*
X42730000Y-26330000D03*
X37810000Y-34920000D03*
X36975000Y-34975000D03*
X32520000Y-47910000D03*
X33820000Y-52560000D03*
X38994900Y-35560000D03*
X33880000Y-54150000D03*
X37885000Y-34100000D03*
D15*
X32895000Y-47465000D02*
X32120000Y-46690000D01*
X32120000Y-42610000D02*
X32110000Y-42600000D01*
X36895000Y-47465000D02*
X32895000Y-47465000D01*
X37885000Y-46475000D02*
X36895000Y-47465000D01*
X41140000Y-46389326D02*
X41054326Y-46475000D01*
X41140000Y-45960000D02*
X41140000Y-46389326D01*
X43618800Y-43481200D02*
X41140000Y-45960000D01*
X43618800Y-33958900D02*
X43618800Y-43481200D01*
X48927700Y-28650000D02*
X43618800Y-33958900D01*
X41054326Y-46475000D02*
X37885000Y-46475000D01*
X49020000Y-28650000D02*
X48927700Y-28650000D01*
X32120000Y-46690000D02*
X32120000Y-42610000D01*
X28460000Y-24420000D02*
X27210000Y-25670000D01*
X31300000Y-24420000D02*
X28460000Y-24420000D01*
X31990000Y-25110000D02*
X31300000Y-24420000D01*
X33341300Y-24868700D02*
X33100000Y-25110000D01*
X41268700Y-24868700D02*
X33341300Y-24868700D01*
X33100000Y-25110000D02*
X31990000Y-25110000D01*
X42730000Y-26330000D02*
X41268700Y-24868700D01*
X26530000Y-24410000D02*
X26510000Y-24430000D01*
X27340000Y-24410000D02*
X26530000Y-24410000D01*
X31843900Y-23798900D02*
X31477500Y-24165300D01*
X31477500Y-24165300D02*
X27584700Y-24165300D01*
X27584700Y-24165300D02*
X27340000Y-24410000D01*
X33160900Y-23798900D02*
X31843900Y-23798900D01*
X40920000Y-24410000D02*
X33772000Y-24410000D01*
X41016800Y-24313200D02*
X40920000Y-24410000D01*
X41059800Y-24313200D02*
X41016800Y-24313200D01*
X41291300Y-24081700D02*
X41059800Y-24313200D01*
X33772000Y-24410000D02*
X33160900Y-23798900D01*
D16*
X39350200Y-23250100D02*
X39500100Y-23400000D01*
X38350100Y-23250100D02*
X39350200Y-23250100D01*
D15*
X47730000Y-25000000D02*
X46980000Y-24250000D01*
X26475000Y-16545000D02*
X26045000Y-16975000D01*
X46980000Y-16940000D02*
X46585000Y-16545000D01*
X46980000Y-24250000D02*
X46980000Y-16940000D01*
X26045000Y-19424970D02*
X27209997Y-20589967D01*
X46585000Y-16545000D02*
X26475000Y-16545000D01*
X26045000Y-16975000D02*
X26045000Y-19424970D01*
D17*
X36320000Y-29687600D02*
X36320000Y-26530000D01*
X37750000Y-31117600D02*
X36320000Y-29687600D01*
D15*
X32480000Y-29300000D02*
X32480000Y-37460000D01*
X31620000Y-28440000D02*
X32480000Y-29300000D01*
X32480000Y-37460000D02*
X32320000Y-37620000D01*
X28340000Y-37240000D02*
X27210000Y-38370000D01*
X41510000Y-35640000D02*
X41470000Y-35600000D01*
X30550300Y-37240000D02*
X28340000Y-37240000D01*
X41510000Y-39160000D02*
X41510000Y-35640000D01*
X36420000Y-40670000D02*
X40000000Y-40670000D01*
X31130900Y-37820600D02*
X30550300Y-37240000D01*
X40000000Y-40670000D02*
X41510000Y-39160000D01*
X40230000Y-25080000D02*
X41460000Y-26310000D01*
X33420000Y-25080000D02*
X40230000Y-25080000D01*
X31440000Y-34890000D02*
X31175000Y-34625000D01*
X31175000Y-34625000D02*
X31175000Y-27325000D01*
X31175000Y-27325000D02*
X33420000Y-25080000D01*
X47650000Y-25950000D02*
X47235000Y-25535000D01*
X41357078Y-19380100D02*
X28540100Y-19380100D01*
X43064941Y-21087963D02*
X41357078Y-19380100D01*
X47235000Y-25475000D02*
X43064941Y-21304941D01*
X43064941Y-21304941D02*
X43064941Y-21087963D01*
X47235000Y-25535000D02*
X47235000Y-25475000D01*
X28540100Y-19380100D02*
X27210000Y-18050000D01*
X46910000Y-29169300D02*
X46910000Y-26810000D01*
X35169300Y-40910000D02*
X46910000Y-29169300D01*
X33250000Y-45850000D02*
X35169300Y-43930700D01*
X35169300Y-43930700D02*
X35169300Y-40910000D01*
X33250000Y-47000000D02*
X33250000Y-45850000D01*
D17*
X38440000Y-33040000D02*
X38440000Y-36230000D01*
X37348800Y-31948800D02*
X38440000Y-33040000D01*
D15*
X26690000Y-21930000D02*
X28550031Y-21930000D01*
X26065000Y-22555000D02*
X26690000Y-21930000D01*
X28440000Y-34870000D02*
X28260000Y-34690000D01*
X26680000Y-34690000D02*
X26065000Y-34075000D01*
X28550031Y-21930000D02*
X29750003Y-23129972D01*
X26065000Y-34075000D02*
X26065000Y-22555000D01*
X28260000Y-34690000D02*
X26680000Y-34690000D01*
X42070650Y-44760650D02*
X40546300Y-46285000D01*
X34895000Y-46285000D02*
X34320000Y-46860000D01*
X42345000Y-37335000D02*
X42345000Y-39305000D01*
X38860000Y-46285000D02*
X34895000Y-46285000D01*
X42820000Y-44011300D02*
X42070650Y-44760650D01*
X40546300Y-46285000D02*
X38860000Y-46285000D01*
X42310000Y-37300000D02*
X42345000Y-37335000D01*
X42345000Y-39305000D02*
X42820000Y-39780000D01*
X42820000Y-39780000D02*
X42820000Y-44011300D01*
X34150000Y-54820000D02*
X33490000Y-54820000D01*
X39470000Y-48370000D02*
X39470000Y-49500000D01*
X49143500Y-27890674D02*
X49545600Y-28292774D01*
X30950000Y-47190015D02*
X29750003Y-45990018D01*
X33490000Y-54820000D02*
X30950000Y-52280000D01*
X49145000Y-38695000D02*
X39470000Y-48370000D01*
X48203426Y-26954100D02*
X49140000Y-27890674D01*
X49145000Y-30555000D02*
X49145000Y-38695000D01*
X49140000Y-27890674D02*
X49143500Y-27890674D01*
X48002700Y-26954100D02*
X48203426Y-26954100D01*
X39470000Y-49500000D02*
X34150000Y-54820000D01*
X30950000Y-52280000D02*
X30950000Y-47190015D01*
X49545600Y-30154400D02*
X49145000Y-30555000D01*
X49545600Y-28292774D02*
X49545600Y-30154400D01*
X36975000Y-34975000D02*
X31575000Y-40375000D01*
X31430000Y-46460000D02*
X31430000Y-47440000D01*
X31575000Y-46315000D02*
X31430000Y-46460000D01*
X31430000Y-47440000D02*
X31900000Y-47910000D01*
X31900000Y-47910000D02*
X32520000Y-47910000D01*
X31575000Y-40375000D02*
X31575000Y-46315000D01*
X36850700Y-34470000D02*
X31140000Y-40180700D01*
X37885000Y-34100000D02*
X37515000Y-34470000D01*
X31140000Y-51410000D02*
X33880000Y-54150000D01*
X31140000Y-40180700D02*
X31140000Y-51410000D01*
X37515000Y-34470000D02*
X36850700Y-34470000D01*
M02*
