M48
; DRILL file {KiCad 8.0.1} date 2024-04-26T14:46:34-0500
; FORMAT={-:-/ absolute / metric / decimal}
; #@! TF.CreationDate,2024-04-26T14:46:34-05:00
; #@! TF.GenerationSoftware,Kicad,Pcbnew,8.0.1
; #@! TF.FileFunction,Plated,1,6,PTH
FMAT,2
METRIC
; #@! TA.AperFunction,Plated,PTH,ViaDrill
T1C0.300
; #@! TA.AperFunction,Plated,PTH,ComponentDrill
T2C0.600
; #@! TA.AperFunction,Plated,PTH,ComponentDrill
T3C1.000
%
G90
G05
T1
X26.51Y-24.43
X28.44Y-34.87
X31.131Y-37.821
X31.434Y-38.482
X31.44Y-34.89
X31.62Y-28.44
X32.11Y-42.6
X32.32Y-37.62
X32.52Y-47.91
X32.87Y-24.5
X33.25Y-47.0
X33.622Y-31.918
X33.68Y-25.74
X33.82Y-52.56
X33.88Y-54.15
X34.0Y-42.5
X34.32Y-46.86
X34.53Y-34.98
X34.555Y-45.855
X35.73Y-34.82
X36.02Y-56.94
X36.1Y-54.61
X36.32Y-26.53
X36.42Y-40.67
X36.57Y-36.85
X36.975Y-34.975
X37.05Y-23.87
X37.1Y-32.94
X37.349Y-31.949
X37.58Y-29.37
X37.7Y-27.14
X37.75Y-31.118
X37.81Y-34.92
X37.885Y-34.1
X38.06Y-56.94
X38.14Y-54.54
X38.33Y-37.12
X38.35Y-23.25
X38.44Y-36.23
X38.881Y-27.642
X38.9Y-42.0
X38.995Y-35.56
X39.3Y-38.8
X39.5Y-47.4
X39.5Y-23.4
X39.91Y-35.45
X40.0Y-54.5
X40.0Y-57.0
X40.07Y-48.56
X40.2Y-36.6
X41.291Y-24.082
X41.42Y-47.93
X41.46Y-26.31
X41.47Y-35.6
X41.8Y-50.2
X41.9Y-40.0
X42.0Y-23.3
X42.0Y-54.5
X42.0Y-57.0
X42.31Y-37.3
X42.54Y-24.74
X42.73Y-26.33
X43.76Y-23.29
X43.84Y-26.11
X44.064Y-36.5
X44.4Y-25.0
X45.2Y-19.7
X46.19Y-26.35
X46.2Y-22.02
X46.448Y-28.981
X46.5Y-45.0
X46.5Y-47.0
X46.7Y-32.6
X46.91Y-26.81
X46.95Y-36.05
X47.1Y-38.6
X47.397Y-29.303
X47.65Y-25.95
X47.73Y-25.0
X47.84Y-18.79
X47.97Y-22.2
X48.003Y-26.954
X48.26Y-24.29
X48.43Y-22.91
X48.63Y-28.01
X48.7Y-31.1
X48.7Y-36.3
X49.02Y-28.65
X49.5Y-45.0
X49.5Y-47.0
X49.67Y-30.98
X49.8Y-18.5
X49.9Y-17.2
X49.91Y-25.1
X50.0Y-19.3
X50.22Y-26.24
T3
X27.21Y-18.05
X27.21Y-20.59
X27.21Y-23.13
X27.21Y-25.67
X27.21Y-28.21
X27.21Y-30.75
X27.21Y-33.29
X27.21Y-35.83
X27.21Y-38.37
X27.21Y-40.91
X27.21Y-43.45
X27.21Y-45.99
X27.21Y-48.53
X27.21Y-51.07
X27.21Y-53.61
X27.21Y-56.15
X29.75Y-18.05
X29.75Y-20.59
X29.75Y-23.13
X29.75Y-25.67
X29.75Y-28.21
X29.75Y-30.75
X29.75Y-33.29
X29.75Y-35.83
X29.75Y-38.37
X29.75Y-40.91
X29.75Y-43.45
X29.75Y-45.99
X29.75Y-48.53
X29.75Y-51.07
X29.75Y-53.61
X29.75Y-56.15
T2
G00X33.78Y-17.925
M15
G01X33.78Y-17.325
M16
G05
G00X33.78Y-22.255
M15
G01X33.78Y-21.355
M16
G05
G00X42.42Y-17.925
M15
G01X42.42Y-17.325
M16
G05
G00X42.42Y-22.255
M15
G01X42.42Y-21.355
M16
G05
M30
