G04 #@! TF.GenerationSoftware,KiCad,Pcbnew,8.0.1*
G04 #@! TF.CreationDate,2024-04-26T00:14:55-05:00*
G04 #@! TF.ProjectId,Final Projeco,46696e61-6c20-4507-926f-6a65636f2e6b,rev?*
G04 #@! TF.SameCoordinates,Original*
G04 #@! TF.FileFunction,Copper,L5,Inr*
G04 #@! TF.FilePolarity,Positive*
%FSLAX46Y46*%
G04 Gerber Fmt 4.6, Leading zero omitted, Abs format (unit mm)*
G04 Created by KiCad (PCBNEW 8.0.1) date 2024-04-26 00:14:55*
%MOMM*%
%LPD*%
G01*
G04 APERTURE LIST*
G04 #@! TA.AperFunction,ComponentPad*
%ADD10O,1.000000X1.900000*%
G04 #@! TD*
G04 #@! TA.AperFunction,ComponentPad*
%ADD11O,1.000000X1.600000*%
G04 #@! TD*
G04 #@! TA.AperFunction,ComponentPad*
%ADD12R,1.600000X1.600000*%
G04 #@! TD*
G04 #@! TA.AperFunction,ComponentPad*
%ADD13C,1.600000*%
G04 #@! TD*
G04 #@! TA.AperFunction,ViaPad*
%ADD14C,0.560000*%
G04 #@! TD*
G04 #@! TA.AperFunction,Conductor*
%ADD15C,0.090000*%
G04 #@! TD*
G04 #@! TA.AperFunction,Conductor*
%ADD16C,0.150000*%
G04 #@! TD*
G04 APERTURE END LIST*
D10*
X42419941Y-21805131D03*
X33779859Y-21805131D03*
D11*
X33779859Y-17625044D03*
X42419941Y-17625044D03*
D12*
X27209997Y-18049962D03*
D13*
X29750003Y-18049962D03*
X27209997Y-20589967D03*
X29750003Y-20589967D03*
X27209997Y-23129972D03*
X29750003Y-23129972D03*
X27209997Y-25669977D03*
X29750003Y-25669977D03*
X27209997Y-28209982D03*
X29750003Y-28209982D03*
X27209997Y-30749987D03*
X29750003Y-30749987D03*
X27209997Y-33289992D03*
X29750003Y-33289992D03*
X27209997Y-35829997D03*
X29750003Y-35829997D03*
X27209997Y-38370003D03*
X29750003Y-38370003D03*
X27209997Y-40910008D03*
X29750003Y-40910008D03*
X27209997Y-43450013D03*
X29750003Y-43450013D03*
X27209997Y-45990018D03*
X29750003Y-45990018D03*
X27209997Y-48530023D03*
X29750003Y-48530023D03*
X27209997Y-51070028D03*
X29750003Y-51070028D03*
X27209997Y-53610033D03*
X29750003Y-53610033D03*
X27209997Y-56150038D03*
X29750003Y-56150038D03*
D14*
X39300000Y-38800000D03*
X44400000Y-25000000D03*
X45200000Y-19700000D03*
X47100000Y-38600000D03*
X41900000Y-40000000D03*
X46200000Y-22020000D03*
X32870000Y-24500000D03*
X39500000Y-47400000D03*
X49900000Y-17200000D03*
X48630000Y-28010000D03*
X37050000Y-23870000D03*
X35730000Y-34820000D03*
X36570000Y-36850000D03*
X42000000Y-23300000D03*
X47840000Y-18790000D03*
X48700000Y-31100000D03*
X34000000Y-42500000D03*
X48700000Y-36300000D03*
X44063800Y-36500000D03*
X41800000Y-50200000D03*
X38900000Y-42000000D03*
X50000000Y-19300000D03*
X46950000Y-36050000D03*
X43840000Y-26110000D03*
X46700000Y-32600000D03*
X49800000Y-18500000D03*
X37700000Y-27140000D03*
X40200000Y-36600000D03*
X48430000Y-22910000D03*
X50220000Y-26240000D03*
X47970000Y-22200000D03*
X49910000Y-25100000D03*
X49670000Y-30980000D03*
X38330000Y-37120000D03*
X38350100Y-23250100D03*
X39500100Y-23400000D03*
X38881400Y-27642300D03*
X33621800Y-31918200D03*
X34555000Y-45855000D03*
X46447700Y-28981100D03*
X47730000Y-25000000D03*
X48260000Y-24290000D03*
X36320000Y-26530000D03*
X37750000Y-31117600D03*
X32320000Y-37620000D03*
X31620000Y-28440000D03*
X31433800Y-38481600D03*
X49100600Y-28477100D03*
X32110000Y-42600000D03*
X47396700Y-29303000D03*
X41470000Y-35600000D03*
X31130900Y-37820600D03*
X39910000Y-35450000D03*
X36420000Y-40670000D03*
X46190000Y-26350000D03*
X31440000Y-34890000D03*
X41460000Y-26310000D03*
X43760000Y-23290000D03*
X47650000Y-25950000D03*
X33250000Y-47000000D03*
X46910000Y-26810000D03*
X38440000Y-36230000D03*
X37348800Y-31948800D03*
X28440000Y-34870000D03*
X40070000Y-48560000D03*
X41420000Y-47930000D03*
X42310000Y-37300000D03*
X34320000Y-46860000D03*
X37580000Y-29370000D03*
X34530000Y-34980000D03*
X48002700Y-26954100D03*
X41291300Y-24081700D03*
X26510000Y-24430000D03*
X37100000Y-32940000D03*
X42089800Y-24511200D03*
X33680000Y-25740000D03*
X42516500Y-26346100D03*
X37810000Y-34920000D03*
X36975000Y-34975000D03*
X32520000Y-47910000D03*
X33820000Y-52560000D03*
X38994900Y-35560000D03*
X33880000Y-54150000D03*
X37885000Y-34100000D03*
D15*
X43395000Y-25925674D02*
X43395000Y-26294326D01*
X34384995Y-28655000D02*
X29750003Y-33289992D01*
X48234326Y-23365000D02*
X46833474Y-23365000D01*
X41034326Y-28655000D02*
X34384995Y-28655000D01*
X48430000Y-22910000D02*
X48430000Y-23169326D01*
X44533474Y-25665000D02*
X43655674Y-25665000D01*
X48430000Y-23169326D02*
X48234326Y-23365000D01*
X46833474Y-23365000D02*
X44533474Y-25665000D01*
X43395000Y-26294326D02*
X41034326Y-28655000D01*
X43655674Y-25665000D02*
X43395000Y-25925674D01*
X50455000Y-22335000D02*
X47030000Y-18910000D01*
X32110000Y-21844122D02*
X31730000Y-22224122D01*
X50220000Y-26240000D02*
X50455000Y-26005000D01*
X31730000Y-22224122D02*
X31730000Y-23689980D01*
X32110000Y-21760000D02*
X32110000Y-21844122D01*
X47030000Y-18910000D02*
X34960000Y-18910000D01*
X31730000Y-23689980D02*
X29750003Y-25669977D01*
X34960000Y-18910000D02*
X32110000Y-21760000D01*
X50455000Y-26005000D02*
X50455000Y-22335000D01*
X42071500Y-25971174D02*
X42071500Y-27349126D01*
X46995000Y-23175000D02*
X44867674Y-23175000D01*
X44867674Y-23175000D02*
X42071500Y-25971174D01*
X42071500Y-27349126D02*
X40955626Y-28465000D01*
X32021308Y-30749987D02*
X29750003Y-30749987D01*
X47970000Y-22200000D02*
X46995000Y-23175000D01*
X34306295Y-28465000D02*
X32021308Y-30749987D01*
X40955626Y-28465000D02*
X34306295Y-28465000D01*
X31920000Y-26039985D02*
X29750003Y-28209982D01*
X31920000Y-22302822D02*
X31920000Y-26039985D01*
X49910000Y-22200000D02*
X46810000Y-19100000D01*
X35122822Y-19100000D02*
X31920000Y-22302822D01*
X49910000Y-25100000D02*
X49910000Y-22200000D01*
X46810000Y-19100000D02*
X35122822Y-19100000D01*
X40250000Y-38410000D02*
X38960000Y-37120000D01*
X38960000Y-37120000D02*
X38330000Y-37120000D01*
X49670000Y-30980000D02*
X49670000Y-31680000D01*
X42940000Y-38410000D02*
X40250000Y-38410000D01*
X49670000Y-31680000D02*
X42940000Y-38410000D01*
X37355200Y-36034900D02*
X45520000Y-27870100D01*
X45520000Y-27870100D02*
X45520000Y-26130000D01*
X47440000Y-26630000D02*
X47440000Y-27988800D01*
X45980000Y-25670000D02*
X46480000Y-25670000D01*
X46480000Y-25670000D02*
X47440000Y-26630000D01*
X34555000Y-45855000D02*
X37355200Y-43054800D01*
X45520000Y-26130000D02*
X45980000Y-25670000D01*
X37355200Y-43054800D02*
X37355200Y-36034900D01*
X47440000Y-27988800D02*
X46447700Y-28981100D01*
X37797463Y-28845000D02*
X35915000Y-28845000D01*
X39332463Y-30380000D02*
X37797463Y-28845000D01*
X47260000Y-24290000D02*
X46670000Y-24880000D01*
X35915000Y-28845000D02*
X29750003Y-35009997D01*
X29750003Y-35009997D02*
X29750003Y-35829997D01*
X44285000Y-26425000D02*
X40330000Y-30380000D01*
X45587174Y-24880000D02*
X44285000Y-26182174D01*
X44285000Y-26182174D02*
X44285000Y-26425000D01*
X40330000Y-30380000D02*
X39332463Y-30380000D01*
X48260000Y-24290000D02*
X47260000Y-24290000D01*
X46670000Y-24880000D02*
X45587174Y-24880000D01*
X50115000Y-31503700D02*
X43018700Y-38600000D01*
X34160000Y-53260000D02*
X33350000Y-53260000D01*
X26120000Y-51640000D02*
X26120000Y-50510000D01*
X47396700Y-29303000D02*
X48622326Y-29303000D01*
X38075000Y-49345000D02*
X34160000Y-53260000D01*
X28251435Y-49050000D02*
X28251435Y-39868571D01*
X26495028Y-52015028D02*
X26120000Y-51640000D01*
X38075000Y-40696299D02*
X38075000Y-49345000D01*
X28251435Y-39868571D02*
X29750003Y-38370003D01*
X26120000Y-50510000D02*
X26950000Y-49680000D01*
X33350000Y-53260000D02*
X32105028Y-52015028D01*
X43018700Y-38600000D02*
X40171299Y-38600000D01*
X50115000Y-30795674D02*
X50115000Y-31503700D01*
X40171299Y-38600000D02*
X38075000Y-40696299D01*
X32105028Y-52015028D02*
X26495028Y-52015028D01*
X48622326Y-29303000D02*
X50115000Y-30795674D01*
X27621435Y-49680000D02*
X28251435Y-49050000D01*
X26950000Y-49680000D02*
X27621435Y-49680000D01*
X41320000Y-35450000D02*
X39910000Y-35450000D01*
X41470000Y-35600000D02*
X41320000Y-35450000D01*
X37545200Y-36113600D02*
X37545200Y-44914800D01*
X38300000Y-35370000D02*
X38288800Y-35370000D01*
X31389900Y-51070100D02*
X29750100Y-51070100D01*
X29750000Y-51070100D02*
X29750100Y-51070100D01*
X29750100Y-51070100D02*
X29750000Y-51070000D01*
X37545200Y-44914800D02*
X31389900Y-51070100D01*
X46190000Y-27480000D02*
X38300000Y-35370000D01*
X38288800Y-35370000D02*
X37545200Y-36113600D01*
X46190000Y-26350000D02*
X46190000Y-27480000D01*
X39103553Y-19410000D02*
X31120000Y-27393553D01*
X30200000Y-29480000D02*
X28930000Y-29480000D01*
X28510000Y-24429975D02*
X27209997Y-23129972D01*
X28510000Y-29060000D02*
X28510000Y-24429975D01*
X41386978Y-19410000D02*
X39103553Y-19410000D01*
X43760000Y-21783022D02*
X41386978Y-19410000D01*
X28930000Y-29480000D02*
X28510000Y-29060000D01*
X43760000Y-23290000D02*
X43760000Y-21783022D01*
X31120000Y-28560000D02*
X30200000Y-29480000D01*
X31120000Y-27393553D02*
X31120000Y-28560000D01*
X40400000Y-48070000D02*
X40070000Y-48400000D01*
X41420000Y-47930000D02*
X41280000Y-48070000D01*
X41280000Y-48070000D02*
X40400000Y-48070000D01*
X40070000Y-48400000D02*
X40070000Y-48560000D01*
D16*
X36310000Y-29370000D02*
X34530000Y-31150000D01*
X37580000Y-29370000D02*
X36310000Y-29370000D01*
X34530000Y-31150000D02*
X34530000Y-34980000D01*
D15*
X26870000Y-37040000D02*
X26045000Y-37865000D01*
X27682500Y-45517600D02*
X27210000Y-45990100D01*
X26045000Y-37865000D02*
X26045000Y-44825021D01*
X26045000Y-44825021D02*
X27209997Y-45990018D01*
X27682400Y-45517600D02*
X27210000Y-45990000D01*
X34139326Y-37040000D02*
X26870000Y-37040000D01*
X37100000Y-34079326D02*
X34139326Y-37040000D01*
X27682500Y-45517600D02*
X27682400Y-45517600D01*
X37100000Y-32940000D02*
X37100000Y-34079326D01*
X42089800Y-24511200D02*
X42074300Y-24526700D01*
X34893300Y-24526700D02*
X33680000Y-25740000D01*
X42074300Y-24526700D02*
X34893300Y-24526700D01*
X29563599Y-49920000D02*
X29463599Y-50020000D01*
X29463599Y-50020000D02*
X28260025Y-50020000D01*
X30860000Y-41870000D02*
X30860000Y-49260000D01*
X30200000Y-49920000D02*
X29563599Y-49920000D01*
X37810000Y-34920000D02*
X30860000Y-41870000D01*
X28260025Y-50020000D02*
X27209997Y-51070028D01*
X30860000Y-49260000D02*
X30200000Y-49920000D01*
X38994900Y-35560000D02*
X38367500Y-35560000D01*
X38367500Y-35560000D02*
X37885000Y-36042500D01*
X37885000Y-48495000D02*
X33820000Y-52560000D01*
X37885000Y-36042500D02*
X37885000Y-48495000D01*
M02*
