G04 #@! TF.GenerationSoftware,KiCad,Pcbnew,8.0.1*
G04 #@! TF.CreationDate,2024-04-26T14:46:18-05:00*
G04 #@! TF.ProjectId,Final Projeco,46696e61-6c20-4507-926f-6a65636f2e6b,rev?*
G04 #@! TF.SameCoordinates,Original*
G04 #@! TF.FileFunction,Copper,L3,Inr*
G04 #@! TF.FilePolarity,Positive*
%FSLAX46Y46*%
G04 Gerber Fmt 4.6, Leading zero omitted, Abs format (unit mm)*
G04 Created by KiCad (PCBNEW 8.0.1) date 2024-04-26 14:46:18*
%MOMM*%
%LPD*%
G01*
G04 APERTURE LIST*
G04 #@! TA.AperFunction,ComponentPad*
%ADD10O,1.000000X1.900000*%
G04 #@! TD*
G04 #@! TA.AperFunction,ComponentPad*
%ADD11O,1.000000X1.600000*%
G04 #@! TD*
G04 #@! TA.AperFunction,ComponentPad*
%ADD12R,1.600000X1.600000*%
G04 #@! TD*
G04 #@! TA.AperFunction,ComponentPad*
%ADD13C,1.600000*%
G04 #@! TD*
G04 #@! TA.AperFunction,ViaPad*
%ADD14C,0.560000*%
G04 #@! TD*
G04 #@! TA.AperFunction,Conductor*
%ADD15C,0.150000*%
G04 #@! TD*
G04 #@! TA.AperFunction,Conductor*
%ADD16C,0.090000*%
G04 #@! TD*
G04 APERTURE END LIST*
D10*
X42419941Y-21805131D03*
X33779859Y-21805131D03*
D11*
X33779859Y-17625044D03*
X42419941Y-17625044D03*
D12*
X27209997Y-18049962D03*
D13*
X29750003Y-18049962D03*
X27209997Y-20589967D03*
X29750003Y-20589967D03*
X27209997Y-23129972D03*
X29750003Y-23129972D03*
X27209997Y-25669977D03*
X29750003Y-25669977D03*
X27209997Y-28209982D03*
X29750003Y-28209982D03*
X27209997Y-30749987D03*
X29750003Y-30749987D03*
X27209997Y-33289992D03*
X29750003Y-33289992D03*
X27209997Y-35829997D03*
X29750003Y-35829997D03*
X27209997Y-38370003D03*
X29750003Y-38370003D03*
X27209997Y-40910008D03*
X29750003Y-40910008D03*
X27209997Y-43450013D03*
X29750003Y-43450013D03*
X27209997Y-45990018D03*
X29750003Y-45990018D03*
X27209997Y-48530023D03*
X29750003Y-48530023D03*
X27209997Y-51070028D03*
X29750003Y-51070028D03*
X27209997Y-53610033D03*
X29750003Y-53610033D03*
X27209997Y-56150038D03*
X29750003Y-56150038D03*
D14*
X49500000Y-47000000D03*
X49500000Y-45000000D03*
X46500000Y-47000000D03*
X46500000Y-45000000D03*
X40000000Y-57000000D03*
X42000000Y-57000000D03*
X42000000Y-54500000D03*
X40000000Y-54500000D03*
X38060000Y-56940000D03*
X36020000Y-56940000D03*
X36100000Y-54610000D03*
X38140000Y-54540000D03*
X39300000Y-38800000D03*
X44400000Y-25000000D03*
X45200000Y-19700000D03*
X47100000Y-38600000D03*
X41900000Y-40000000D03*
X46200000Y-22020000D03*
X32870000Y-24500000D03*
X39500000Y-47400000D03*
X49900000Y-17200000D03*
X48630000Y-28010000D03*
X37050000Y-23870000D03*
X35730000Y-34820000D03*
X36570000Y-36850000D03*
X42000000Y-23300000D03*
X47840000Y-18790000D03*
X48700000Y-31100000D03*
X34000000Y-42500000D03*
X48700000Y-36300000D03*
X44063800Y-36500000D03*
X41800000Y-50200000D03*
X38900000Y-42000000D03*
X50000000Y-19300000D03*
X46950000Y-36050000D03*
X43840000Y-26110000D03*
X46700000Y-32600000D03*
X49800000Y-18500000D03*
X37700000Y-27140000D03*
X40200000Y-36600000D03*
X48430000Y-22910000D03*
X50220000Y-26240000D03*
X47970000Y-22200000D03*
X49910000Y-25100000D03*
X49670000Y-30980000D03*
X38330000Y-37120000D03*
X38350100Y-23250100D03*
X39500100Y-23400000D03*
X38881400Y-27642300D03*
X33621800Y-31918200D03*
X34555000Y-45855000D03*
X46447700Y-28981100D03*
X47730000Y-25000000D03*
X48260000Y-24290000D03*
X36320000Y-26530000D03*
X37750000Y-31117600D03*
X32320000Y-37620000D03*
X31620000Y-28440000D03*
X31433800Y-38481600D03*
X49020000Y-28650000D03*
X32110000Y-42600000D03*
X47396700Y-29303000D03*
X41470000Y-35600000D03*
X31130900Y-37820600D03*
X39910000Y-35450000D03*
X36420000Y-40670000D03*
X46190000Y-26350000D03*
X31440000Y-34890000D03*
X41460000Y-26310000D03*
X43760000Y-23290000D03*
X47650000Y-25950000D03*
X33250000Y-47000000D03*
X46910000Y-26810000D03*
X38440000Y-36230000D03*
X37348800Y-31948800D03*
X28440000Y-34870000D03*
X40070000Y-48560000D03*
X41420000Y-47930000D03*
X42310000Y-37300000D03*
X34320000Y-46860000D03*
X37580000Y-29370000D03*
X34530000Y-34980000D03*
X48002700Y-26954100D03*
X41291300Y-24081700D03*
X26510000Y-24430000D03*
X37100000Y-32940000D03*
X42540000Y-24740000D03*
X33680000Y-25740000D03*
X42730000Y-26330000D03*
X37810000Y-34920000D03*
X36975000Y-34975000D03*
X32520000Y-47910000D03*
X33820000Y-52560000D03*
X38994900Y-35560000D03*
X33880000Y-54150000D03*
X37885000Y-34100000D03*
D15*
X38295900Y-28227800D02*
X38881400Y-27642300D01*
X37312200Y-28227800D02*
X38295900Y-28227800D01*
X33621800Y-31918200D02*
X37312200Y-28227800D01*
D16*
X32295400Y-37620000D02*
X31433800Y-38481600D01*
X32320000Y-37620000D02*
X32295400Y-37620000D01*
G04 #@! TA.AperFunction,Conductor*
G36*
X29751793Y-16516060D02*
G01*
X29776773Y-16502931D01*
X29801205Y-16500500D01*
X32895522Y-16500500D01*
X32962561Y-16520185D01*
X33008316Y-16572989D01*
X33018260Y-16642147D01*
X32998624Y-16693391D01*
X32893230Y-16851123D01*
X32893223Y-16851136D01*
X32817809Y-17033204D01*
X32817806Y-17033214D01*
X32779359Y-17226500D01*
X32779359Y-17226503D01*
X32779359Y-18023585D01*
X32779359Y-18023587D01*
X32779358Y-18023587D01*
X32817806Y-18216873D01*
X32817809Y-18216883D01*
X32893223Y-18398951D01*
X32893230Y-18398964D01*
X33002719Y-18562825D01*
X33002722Y-18562829D01*
X33142073Y-18702180D01*
X33142077Y-18702183D01*
X33305938Y-18811672D01*
X33305951Y-18811679D01*
X33433455Y-18864492D01*
X33488024Y-18887095D01*
X33488028Y-18887095D01*
X33488029Y-18887096D01*
X33681315Y-18925544D01*
X33681318Y-18925544D01*
X33878402Y-18925544D01*
X34017701Y-18897835D01*
X34071694Y-18887095D01*
X34253773Y-18811676D01*
X34417641Y-18702183D01*
X34556998Y-18562826D01*
X34666491Y-18398958D01*
X34741910Y-18216879D01*
X34775112Y-18049963D01*
X34780359Y-18023587D01*
X34780359Y-17226500D01*
X34741911Y-17033214D01*
X34741910Y-17033213D01*
X34741910Y-17033209D01*
X34694767Y-16919394D01*
X34666494Y-16851136D01*
X34666487Y-16851123D01*
X34561094Y-16693391D01*
X34540216Y-16626713D01*
X34558701Y-16559333D01*
X34610680Y-16512643D01*
X34664196Y-16500500D01*
X41535604Y-16500500D01*
X41602643Y-16520185D01*
X41648398Y-16572989D01*
X41658342Y-16642147D01*
X41638706Y-16693391D01*
X41533312Y-16851123D01*
X41533305Y-16851136D01*
X41457891Y-17033204D01*
X41457888Y-17033214D01*
X41419441Y-17226500D01*
X41419441Y-17226503D01*
X41419441Y-18023585D01*
X41419441Y-18023587D01*
X41419440Y-18023587D01*
X41457888Y-18216873D01*
X41457891Y-18216883D01*
X41533305Y-18398951D01*
X41533312Y-18398964D01*
X41642801Y-18562825D01*
X41642804Y-18562829D01*
X41782155Y-18702180D01*
X41782159Y-18702183D01*
X41946020Y-18811672D01*
X41946033Y-18811679D01*
X42073537Y-18864492D01*
X42128106Y-18887095D01*
X42128110Y-18887095D01*
X42128111Y-18887096D01*
X42321397Y-18925544D01*
X42321400Y-18925544D01*
X42518484Y-18925544D01*
X42657783Y-18897835D01*
X42711776Y-18887095D01*
X42893855Y-18811676D01*
X42926292Y-18790002D01*
X47054561Y-18790002D01*
X47074252Y-18964771D01*
X47132344Y-19130790D01*
X47182295Y-19210286D01*
X47225919Y-19279713D01*
X47350287Y-19404081D01*
X47499211Y-19497656D01*
X47665223Y-19555746D01*
X47665226Y-19555746D01*
X47665228Y-19555747D01*
X47839997Y-19575439D01*
X47840000Y-19575439D01*
X47840003Y-19575439D01*
X48014771Y-19555747D01*
X48014772Y-19555746D01*
X48014777Y-19555746D01*
X48180789Y-19497656D01*
X48329713Y-19404081D01*
X48454081Y-19279713D01*
X48547656Y-19130789D01*
X48605746Y-18964777D01*
X48609186Y-18934252D01*
X48625439Y-18790002D01*
X48625439Y-18789997D01*
X48605747Y-18615228D01*
X48605746Y-18615226D01*
X48605746Y-18615223D01*
X48547656Y-18449211D01*
X48547403Y-18448809D01*
X48454080Y-18300286D01*
X48329713Y-18175919D01*
X48180790Y-18082344D01*
X48014771Y-18024252D01*
X47840003Y-18004561D01*
X47839997Y-18004561D01*
X47665228Y-18024252D01*
X47499209Y-18082344D01*
X47350286Y-18175919D01*
X47225919Y-18300286D01*
X47132344Y-18449209D01*
X47074252Y-18615228D01*
X47054561Y-18789997D01*
X47054561Y-18790002D01*
X42926292Y-18790002D01*
X43057723Y-18702183D01*
X43197080Y-18562826D01*
X43306573Y-18398958D01*
X43381992Y-18216879D01*
X43415194Y-18049963D01*
X43420441Y-18023587D01*
X43420441Y-17226500D01*
X43381993Y-17033214D01*
X43381992Y-17033213D01*
X43381992Y-17033209D01*
X43334849Y-16919394D01*
X43306576Y-16851136D01*
X43306569Y-16851123D01*
X43201176Y-16693391D01*
X43180298Y-16626713D01*
X43198783Y-16559333D01*
X43250762Y-16512643D01*
X43304278Y-16500500D01*
X49196344Y-16500500D01*
X49263383Y-16520185D01*
X49309138Y-16572989D01*
X49319082Y-16642147D01*
X49290057Y-16705703D01*
X49286698Y-16709309D01*
X49285919Y-16710286D01*
X49192344Y-16859209D01*
X49134252Y-17025228D01*
X49114561Y-17199997D01*
X49114561Y-17200002D01*
X49134252Y-17374771D01*
X49192344Y-17540790D01*
X49231731Y-17603473D01*
X49285919Y-17689713D01*
X49410287Y-17814081D01*
X49460233Y-17845464D01*
X49559207Y-17907654D01*
X49559211Y-17907656D01*
X49725223Y-17965746D01*
X49725226Y-17965746D01*
X49725228Y-17965747D01*
X49899997Y-17985439D01*
X49900000Y-17985439D01*
X49900003Y-17985439D01*
X50074771Y-17965747D01*
X50074772Y-17965746D01*
X50074777Y-17965746D01*
X50240789Y-17907656D01*
X50309527Y-17864464D01*
X50376764Y-17845464D01*
X50443599Y-17865831D01*
X50488814Y-17919099D01*
X50499500Y-17969458D01*
X50499500Y-24324258D01*
X50479815Y-24391297D01*
X50427011Y-24437052D01*
X50357853Y-24446996D01*
X50309528Y-24429252D01*
X50250790Y-24392344D01*
X50084771Y-24334252D01*
X49910003Y-24314561D01*
X49909997Y-24314561D01*
X49735228Y-24334252D01*
X49569209Y-24392344D01*
X49420286Y-24485919D01*
X49295919Y-24610286D01*
X49202344Y-24759209D01*
X49144252Y-24925228D01*
X49124561Y-25099997D01*
X49124561Y-25100002D01*
X49144252Y-25274771D01*
X49202344Y-25440790D01*
X49295919Y-25589713D01*
X49420289Y-25714083D01*
X49465573Y-25742536D01*
X49511865Y-25794870D01*
X49522514Y-25863924D01*
X49513992Y-25892410D01*
X49514644Y-25892638D01*
X49454252Y-26065228D01*
X49434561Y-26239997D01*
X49434561Y-26240002D01*
X49454252Y-26414771D01*
X49512344Y-26580790D01*
X49568895Y-26670790D01*
X49605919Y-26729713D01*
X49730287Y-26854081D01*
X49766053Y-26876554D01*
X49873519Y-26944080D01*
X49879211Y-26947656D01*
X50045223Y-27005746D01*
X50045226Y-27005746D01*
X50045228Y-27005747D01*
X50219997Y-27025439D01*
X50220000Y-27025439D01*
X50220003Y-27025439D01*
X50361616Y-27009483D01*
X50430438Y-27021537D01*
X50481818Y-27068886D01*
X50499500Y-27132703D01*
X50499500Y-30406344D01*
X50479815Y-30473383D01*
X50427011Y-30519138D01*
X50357853Y-30529082D01*
X50294297Y-30500057D01*
X50287819Y-30494025D01*
X50159713Y-30365919D01*
X50010790Y-30272344D01*
X49844771Y-30214252D01*
X49670003Y-30194561D01*
X49669997Y-30194561D01*
X49495228Y-30214252D01*
X49329209Y-30272344D01*
X49180283Y-30365921D01*
X49179314Y-30366891D01*
X49178533Y-30367317D01*
X49174839Y-30370263D01*
X49174322Y-30369615D01*
X49117988Y-30400370D01*
X49048297Y-30395380D01*
X49042933Y-30393094D01*
X48925069Y-30351852D01*
X48874777Y-30334254D01*
X48874776Y-30334253D01*
X48874771Y-30334252D01*
X48700003Y-30314561D01*
X48699997Y-30314561D01*
X48525228Y-30334252D01*
X48359209Y-30392344D01*
X48210286Y-30485919D01*
X48085919Y-30610286D01*
X47992344Y-30759209D01*
X47934252Y-30925228D01*
X47914561Y-31099997D01*
X47914561Y-31100002D01*
X47934252Y-31274771D01*
X47934253Y-31274776D01*
X47934254Y-31274777D01*
X47940746Y-31293330D01*
X47992344Y-31440790D01*
X48063263Y-31553656D01*
X48085919Y-31589713D01*
X48210287Y-31714081D01*
X48359211Y-31807656D01*
X48525223Y-31865746D01*
X48525226Y-31865746D01*
X48525228Y-31865747D01*
X48699997Y-31885439D01*
X48700000Y-31885439D01*
X48700003Y-31885439D01*
X48874771Y-31865747D01*
X48874772Y-31865746D01*
X48874777Y-31865746D01*
X49040789Y-31807656D01*
X49189713Y-31714081D01*
X49190672Y-31713121D01*
X49191447Y-31712698D01*
X49195161Y-31709737D01*
X49195679Y-31710387D01*
X49251991Y-31679633D01*
X49321683Y-31684612D01*
X49327061Y-31686904D01*
X49376942Y-31704357D01*
X49495223Y-31745746D01*
X49495226Y-31745746D01*
X49495228Y-31745747D01*
X49669997Y-31765439D01*
X49670000Y-31765439D01*
X49670003Y-31765439D01*
X49844771Y-31745747D01*
X49844772Y-31745746D01*
X49844777Y-31745746D01*
X50010789Y-31687656D01*
X50159713Y-31594081D01*
X50284081Y-31469713D01*
X50284081Y-31469712D01*
X50287819Y-31465975D01*
X50349142Y-31432490D01*
X50418834Y-31437474D01*
X50474767Y-31479346D01*
X50499184Y-31544810D01*
X50499500Y-31553656D01*
X50499500Y-59375500D01*
X50479815Y-59442539D01*
X50427011Y-59488294D01*
X50375500Y-59499500D01*
X26124500Y-59499500D01*
X26057461Y-59479815D01*
X26011706Y-59427011D01*
X26000500Y-59375500D01*
X26000500Y-57079090D01*
X26020185Y-57012051D01*
X26072989Y-56966296D01*
X26142147Y-56956352D01*
X26205703Y-56985377D01*
X26212181Y-56991409D01*
X26370855Y-57150083D01*
X26370858Y-57150085D01*
X26557263Y-57280606D01*
X26763501Y-57376777D01*
X26983305Y-57435673D01*
X27145227Y-57449839D01*
X27209995Y-57455506D01*
X27209997Y-57455506D01*
X27209999Y-57455506D01*
X27266670Y-57450547D01*
X27436689Y-57435673D01*
X27656493Y-57376777D01*
X27862731Y-57280606D01*
X28049136Y-57150085D01*
X28210044Y-56989177D01*
X28340565Y-56802772D01*
X28367619Y-56744754D01*
X28413790Y-56692317D01*
X28480984Y-56673165D01*
X28547865Y-56693381D01*
X28592382Y-56744756D01*
X28619434Y-56802770D01*
X28619435Y-56802772D01*
X28749957Y-56989179D01*
X28910861Y-57150083D01*
X28910864Y-57150085D01*
X29097269Y-57280606D01*
X29303507Y-57376777D01*
X29523311Y-57435673D01*
X29685233Y-57449839D01*
X29750001Y-57455506D01*
X29750003Y-57455506D01*
X29750005Y-57455506D01*
X29806676Y-57450547D01*
X29976695Y-57435673D01*
X30196499Y-57376777D01*
X30402737Y-57280606D01*
X30589142Y-57150085D01*
X30739225Y-57000002D01*
X39214561Y-57000002D01*
X39234252Y-57174771D01*
X39292344Y-57340790D01*
X39314958Y-57376779D01*
X39385919Y-57489713D01*
X39510287Y-57614081D01*
X39659211Y-57707656D01*
X39825223Y-57765746D01*
X39825226Y-57765746D01*
X39825228Y-57765747D01*
X39999997Y-57785439D01*
X40000000Y-57785439D01*
X40000003Y-57785439D01*
X40174771Y-57765747D01*
X40174772Y-57765746D01*
X40174777Y-57765746D01*
X40340789Y-57707656D01*
X40489713Y-57614081D01*
X40614081Y-57489713D01*
X40707656Y-57340789D01*
X40765746Y-57174777D01*
X40768529Y-57150083D01*
X40785439Y-57000002D01*
X41214561Y-57000002D01*
X41234252Y-57174771D01*
X41292344Y-57340790D01*
X41314958Y-57376779D01*
X41385919Y-57489713D01*
X41510287Y-57614081D01*
X41659211Y-57707656D01*
X41825223Y-57765746D01*
X41825226Y-57765746D01*
X41825228Y-57765747D01*
X41999997Y-57785439D01*
X42000000Y-57785439D01*
X42000003Y-57785439D01*
X42174771Y-57765747D01*
X42174772Y-57765746D01*
X42174777Y-57765746D01*
X42340789Y-57707656D01*
X42489713Y-57614081D01*
X42614081Y-57489713D01*
X42707656Y-57340789D01*
X42765746Y-57174777D01*
X42768529Y-57150083D01*
X42785439Y-57000002D01*
X42785439Y-56999997D01*
X42765747Y-56825228D01*
X42765746Y-56825226D01*
X42765746Y-56825223D01*
X42707656Y-56659211D01*
X42691506Y-56633509D01*
X42614080Y-56510286D01*
X42489713Y-56385919D01*
X42340790Y-56292344D01*
X42174771Y-56234252D01*
X42000003Y-56214561D01*
X41999997Y-56214561D01*
X41825228Y-56234252D01*
X41659209Y-56292344D01*
X41510286Y-56385919D01*
X41385919Y-56510286D01*
X41292344Y-56659209D01*
X41234252Y-56825228D01*
X41214561Y-56999997D01*
X41214561Y-57000002D01*
X40785439Y-57000002D01*
X40785439Y-56999997D01*
X40765747Y-56825228D01*
X40765746Y-56825226D01*
X40765746Y-56825223D01*
X40707656Y-56659211D01*
X40691506Y-56633509D01*
X40614080Y-56510286D01*
X40489713Y-56385919D01*
X40340790Y-56292344D01*
X40174771Y-56234252D01*
X40000003Y-56214561D01*
X39999997Y-56214561D01*
X39825228Y-56234252D01*
X39659209Y-56292344D01*
X39510286Y-56385919D01*
X39385919Y-56510286D01*
X39292344Y-56659209D01*
X39234252Y-56825228D01*
X39214561Y-56999997D01*
X39214561Y-57000002D01*
X30739225Y-57000002D01*
X30750050Y-56989177D01*
X30880571Y-56802772D01*
X30976742Y-56596534D01*
X31035638Y-56376730D01*
X31055471Y-56150038D01*
X31035638Y-55923346D01*
X30976742Y-55703542D01*
X30880571Y-55497304D01*
X30750050Y-55310899D01*
X30750048Y-55310896D01*
X30589144Y-55149992D01*
X30402737Y-55019470D01*
X30402731Y-55019467D01*
X30344132Y-54992142D01*
X30291692Y-54945970D01*
X30272540Y-54878776D01*
X30292756Y-54811895D01*
X30344132Y-54767377D01*
X30402485Y-54740166D01*
X30475474Y-54689057D01*
X29879412Y-54092995D01*
X29942996Y-54075958D01*
X30057010Y-54010132D01*
X30150102Y-53917040D01*
X30215928Y-53803026D01*
X30232965Y-53739442D01*
X30829027Y-54335504D01*
X30880139Y-54262511D01*
X30976267Y-54056364D01*
X30976272Y-54056350D01*
X31035142Y-53836643D01*
X31035144Y-53836632D01*
X31054969Y-53610035D01*
X31054969Y-53610030D01*
X31035144Y-53383433D01*
X31035142Y-53383422D01*
X30976272Y-53163715D01*
X30976267Y-53163701D01*
X30880139Y-52957554D01*
X30880135Y-52957546D01*
X30829028Y-52884559D01*
X30232965Y-53480622D01*
X30215928Y-53417040D01*
X30150102Y-53303026D01*
X30057010Y-53209934D01*
X29942996Y-53144108D01*
X29879413Y-53127070D01*
X30446480Y-52560002D01*
X33034561Y-52560002D01*
X33054252Y-52734771D01*
X33112344Y-52900790D01*
X33184675Y-53015904D01*
X33205919Y-53049713D01*
X33330287Y-53174081D01*
X33387347Y-53209934D01*
X33481120Y-53268856D01*
X33527411Y-53321191D01*
X33538059Y-53390245D01*
X33509684Y-53454093D01*
X33481121Y-53478843D01*
X33390289Y-53535917D01*
X33390286Y-53535919D01*
X33265919Y-53660286D01*
X33172344Y-53809209D01*
X33114252Y-53975228D01*
X33094561Y-54149997D01*
X33094561Y-54150002D01*
X33114252Y-54324771D01*
X33172344Y-54490790D01*
X33247247Y-54609997D01*
X33265919Y-54639713D01*
X33390287Y-54764081D01*
X33395972Y-54767653D01*
X33518384Y-54844570D01*
X33539211Y-54857656D01*
X33705223Y-54915746D01*
X33705226Y-54915746D01*
X33705228Y-54915747D01*
X33879997Y-54935439D01*
X33880000Y-54935439D01*
X33880003Y-54935439D01*
X34054771Y-54915747D01*
X34054772Y-54915746D01*
X34054777Y-54915746D01*
X34220789Y-54857656D01*
X34369713Y-54764081D01*
X34494081Y-54639713D01*
X34512750Y-54610002D01*
X35314561Y-54610002D01*
X35334252Y-54784771D01*
X35392344Y-54950790D01*
X35441935Y-55029713D01*
X35485919Y-55099713D01*
X35610287Y-55224081D01*
X35698372Y-55279429D01*
X35748452Y-55310896D01*
X35759211Y-55317656D01*
X35925223Y-55375746D01*
X35925226Y-55375746D01*
X35925228Y-55375747D01*
X36099997Y-55395439D01*
X36100000Y-55395439D01*
X36100003Y-55395439D01*
X36274771Y-55375747D01*
X36274772Y-55375746D01*
X36274777Y-55375746D01*
X36440789Y-55317656D01*
X36589713Y-55224081D01*
X36714081Y-55099713D01*
X36807656Y-54950789D01*
X36865746Y-54784777D01*
X36867676Y-54767653D01*
X36885439Y-54610002D01*
X36885439Y-54609997D01*
X36877552Y-54540002D01*
X37354561Y-54540002D01*
X37374252Y-54714771D01*
X37374253Y-54714776D01*
X37374254Y-54714777D01*
X37383290Y-54740600D01*
X37432344Y-54880790D01*
X37525919Y-55029713D01*
X37650287Y-55154081D01*
X37738372Y-55209429D01*
X37761691Y-55224081D01*
X37799211Y-55247656D01*
X37965223Y-55305746D01*
X37965226Y-55305746D01*
X37965228Y-55305747D01*
X38139997Y-55325439D01*
X38140000Y-55325439D01*
X38140003Y-55325439D01*
X38314771Y-55305747D01*
X38314772Y-55305746D01*
X38314777Y-55305746D01*
X38480789Y-55247656D01*
X38629713Y-55154081D01*
X38754081Y-55029713D01*
X38847656Y-54880789D01*
X38905746Y-54714777D01*
X38925439Y-54540000D01*
X38925336Y-54539085D01*
X38905747Y-54365228D01*
X38905746Y-54365226D01*
X38905746Y-54365223D01*
X38847656Y-54199211D01*
X38754081Y-54050287D01*
X38629713Y-53925919D01*
X38592194Y-53902344D01*
X38480790Y-53832344D01*
X38314771Y-53774252D01*
X38140003Y-53754561D01*
X38139997Y-53754561D01*
X37965228Y-53774252D01*
X37799209Y-53832344D01*
X37650286Y-53925919D01*
X37525919Y-54050286D01*
X37432344Y-54199209D01*
X37374252Y-54365228D01*
X37354561Y-54539997D01*
X37354561Y-54540002D01*
X36877552Y-54540002D01*
X36865747Y-54435228D01*
X36865746Y-54435226D01*
X36865746Y-54435223D01*
X36807656Y-54269211D01*
X36803447Y-54262513D01*
X36714080Y-54120286D01*
X36589713Y-53995919D01*
X36440790Y-53902344D01*
X36274771Y-53844252D01*
X36100003Y-53824561D01*
X36099997Y-53824561D01*
X35925228Y-53844252D01*
X35759209Y-53902344D01*
X35610286Y-53995919D01*
X35485919Y-54120286D01*
X35392344Y-54269209D01*
X35334252Y-54435228D01*
X35314561Y-54609997D01*
X35314561Y-54610002D01*
X34512750Y-54610002D01*
X34587656Y-54490789D01*
X34645746Y-54324777D01*
X34659337Y-54204161D01*
X34665439Y-54150002D01*
X34665439Y-54149997D01*
X34645747Y-53975228D01*
X34645746Y-53975226D01*
X34645746Y-53975223D01*
X34587656Y-53809211D01*
X34494081Y-53660287D01*
X34369713Y-53535919D01*
X34369707Y-53535914D01*
X34218879Y-53441142D01*
X34172588Y-53388808D01*
X34161940Y-53319754D01*
X34190315Y-53255906D01*
X34218876Y-53231157D01*
X34309713Y-53174081D01*
X34434081Y-53049713D01*
X34527656Y-52900789D01*
X34585746Y-52734777D01*
X34591808Y-52680981D01*
X34605439Y-52560002D01*
X34605439Y-52559997D01*
X34585747Y-52385228D01*
X34585746Y-52385226D01*
X34585746Y-52385223D01*
X34527656Y-52219211D01*
X34515959Y-52200596D01*
X34434080Y-52070286D01*
X34309713Y-51945919D01*
X34160790Y-51852344D01*
X33994771Y-51794252D01*
X33820003Y-51774561D01*
X33819997Y-51774561D01*
X33645228Y-51794252D01*
X33479209Y-51852344D01*
X33330286Y-51945919D01*
X33205919Y-52070286D01*
X33112344Y-52219209D01*
X33054252Y-52385228D01*
X33034561Y-52559997D01*
X33034561Y-52560002D01*
X30446480Y-52560002D01*
X30475475Y-52531007D01*
X30402483Y-52479897D01*
X30344131Y-52452687D01*
X30291692Y-52406514D01*
X30272540Y-52339321D01*
X30292756Y-52272439D01*
X30344128Y-52227925D01*
X30402737Y-52200596D01*
X30589142Y-52070075D01*
X30750050Y-51909167D01*
X30880571Y-51722762D01*
X30976742Y-51516524D01*
X31035638Y-51296720D01*
X31055471Y-51070028D01*
X31035638Y-50843336D01*
X30976742Y-50623532D01*
X30880571Y-50417294D01*
X30750050Y-50230889D01*
X30750048Y-50230886D01*
X30719164Y-50200002D01*
X41014561Y-50200002D01*
X41034252Y-50374771D01*
X41092344Y-50540790D01*
X41144335Y-50623532D01*
X41185919Y-50689713D01*
X41310287Y-50814081D01*
X41459211Y-50907656D01*
X41625223Y-50965746D01*
X41625226Y-50965746D01*
X41625228Y-50965747D01*
X41799997Y-50985439D01*
X41800000Y-50985439D01*
X41800003Y-50985439D01*
X41974771Y-50965747D01*
X41974772Y-50965746D01*
X41974777Y-50965746D01*
X42140789Y-50907656D01*
X42289713Y-50814081D01*
X42414081Y-50689713D01*
X42507656Y-50540789D01*
X42565746Y-50374777D01*
X42585439Y-50200000D01*
X42585439Y-50199997D01*
X42565747Y-50025228D01*
X42565746Y-50025226D01*
X42565746Y-50025223D01*
X42507656Y-49859211D01*
X42414081Y-49710287D01*
X42289713Y-49585919D01*
X42200830Y-49530070D01*
X42140790Y-49492344D01*
X41974771Y-49434252D01*
X41800003Y-49414561D01*
X41799997Y-49414561D01*
X41625228Y-49434252D01*
X41459209Y-49492344D01*
X41310286Y-49585919D01*
X41185919Y-49710286D01*
X41092344Y-49859209D01*
X41034252Y-50025228D01*
X41014561Y-50199997D01*
X41014561Y-50200002D01*
X30719164Y-50200002D01*
X30589144Y-50069982D01*
X30402737Y-49939460D01*
X30402735Y-49939459D01*
X30344722Y-49912407D01*
X30292283Y-49866234D01*
X30273131Y-49799041D01*
X30293347Y-49732159D01*
X30344719Y-49687645D01*
X30402737Y-49660591D01*
X30589142Y-49530070D01*
X30750050Y-49369162D01*
X30880571Y-49182757D01*
X30976742Y-48976519D01*
X31035638Y-48756715D01*
X31055471Y-48530023D01*
X31035638Y-48303331D01*
X30976742Y-48083527D01*
X30895825Y-47910002D01*
X31734561Y-47910002D01*
X31754252Y-48084771D01*
X31812344Y-48250790D01*
X31845358Y-48303331D01*
X31905919Y-48399713D01*
X32030287Y-48524081D01*
X32179211Y-48617656D01*
X32345223Y-48675746D01*
X32345226Y-48675746D01*
X32345228Y-48675747D01*
X32519997Y-48695439D01*
X32520000Y-48695439D01*
X32520003Y-48695439D01*
X32694771Y-48675747D01*
X32694772Y-48675746D01*
X32694777Y-48675746D01*
X32860789Y-48617656D01*
X33009713Y-48524081D01*
X33134081Y-48399713D01*
X33227656Y-48250789D01*
X33285746Y-48084777D01*
X33294522Y-48006895D01*
X33305439Y-47910002D01*
X33305439Y-47909998D01*
X33304769Y-47904053D01*
X33316823Y-47835231D01*
X33364171Y-47783851D01*
X33414110Y-47766947D01*
X33424777Y-47765746D01*
X33424779Y-47765745D01*
X33424784Y-47765744D01*
X33512647Y-47734998D01*
X33590789Y-47707656D01*
X33739713Y-47614081D01*
X33790716Y-47563077D01*
X33852038Y-47529592D01*
X33921730Y-47534576D01*
X33944368Y-47545764D01*
X33979205Y-47567653D01*
X33979209Y-47567655D01*
X33979211Y-47567656D01*
X34145223Y-47625746D01*
X34145226Y-47625746D01*
X34145228Y-47625747D01*
X34319997Y-47645439D01*
X34320000Y-47645439D01*
X34320003Y-47645439D01*
X34494771Y-47625747D01*
X34494772Y-47625746D01*
X34494777Y-47625746D01*
X34660789Y-47567656D01*
X34809713Y-47474081D01*
X34883792Y-47400002D01*
X38714561Y-47400002D01*
X38734252Y-47574771D01*
X38792344Y-47740790D01*
X38865426Y-47857098D01*
X38885919Y-47889713D01*
X39010287Y-48014081D01*
X39039270Y-48032292D01*
X39154619Y-48104771D01*
X39159211Y-48107656D01*
X39257921Y-48142196D01*
X39314696Y-48182916D01*
X39340444Y-48247869D01*
X39334008Y-48300190D01*
X39327270Y-48319444D01*
X39304252Y-48385228D01*
X39284561Y-48559997D01*
X39284561Y-48560002D01*
X39304252Y-48734771D01*
X39362344Y-48900790D01*
X39409923Y-48976511D01*
X39455919Y-49049713D01*
X39580287Y-49174081D01*
X39729211Y-49267656D01*
X39895223Y-49325746D01*
X39895226Y-49325746D01*
X39895228Y-49325747D01*
X40069997Y-49345439D01*
X40070000Y-49345439D01*
X40070003Y-49345439D01*
X40244771Y-49325747D01*
X40244772Y-49325746D01*
X40244777Y-49325746D01*
X40410789Y-49267656D01*
X40559713Y-49174081D01*
X40684081Y-49049713D01*
X40777656Y-48900789D01*
X40835746Y-48734777D01*
X40839967Y-48697318D01*
X40867033Y-48632904D01*
X40924627Y-48593348D01*
X40994464Y-48591209D01*
X41029160Y-48606207D01*
X41079211Y-48637656D01*
X41245223Y-48695746D01*
X41245226Y-48695746D01*
X41245228Y-48695747D01*
X41419997Y-48715439D01*
X41420000Y-48715439D01*
X41420003Y-48715439D01*
X41594771Y-48695747D01*
X41594772Y-48695746D01*
X41594777Y-48695746D01*
X41760789Y-48637656D01*
X41909713Y-48544081D01*
X42034081Y-48419713D01*
X42127656Y-48270789D01*
X42185746Y-48104777D01*
X42188141Y-48083527D01*
X42205439Y-47930002D01*
X42205439Y-47929997D01*
X42185747Y-47755228D01*
X42185746Y-47755226D01*
X42185746Y-47755223D01*
X42127656Y-47589211D01*
X42114111Y-47567655D01*
X42055315Y-47474081D01*
X42034081Y-47440287D01*
X41909713Y-47315919D01*
X41760790Y-47222344D01*
X41594771Y-47164252D01*
X41420003Y-47144561D01*
X41419997Y-47144561D01*
X41245228Y-47164252D01*
X41079209Y-47222344D01*
X40930286Y-47315919D01*
X40805919Y-47440286D01*
X40712344Y-47589209D01*
X40654252Y-47755228D01*
X40650032Y-47792684D01*
X40622964Y-47857098D01*
X40565369Y-47896652D01*
X40495532Y-47898789D01*
X40460840Y-47883793D01*
X40410790Y-47852344D01*
X40312079Y-47817804D01*
X40255302Y-47777082D01*
X40229555Y-47712129D01*
X40235991Y-47659810D01*
X40265746Y-47574777D01*
X40265746Y-47574775D01*
X40265747Y-47574773D01*
X40285439Y-47400002D01*
X40285439Y-47399997D01*
X40265747Y-47225228D01*
X40265746Y-47225226D01*
X40265746Y-47225223D01*
X40207656Y-47059211D01*
X40192299Y-47034771D01*
X40170453Y-47000002D01*
X45714561Y-47000002D01*
X45734252Y-47174771D01*
X45734253Y-47174776D01*
X45734254Y-47174777D01*
X45740914Y-47193810D01*
X45792344Y-47340790D01*
X45876096Y-47474080D01*
X45885919Y-47489713D01*
X46010287Y-47614081D01*
X46060193Y-47645439D01*
X46132513Y-47690881D01*
X46159211Y-47707656D01*
X46325223Y-47765746D01*
X46325226Y-47765746D01*
X46325228Y-47765747D01*
X46499997Y-47785439D01*
X46500000Y-47785439D01*
X46500003Y-47785439D01*
X46674771Y-47765747D01*
X46674772Y-47765746D01*
X46674777Y-47765746D01*
X46840789Y-47707656D01*
X46989713Y-47614081D01*
X47114081Y-47489713D01*
X47207656Y-47340789D01*
X47265746Y-47174777D01*
X47278768Y-47059211D01*
X47285439Y-47000002D01*
X47285439Y-46999997D01*
X47265747Y-46825228D01*
X47265746Y-46825226D01*
X47265746Y-46825223D01*
X47207656Y-46659211D01*
X47114081Y-46510287D01*
X46989713Y-46385919D01*
X46840790Y-46292344D01*
X46674771Y-46234252D01*
X46500003Y-46214561D01*
X46499997Y-46214561D01*
X46325228Y-46234252D01*
X46159209Y-46292344D01*
X46010286Y-46385919D01*
X45885919Y-46510286D01*
X45792344Y-46659209D01*
X45734252Y-46825228D01*
X45714561Y-46999997D01*
X45714561Y-47000002D01*
X40170453Y-47000002D01*
X40164209Y-46990065D01*
X40114081Y-46910287D01*
X39989713Y-46785919D01*
X39840790Y-46692344D01*
X39674771Y-46634252D01*
X39500003Y-46614561D01*
X39499997Y-46614561D01*
X39325228Y-46634252D01*
X39159209Y-46692344D01*
X39010286Y-46785919D01*
X38885919Y-46910286D01*
X38792344Y-47059209D01*
X38734252Y-47225228D01*
X38714561Y-47399997D01*
X38714561Y-47400002D01*
X34883792Y-47400002D01*
X34934081Y-47349713D01*
X35027656Y-47200789D01*
X35085746Y-47034777D01*
X35088994Y-47005956D01*
X35105439Y-46860002D01*
X35105439Y-46859997D01*
X35085747Y-46685228D01*
X35085746Y-46685226D01*
X35085746Y-46685223D01*
X35044815Y-46568251D01*
X35041255Y-46498473D01*
X35074177Y-46439617D01*
X35077288Y-46436506D01*
X35169081Y-46344713D01*
X35262656Y-46195789D01*
X35320746Y-46029777D01*
X35340439Y-45855000D01*
X35340439Y-45854997D01*
X35320747Y-45680228D01*
X35320746Y-45680226D01*
X35320746Y-45680223D01*
X35262656Y-45514211D01*
X35169081Y-45365287D01*
X35044713Y-45240919D01*
X34895790Y-45147344D01*
X34729771Y-45089252D01*
X34555003Y-45069561D01*
X34554997Y-45069561D01*
X34380228Y-45089252D01*
X34214209Y-45147344D01*
X34065286Y-45240919D01*
X33940919Y-45365286D01*
X33847344Y-45514209D01*
X33789252Y-45680228D01*
X33769561Y-45854997D01*
X33769561Y-45855002D01*
X33789252Y-46029771D01*
X33830183Y-46146747D01*
X33833744Y-46216526D01*
X33800822Y-46275382D01*
X33779282Y-46296922D01*
X33717959Y-46330407D01*
X33648267Y-46325423D01*
X33625630Y-46314236D01*
X33590789Y-46292344D01*
X33424777Y-46234254D01*
X33424776Y-46234253D01*
X33424771Y-46234252D01*
X33250003Y-46214561D01*
X33249997Y-46214561D01*
X33075228Y-46234252D01*
X32909209Y-46292344D01*
X32760286Y-46385919D01*
X32635919Y-46510286D01*
X32542344Y-46659209D01*
X32484252Y-46825228D01*
X32464561Y-46999997D01*
X32464561Y-47000005D01*
X32465231Y-47005956D01*
X32453172Y-47074777D01*
X32405819Y-47126153D01*
X32355900Y-47143050D01*
X32345223Y-47144254D01*
X32179209Y-47202344D01*
X32030286Y-47295919D01*
X31905919Y-47420286D01*
X31812344Y-47569209D01*
X31754252Y-47735228D01*
X31734561Y-47909997D01*
X31734561Y-47910002D01*
X30895825Y-47910002D01*
X30880571Y-47877289D01*
X30764926Y-47712129D01*
X30750048Y-47690881D01*
X30589144Y-47529977D01*
X30402737Y-47399455D01*
X30402735Y-47399454D01*
X30344722Y-47372402D01*
X30292283Y-47326229D01*
X30273131Y-47259036D01*
X30293347Y-47192154D01*
X30344719Y-47147640D01*
X30402737Y-47120586D01*
X30589142Y-46990065D01*
X30750050Y-46829157D01*
X30880571Y-46642752D01*
X30976742Y-46436514D01*
X31035638Y-46216710D01*
X31055471Y-45990018D01*
X31035638Y-45763326D01*
X30976742Y-45543522D01*
X30880571Y-45337284D01*
X30750050Y-45150879D01*
X30750048Y-45150876D01*
X30599174Y-45000002D01*
X45714561Y-45000002D01*
X45734252Y-45174771D01*
X45792344Y-45340790D01*
X45858876Y-45446674D01*
X45885919Y-45489713D01*
X46010287Y-45614081D01*
X46098372Y-45669429D01*
X46154961Y-45704986D01*
X46159211Y-45707656D01*
X46325223Y-45765746D01*
X46325226Y-45765746D01*
X46325228Y-45765747D01*
X46499997Y-45785439D01*
X46500000Y-45785439D01*
X46500003Y-45785439D01*
X46674771Y-45765747D01*
X46674772Y-45765746D01*
X46674777Y-45765746D01*
X46840789Y-45707656D01*
X46989713Y-45614081D01*
X47114081Y-45489713D01*
X47207656Y-45340789D01*
X47265746Y-45174777D01*
X47268691Y-45148647D01*
X47285439Y-45000002D01*
X47285439Y-44999997D01*
X47265747Y-44825228D01*
X47265746Y-44825226D01*
X47265746Y-44825223D01*
X47207656Y-44659211D01*
X47114081Y-44510287D01*
X46989713Y-44385919D01*
X46978805Y-44379065D01*
X46840790Y-44292344D01*
X46674771Y-44234252D01*
X46500003Y-44214561D01*
X46499997Y-44214561D01*
X46325228Y-44234252D01*
X46159209Y-44292344D01*
X46010286Y-44385919D01*
X45885919Y-44510286D01*
X45792344Y-44659209D01*
X45734252Y-44825228D01*
X45714561Y-44999997D01*
X45714561Y-45000002D01*
X30599174Y-45000002D01*
X30589144Y-44989972D01*
X30402737Y-44859450D01*
X30402735Y-44859449D01*
X30344722Y-44832397D01*
X30292283Y-44786224D01*
X30273131Y-44719031D01*
X30293347Y-44652149D01*
X30344719Y-44607635D01*
X30402737Y-44580581D01*
X30589142Y-44450060D01*
X30750050Y-44289152D01*
X30880571Y-44102747D01*
X30976742Y-43896509D01*
X31035638Y-43676705D01*
X31055471Y-43450013D01*
X31035638Y-43223321D01*
X30976742Y-43003517D01*
X30880571Y-42797279D01*
X30750050Y-42610874D01*
X30750048Y-42610871D01*
X30739179Y-42600002D01*
X31324561Y-42600002D01*
X31344252Y-42774771D01*
X31402344Y-42940790D01*
X31441763Y-43003524D01*
X31495919Y-43089713D01*
X31620287Y-43214081D01*
X31769211Y-43307656D01*
X31935223Y-43365746D01*
X31935226Y-43365746D01*
X31935228Y-43365747D01*
X32109997Y-43385439D01*
X32110000Y-43385439D01*
X32110003Y-43385439D01*
X32284771Y-43365747D01*
X32284772Y-43365746D01*
X32284777Y-43365746D01*
X32450789Y-43307656D01*
X32599713Y-43214081D01*
X32724081Y-43089713D01*
X32817656Y-42940789D01*
X32875746Y-42774777D01*
X32890693Y-42642127D01*
X32895439Y-42600002D01*
X32895439Y-42599997D01*
X32884172Y-42500002D01*
X33214561Y-42500002D01*
X33234252Y-42674771D01*
X33292344Y-42840790D01*
X33371359Y-42966541D01*
X33385919Y-42989713D01*
X33510287Y-43114081D01*
X33659211Y-43207656D01*
X33825223Y-43265746D01*
X33825226Y-43265746D01*
X33825228Y-43265747D01*
X33999997Y-43285439D01*
X34000000Y-43285439D01*
X34000003Y-43285439D01*
X34174771Y-43265747D01*
X34174772Y-43265746D01*
X34174777Y-43265746D01*
X34340789Y-43207656D01*
X34489713Y-43114081D01*
X34614081Y-42989713D01*
X34707656Y-42840789D01*
X34765746Y-42674777D01*
X34769987Y-42637143D01*
X34785439Y-42500002D01*
X34785439Y-42499997D01*
X34765747Y-42325228D01*
X34765746Y-42325226D01*
X34765746Y-42325223D01*
X34707656Y-42159211D01*
X34614081Y-42010287D01*
X34489713Y-41885919D01*
X34340790Y-41792344D01*
X34174771Y-41734252D01*
X34000003Y-41714561D01*
X33999997Y-41714561D01*
X33825228Y-41734252D01*
X33659209Y-41792344D01*
X33510286Y-41885919D01*
X33385919Y-42010286D01*
X33292344Y-42159209D01*
X33234252Y-42325228D01*
X33214561Y-42499997D01*
X33214561Y-42500002D01*
X32884172Y-42500002D01*
X32875747Y-42425228D01*
X32875746Y-42425226D01*
X32875746Y-42425223D01*
X32817656Y-42259211D01*
X32724081Y-42110287D01*
X32599713Y-41985919D01*
X32450790Y-41892344D01*
X32284771Y-41834252D01*
X32110003Y-41814561D01*
X32109997Y-41814561D01*
X31935228Y-41834252D01*
X31769209Y-41892344D01*
X31620286Y-41985919D01*
X31495919Y-42110286D01*
X31402344Y-42259209D01*
X31344252Y-42425228D01*
X31324561Y-42599997D01*
X31324561Y-42600002D01*
X30739179Y-42600002D01*
X30589144Y-42449967D01*
X30402737Y-42319445D01*
X30402735Y-42319444D01*
X30344722Y-42292392D01*
X30292283Y-42246219D01*
X30273131Y-42179026D01*
X30293347Y-42112144D01*
X30344719Y-42067630D01*
X30402737Y-42040576D01*
X30589142Y-41910055D01*
X30750050Y-41749147D01*
X30880571Y-41562742D01*
X30976742Y-41356504D01*
X31035638Y-41136700D01*
X31055471Y-40910008D01*
X31035638Y-40683316D01*
X31032071Y-40670002D01*
X35634561Y-40670002D01*
X35654252Y-40844771D01*
X35712344Y-41010790D01*
X35791455Y-41136694D01*
X35805919Y-41159713D01*
X35930287Y-41284081D01*
X36079211Y-41377656D01*
X36245223Y-41435746D01*
X36245226Y-41435746D01*
X36245228Y-41435747D01*
X36419997Y-41455439D01*
X36420000Y-41455439D01*
X36420003Y-41455439D01*
X36594771Y-41435747D01*
X36594772Y-41435746D01*
X36594777Y-41435746D01*
X36760789Y-41377656D01*
X36909713Y-41284081D01*
X37034081Y-41159713D01*
X37127656Y-41010789D01*
X37185746Y-40844777D01*
X37203940Y-40683310D01*
X37205439Y-40670002D01*
X37205439Y-40669997D01*
X37185747Y-40495228D01*
X37185746Y-40495226D01*
X37185746Y-40495223D01*
X37127656Y-40329211D01*
X37034081Y-40180287D01*
X36909713Y-40055919D01*
X36908674Y-40055266D01*
X36820722Y-40000002D01*
X41114561Y-40000002D01*
X41134252Y-40174771D01*
X41192344Y-40340790D01*
X41269456Y-40463512D01*
X41285919Y-40489713D01*
X41410287Y-40614081D01*
X41498372Y-40669429D01*
X41520464Y-40683310D01*
X41559211Y-40707656D01*
X41725223Y-40765746D01*
X41725226Y-40765746D01*
X41725228Y-40765747D01*
X41899997Y-40785439D01*
X41900000Y-40785439D01*
X41900003Y-40785439D01*
X42074771Y-40765747D01*
X42074772Y-40765746D01*
X42074777Y-40765746D01*
X42240789Y-40707656D01*
X42389713Y-40614081D01*
X42514081Y-40489713D01*
X42607656Y-40340789D01*
X42665746Y-40174777D01*
X42673933Y-40102122D01*
X42685439Y-40000002D01*
X42685439Y-39999997D01*
X42665747Y-39825228D01*
X42665746Y-39825226D01*
X42665746Y-39825223D01*
X42607656Y-39659211D01*
X42596206Y-39640989D01*
X42514080Y-39510286D01*
X42389713Y-39385919D01*
X42240790Y-39292344D01*
X42074771Y-39234252D01*
X41900003Y-39214561D01*
X41899997Y-39214561D01*
X41725228Y-39234252D01*
X41559209Y-39292344D01*
X41410286Y-39385919D01*
X41285919Y-39510286D01*
X41192344Y-39659209D01*
X41134252Y-39825228D01*
X41114561Y-39999997D01*
X41114561Y-40000002D01*
X36820722Y-40000002D01*
X36760790Y-39962344D01*
X36631523Y-39917112D01*
X36594777Y-39904254D01*
X36594776Y-39904253D01*
X36594771Y-39904252D01*
X36420003Y-39884561D01*
X36419997Y-39884561D01*
X36245228Y-39904252D01*
X36079209Y-39962344D01*
X35930286Y-40055919D01*
X35805919Y-40180286D01*
X35712344Y-40329209D01*
X35654252Y-40495228D01*
X35634561Y-40669997D01*
X35634561Y-40670002D01*
X31032071Y-40670002D01*
X30976742Y-40463512D01*
X30880571Y-40257274D01*
X30750050Y-40070869D01*
X30750048Y-40070866D01*
X30589144Y-39909962D01*
X30402737Y-39779440D01*
X30402735Y-39779439D01*
X30344722Y-39752387D01*
X30292283Y-39706214D01*
X30273131Y-39639021D01*
X30293347Y-39572139D01*
X30344719Y-39527625D01*
X30402737Y-39500571D01*
X30589142Y-39370050D01*
X30750050Y-39209142D01*
X30796846Y-39142309D01*
X30851420Y-39098685D01*
X30920919Y-39091491D01*
X30964390Y-39108438D01*
X31046718Y-39160168D01*
X31072418Y-39176317D01*
X31093011Y-39189256D01*
X31259023Y-39247346D01*
X31259026Y-39247346D01*
X31259028Y-39247347D01*
X31433797Y-39267039D01*
X31433800Y-39267039D01*
X31433803Y-39267039D01*
X31608571Y-39247347D01*
X31608572Y-39247346D01*
X31608577Y-39247346D01*
X31774589Y-39189256D01*
X31923513Y-39095681D01*
X32047881Y-38971313D01*
X32141456Y-38822389D01*
X32149290Y-38800002D01*
X38514561Y-38800002D01*
X38534252Y-38974771D01*
X38592344Y-39140790D01*
X38651072Y-39234254D01*
X38685919Y-39289713D01*
X38810287Y-39414081D01*
X38898372Y-39469429D01*
X38947933Y-39500570D01*
X38959211Y-39507656D01*
X39125223Y-39565746D01*
X39125226Y-39565746D01*
X39125228Y-39565747D01*
X39299997Y-39585439D01*
X39300000Y-39585439D01*
X39300003Y-39585439D01*
X39474771Y-39565747D01*
X39474772Y-39565746D01*
X39474777Y-39565746D01*
X39640789Y-39507656D01*
X39789713Y-39414081D01*
X39914081Y-39289713D01*
X40007656Y-39140789D01*
X40065746Y-38974777D01*
X40066137Y-38971313D01*
X40085439Y-38800002D01*
X40085439Y-38799997D01*
X40065747Y-38625228D01*
X40065746Y-38625226D01*
X40065746Y-38625223D01*
X40056921Y-38600002D01*
X46314561Y-38600002D01*
X46334252Y-38774771D01*
X46392344Y-38940790D01*
X46407381Y-38964721D01*
X46485919Y-39089713D01*
X46610287Y-39214081D01*
X46663228Y-39247346D01*
X46745522Y-39299055D01*
X46759211Y-39307656D01*
X46925223Y-39365746D01*
X46925226Y-39365746D01*
X46925228Y-39365747D01*
X47099997Y-39385439D01*
X47100000Y-39385439D01*
X47100003Y-39385439D01*
X47274771Y-39365747D01*
X47274772Y-39365746D01*
X47274777Y-39365746D01*
X47440789Y-39307656D01*
X47589713Y-39214081D01*
X47714081Y-39089713D01*
X47807656Y-38940789D01*
X47865746Y-38774777D01*
X47879088Y-38656371D01*
X47885439Y-38600002D01*
X47885439Y-38599997D01*
X47865747Y-38425228D01*
X47865746Y-38425226D01*
X47865746Y-38425223D01*
X47807656Y-38259211D01*
X47714081Y-38110287D01*
X47589713Y-37985919D01*
X47440790Y-37892344D01*
X47274771Y-37834252D01*
X47100003Y-37814561D01*
X47099997Y-37814561D01*
X46925228Y-37834252D01*
X46759209Y-37892344D01*
X46610286Y-37985919D01*
X46485919Y-38110286D01*
X46392344Y-38259209D01*
X46334252Y-38425228D01*
X46314561Y-38599997D01*
X46314561Y-38600002D01*
X40056921Y-38600002D01*
X40007656Y-38459211D01*
X39914081Y-38310287D01*
X39789713Y-38185919D01*
X39640790Y-38092344D01*
X39474771Y-38034252D01*
X39300003Y-38014561D01*
X39299997Y-38014561D01*
X39125228Y-38034252D01*
X38959209Y-38092344D01*
X38810286Y-38185919D01*
X38685919Y-38310286D01*
X38592344Y-38459209D01*
X38534252Y-38625228D01*
X38514561Y-38799997D01*
X38514561Y-38800002D01*
X32149290Y-38800002D01*
X32199546Y-38656377D01*
X32199698Y-38655034D01*
X32215563Y-38514224D01*
X32242629Y-38449810D01*
X32300224Y-38410255D01*
X32324900Y-38404887D01*
X32494771Y-38385747D01*
X32494772Y-38385746D01*
X32494777Y-38385746D01*
X32660789Y-38327656D01*
X32809713Y-38234081D01*
X32934081Y-38109713D01*
X33027656Y-37960789D01*
X33085746Y-37794777D01*
X33087943Y-37775284D01*
X33105439Y-37620002D01*
X33105439Y-37619997D01*
X33085747Y-37445228D01*
X33085746Y-37445226D01*
X33085746Y-37445223D01*
X33027656Y-37279211D01*
X33019195Y-37265746D01*
X32982694Y-37207655D01*
X32934081Y-37130287D01*
X32809713Y-37005919D01*
X32780587Y-36987618D01*
X32660790Y-36912344D01*
X32494771Y-36854252D01*
X32320003Y-36834561D01*
X32319997Y-36834561D01*
X32145228Y-36854252D01*
X31979209Y-36912344D01*
X31830286Y-37005919D01*
X31700995Y-37135211D01*
X31700097Y-37134313D01*
X31648830Y-37170288D01*
X31579018Y-37173128D01*
X31543116Y-37157823D01*
X31471694Y-37112946D01*
X31471690Y-37112944D01*
X31305671Y-37054852D01*
X31130903Y-37035161D01*
X31130897Y-37035161D01*
X30956128Y-37054852D01*
X30790109Y-37112944D01*
X30641183Y-37206521D01*
X30641182Y-37206522D01*
X30597195Y-37250508D01*
X30535872Y-37283992D01*
X30466180Y-37279006D01*
X30438394Y-37264401D01*
X30402739Y-37239436D01*
X30381412Y-37229491D01*
X30344719Y-37212380D01*
X30292282Y-37166210D01*
X30273130Y-37099016D01*
X30293346Y-37032135D01*
X30344719Y-36987619D01*
X30402737Y-36960565D01*
X30589142Y-36830044D01*
X30750050Y-36669136D01*
X30880571Y-36482731D01*
X30976742Y-36276493D01*
X31035638Y-36056689D01*
X31055471Y-35829997D01*
X31049853Y-35765787D01*
X31063619Y-35697289D01*
X31112234Y-35647106D01*
X31180262Y-35631172D01*
X31214331Y-35637938D01*
X31265223Y-35655746D01*
X31265226Y-35655746D01*
X31265228Y-35655747D01*
X31439997Y-35675439D01*
X31440000Y-35675439D01*
X31440003Y-35675439D01*
X31614771Y-35655747D01*
X31614772Y-35655746D01*
X31614777Y-35655746D01*
X31780789Y-35597656D01*
X31929713Y-35504081D01*
X32054081Y-35379713D01*
X32147656Y-35230789D01*
X32205746Y-35064777D01*
X32210554Y-35022111D01*
X32225439Y-34890002D01*
X32225439Y-34889997D01*
X32205747Y-34715228D01*
X32205746Y-34715226D01*
X32205746Y-34715223D01*
X32147656Y-34549211D01*
X32127247Y-34516731D01*
X32083817Y-34447612D01*
X32054081Y-34400287D01*
X31929713Y-34275919D01*
X31916066Y-34267344D01*
X31780790Y-34182344D01*
X31628715Y-34129131D01*
X31614777Y-34124254D01*
X31614776Y-34124253D01*
X31614771Y-34124252D01*
X31440003Y-34104561D01*
X31439997Y-34104561D01*
X31265228Y-34124252D01*
X31099209Y-34182344D01*
X30950286Y-34275919D01*
X30941721Y-34284484D01*
X30880397Y-34317967D01*
X30842680Y-34315268D01*
X30845786Y-34323594D01*
X30830935Y-34391867D01*
X30827096Y-34398413D01*
X30732344Y-34549210D01*
X30732342Y-34549214D01*
X30679326Y-34700724D01*
X30638605Y-34757500D01*
X30573652Y-34783247D01*
X30505090Y-34769791D01*
X30491169Y-34761349D01*
X30402737Y-34699429D01*
X30344721Y-34672375D01*
X30292283Y-34626203D01*
X30273131Y-34559010D01*
X30293347Y-34492128D01*
X30344719Y-34447614D01*
X30402737Y-34420560D01*
X30589142Y-34290039D01*
X30634420Y-34244761D01*
X30695743Y-34211275D01*
X30733466Y-34213972D01*
X30730359Y-34205641D01*
X30745213Y-34137369D01*
X30752468Y-34125677D01*
X30880571Y-33942726D01*
X30976742Y-33736488D01*
X31035638Y-33516684D01*
X31052644Y-33322305D01*
X31055471Y-33289993D01*
X31055471Y-33289990D01*
X31044781Y-33167807D01*
X31035638Y-33063300D01*
X30976742Y-32843496D01*
X30880571Y-32637258D01*
X30750050Y-32450853D01*
X30750048Y-32450850D01*
X30589144Y-32289946D01*
X30402737Y-32159424D01*
X30402735Y-32159423D01*
X30344722Y-32132371D01*
X30292283Y-32086198D01*
X30273131Y-32019005D01*
X30293347Y-31952123D01*
X30332494Y-31918202D01*
X32836361Y-31918202D01*
X32856052Y-32092971D01*
X32856053Y-32092976D01*
X32856054Y-32092977D01*
X32866759Y-32123571D01*
X32914144Y-32258990D01*
X32970535Y-32348735D01*
X33007719Y-32407913D01*
X33132087Y-32532281D01*
X33281011Y-32625856D01*
X33447023Y-32683946D01*
X33447026Y-32683946D01*
X33447028Y-32683947D01*
X33621797Y-32703639D01*
X33621800Y-32703639D01*
X33621803Y-32703639D01*
X33796571Y-32683947D01*
X33796572Y-32683946D01*
X33796577Y-32683946D01*
X33962589Y-32625856D01*
X34111513Y-32532281D01*
X34235881Y-32407913D01*
X34329456Y-32258989D01*
X34364296Y-32159423D01*
X34387544Y-32092984D01*
X34387547Y-32092972D01*
X34398769Y-31993368D01*
X34425835Y-31928954D01*
X34434298Y-31919580D01*
X36674253Y-29679625D01*
X36735574Y-29646142D01*
X36805266Y-29651126D01*
X36861199Y-29692998D01*
X36868482Y-29704991D01*
X36868639Y-29704893D01*
X36965919Y-29859713D01*
X37090287Y-29984081D01*
X37132581Y-30010656D01*
X37225030Y-30068746D01*
X37239211Y-30077656D01*
X37405223Y-30135746D01*
X37405226Y-30135746D01*
X37405228Y-30135747D01*
X37461122Y-30142045D01*
X37525536Y-30169111D01*
X37565092Y-30226706D01*
X37567229Y-30296543D01*
X37531271Y-30356450D01*
X37488195Y-30382306D01*
X37459509Y-30392344D01*
X37409208Y-30409945D01*
X37260286Y-30503519D01*
X37135919Y-30627886D01*
X37042344Y-30776809D01*
X36984252Y-30942828D01*
X36964561Y-31117597D01*
X36964561Y-31117603D01*
X36971709Y-31181047D01*
X36959654Y-31249869D01*
X36914463Y-31299922D01*
X36859091Y-31334715D01*
X36859084Y-31334721D01*
X36734719Y-31459086D01*
X36641144Y-31608009D01*
X36583052Y-31774028D01*
X36563361Y-31948797D01*
X36563361Y-31948802D01*
X36583052Y-32123571D01*
X36616829Y-32220101D01*
X36620390Y-32289880D01*
X36587469Y-32348735D01*
X36485920Y-32450285D01*
X36485919Y-32450286D01*
X36392344Y-32599209D01*
X36334252Y-32765228D01*
X36314561Y-32939997D01*
X36314561Y-32940002D01*
X36334252Y-33114771D01*
X36392344Y-33280790D01*
X36485919Y-33429713D01*
X36610287Y-33554081D01*
X36759211Y-33647656D01*
X36925223Y-33705746D01*
X36925226Y-33705746D01*
X36925228Y-33705747D01*
X36989540Y-33712992D01*
X37031265Y-33717694D01*
X37095679Y-33744760D01*
X37135234Y-33802354D01*
X37137373Y-33872191D01*
X37134424Y-33881866D01*
X37119253Y-33925224D01*
X37119252Y-33925226D01*
X37101877Y-34079444D01*
X37074811Y-34143858D01*
X37017216Y-34183414D01*
X36978657Y-34189561D01*
X36974997Y-34189561D01*
X36800228Y-34209252D01*
X36634209Y-34267344D01*
X36501110Y-34350976D01*
X36433873Y-34369976D01*
X36367038Y-34349608D01*
X36347457Y-34333663D01*
X36219713Y-34205919D01*
X36070790Y-34112344D01*
X35904771Y-34054252D01*
X35730003Y-34034561D01*
X35729997Y-34034561D01*
X35555228Y-34054252D01*
X35389209Y-34112344D01*
X35240288Y-34205918D01*
X35126836Y-34319370D01*
X35065513Y-34352854D01*
X34995821Y-34347870D01*
X34973183Y-34336682D01*
X34870789Y-34272344D01*
X34870790Y-34272344D01*
X34704771Y-34214252D01*
X34530003Y-34194561D01*
X34529997Y-34194561D01*
X34355228Y-34214252D01*
X34189209Y-34272344D01*
X34040286Y-34365919D01*
X33915919Y-34490286D01*
X33822344Y-34639209D01*
X33764252Y-34805228D01*
X33744561Y-34979997D01*
X33744561Y-34980002D01*
X33764252Y-35154771D01*
X33822344Y-35320790D01*
X33904870Y-35452129D01*
X33915919Y-35469713D01*
X34040287Y-35594081D01*
X34110087Y-35637939D01*
X34188677Y-35687321D01*
X34189211Y-35687656D01*
X34355223Y-35745746D01*
X34355226Y-35745746D01*
X34355228Y-35745747D01*
X34529997Y-35765439D01*
X34530000Y-35765439D01*
X34530003Y-35765439D01*
X34704771Y-35745747D01*
X34704772Y-35745746D01*
X34704777Y-35745746D01*
X34870789Y-35687656D01*
X35019713Y-35594081D01*
X35133166Y-35480627D01*
X35194485Y-35447145D01*
X35264177Y-35452129D01*
X35286816Y-35463317D01*
X35389207Y-35527654D01*
X35389211Y-35527656D01*
X35555223Y-35585746D01*
X35555226Y-35585746D01*
X35555228Y-35585747D01*
X35729997Y-35605439D01*
X35730000Y-35605439D01*
X35730003Y-35605439D01*
X35904771Y-35585747D01*
X35904772Y-35585746D01*
X35904777Y-35585746D01*
X36070789Y-35527656D01*
X36203889Y-35444023D01*
X36271125Y-35425023D01*
X36337960Y-35445390D01*
X36357542Y-35461336D01*
X36360919Y-35464713D01*
X36485287Y-35589081D01*
X36542097Y-35624777D01*
X36591385Y-35655747D01*
X36634211Y-35682656D01*
X36800223Y-35740746D01*
X36800226Y-35740746D01*
X36800228Y-35740747D01*
X36974997Y-35760439D01*
X36975000Y-35760439D01*
X36975003Y-35760439D01*
X37149771Y-35740747D01*
X37149772Y-35740746D01*
X37149777Y-35740746D01*
X37315789Y-35682656D01*
X37376327Y-35644617D01*
X37443561Y-35625617D01*
X37483251Y-35632568D01*
X37635223Y-35685746D01*
X37649207Y-35687321D01*
X37713621Y-35714386D01*
X37753178Y-35771979D01*
X37755318Y-35841816D01*
X37740323Y-35876511D01*
X37732344Y-35889209D01*
X37674252Y-36055228D01*
X37654561Y-36229997D01*
X37654561Y-36230002D01*
X37674252Y-36404771D01*
X37720118Y-36535851D01*
X37723679Y-36605630D01*
X37708070Y-36642777D01*
X37622345Y-36779208D01*
X37622344Y-36779211D01*
X37596086Y-36854254D01*
X37593850Y-36860643D01*
X37553128Y-36917419D01*
X37488175Y-36943166D01*
X37419613Y-36929710D01*
X37369211Y-36881322D01*
X37353588Y-36833571D01*
X37335747Y-36675228D01*
X37335746Y-36675226D01*
X37335746Y-36675223D01*
X37277656Y-36509211D01*
X37271868Y-36500000D01*
X37199885Y-36385439D01*
X37184081Y-36360287D01*
X37059713Y-36235919D01*
X37050288Y-36229997D01*
X36910790Y-36142344D01*
X36744771Y-36084252D01*
X36570003Y-36064561D01*
X36569997Y-36064561D01*
X36395228Y-36084252D01*
X36229209Y-36142344D01*
X36080286Y-36235919D01*
X35955919Y-36360286D01*
X35862344Y-36509209D01*
X35804252Y-36675228D01*
X35784561Y-36849997D01*
X35784561Y-36850002D01*
X35804252Y-37024771D01*
X35804253Y-37024776D01*
X35804254Y-37024777D01*
X35806829Y-37032135D01*
X35862344Y-37190790D01*
X35909443Y-37265747D01*
X35955919Y-37339713D01*
X36080287Y-37464081D01*
X36097310Y-37474777D01*
X36228378Y-37557133D01*
X36229211Y-37557656D01*
X36395223Y-37615746D01*
X36395226Y-37615746D01*
X36395228Y-37615747D01*
X36569997Y-37635439D01*
X36570000Y-37635439D01*
X36570003Y-37635439D01*
X36744771Y-37615747D01*
X36744772Y-37615746D01*
X36744777Y-37615746D01*
X36910789Y-37557656D01*
X37059713Y-37464081D01*
X37184081Y-37339713D01*
X37277656Y-37190789D01*
X37306150Y-37109355D01*
X37346870Y-37052581D01*
X37411822Y-37026833D01*
X37480384Y-37040288D01*
X37530788Y-37088675D01*
X37546411Y-37136427D01*
X37564252Y-37294771D01*
X37622344Y-37460790D01*
X37666373Y-37530861D01*
X37715919Y-37609713D01*
X37840287Y-37734081D01*
X37989211Y-37827656D01*
X38155223Y-37885746D01*
X38155226Y-37885746D01*
X38155228Y-37885747D01*
X38329997Y-37905439D01*
X38330000Y-37905439D01*
X38330003Y-37905439D01*
X38504771Y-37885747D01*
X38504772Y-37885746D01*
X38504777Y-37885746D01*
X38670789Y-37827656D01*
X38819713Y-37734081D01*
X38944081Y-37609713D01*
X39037656Y-37460789D01*
X39093918Y-37300002D01*
X41524561Y-37300002D01*
X41544252Y-37474771D01*
X41602344Y-37640790D01*
X41660963Y-37734081D01*
X41695919Y-37789713D01*
X41820287Y-37914081D01*
X41969211Y-38007656D01*
X42135223Y-38065746D01*
X42135226Y-38065746D01*
X42135228Y-38065747D01*
X42309997Y-38085439D01*
X42310000Y-38085439D01*
X42310003Y-38085439D01*
X42484771Y-38065747D01*
X42484772Y-38065746D01*
X42484777Y-38065746D01*
X42650789Y-38007656D01*
X42799713Y-37914081D01*
X42924081Y-37789713D01*
X43017656Y-37640789D01*
X43075746Y-37474777D01*
X43076952Y-37464080D01*
X43095439Y-37300002D01*
X43095439Y-37299997D01*
X43075747Y-37125228D01*
X43075746Y-37125226D01*
X43075746Y-37125223D01*
X43017656Y-36959211D01*
X42924081Y-36810287D01*
X42799713Y-36685919D01*
X42782698Y-36675228D01*
X42650790Y-36592344D01*
X42484771Y-36534252D01*
X42310003Y-36514561D01*
X42309997Y-36514561D01*
X42135228Y-36534252D01*
X41969209Y-36592344D01*
X41820286Y-36685919D01*
X41695919Y-36810286D01*
X41602344Y-36959209D01*
X41544252Y-37125228D01*
X41524561Y-37299997D01*
X41524561Y-37300002D01*
X39093918Y-37300002D01*
X39095746Y-37294777D01*
X39096962Y-37283992D01*
X39115439Y-37120002D01*
X39115439Y-37119997D01*
X39095747Y-36945228D01*
X39095746Y-36945226D01*
X39095746Y-36945223D01*
X39049880Y-36814147D01*
X39046320Y-36744370D01*
X39061929Y-36707223D01*
X39085859Y-36669138D01*
X39147656Y-36570789D01*
X39172425Y-36500002D01*
X43278361Y-36500002D01*
X43298052Y-36674771D01*
X43356144Y-36840790D01*
X43421764Y-36945223D01*
X43449719Y-36989713D01*
X43574087Y-37114081D01*
X43609651Y-37136427D01*
X43721204Y-37206521D01*
X43723011Y-37207656D01*
X43889023Y-37265746D01*
X43889026Y-37265746D01*
X43889028Y-37265747D01*
X44063797Y-37285439D01*
X44063800Y-37285439D01*
X44063803Y-37285439D01*
X44238571Y-37265747D01*
X44238572Y-37265746D01*
X44238577Y-37265746D01*
X44404589Y-37207656D01*
X44553513Y-37114081D01*
X44677881Y-36989713D01*
X44771456Y-36840789D01*
X44829546Y-36674777D01*
X44830182Y-36669138D01*
X44849239Y-36500002D01*
X44849239Y-36499997D01*
X44829547Y-36325228D01*
X44829546Y-36325226D01*
X44829546Y-36325223D01*
X44820721Y-36300002D01*
X47914561Y-36300002D01*
X47934252Y-36474771D01*
X47992344Y-36640790D01*
X48079318Y-36779208D01*
X48085919Y-36789713D01*
X48210287Y-36914081D01*
X48282108Y-36959209D01*
X48356446Y-37005919D01*
X48359211Y-37007656D01*
X48525223Y-37065746D01*
X48525226Y-37065746D01*
X48525228Y-37065747D01*
X48699997Y-37085439D01*
X48700000Y-37085439D01*
X48700003Y-37085439D01*
X48874771Y-37065747D01*
X48874772Y-37065746D01*
X48874777Y-37065746D01*
X49040789Y-37007656D01*
X49189713Y-36914081D01*
X49314081Y-36789713D01*
X49407656Y-36640789D01*
X49465746Y-36474777D01*
X49473634Y-36404777D01*
X49485439Y-36300002D01*
X49485439Y-36299997D01*
X49465747Y-36125228D01*
X49465746Y-36125226D01*
X49465746Y-36125223D01*
X49407656Y-35959211D01*
X49396081Y-35940790D01*
X49326466Y-35829998D01*
X49314081Y-35810287D01*
X49189713Y-35685919D01*
X49173034Y-35675439D01*
X49040790Y-35592344D01*
X48874771Y-35534252D01*
X48700003Y-35514561D01*
X48699997Y-35514561D01*
X48525228Y-35534252D01*
X48359209Y-35592344D01*
X48210286Y-35685919D01*
X48085919Y-35810286D01*
X47992344Y-35959209D01*
X47934252Y-36125228D01*
X47914561Y-36299997D01*
X47914561Y-36300002D01*
X44820721Y-36300002D01*
X44771456Y-36159211D01*
X44770478Y-36157655D01*
X44724356Y-36084252D01*
X44677881Y-36010287D01*
X44553513Y-35885919D01*
X44538540Y-35876511D01*
X44404590Y-35792344D01*
X44238571Y-35734252D01*
X44063803Y-35714561D01*
X44063797Y-35714561D01*
X43889028Y-35734252D01*
X43723009Y-35792344D01*
X43574086Y-35885919D01*
X43449719Y-36010286D01*
X43356144Y-36159209D01*
X43298052Y-36325228D01*
X43278361Y-36499997D01*
X43278361Y-36500002D01*
X39172425Y-36500002D01*
X39205746Y-36404777D01*
X39207772Y-36386788D01*
X39234838Y-36322376D01*
X39290040Y-36283629D01*
X39310431Y-36276494D01*
X39335689Y-36267656D01*
X39481101Y-36176287D01*
X39548336Y-36157288D01*
X39588026Y-36164240D01*
X39616151Y-36174081D01*
X39735223Y-36215746D01*
X39735226Y-36215746D01*
X39735228Y-36215747D01*
X39909997Y-36235439D01*
X39910000Y-36235439D01*
X39910003Y-36235439D01*
X40084771Y-36215747D01*
X40084772Y-36215746D01*
X40084777Y-36215746D01*
X40250789Y-36157656D01*
X40399713Y-36064081D01*
X40524081Y-35939713D01*
X40539884Y-35914561D01*
X40592217Y-35868271D01*
X40661270Y-35857621D01*
X40725119Y-35885995D01*
X40758663Y-35934833D01*
X40759323Y-35934516D01*
X40761380Y-35938789D01*
X40761917Y-35939570D01*
X40762343Y-35940787D01*
X40762343Y-35940789D01*
X40835172Y-36056694D01*
X40855919Y-36089713D01*
X40980287Y-36214081D01*
X41014278Y-36235439D01*
X41117029Y-36300002D01*
X41129211Y-36307656D01*
X41295223Y-36365746D01*
X41295226Y-36365746D01*
X41295228Y-36365747D01*
X41469997Y-36385439D01*
X41470000Y-36385439D01*
X41470003Y-36385439D01*
X41644771Y-36365747D01*
X41644772Y-36365746D01*
X41644777Y-36365746D01*
X41810789Y-36307656D01*
X41959713Y-36214081D01*
X42084081Y-36089713D01*
X42177656Y-35940789D01*
X42235746Y-35774777D01*
X42236062Y-35771979D01*
X42255439Y-35600002D01*
X42255439Y-35599997D01*
X42235747Y-35425228D01*
X42235746Y-35425226D01*
X42235746Y-35425223D01*
X42177656Y-35259211D01*
X42084081Y-35110287D01*
X41959713Y-34985919D01*
X41918920Y-34960287D01*
X41810790Y-34892344D01*
X41644771Y-34834252D01*
X41470003Y-34814561D01*
X41469997Y-34814561D01*
X41295228Y-34834252D01*
X41129209Y-34892344D01*
X40980286Y-34985919D01*
X40855919Y-35110286D01*
X40855915Y-35110291D01*
X40840113Y-35135440D01*
X40787778Y-35181730D01*
X40718724Y-35192377D01*
X40654876Y-35164001D01*
X40621338Y-35115165D01*
X40620677Y-35115484D01*
X40618612Y-35111196D01*
X40618079Y-35110420D01*
X40618034Y-35110291D01*
X40617656Y-35109211D01*
X40524081Y-34960287D01*
X40399713Y-34835919D01*
X40365722Y-34814561D01*
X40250790Y-34742344D01*
X40084771Y-34684252D01*
X39910003Y-34664561D01*
X39909997Y-34664561D01*
X39735228Y-34684252D01*
X39569209Y-34742344D01*
X39423799Y-34833712D01*
X39356562Y-34852712D01*
X39316873Y-34845760D01*
X39271693Y-34829951D01*
X39169677Y-34794254D01*
X39169676Y-34794253D01*
X39169671Y-34794252D01*
X38994903Y-34774561D01*
X38994897Y-34774561D01*
X38820126Y-34794252D01*
X38734728Y-34824134D01*
X38664949Y-34827695D01*
X38604322Y-34792965D01*
X38576733Y-34748046D01*
X38575746Y-34745226D01*
X38575746Y-34745223D01*
X38533093Y-34623330D01*
X38529533Y-34553554D01*
X38545143Y-34516405D01*
X38579623Y-34461530D01*
X38592656Y-34440789D01*
X38650746Y-34274777D01*
X38657566Y-34214254D01*
X38670439Y-34100002D01*
X38670439Y-34099997D01*
X38650747Y-33925228D01*
X38650746Y-33925224D01*
X38650746Y-33925223D01*
X38592656Y-33759211D01*
X38499081Y-33610287D01*
X38374713Y-33485919D01*
X38285262Y-33429713D01*
X38225790Y-33392344D01*
X38059771Y-33334252D01*
X37953733Y-33322305D01*
X37889319Y-33295238D01*
X37849764Y-33237644D01*
X37847627Y-33167807D01*
X37850576Y-33158130D01*
X37865747Y-33114774D01*
X37885439Y-32940002D01*
X37885439Y-32939997D01*
X37865747Y-32765226D01*
X37865746Y-32765223D01*
X37831969Y-32668696D01*
X37828407Y-32598921D01*
X37861327Y-32540066D01*
X37962881Y-32438513D01*
X38056456Y-32289589D01*
X38114546Y-32123577D01*
X38117995Y-32092972D01*
X38134239Y-31948802D01*
X38134239Y-31948797D01*
X38127090Y-31885352D01*
X38139144Y-31816530D01*
X38184335Y-31766476D01*
X38239713Y-31731681D01*
X38364081Y-31607313D01*
X38457656Y-31458389D01*
X38515746Y-31292377D01*
X38517917Y-31273114D01*
X38535439Y-31117602D01*
X38535439Y-31117597D01*
X38515747Y-30942828D01*
X38515746Y-30942826D01*
X38515746Y-30942823D01*
X38457656Y-30776811D01*
X38440801Y-30749987D01*
X38364080Y-30627886D01*
X38239713Y-30503519D01*
X38090790Y-30409944D01*
X37961523Y-30364712D01*
X37924777Y-30351854D01*
X37924776Y-30351853D01*
X37924771Y-30351852D01*
X37868875Y-30345554D01*
X37804461Y-30318487D01*
X37764907Y-30260891D01*
X37762770Y-30191054D01*
X37798729Y-30131148D01*
X37841803Y-30105294D01*
X37920789Y-30077656D01*
X38069713Y-29984081D01*
X38194081Y-29859713D01*
X38287656Y-29710789D01*
X38345746Y-29544777D01*
X38353158Y-29479000D01*
X38365439Y-29370002D01*
X38365439Y-29369997D01*
X38345747Y-29195228D01*
X38345746Y-29195226D01*
X38345746Y-29195223D01*
X38287656Y-29029211D01*
X38265075Y-28993273D01*
X38246074Y-28926036D01*
X38266441Y-28859201D01*
X38319709Y-28813986D01*
X38363645Y-28804662D01*
X38363606Y-28804361D01*
X38367458Y-28803853D01*
X38370068Y-28803300D01*
X38371664Y-28803300D01*
X38371666Y-28803300D01*
X38518035Y-28764081D01*
X38649265Y-28688315D01*
X38882773Y-28454805D01*
X38944092Y-28421323D01*
X38956566Y-28419269D01*
X38969928Y-28417763D01*
X39056172Y-28408047D01*
X39056175Y-28408046D01*
X39056177Y-28408046D01*
X39056179Y-28408045D01*
X39056184Y-28408044D01*
X39144047Y-28377298D01*
X39222189Y-28349956D01*
X39371113Y-28256381D01*
X39495481Y-28132013D01*
X39589056Y-27983089D01*
X39647146Y-27817077D01*
X39648004Y-27809467D01*
X39666839Y-27642302D01*
X39666839Y-27642297D01*
X39647147Y-27467528D01*
X39647146Y-27467526D01*
X39647146Y-27467523D01*
X39589056Y-27301511D01*
X39581682Y-27289776D01*
X39495480Y-27152586D01*
X39371113Y-27028219D01*
X39222190Y-26934644D01*
X39056171Y-26876552D01*
X38881403Y-26856861D01*
X38881397Y-26856861D01*
X38706628Y-26876552D01*
X38540609Y-26934644D01*
X38391686Y-27028219D01*
X38267319Y-27152586D01*
X38173744Y-27301509D01*
X38115652Y-27467528D01*
X38107241Y-27542184D01*
X38080174Y-27606598D01*
X38022580Y-27646153D01*
X37984021Y-27652300D01*
X37236434Y-27652300D01*
X37090063Y-27691519D01*
X36958835Y-27767285D01*
X36958832Y-27767287D01*
X33620427Y-31105691D01*
X33559104Y-31139176D01*
X33546630Y-31141230D01*
X33447028Y-31152452D01*
X33281009Y-31210544D01*
X33132086Y-31304119D01*
X33007719Y-31428486D01*
X32914144Y-31577409D01*
X32856052Y-31743428D01*
X32836361Y-31918197D01*
X32836361Y-31918202D01*
X30332494Y-31918202D01*
X30344719Y-31907609D01*
X30402737Y-31880555D01*
X30589142Y-31750034D01*
X30750050Y-31589126D01*
X30880571Y-31402721D01*
X30976742Y-31196483D01*
X31035638Y-30976679D01*
X31055471Y-30749987D01*
X31035638Y-30523295D01*
X30976742Y-30303491D01*
X30880571Y-30097253D01*
X30750050Y-29910848D01*
X30750048Y-29910845D01*
X30589144Y-29749941D01*
X30402737Y-29619419D01*
X30402735Y-29619418D01*
X30344722Y-29592366D01*
X30292283Y-29546193D01*
X30273131Y-29479000D01*
X30293347Y-29412118D01*
X30344719Y-29367604D01*
X30402737Y-29340550D01*
X30589142Y-29210029D01*
X30750050Y-29049121D01*
X30819842Y-28949446D01*
X30874415Y-28905823D01*
X30943914Y-28898629D01*
X31006269Y-28930151D01*
X31009096Y-28932890D01*
X31130287Y-29054081D01*
X31193560Y-29093838D01*
X31268802Y-29141116D01*
X31279211Y-29147656D01*
X31445223Y-29205746D01*
X31445226Y-29205746D01*
X31445228Y-29205747D01*
X31619997Y-29225439D01*
X31620000Y-29225439D01*
X31620003Y-29225439D01*
X31794771Y-29205747D01*
X31794772Y-29205746D01*
X31794777Y-29205746D01*
X31960789Y-29147656D01*
X32109713Y-29054081D01*
X32234081Y-28929713D01*
X32327656Y-28780789D01*
X32385746Y-28614777D01*
X32393516Y-28545824D01*
X32405439Y-28440002D01*
X32405439Y-28439997D01*
X32385747Y-28265228D01*
X32385746Y-28265226D01*
X32385746Y-28265223D01*
X32327656Y-28099211D01*
X32234081Y-27950287D01*
X32109713Y-27825919D01*
X32095641Y-27817077D01*
X31960790Y-27732344D01*
X31794771Y-27674252D01*
X31620003Y-27654561D01*
X31619997Y-27654561D01*
X31445228Y-27674252D01*
X31279209Y-27732344D01*
X31153024Y-27811632D01*
X31085787Y-27830632D01*
X31018952Y-27810264D01*
X30974670Y-27759043D01*
X30960269Y-27728160D01*
X30880571Y-27557248D01*
X30750050Y-27370843D01*
X30750048Y-27370840D01*
X30589144Y-27209936D01*
X30402737Y-27079414D01*
X30402735Y-27079413D01*
X30344722Y-27052361D01*
X30292283Y-27006188D01*
X30273131Y-26938995D01*
X30293347Y-26872113D01*
X30344719Y-26827599D01*
X30402737Y-26800545D01*
X30589142Y-26670024D01*
X30729164Y-26530002D01*
X35534561Y-26530002D01*
X35554252Y-26704771D01*
X35612344Y-26870790D01*
X35705919Y-27019713D01*
X35830287Y-27144081D01*
X35897523Y-27186328D01*
X35950452Y-27219586D01*
X35979211Y-27237656D01*
X36145223Y-27295746D01*
X36145226Y-27295746D01*
X36145228Y-27295747D01*
X36319997Y-27315439D01*
X36320000Y-27315439D01*
X36320003Y-27315439D01*
X36494771Y-27295747D01*
X36494772Y-27295746D01*
X36494777Y-27295746D01*
X36660789Y-27237656D01*
X36809713Y-27144081D01*
X36934081Y-27019713D01*
X37027656Y-26870789D01*
X37085746Y-26704777D01*
X37089576Y-26670790D01*
X37105439Y-26530002D01*
X37105439Y-26529997D01*
X37085747Y-26355228D01*
X37085746Y-26355226D01*
X37085746Y-26355223D01*
X37027656Y-26189211D01*
X36934081Y-26040287D01*
X36809713Y-25915919D01*
X36807886Y-25914771D01*
X36660790Y-25822344D01*
X36494771Y-25764252D01*
X36320003Y-25744561D01*
X36319997Y-25744561D01*
X36145228Y-25764252D01*
X35979209Y-25822344D01*
X35830286Y-25915919D01*
X35705919Y-26040286D01*
X35612344Y-26189209D01*
X35554252Y-26355228D01*
X35534561Y-26529997D01*
X35534561Y-26530002D01*
X30729164Y-26530002D01*
X30750050Y-26509116D01*
X30880571Y-26322711D01*
X30976742Y-26116473D01*
X31035638Y-25896669D01*
X31055471Y-25669977D01*
X31053053Y-25642344D01*
X31045978Y-25561476D01*
X31035638Y-25443285D01*
X30976742Y-25223481D01*
X30880571Y-25017243D01*
X30750050Y-24830838D01*
X30750048Y-24830835D01*
X30589144Y-24669931D01*
X30402737Y-24539409D01*
X30402735Y-24539408D01*
X30344722Y-24512356D01*
X30330691Y-24500002D01*
X32084561Y-24500002D01*
X32104252Y-24674771D01*
X32162344Y-24840790D01*
X32246204Y-24974252D01*
X32255919Y-24989713D01*
X32380287Y-25114081D01*
X32529211Y-25207656D01*
X32695223Y-25265746D01*
X32695226Y-25265746D01*
X32695228Y-25265747D01*
X32852248Y-25283439D01*
X32916662Y-25310505D01*
X32956218Y-25368100D01*
X32958355Y-25437937D01*
X32955407Y-25447613D01*
X32914252Y-25565228D01*
X32894561Y-25739997D01*
X32894561Y-25740002D01*
X32914252Y-25914771D01*
X32972344Y-26080790D01*
X33031684Y-26175228D01*
X33065919Y-26229713D01*
X33190287Y-26354081D01*
X33339211Y-26447656D01*
X33505223Y-26505746D01*
X33505226Y-26505746D01*
X33505228Y-26505747D01*
X33679997Y-26525439D01*
X33680000Y-26525439D01*
X33680003Y-26525439D01*
X33854771Y-26505747D01*
X33854772Y-26505746D01*
X33854777Y-26505746D01*
X34020789Y-26447656D01*
X34169713Y-26354081D01*
X34294081Y-26229713D01*
X34387656Y-26080789D01*
X34445746Y-25914777D01*
X34447787Y-25896669D01*
X34465439Y-25740002D01*
X34465439Y-25739997D01*
X34445747Y-25565228D01*
X34445746Y-25565226D01*
X34445746Y-25565223D01*
X34387656Y-25399211D01*
X34294081Y-25250287D01*
X34169713Y-25125919D01*
X34138136Y-25106078D01*
X34020790Y-25032344D01*
X33854771Y-24974252D01*
X33697750Y-24956560D01*
X33633336Y-24929493D01*
X33593781Y-24871898D01*
X33591644Y-24802061D01*
X33594593Y-24792385D01*
X33595654Y-24789355D01*
X33635746Y-24674777D01*
X33635746Y-24674776D01*
X33635747Y-24674774D01*
X33655439Y-24500002D01*
X33655439Y-24499997D01*
X33635747Y-24325228D01*
X33635746Y-24325226D01*
X33635746Y-24325223D01*
X33577656Y-24159211D01*
X33559313Y-24130019D01*
X33505752Y-24044777D01*
X33484081Y-24010287D01*
X33359713Y-23885919D01*
X33334381Y-23870002D01*
X36264561Y-23870002D01*
X36284252Y-24044771D01*
X36342344Y-24210790D01*
X36414251Y-24325228D01*
X36435919Y-24359713D01*
X36560287Y-24484081D01*
X36709211Y-24577656D01*
X36875223Y-24635746D01*
X36875226Y-24635746D01*
X36875228Y-24635747D01*
X37049997Y-24655439D01*
X37050000Y-24655439D01*
X37050003Y-24655439D01*
X37224771Y-24635747D01*
X37224772Y-24635746D01*
X37224777Y-24635746D01*
X37390789Y-24577656D01*
X37539713Y-24484081D01*
X37664081Y-24359713D01*
X37757656Y-24210789D01*
X37815746Y-24044777D01*
X37815747Y-24044771D01*
X37815748Y-24044768D01*
X37817298Y-24037981D01*
X37818841Y-24038333D01*
X37842664Y-23981625D01*
X37900256Y-23942065D01*
X37970093Y-23939921D01*
X38004797Y-23954920D01*
X38006918Y-23956252D01*
X38009311Y-23957756D01*
X38175323Y-24015846D01*
X38175326Y-24015846D01*
X38175328Y-24015847D01*
X38350097Y-24035539D01*
X38350100Y-24035539D01*
X38350103Y-24035539D01*
X38524871Y-24015847D01*
X38524872Y-24015846D01*
X38524877Y-24015846D01*
X38690889Y-23957756D01*
X38768782Y-23908812D01*
X38836014Y-23889813D01*
X38902849Y-23910180D01*
X38922432Y-23926126D01*
X39010387Y-24014081D01*
X39159311Y-24107656D01*
X39325323Y-24165746D01*
X39325326Y-24165746D01*
X39325328Y-24165747D01*
X39500097Y-24185439D01*
X39500100Y-24185439D01*
X39500103Y-24185439D01*
X39674871Y-24165747D01*
X39674872Y-24165746D01*
X39674877Y-24165746D01*
X39840889Y-24107656D01*
X39989813Y-24014081D01*
X40114181Y-23889713D01*
X40207756Y-23740789D01*
X40265846Y-23574777D01*
X40266070Y-23572796D01*
X40285539Y-23400002D01*
X40285539Y-23399997D01*
X40265847Y-23225228D01*
X40265846Y-23225226D01*
X40265846Y-23225223D01*
X40207756Y-23059211D01*
X40114181Y-22910287D01*
X39989813Y-22785919D01*
X39949179Y-22760387D01*
X39840890Y-22692344D01*
X39674871Y-22634252D01*
X39500103Y-22614561D01*
X39500097Y-22614561D01*
X39325328Y-22634252D01*
X39159309Y-22692344D01*
X39081420Y-22741286D01*
X39014183Y-22760286D01*
X38947348Y-22739918D01*
X38927767Y-22723973D01*
X38839813Y-22636019D01*
X38690890Y-22542444D01*
X38524871Y-22484352D01*
X38350103Y-22464661D01*
X38350097Y-22464661D01*
X38175328Y-22484352D01*
X38009309Y-22542444D01*
X37860386Y-22636019D01*
X37736019Y-22760386D01*
X37642444Y-22909309D01*
X37584351Y-23075331D01*
X37582802Y-23082119D01*
X37581262Y-23081767D01*
X37557419Y-23138493D01*
X37499820Y-23178042D01*
X37429983Y-23180172D01*
X37395305Y-23165181D01*
X37390790Y-23162344D01*
X37224771Y-23104252D01*
X37050003Y-23084561D01*
X37049997Y-23084561D01*
X36875228Y-23104252D01*
X36709209Y-23162344D01*
X36560286Y-23255919D01*
X36435919Y-23380286D01*
X36342344Y-23529209D01*
X36284252Y-23695228D01*
X36264561Y-23869997D01*
X36264561Y-23870002D01*
X33334381Y-23870002D01*
X33325117Y-23864181D01*
X33210790Y-23792344D01*
X33044771Y-23734252D01*
X32870003Y-23714561D01*
X32869997Y-23714561D01*
X32695228Y-23734252D01*
X32529209Y-23792344D01*
X32380286Y-23885919D01*
X32255919Y-24010286D01*
X32162344Y-24159209D01*
X32104252Y-24325228D01*
X32084561Y-24499997D01*
X32084561Y-24500002D01*
X30330691Y-24500002D01*
X30292283Y-24466183D01*
X30273131Y-24398990D01*
X30293347Y-24332108D01*
X30344719Y-24287594D01*
X30402737Y-24260540D01*
X30589142Y-24130019D01*
X30750050Y-23969111D01*
X30880571Y-23782706D01*
X30976742Y-23576468D01*
X31035638Y-23356664D01*
X31055471Y-23129972D01*
X31035638Y-22903280D01*
X30976742Y-22683476D01*
X30880571Y-22477238D01*
X30794051Y-22353674D01*
X32779358Y-22353674D01*
X32817806Y-22546960D01*
X32817809Y-22546970D01*
X32893223Y-22729038D01*
X32893230Y-22729051D01*
X33002719Y-22892912D01*
X33002722Y-22892916D01*
X33142073Y-23032267D01*
X33142077Y-23032270D01*
X33305938Y-23141759D01*
X33305951Y-23141766D01*
X33398673Y-23180172D01*
X33488024Y-23217182D01*
X33488028Y-23217182D01*
X33488029Y-23217183D01*
X33681315Y-23255631D01*
X33681318Y-23255631D01*
X33878402Y-23255631D01*
X34031244Y-23225228D01*
X34071694Y-23217182D01*
X34253773Y-23141763D01*
X34417641Y-23032270D01*
X34556998Y-22892913D01*
X34666491Y-22729045D01*
X34741910Y-22546966D01*
X34767109Y-22420286D01*
X34780359Y-22353674D01*
X34780359Y-21907709D01*
X34800044Y-21840670D01*
X34852848Y-21794915D01*
X34922006Y-21784971D01*
X34966359Y-21800322D01*
X34997397Y-21818242D01*
X35137407Y-21855758D01*
X35137410Y-21855758D01*
X35282354Y-21855758D01*
X35282357Y-21855758D01*
X35422367Y-21818242D01*
X35547897Y-21745767D01*
X35650391Y-21643273D01*
X35722866Y-21517743D01*
X35760382Y-21377733D01*
X35760382Y-21377479D01*
X40439418Y-21377479D01*
X40476934Y-21517489D01*
X40476935Y-21517492D01*
X40549406Y-21643015D01*
X40549408Y-21643017D01*
X40549409Y-21643019D01*
X40651903Y-21745513D01*
X40651904Y-21745514D01*
X40651906Y-21745515D01*
X40777429Y-21817986D01*
X40777430Y-21817986D01*
X40777433Y-21817988D01*
X40917443Y-21855504D01*
X40917446Y-21855504D01*
X41062390Y-21855504D01*
X41062393Y-21855504D01*
X41202403Y-21817988D01*
X41233439Y-21800068D01*
X41301339Y-21783595D01*
X41367366Y-21806446D01*
X41410558Y-21861367D01*
X41419441Y-21907455D01*
X41419441Y-22353672D01*
X41419441Y-22353674D01*
X41419440Y-22353674D01*
X41457888Y-22546960D01*
X41457890Y-22546966D01*
X41474318Y-22586628D01*
X41482228Y-22605723D01*
X41489697Y-22675193D01*
X41458422Y-22737672D01*
X41455349Y-22740857D01*
X41385918Y-22810288D01*
X41292344Y-22959209D01*
X41234252Y-23125228D01*
X41225072Y-23206705D01*
X41198005Y-23271119D01*
X41140410Y-23310674D01*
X41123317Y-23314393D01*
X41123319Y-23314402D01*
X41116531Y-23315951D01*
X40950509Y-23374044D01*
X40801586Y-23467619D01*
X40677219Y-23591986D01*
X40583644Y-23740909D01*
X40525552Y-23906928D01*
X40505861Y-24081697D01*
X40505861Y-24081702D01*
X40525552Y-24256471D01*
X40583644Y-24422490D01*
X40657110Y-24539410D01*
X40677219Y-24571413D01*
X40801587Y-24695781D01*
X40950511Y-24789356D01*
X41116523Y-24847446D01*
X41116526Y-24847446D01*
X41116528Y-24847447D01*
X41291297Y-24867139D01*
X41291300Y-24867139D01*
X41291303Y-24867139D01*
X41466071Y-24847447D01*
X41466072Y-24847446D01*
X41466077Y-24847446D01*
X41608500Y-24797609D01*
X41678279Y-24794049D01*
X41738906Y-24828778D01*
X41771133Y-24890771D01*
X41772674Y-24900763D01*
X41774253Y-24914771D01*
X41774254Y-24914777D01*
X41805095Y-25002916D01*
X41832344Y-25080790D01*
X41912059Y-25207655D01*
X41925919Y-25229713D01*
X42050287Y-25354081D01*
X42091795Y-25380162D01*
X42199142Y-25447613D01*
X42199211Y-25447656D01*
X42256780Y-25467800D01*
X42313556Y-25508522D01*
X42339304Y-25573474D01*
X42325848Y-25642036D01*
X42281798Y-25689836D01*
X42240288Y-25715918D01*
X42192679Y-25763526D01*
X42131355Y-25797010D01*
X42061663Y-25792024D01*
X42017318Y-25763524D01*
X41949713Y-25695919D01*
X41800790Y-25602344D01*
X41634771Y-25544252D01*
X41460003Y-25524561D01*
X41459997Y-25524561D01*
X41285228Y-25544252D01*
X41119209Y-25602344D01*
X40970286Y-25695919D01*
X40845919Y-25820286D01*
X40752344Y-25969209D01*
X40694252Y-26135228D01*
X40674561Y-26309997D01*
X40674561Y-26310002D01*
X40694252Y-26484771D01*
X40752344Y-26650790D01*
X40801935Y-26729713D01*
X40845919Y-26799713D01*
X40970287Y-26924081D01*
X41018062Y-26954100D01*
X41106203Y-27009483D01*
X41119211Y-27017656D01*
X41285223Y-27075746D01*
X41285226Y-27075746D01*
X41285228Y-27075747D01*
X41459997Y-27095439D01*
X41460000Y-27095439D01*
X41460003Y-27095439D01*
X41634771Y-27075747D01*
X41634772Y-27075746D01*
X41634777Y-27075746D01*
X41800789Y-27017656D01*
X41949713Y-26924081D01*
X41997319Y-26876475D01*
X42058642Y-26842990D01*
X42128334Y-26847974D01*
X42172681Y-26876475D01*
X42240287Y-26944081D01*
X42272117Y-26964081D01*
X42369767Y-27025439D01*
X42389211Y-27037656D01*
X42555223Y-27095746D01*
X42555226Y-27095746D01*
X42555228Y-27095747D01*
X42729997Y-27115439D01*
X42730000Y-27115439D01*
X42730003Y-27115439D01*
X42904771Y-27095747D01*
X42904772Y-27095746D01*
X42904777Y-27095746D01*
X43070789Y-27037656D01*
X43219713Y-26944081D01*
X43344081Y-26819713D01*
X43437656Y-26670789D01*
X43495746Y-26504777D01*
X43497836Y-26486235D01*
X43513186Y-26350002D01*
X45404561Y-26350002D01*
X45424252Y-26524771D01*
X45482344Y-26690790D01*
X45551308Y-26800545D01*
X45575919Y-26839713D01*
X45700287Y-26964081D01*
X45766597Y-27005746D01*
X45817379Y-27037655D01*
X45849211Y-27057656D01*
X46015223Y-27115746D01*
X46015226Y-27115746D01*
X46015228Y-27115747D01*
X46116571Y-27127165D01*
X46133564Y-27129080D01*
X46197978Y-27156146D01*
X46224673Y-27186326D01*
X46295919Y-27299713D01*
X46420287Y-27424081D01*
X46569211Y-27517656D01*
X46735223Y-27575746D01*
X46735226Y-27575746D01*
X46735228Y-27575747D01*
X46909997Y-27595439D01*
X46910000Y-27595439D01*
X46910003Y-27595439D01*
X47084771Y-27575747D01*
X47084772Y-27575746D01*
X47084777Y-27575746D01*
X47250789Y-27517656D01*
X47297052Y-27488586D01*
X47364286Y-27469586D01*
X47431122Y-27489953D01*
X47450704Y-27505898D01*
X47512987Y-27568181D01*
X47661911Y-27661756D01*
X47782044Y-27703792D01*
X47838820Y-27744514D01*
X47864568Y-27809467D01*
X47864310Y-27834717D01*
X47844561Y-28009996D01*
X47844561Y-28010002D01*
X47864252Y-28184771D01*
X47864253Y-28184776D01*
X47864254Y-28184777D01*
X47874953Y-28215352D01*
X47922344Y-28350790D01*
X48007809Y-28486806D01*
X48026809Y-28554043D01*
X48006441Y-28620878D01*
X47953173Y-28666092D01*
X47883917Y-28675329D01*
X47836843Y-28657772D01*
X47737489Y-28595344D01*
X47737490Y-28595344D01*
X47571471Y-28537252D01*
X47396703Y-28517561D01*
X47396697Y-28517561D01*
X47221927Y-28537252D01*
X47221920Y-28537254D01*
X47207606Y-28542263D01*
X47137827Y-28545824D01*
X47077200Y-28511094D01*
X47063193Y-28493158D01*
X47061780Y-28491386D01*
X46937413Y-28367019D01*
X46788490Y-28273444D01*
X46622471Y-28215352D01*
X46447703Y-28195661D01*
X46447697Y-28195661D01*
X46272928Y-28215352D01*
X46106909Y-28273444D01*
X45957986Y-28367019D01*
X45833619Y-28491386D01*
X45740044Y-28640309D01*
X45681952Y-28806328D01*
X45662261Y-28981097D01*
X45662261Y-28981102D01*
X45681952Y-29155871D01*
X45740044Y-29321890D01*
X45833619Y-29470813D01*
X45957987Y-29595181D01*
X46106911Y-29688756D01*
X46272923Y-29746846D01*
X46272926Y-29746846D01*
X46272928Y-29746847D01*
X46447697Y-29766539D01*
X46447700Y-29766539D01*
X46447703Y-29766539D01*
X46622472Y-29746847D01*
X46622473Y-29746846D01*
X46622477Y-29746846D01*
X46636791Y-29741836D01*
X46706569Y-29738274D01*
X46767196Y-29773002D01*
X46781198Y-29790930D01*
X46782619Y-29792713D01*
X46906987Y-29917081D01*
X47055911Y-30010656D01*
X47221923Y-30068746D01*
X47221926Y-30068746D01*
X47221928Y-30068747D01*
X47396697Y-30088439D01*
X47396700Y-30088439D01*
X47396703Y-30088439D01*
X47571471Y-30068747D01*
X47571472Y-30068746D01*
X47571477Y-30068746D01*
X47737489Y-30010656D01*
X47886413Y-29917081D01*
X48010781Y-29792713D01*
X48104356Y-29643789D01*
X48162446Y-29477777D01*
X48167217Y-29435439D01*
X48182139Y-29303002D01*
X48182139Y-29302997D01*
X48171653Y-29209938D01*
X48183707Y-29141116D01*
X48231056Y-29089737D01*
X48298666Y-29072112D01*
X48365072Y-29093838D01*
X48399864Y-29130077D01*
X48405919Y-29139713D01*
X48530287Y-29264081D01*
X48679211Y-29357656D01*
X48845223Y-29415746D01*
X48845226Y-29415746D01*
X48845228Y-29415747D01*
X49019997Y-29435439D01*
X49020000Y-29435439D01*
X49020003Y-29435439D01*
X49194771Y-29415747D01*
X49194772Y-29415746D01*
X49194777Y-29415746D01*
X49360789Y-29357656D01*
X49509713Y-29264081D01*
X49634081Y-29139713D01*
X49727656Y-28990789D01*
X49785746Y-28824777D01*
X49787826Y-28806323D01*
X49805439Y-28650002D01*
X49805439Y-28649997D01*
X49785747Y-28475228D01*
X49785746Y-28475226D01*
X49785746Y-28475223D01*
X49727656Y-28309211D01*
X49634081Y-28160287D01*
X49509713Y-28035919D01*
X49461960Y-28005914D01*
X49415669Y-27953579D01*
X49404712Y-27914808D01*
X49395746Y-27835223D01*
X49395745Y-27835219D01*
X49395744Y-27835215D01*
X49337657Y-27669214D01*
X49337656Y-27669210D01*
X49244080Y-27520286D01*
X49119713Y-27395919D01*
X48970790Y-27302344D01*
X48909591Y-27280930D01*
X48850653Y-27260306D01*
X48793879Y-27219586D01*
X48768131Y-27154634D01*
X48768389Y-27129382D01*
X48769926Y-27115746D01*
X48778724Y-27037656D01*
X48788139Y-26954102D01*
X48788139Y-26954097D01*
X48768447Y-26779328D01*
X48768446Y-26779326D01*
X48768446Y-26779323D01*
X48710356Y-26613311D01*
X48616781Y-26464387D01*
X48492413Y-26340019D01*
X48451550Y-26314343D01*
X48405260Y-26262009D01*
X48394612Y-26192956D01*
X48400477Y-26168411D01*
X48415746Y-26124777D01*
X48425266Y-26040286D01*
X48435439Y-25950002D01*
X48435439Y-25949997D01*
X48415747Y-25775228D01*
X48415746Y-25775226D01*
X48415746Y-25775223D01*
X48357656Y-25609211D01*
X48354778Y-25604632D01*
X48335778Y-25537399D01*
X48354778Y-25472688D01*
X48357850Y-25467800D01*
X48437656Y-25340789D01*
X48476523Y-25229713D01*
X48495744Y-25174784D01*
X48495745Y-25174779D01*
X48495746Y-25174777D01*
X48503486Y-25106073D01*
X48530551Y-25041663D01*
X48585753Y-25002916D01*
X48600789Y-24997656D01*
X48749713Y-24904081D01*
X48874081Y-24779713D01*
X48967656Y-24630789D01*
X49025746Y-24464777D01*
X49027750Y-24446996D01*
X49045439Y-24290002D01*
X49045439Y-24289997D01*
X49025747Y-24115228D01*
X49025746Y-24115226D01*
X49025746Y-24115223D01*
X48967656Y-23949211D01*
X48945582Y-23914081D01*
X48917886Y-23870002D01*
X48874081Y-23800287D01*
X48832013Y-23758219D01*
X48798528Y-23696896D01*
X48803512Y-23627204D01*
X48845384Y-23571271D01*
X48853697Y-23565561D01*
X48919713Y-23524081D01*
X49044081Y-23399713D01*
X49137656Y-23250789D01*
X49195746Y-23084777D01*
X49195771Y-23084561D01*
X49215439Y-22910002D01*
X49215439Y-22909997D01*
X49195747Y-22735228D01*
X49195746Y-22735226D01*
X49195746Y-22735223D01*
X49137656Y-22569211D01*
X49109406Y-22524252D01*
X49079866Y-22477239D01*
X49044081Y-22420287D01*
X48919713Y-22295919D01*
X48911614Y-22290830D01*
X48805115Y-22223912D01*
X48758824Y-22171577D01*
X48747867Y-22132801D01*
X48735747Y-22025227D01*
X48735744Y-22025215D01*
X48677657Y-21859214D01*
X48677656Y-21859210D01*
X48606376Y-21745769D01*
X48584081Y-21710287D01*
X48459713Y-21585919D01*
X48310790Y-21492344D01*
X48144771Y-21434252D01*
X47970003Y-21414561D01*
X47969997Y-21414561D01*
X47795228Y-21434252D01*
X47629209Y-21492344D01*
X47480286Y-21585919D01*
X47355919Y-21710286D01*
X47262345Y-21859208D01*
X47218615Y-21984182D01*
X47177893Y-22040958D01*
X47112940Y-22066705D01*
X47044378Y-22053249D01*
X46993976Y-22004861D01*
X46978353Y-21957110D01*
X46965747Y-21845228D01*
X46965746Y-21845226D01*
X46965746Y-21845223D01*
X46907656Y-21679211D01*
X46901234Y-21668991D01*
X46814080Y-21530286D01*
X46689713Y-21405919D01*
X46540790Y-21312344D01*
X46374771Y-21254252D01*
X46200003Y-21234561D01*
X46199997Y-21234561D01*
X46025228Y-21254252D01*
X45859209Y-21312344D01*
X45710286Y-21405919D01*
X45585919Y-21530286D01*
X45492344Y-21679209D01*
X45434252Y-21845228D01*
X45414561Y-22019997D01*
X45414561Y-22020002D01*
X45434252Y-22194771D01*
X45492344Y-22360790D01*
X45557611Y-22464661D01*
X45585919Y-22509713D01*
X45710287Y-22634081D01*
X45776872Y-22675919D01*
X45853349Y-22723973D01*
X45859211Y-22727656D01*
X46025223Y-22785746D01*
X46025226Y-22785746D01*
X46025228Y-22785747D01*
X46199997Y-22805439D01*
X46200000Y-22805439D01*
X46200003Y-22805439D01*
X46374771Y-22785747D01*
X46374772Y-22785746D01*
X46374777Y-22785746D01*
X46540789Y-22727656D01*
X46689713Y-22634081D01*
X46814081Y-22509713D01*
X46907656Y-22360789D01*
X46951386Y-22235814D01*
X46992105Y-22179042D01*
X47057058Y-22153294D01*
X47125620Y-22166750D01*
X47176023Y-22215137D01*
X47191646Y-22262888D01*
X47204252Y-22374771D01*
X47262344Y-22540790D01*
X47355919Y-22689713D01*
X47480289Y-22814083D01*
X47560182Y-22864282D01*
X47594883Y-22886086D01*
X47641175Y-22938420D01*
X47652132Y-22977197D01*
X47664252Y-23084771D01*
X47664253Y-23084776D01*
X47664254Y-23084777D01*
X47674909Y-23115228D01*
X47722344Y-23250790D01*
X47815919Y-23399713D01*
X47815920Y-23399714D01*
X47857986Y-23441781D01*
X47891470Y-23503104D01*
X47886485Y-23572796D01*
X47844613Y-23628729D01*
X47836277Y-23634454D01*
X47770288Y-23675917D01*
X47645919Y-23800286D01*
X47552344Y-23949209D01*
X47494252Y-24115228D01*
X47486512Y-24183925D01*
X47459445Y-24248339D01*
X47404250Y-24287081D01*
X47389212Y-24292343D01*
X47389208Y-24292345D01*
X47240286Y-24385919D01*
X47115919Y-24510286D01*
X47022344Y-24659209D01*
X46964252Y-24825228D01*
X46944561Y-24999997D01*
X46944561Y-25000002D01*
X46964252Y-25174771D01*
X46964253Y-25174776D01*
X46964254Y-25174777D01*
X46968358Y-25186505D01*
X47022344Y-25340790D01*
X47025223Y-25345372D01*
X47044221Y-25412609D01*
X47025221Y-25477312D01*
X46942344Y-25609210D01*
X46942342Y-25609214D01*
X46906600Y-25711358D01*
X46865878Y-25768134D01*
X46800926Y-25793881D01*
X46732364Y-25780425D01*
X46701878Y-25758084D01*
X46679713Y-25735919D01*
X46530790Y-25642344D01*
X46364771Y-25584252D01*
X46190003Y-25564561D01*
X46189997Y-25564561D01*
X46015228Y-25584252D01*
X45849209Y-25642344D01*
X45700286Y-25735919D01*
X45575919Y-25860286D01*
X45482344Y-26009209D01*
X45424252Y-26175228D01*
X45404561Y-26349997D01*
X45404561Y-26350002D01*
X43513186Y-26350002D01*
X43515439Y-26330002D01*
X43515439Y-26329997D01*
X43495747Y-26155228D01*
X43495746Y-26155226D01*
X43495746Y-26155223D01*
X43437656Y-25989211D01*
X43418025Y-25957969D01*
X43344080Y-25840286D01*
X43219713Y-25715919D01*
X43070789Y-25622343D01*
X43070785Y-25622342D01*
X43013218Y-25602198D01*
X42956442Y-25561476D01*
X42930695Y-25496524D01*
X42944152Y-25427962D01*
X42988199Y-25380165D01*
X43029713Y-25354081D01*
X43154081Y-25229713D01*
X43247656Y-25080789D01*
X43275925Y-25000002D01*
X43614561Y-25000002D01*
X43634252Y-25174771D01*
X43634253Y-25174776D01*
X43634254Y-25174777D01*
X43638358Y-25186505D01*
X43692344Y-25340790D01*
X43778127Y-25477312D01*
X43785919Y-25489713D01*
X43910287Y-25614081D01*
X43998372Y-25669429D01*
X44040531Y-25695919D01*
X44059211Y-25707656D01*
X44225223Y-25765746D01*
X44225226Y-25765746D01*
X44225228Y-25765747D01*
X44399997Y-25785439D01*
X44400000Y-25785439D01*
X44400003Y-25785439D01*
X44574771Y-25765747D01*
X44574772Y-25765746D01*
X44574777Y-25765746D01*
X44740789Y-25707656D01*
X44889713Y-25614081D01*
X45014081Y-25489713D01*
X45107656Y-25340789D01*
X45165746Y-25174777D01*
X45174172Y-25100002D01*
X45185439Y-25000002D01*
X45185439Y-24999997D01*
X45165747Y-24825228D01*
X45165746Y-24825226D01*
X45165746Y-24825223D01*
X45107656Y-24659211D01*
X45014081Y-24510287D01*
X44889713Y-24385919D01*
X44740790Y-24292344D01*
X44574771Y-24234252D01*
X44400003Y-24214561D01*
X44399997Y-24214561D01*
X44225228Y-24234252D01*
X44059209Y-24292344D01*
X43910286Y-24385919D01*
X43785919Y-24510286D01*
X43692344Y-24659209D01*
X43634252Y-24825228D01*
X43614561Y-24999997D01*
X43614561Y-25000002D01*
X43275925Y-25000002D01*
X43305746Y-24914777D01*
X43306952Y-24904080D01*
X43325439Y-24740002D01*
X43325439Y-24739997D01*
X43305747Y-24565228D01*
X43305746Y-24565226D01*
X43305746Y-24565223D01*
X43247656Y-24399211D01*
X43242683Y-24391297D01*
X43180506Y-24292343D01*
X43154081Y-24250287D01*
X43029713Y-24125919D01*
X43012698Y-24115228D01*
X42880790Y-24032344D01*
X42714771Y-23974252D01*
X42708553Y-23973552D01*
X42644139Y-23946485D01*
X42604585Y-23888889D01*
X42602448Y-23819052D01*
X42617442Y-23784362D01*
X42707656Y-23640789D01*
X42764709Y-23477737D01*
X42805428Y-23420966D01*
X42870381Y-23395218D01*
X42938943Y-23408674D01*
X42989346Y-23457061D01*
X42998789Y-23477738D01*
X43025909Y-23555243D01*
X43052344Y-23630790D01*
X43104981Y-23714561D01*
X43145919Y-23779713D01*
X43270287Y-23904081D01*
X43327326Y-23939921D01*
X43380849Y-23973552D01*
X43419211Y-23997656D01*
X43585223Y-24055746D01*
X43585226Y-24055746D01*
X43585228Y-24055747D01*
X43759997Y-24075439D01*
X43760000Y-24075439D01*
X43760003Y-24075439D01*
X43934771Y-24055747D01*
X43934772Y-24055746D01*
X43934777Y-24055746D01*
X44100789Y-23997656D01*
X44249713Y-23904081D01*
X44374081Y-23779713D01*
X44467656Y-23630789D01*
X44525746Y-23464777D01*
X44526616Y-23457061D01*
X44545439Y-23290002D01*
X44545439Y-23289997D01*
X44525747Y-23115228D01*
X44525746Y-23115226D01*
X44525746Y-23115223D01*
X44467656Y-22949211D01*
X44443198Y-22910287D01*
X44402138Y-22844940D01*
X44374081Y-22800287D01*
X44249713Y-22675919D01*
X44202893Y-22646500D01*
X44100790Y-22582344D01*
X43966210Y-22535253D01*
X43934777Y-22524254D01*
X43934776Y-22524253D01*
X43934771Y-22524252D01*
X43760003Y-22504561D01*
X43759997Y-22504561D01*
X43585225Y-22524253D01*
X43585222Y-22524253D01*
X43576567Y-22527282D01*
X43506788Y-22530841D01*
X43446163Y-22496109D01*
X43413938Y-22434115D01*
X43414001Y-22386046D01*
X43420441Y-22353672D01*
X43420441Y-21256587D01*
X43381993Y-21063301D01*
X43381992Y-21063300D01*
X43381992Y-21063296D01*
X43378925Y-21055892D01*
X43306576Y-20881223D01*
X43306569Y-20881210D01*
X43197080Y-20717349D01*
X43197077Y-20717345D01*
X43057726Y-20577994D01*
X43057722Y-20577991D01*
X42893861Y-20468502D01*
X42893848Y-20468495D01*
X42711780Y-20393081D01*
X42711770Y-20393078D01*
X42518484Y-20354631D01*
X42518482Y-20354631D01*
X42321400Y-20354631D01*
X42321398Y-20354631D01*
X42128111Y-20393078D01*
X42128101Y-20393081D01*
X41946033Y-20468495D01*
X41946020Y-20468502D01*
X41782159Y-20577991D01*
X41782155Y-20577994D01*
X41642804Y-20717345D01*
X41642801Y-20717349D01*
X41541687Y-20868676D01*
X41488074Y-20913481D01*
X41418749Y-20922188D01*
X41355722Y-20892033D01*
X41350904Y-20887466D01*
X41327935Y-20864497D01*
X41327929Y-20864492D01*
X41202406Y-20792021D01*
X41202407Y-20792021D01*
X41190924Y-20788944D01*
X41062393Y-20754504D01*
X40917443Y-20754504D01*
X40788911Y-20788944D01*
X40777429Y-20792021D01*
X40651906Y-20864492D01*
X40651900Y-20864497D01*
X40549411Y-20966986D01*
X40549406Y-20966992D01*
X40476935Y-21092515D01*
X40476934Y-21092519D01*
X40439418Y-21232529D01*
X40439418Y-21377479D01*
X35760382Y-21377479D01*
X35760382Y-21232783D01*
X35722866Y-21092773D01*
X35722719Y-21092519D01*
X35650393Y-20967246D01*
X35650388Y-20967240D01*
X35547899Y-20864751D01*
X35547893Y-20864746D01*
X35422370Y-20792275D01*
X35422371Y-20792275D01*
X35387607Y-20782960D01*
X35282357Y-20754758D01*
X35137407Y-20754758D01*
X35032157Y-20782960D01*
X34997393Y-20792275D01*
X34871870Y-20864746D01*
X34848996Y-20887620D01*
X34787672Y-20921104D01*
X34717980Y-20916118D01*
X34662048Y-20874246D01*
X34658214Y-20868828D01*
X34556998Y-20717349D01*
X34556995Y-20717345D01*
X34417644Y-20577994D01*
X34417640Y-20577991D01*
X34253779Y-20468502D01*
X34253766Y-20468495D01*
X34071698Y-20393081D01*
X34071688Y-20393078D01*
X33878402Y-20354631D01*
X33878400Y-20354631D01*
X33681318Y-20354631D01*
X33681316Y-20354631D01*
X33488029Y-20393078D01*
X33488019Y-20393081D01*
X33305951Y-20468495D01*
X33305938Y-20468502D01*
X33142077Y-20577991D01*
X33142073Y-20577994D01*
X33002722Y-20717345D01*
X33002719Y-20717349D01*
X32893230Y-20881210D01*
X32893223Y-20881223D01*
X32817809Y-21063291D01*
X32817806Y-21063301D01*
X32779359Y-21256587D01*
X32779359Y-21256590D01*
X32779359Y-22353672D01*
X32779359Y-22353674D01*
X32779358Y-22353674D01*
X30794051Y-22353674D01*
X30750050Y-22290833D01*
X30750048Y-22290830D01*
X30589144Y-22129926D01*
X30402737Y-21999404D01*
X30402731Y-21999401D01*
X30344132Y-21972076D01*
X30291692Y-21925904D01*
X30272540Y-21858710D01*
X30292756Y-21791829D01*
X30344132Y-21747311D01*
X30402485Y-21720100D01*
X30475474Y-21668991D01*
X29879412Y-21072929D01*
X29942996Y-21055892D01*
X30057010Y-20990066D01*
X30150102Y-20896974D01*
X30215928Y-20782960D01*
X30232965Y-20719376D01*
X30829027Y-21315438D01*
X30880139Y-21242445D01*
X30976267Y-21036298D01*
X30976272Y-21036284D01*
X31035142Y-20816577D01*
X31035144Y-20816566D01*
X31054969Y-20589969D01*
X31054969Y-20589964D01*
X31035144Y-20363367D01*
X31035142Y-20363356D01*
X30976272Y-20143649D01*
X30976267Y-20143635D01*
X30880139Y-19937488D01*
X30880135Y-19937480D01*
X30829028Y-19864493D01*
X30232965Y-20460556D01*
X30215928Y-20396974D01*
X30150102Y-20282960D01*
X30057010Y-20189868D01*
X29942996Y-20124042D01*
X29879413Y-20107004D01*
X30286414Y-19700002D01*
X44414561Y-19700002D01*
X44434252Y-19874771D01*
X44492344Y-20040790D01*
X44544655Y-20124042D01*
X44585919Y-20189713D01*
X44710287Y-20314081D01*
X44774822Y-20354631D01*
X44842210Y-20396974D01*
X44859211Y-20407656D01*
X45025223Y-20465746D01*
X45025226Y-20465746D01*
X45025228Y-20465747D01*
X45199997Y-20485439D01*
X45200000Y-20485439D01*
X45200003Y-20485439D01*
X45374771Y-20465747D01*
X45374772Y-20465746D01*
X45374777Y-20465746D01*
X45540789Y-20407656D01*
X45689713Y-20314081D01*
X45814081Y-20189713D01*
X45907656Y-20040789D01*
X45965746Y-19874777D01*
X45979713Y-19750825D01*
X45985439Y-19700002D01*
X45985439Y-19699997D01*
X45965747Y-19525228D01*
X45965746Y-19525226D01*
X45965746Y-19525223D01*
X45907656Y-19359211D01*
X45902399Y-19350845D01*
X45814080Y-19210286D01*
X45689713Y-19085919D01*
X45540790Y-18992344D01*
X45374771Y-18934252D01*
X45200003Y-18914561D01*
X45199997Y-18914561D01*
X45025228Y-18934252D01*
X44859209Y-18992344D01*
X44710286Y-19085919D01*
X44585919Y-19210286D01*
X44492344Y-19359209D01*
X44434252Y-19525228D01*
X44414561Y-19699997D01*
X44414561Y-19700002D01*
X30286414Y-19700002D01*
X30475475Y-19510941D01*
X30402483Y-19459831D01*
X30344131Y-19432621D01*
X30291692Y-19386448D01*
X30272540Y-19319255D01*
X30292756Y-19252373D01*
X30344128Y-19207859D01*
X30402737Y-19180530D01*
X30589142Y-19050009D01*
X30750050Y-18889101D01*
X30880571Y-18702696D01*
X30976742Y-18496458D01*
X31035638Y-18276654D01*
X31055471Y-18049962D01*
X31053163Y-18023587D01*
X31043021Y-17907655D01*
X31035638Y-17823270D01*
X30976742Y-17603466D01*
X30880571Y-17397228D01*
X30750050Y-17210823D01*
X30750048Y-17210820D01*
X30589144Y-17049916D01*
X30402737Y-16919394D01*
X30402735Y-16919393D01*
X30196500Y-16823223D01*
X30196491Y-16823220D01*
X29976700Y-16764328D01*
X29976696Y-16764327D01*
X29976695Y-16764327D01*
X29976694Y-16764326D01*
X29976689Y-16764326D01*
X29790398Y-16748028D01*
X29750772Y-16732528D01*
X29733736Y-16743477D01*
X29709608Y-16748028D01*
X29523316Y-16764326D01*
X29523305Y-16764328D01*
X29303514Y-16823220D01*
X29303505Y-16823223D01*
X29097270Y-16919393D01*
X29097268Y-16919394D01*
X28910861Y-17049916D01*
X28749959Y-17210818D01*
X28732724Y-17235433D01*
X28678146Y-17279058D01*
X28608648Y-17286250D01*
X28546293Y-17254728D01*
X28510880Y-17194498D01*
X28507859Y-17177561D01*
X28504088Y-17142478D01*
X28453794Y-17007633D01*
X28453790Y-17007626D01*
X28367544Y-16892417D01*
X28367541Y-16892414D01*
X28252332Y-16806168D01*
X28252325Y-16806164D01*
X28117479Y-16755870D01*
X28117480Y-16755870D01*
X28057880Y-16749463D01*
X28057878Y-16749462D01*
X28057870Y-16749462D01*
X28057861Y-16749462D01*
X26362126Y-16749462D01*
X26362120Y-16749463D01*
X26302513Y-16755870D01*
X26167833Y-16806103D01*
X26098141Y-16811087D01*
X26036818Y-16777602D01*
X26003334Y-16716278D01*
X26000500Y-16689921D01*
X26000500Y-16624500D01*
X26020185Y-16557461D01*
X26072989Y-16511706D01*
X26124500Y-16500500D01*
X29698801Y-16500500D01*
X29751793Y-16516060D01*
G37*
G04 #@! TD.AperFunction*
G04 #@! TA.AperFunction,Conductor*
G36*
X29284078Y-53803026D02*
G01*
X29349904Y-53917040D01*
X29442996Y-54010132D01*
X29557010Y-54075958D01*
X29620593Y-54092995D01*
X29024529Y-54689058D01*
X29097516Y-54740165D01*
X29097520Y-54740167D01*
X29155874Y-54767378D01*
X29208313Y-54813550D01*
X29227465Y-54880744D01*
X29207249Y-54947625D01*
X29155874Y-54992142D01*
X29097270Y-55019469D01*
X29097268Y-55019470D01*
X28910861Y-55149992D01*
X28749957Y-55310896D01*
X28619435Y-55497303D01*
X28619434Y-55497305D01*
X28592382Y-55555319D01*
X28546209Y-55607758D01*
X28479016Y-55626910D01*
X28412134Y-55606694D01*
X28367618Y-55555319D01*
X28340565Y-55497305D01*
X28340564Y-55497303D01*
X28210042Y-55310896D01*
X28049138Y-55149992D01*
X27862731Y-55019470D01*
X27862729Y-55019469D01*
X27804716Y-54992417D01*
X27752277Y-54946244D01*
X27733125Y-54879051D01*
X27753341Y-54812169D01*
X27804713Y-54767655D01*
X27862731Y-54740601D01*
X28049136Y-54610080D01*
X28210044Y-54449172D01*
X28340565Y-54262767D01*
X28367895Y-54204157D01*
X28414064Y-54151722D01*
X28481258Y-54132569D01*
X28548139Y-54152784D01*
X28592657Y-54204160D01*
X28619867Y-54262513D01*
X28670977Y-54335505D01*
X29267040Y-53739442D01*
X29284078Y-53803026D01*
G37*
G04 #@! TD.AperFunction*
G04 #@! TA.AperFunction,Conductor*
G36*
X28547865Y-51613371D02*
G01*
X28592382Y-51664746D01*
X28619434Y-51722760D01*
X28619435Y-51722762D01*
X28749957Y-51909169D01*
X28910861Y-52070073D01*
X28910864Y-52070075D01*
X29097269Y-52200596D01*
X29155874Y-52227924D01*
X29208313Y-52274097D01*
X29227465Y-52341290D01*
X29207249Y-52408171D01*
X29155874Y-52452688D01*
X29097520Y-52479899D01*
X29097515Y-52479901D01*
X29024529Y-52531006D01*
X29024529Y-52531007D01*
X29620593Y-53127070D01*
X29557010Y-53144108D01*
X29442996Y-53209934D01*
X29349904Y-53303026D01*
X29284078Y-53417040D01*
X29267040Y-53480622D01*
X28670977Y-52884559D01*
X28670976Y-52884559D01*
X28619871Y-52957545D01*
X28619871Y-52957546D01*
X28592657Y-53015906D01*
X28546484Y-53068345D01*
X28479290Y-53087496D01*
X28412409Y-53067280D01*
X28367893Y-53015904D01*
X28340680Y-52957546D01*
X28340565Y-52957299D01*
X28210044Y-52770894D01*
X28210042Y-52770891D01*
X28049138Y-52609987D01*
X27862731Y-52479465D01*
X27862729Y-52479464D01*
X27804716Y-52452412D01*
X27752277Y-52406239D01*
X27733125Y-52339046D01*
X27753341Y-52272164D01*
X27804713Y-52227650D01*
X27862731Y-52200596D01*
X28049136Y-52070075D01*
X28210044Y-51909167D01*
X28340565Y-51722762D01*
X28367619Y-51664744D01*
X28413790Y-51612307D01*
X28480984Y-51593155D01*
X28547865Y-51613371D01*
G37*
G04 #@! TD.AperFunction*
G04 #@! TA.AperFunction,Conductor*
G36*
X29284078Y-20782960D02*
G01*
X29349904Y-20896974D01*
X29442996Y-20990066D01*
X29557010Y-21055892D01*
X29620593Y-21072929D01*
X29024529Y-21668992D01*
X29097516Y-21720099D01*
X29097520Y-21720101D01*
X29155874Y-21747312D01*
X29208313Y-21793484D01*
X29227465Y-21860678D01*
X29207249Y-21927559D01*
X29155874Y-21972076D01*
X29097270Y-21999403D01*
X29097268Y-21999404D01*
X28910861Y-22129926D01*
X28749957Y-22290830D01*
X28619435Y-22477237D01*
X28619434Y-22477239D01*
X28592382Y-22535253D01*
X28546209Y-22587692D01*
X28479016Y-22606844D01*
X28412134Y-22586628D01*
X28367618Y-22535253D01*
X28362489Y-22524254D01*
X28340565Y-22477238D01*
X28210044Y-22290833D01*
X28210042Y-22290830D01*
X28049138Y-22129926D01*
X27862731Y-21999404D01*
X27862729Y-21999403D01*
X27804716Y-21972351D01*
X27752277Y-21926178D01*
X27733125Y-21858985D01*
X27753341Y-21792103D01*
X27804713Y-21747589D01*
X27862731Y-21720535D01*
X28049136Y-21590014D01*
X28210044Y-21429106D01*
X28340565Y-21242701D01*
X28367895Y-21184091D01*
X28414064Y-21131656D01*
X28481258Y-21112503D01*
X28548139Y-21132718D01*
X28592657Y-21184094D01*
X28619867Y-21242447D01*
X28670977Y-21315439D01*
X29267040Y-20719376D01*
X29284078Y-20782960D01*
G37*
G04 #@! TD.AperFunction*
G04 #@! TA.AperFunction,Conductor*
G36*
X28721903Y-18851117D02*
G01*
X28732725Y-18864492D01*
X28749958Y-18889104D01*
X28910861Y-19050007D01*
X28910864Y-19050009D01*
X29097269Y-19180530D01*
X29155874Y-19207858D01*
X29208313Y-19254031D01*
X29227465Y-19321224D01*
X29207249Y-19388105D01*
X29155874Y-19432622D01*
X29097520Y-19459833D01*
X29097515Y-19459835D01*
X29024529Y-19510940D01*
X29024529Y-19510941D01*
X29620593Y-20107004D01*
X29557010Y-20124042D01*
X29442996Y-20189868D01*
X29349904Y-20282960D01*
X29284078Y-20396974D01*
X29267040Y-20460556D01*
X28670977Y-19864493D01*
X28670976Y-19864493D01*
X28619871Y-19937479D01*
X28619871Y-19937480D01*
X28592657Y-19995840D01*
X28546484Y-20048279D01*
X28479290Y-20067430D01*
X28412409Y-20047214D01*
X28367893Y-19995838D01*
X28340680Y-19937480D01*
X28340565Y-19937233D01*
X28210044Y-19750828D01*
X28210042Y-19750825D01*
X28049137Y-19589920D01*
X28024528Y-19572689D01*
X27980903Y-19518112D01*
X27973709Y-19448614D01*
X28005232Y-19386259D01*
X28065461Y-19350845D01*
X28082397Y-19347824D01*
X28117480Y-19344053D01*
X28252328Y-19293758D01*
X28367543Y-19207508D01*
X28453793Y-19092293D01*
X28504088Y-18957445D01*
X28507860Y-18922356D01*
X28534597Y-18857809D01*
X28591989Y-18817960D01*
X28661814Y-18815466D01*
X28721903Y-18851117D01*
G37*
G04 #@! TD.AperFunction*
M02*
